<?xml version="1.0" encoding="UTF-8" standalone="no"?>
<!-- Created with Inkscape (http://www.inkscape.org/) -->

<svg
   xmlns:dc="http://purl.org/dc/elements/1.1/"
   xmlns:cc="http://creativecommons.org/ns#"
   xmlns:rdf="http://www.w3.org/1999/02/22-rdf-syntax-ns#"
   xmlns:svg="http://www.w3.org/2000/svg"
   xmlns="http://www.w3.org/2000/svg"
   xmlns:xlink="http://www.w3.org/1999/xlink"
   version="1.0"
   width="1440"
   height="720"
   id="svg2"
   xml:space="preserve"
   style="fill-rule:evenodd"><metadata
     id="metadata92"><rdf:RDF><cc:Work
         rdf:about=""><dc:format>image/svg+xml</dc:format><dc:type
           rdf:resource="http://purl.org/dc/dcmitype/StillImage" /><dc:title></dc:title></cc:Work></rdf:RDF></metadata><defs
     id="defs4">
  <style
   type="text/css"
   id="style6" />
 
  
  
  
  
  
 
   
   
   
   
   
   
   
   
   
   
   
   
   
   
   
   
   
   
   
   
   
   
   
   
   
   
   
   
   
   
   
   
   
   
   
   
   
   
   
   
   
   
   
   
   
   
   
   
  
    
    
    
    
    
    
    
    
    
   
    
    
    
    
    
    
    
    
    
   
    
    
    
    
    
    
    
    
    
    
    
    
    
    
    
    
    
    
    
   </defs><rect
     width="1440"
     height="720"
     x="0"
     y="0"
     id="rect2533"
     style="fill:#f7e017;fill-rule:nonzero" /><polygon
     points="3600,875 3600,1300 0,550 0,125.001 0,125.001 "
     transform="scale(0.4,0.4)"
     id="path2535"
     style="fill:#ffffff" /><polygon
     points="3600,1300 3600,1675 0,925 0,550 0,550 "
     transform="scale(0.4,0.4)"
     id="path3422"
     style="fill:#000000" /><path
     d="M 695.74437,569.71758 C 676.37675,567.15157 658.62956,560.9882 646.29721,552.54513 643.90838,550.90967 641.66412,549.57158 641.30997,549.57158 640.95384,549.57158 640.66495,551.388 640.66358,553.63572 640.65978,560.01441 638.09616,563.21636 631.65524,564.88712 625.49505,566.48505 616.09702,563.26199 608.47817,556.93849 600.58885,550.39057 591.47744,545.39396 583.7683,543.38788 577.41574,541.73482 568.99142,541.99922 562.89973,544.04281 560.07171,544.99151 556.84549,546.33096 555.73035,547.01939 554.61521,547.70782 553.37157,548.27106 552.96676,548.27106 551.88621,548.27106 552.04248,541.41755 553.17286,539.23166 554.65837,536.35892 558.3339,533.53061 562.60548,531.97309 564.76748,531.18481 566.5364,530.16997 566.5364,529.71793 566.5364,529.26588 565.80837,527.62252 564.91856,526.06602 562.01642,520.98943 563.20573,516.06726 568.26856,512.20148 573.45175,508.24383 582.21742,507.55921 589.9716,510.50635 591.92442,511.24858 593.74165,511.85598 594.00987,511.85617 595.02664,511.85686 594.4059,510.43475 591.60136,506.3383 588.35539,501.59706 587.71524,499.2572 588.12272,493.6236 588.63975,486.47575 594.46173,480.63964 601.58955,480.12406 607.40986,479.70307 611.03443,481.65673 619.61805,489.84153 645.27311,514.30455 673.16234,527.78029 705.69202,531.43148 713.90189,532.35297 730.41836,531.85712 740.10924,530.39824 769.37957,525.99187 798.87012,511.27466 821.90287,489.57922 828.28139,483.57102 831.34888,481.97869 836.58278,481.95882 841.13096,481.94158 844.31814,483.40717 847.57715,487.01455 850.55346,490.30894 851.55644,493.44098 851.23779,498.44549 851.03295,501.66244 850.50722,503.23667 848.59906,506.34684 845.77918,510.94297 846.25843,511.36484 851.83631,509.1966 859.37868,506.26474 868.66626,507.61787 873.67973,512.37906 878.08921,516.56661 878.50787,520.75719 875.08476,526.44183 873.833,528.52061 872.80885,530.47298 872.80885,530.78045 872.80885,531.35176 873.75875,531.62269 878.33607,532.35685 884.32617,533.31763 887.76486,537.77351 887.76486,544.57481 887.76486,546.60775 887.51246,548.27106 887.20402,548.27106 886.89558,548.27106 884.62762,547.43992 882.16417,546.42406 875.17636,543.54254 871.20533,542.79968 863.05496,542.84935 856.83993,542.88721 854.69839,543.18143 850.37489,544.59136 843.73596,546.75633 836.64814,550.93534 830.86708,556.09326 824.50141,561.77275 820.49433,563.56443 814.28546,563.50729 808.5281,563.45433 804.58997,561.77508 802.51068,558.48642 801.39913,556.72837 801.24144,555.65605 801.51065,551.68493 801.68642,549.09201 801.65364,546.97055 801.43777,546.97055 801.22192,546.97055 798.9767,548.39491 796.44839,550.13577 789.81345,554.70432 785.57558,556.96031 777.98008,559.96723 754.79712,569.14494 721.35234,573.11032 695.74437,569.71758 z"
     id="path3152"
     style="fill:#cf1126;fill-opacity:1;fill-rule:evenodd" /><path
     d="M 802.72155,539.74588 C 806.84676,537.64136 812.25124,532.13833 814.46535,527.78787 816.22993,524.32071 816.47753,523.12612 816.68926,517.05858 816.88446,511.46528 816.7181,509.81937 815.76905,507.95494 814.70639,505.86724 814.37075,505.67903 811.71032,505.67903 809.13797,505.67903 808.64169,505.92885 807.32106,507.88853 805.41652,510.71468 805.22402,516.81384 806.97125,518.97156 808.06106,520.31744 808.21505,520.33466 810.52679,519.36874 813.74294,518.02495 814.28661,518.09064 814.27912,519.8222 814.25994,524.23872 807.93232,532.74169 801.29358,537.27193 799.50671,538.49126 797.90408,539.8555 797.73212,540.30356 797.24981,541.56048 799.70186,541.28639 802.72155,539.74588 z"
     id="path3138"
     style="fill:#ffcc00;fill-rule:evenodd" /><path
     d="M 711.04511,563.81822 C 715.03716,562.49853 717.30839,560.08384 718.94053,555.42392 719.75473,553.09925 720.30427,550.68517 720.16166,550.05929 719.82256,548.57099 718.10384,548.64629 716.19981,550.23286 714.89653,551.31887 714.74053,551.87264 715.11436,554.08538 716.06177,559.69306 714.07165,561.08266 703.46575,562.21904 702.42012,562.3311 699.37604,562.15103 696.70111,561.81894 691.66104,561.1932 689.86143,561.69167 691.68789,563.2075 692.24172,563.66715 693.64404,564.28687 694.80416,564.58468 697.62865,565.30974 708.01618,564.81954 711.04511,563.81822 z"
     id="path3150"
     style="fill:#ffd42a;fill-rule:evenodd" /><path
     d="M 733.018,562.8883 C 733.61906,562.34433 735.68038,561.39333 737.59877,560.77497 740.15616,559.95057 741.47874,559.06742 742.5562,557.46462 745.67119,552.83081 745.09099,548.84422 740.51753,543.45686 738.03914,540.5374 736.9369,540.61735 734.9599,543.85998 733.25026,546.66401 733.28858,546.83889 735.75206,547.47722 737.04093,547.8112 738.2782,548.75944 738.95817,549.9343 741.63993,554.568 740.84991,557.43956 736.88439,557.4721 733.27969,557.50168 732.29219,558.01092 731.31792,560.34266 730.81412,561.54847 730.40189,562.83705 730.40189,563.20616 730.40189,564.18988 731.76244,564.02456 733.018,562.8883 z"
     id="path3148"
     style="fill:#ffd42a;fill-rule:evenodd" /><path
     d="M 725.81422,557.65008 C 726.4926,555.80795 726.72626,552.50079 726.65484,545.75202 726.60046,540.6113 726.39669,536.24598 726.20205,536.05134 725.60389,535.45317 722.64252,537.35501 722.25094,538.58878 722.04775,539.22893 722.37505,540.70708 722.97827,541.87358 723.89995,543.65589 724.02098,545.32665 723.73656,552.33957 723.37714,561.2015 723.95883,562.68833 725.81422,557.65008 z"
     id="path3146"
     style="fill:#ffd42a;fill-rule:evenodd" /><path
     d="M 708.89205,553.429 C 709.24665,551.77549 709.71013,548.4023 709.92199,545.93298 710.13382,543.46366 710.63526,540.33724 711.03627,538.98534 712.06061,535.53216 711.03073,534.61704 708.30473,536.55809 L 706.26542,538.01021 706.69253,542.97806 C 707.0775,547.45598 706.37255,555.81341 705.33661,559.05275 705.06387,559.90561 705.46155,559.6888 706.59239,558.36812 707.50261,557.30509 708.53744,555.08249 708.89205,553.429 z"
     id="path3144"
     style="fill:#ffd42a;fill-rule:evenodd" /><path
     d="M 693.88449,555.84142 C 696.26529,553.66373 696.75378,552.30409 697.65564,545.34491 698.11912,541.76848 698.68705,537.8913 698.91771,536.72895 699.43428,534.12545 698.4071,533.94733 695.64075,536.16072 693.82963,537.60985 693.75977,537.83638 694.44038,540.05402 695.34227,542.99255 694.53549,550.26381 693.05725,552.51988 691.93349,554.23498 689.63115,554.62188 687.46082,553.46033 686.50848,552.95066 686.31106,552.35127 686.60745,550.86931 687.16164,548.09827 685.57183,547.77283 681.18233,549.7588 677.07548,551.61689 675.49287,551.45465 676.05053,549.23272 676.27411,548.34197 676.0366,547.45328 675.44342,546.96096 674.54292,546.21365 673.6598,546.23009 667.65183,547.10606 666.64754,547.25248 666.35131,546.92538 666.35131,545.67003 666.35131,544.7759 666.14928,543.7348 665.9024,543.35642 665.64618,542.96374 662.74621,542.62327 659.14584,542.56316 652.21001,542.44738 647.29617,541.30069 643.88506,539.00194 640.40696,536.65807 640.09758,534.81075 642.42678,530.29475 643.50684,528.20068 644.72973,525.43829 645.14434,524.15614 645.55892,522.87397 646.76926,520.99036 647.83393,519.97036 648.89857,518.95033 649.76967,517.83963 649.76967,517.50211 649.76967,516.63966 645.39259,517.44478 643.56256,518.64384 642.31881,519.45879 642.1087,520.03176 642.39858,521.818 642.79153,524.23955 641.25546,527.84043 638.36339,531.27751 635.18489,535.05495 630.5077,533.5038 624.29264,526.61095 621.94936,524.01214 621.07082,523.41181 620.47217,524.0003 619.35344,525.10008 620.23388,528.93059 621.98101,530.56471 623.94436,532.40106 631.49827,535.91258 633.51317,535.92557 635.54187,535.93863 636.18695,536.40757 637.41474,538.76173 638.96905,541.74194 648.87832,544.76029 658.54481,545.19788 661.60367,545.33634 661.81216,545.45847 662.12563,547.2957 662.45587,549.23082 662.49625,549.24799 667.16851,549.43751 671.86364,549.62797 672.53812,549.95237 671.1419,551.34859 670.7368,551.75375 670.58615,552.55649 670.80717,553.13248 671.14019,554.00028 671.90587,554.11462 675.2755,553.79986 677.51205,553.59092 679.93047,553.28106 680.64974,553.1113 681.63871,552.87789 682.19535,553.32032 682.93294,554.92611 683.68212,556.55711 684.43613,557.14419 686.18421,557.4575 689.39517,558.03301 692.11182,557.46286 693.88449,555.84142 z"
     id="path3142"
     style="fill:#ffd42a;fill-rule:evenodd" /><path
     d="M 780.70324,552.26722 C 786.55148,549.38795 790.00096,546.14949 792.21818,541.45667 793.26825,539.2342 794.12741,537.12538 794.12741,536.77034 794.12741,535.9637 791.24774,534.61563 789.52458,534.61563 787.79896,534.61563 787.44545,533.43384 788.18567,530.13942 788.90649,526.93131 788.04337,522.91092 786.63382,522.91092 786.12244,522.91092 785.21589,523.65585 784.61936,524.56631 783.69503,525.97698 783.65186,526.57775 784.32733,528.63045 785.32851,531.67289 784.54291,533.94345 781.81761,535.88396 780.52662,536.80323 779.82167,537.86374 779.82167,538.88656 779.82167,539.75632 779.93114,540.46794 780.06491,540.46794 780.19866,540.46794 781.6201,539.73466 783.22362,538.83847 L 786.13912,537.20895 787.85736,538.56053 C 788.80239,539.30387 789.57556,540.51466 789.57556,541.25118 789.57556,544.80501 779.43063,550.79228 772.46103,551.35172 768.75463,551.64924 768.11772,551.52307 766.83118,550.23653 765.78475,549.19009 765.48091,548.30641 765.74083,547.06536 765.93903,546.1191 766.29873,544.39388 766.54012,543.23156 767.18367,540.13301 765.84513,540.554 763.55085,544.17169 761.65822,547.15603 761.09556,550.34808 762.16497,552.03356 763.03095,553.39842 768.81126,554.70585 772.90012,554.46167 775.46963,554.30822 778.00707,553.59462 780.70324,552.26722 z"
     id="path3140"
     style="fill:#ffcc00;fill-rule:evenodd" /><path
     d="M 809.35159,514.78704 C 807.80441,512.42573 808.73243,509.5806 811.04982,509.5806 812.42427,509.5806 812.68821,509.91839 812.85393,511.88974 812.99231,513.53611 812.68028,514.53169 811.76682,515.35837 810.52816,516.47935 810.44799,516.46039 809.35159,514.78704 z"
     id="path3136"
     style="fill:#cf1126;fill-opacity:1;fill-rule:evenodd" /><path
     d="M 819.74303,530.49282 C 823.4162,526.81962 824.9775,522.3488 824.99876,515.4428 L 825.01475,510.25061 828.0502,508.80927 C 832.00129,506.93314 835.74406,503.18558 835.74406,501.10554 835.74406,498.97184 834.79399,499.08021 833.07118,501.41042 831.82165,503.10051 830.14848,504.12261 824.03935,506.92781 822.49543,507.63675 822.39518,508.01631 822.04513,514.47977 821.64158,521.93148 820.6257,524.72314 816.468,529.80565 813.92475,532.91461 813.82603,533.31511 815.60309,533.31511 816.3278,533.31511 818.19076,532.04506 819.74303,530.49282 z"
     id="path3134"
     style="fill:#ffcc00;fill-rule:evenodd" /><path
     d="M 634.12073,525.56588 C 635.23027,524.16495 636.88866,521.31195 637.80606,519.22583 638.72343,517.13974 640.08949,514.77065 640.84173,513.96124 642.60465,512.06428 641.61689,510.89405 638.77891,511.51741 637.2777,511.84712 636.67445,512.40327 636.41533,513.69653 635.56504,517.94031 634.0306,522.27543 632.66365,524.296 630.18357,527.96194 630.1234,528.11301 631.14423,528.11301 631.67176,528.11301 633.01118,526.96681 634.12073,525.56588 z"
     id="path3132"
     style="fill:#ffd42a;fill-rule:evenodd" /><path
     d="M 779.6593,526.32514 C 780.01484,525.25731 777.9774,524.49508 777.10355,525.36897 776.72958,525.74293 776.63021,526.38321 776.88275,526.79183 777.45729,527.72146 779.29736,527.41216 779.6593,526.32514 z"
     id="path3130"
     style="fill:#ffcc00;fill-rule:evenodd" /><path
     d="M 620.52776,519.32448 C 623.8433,517.64435 627.01055,513.72095 627.01055,511.29396 627.01055,509.70621 624.34531,507.95494 621.92893,507.95494 620.85719,507.95494 618.8427,508.83155 617.23032,509.99958 612.18717,513.65283 606.79459,512.90712 603.84455,508.14856 601.4166,504.23212 598.88111,502.1026 596.64593,502.1026 593.85087,502.1026 593.73803,503.85628 596.47175,504.80924 597.79438,505.27031 598.89241,506.38582 599.79883,508.18929 602.45784,513.47993 604.0107,514.42263 611.0792,515.03718 L 615.631,515.43294 615.83097,518.19654 C 615.94097,519.71654 616.31646,520.96016 616.66544,520.96016 617.01436,520.96016 618.75244,520.22409 620.52776,519.32448 z"
     id="path3128"
     style="fill:#ffd42a;fill-rule:evenodd" /><path
     d="M 619.44261,514.78267 C 618.86187,513.26931 619.68036,511.85649 621.13784,511.85649 622.47116,511.85649 622.78862,512.84125 622.06404,514.72949 621.56394,516.03271 619.93498,516.06578 619.44261,514.78267 z"
     id="path3126"
     style="fill:#cf1126;fill-opacity:1;fill-rule:evenodd" /><path
     d="M 834.93141,512.01942 C 835.28695,510.9516 833.24951,510.18937 832.37563,511.06326 832.00167,511.43722 831.9023,512.0775 832.15485,512.48611 832.72938,513.41572 834.56947,513.10645 834.93141,512.01942 z"
     id="path3124"
     style="fill:#ffcc00;fill-rule:evenodd" /><path
     d="M 706.34229,525.1682 C 705.80582,525.06211 702.73336,524.63041 699.51456,524.20892 682.94089,522.03864 663.22117,515.18729 648.7676,506.57749 616.15274,487.14935 592.29951,453.43702 584.79601,416.16513 576.21976,373.56437 582.32836,336.91613 602.45671,310.21047 606.1222,305.34721 609.98808,301.32789 609.27357,303.12304 609.06005,303.65951 607.53161,307.38389 605.87708,311.39948 596.57682,333.97144 595.42044,357.83401 602.33921,384.40555 605.07863,394.92618 607.65291,401.68774 612.49516,411.08079 629.45168,443.97312 661.22138,468.23695 696.26328,475.0578 699.1244,475.61473 704.53781,476.66065 708.29308,477.3821 718.16023,479.2777 723.5318,479.08699 736.87384,476.36747 749.34319,473.82586 759.39031,470.8074 768.43026,466.88695 795.86883,454.98744 818.67354,432.27841 830.36309,405.21394 838.36595,386.68505 842.12652,359.49114 839.58016,338.56221 838.04179,325.918 834.05937,312.07469 829.15131,302.31022 828.11765,300.25377 827.55508,298.57122 827.90111,298.57122 828.98043,298.57122 836.41642,307.66367 840.76511,314.3008 850.3494,328.92862 856.8311,347.08878 859.14763,365.804 861.05228,381.19166 859.40567,405.8377 855.51794,420.1329 847.53252,449.49509 830.05945,477.37845 808.92188,494.4902 786.52484,512.62155 762.74056,522.01216 732.02756,524.84998 725.58482,525.44525 708.7949,525.65328 706.34229,525.1682 z"
     id="path3122"
     style="fill:#cf1126;fill-opacity:1;fill-rule:evenodd" /><path
     d="M 763.06477,512.65465 C 763.68363,512.11748 764.379,510.6706 764.60995,509.43941 764.84092,508.20822 765.35876,507.11134 765.76062,507.0019 766.16251,506.89249 767.72729,506.46749 769.23787,506.05743 771.08358,505.55644 772.54449,504.57759 773.69214,503.07293 776.29883,499.65542 776.05125,495.24222 772.66858,484.82706 771.16635,480.20171 769.72274,475.68579 769.46062,474.79169 768.83782,472.66739 768.28633,472.741 766.38872,475.20167 L 764.81889,477.23729 766.45031,479.17613 C 768.61293,481.74627 772.10212,492.30201 772.20221,496.57723 772.25563,498.85831 771.89918,500.5623 771.11979,501.7518 769.86284,503.67016 770.50922,503.63152 761.12641,502.34929 759.04356,502.06468 757.71672,502.30822 755.74175,503.33762 752.26935,505.14754 750.7012,505.07478 749.78375,503.06115 748.64531,500.56262 747.63379,501.51386 747.63379,505.08295 L 747.63379,508.28006 751.19183,508.28006 754.74986,508.28006 755.16461,510.78628 C 755.39272,512.16469 755.9611,513.52842 756.42774,513.81681 757.61033,514.54771 761.71105,513.82966 763.06477,512.65465 z"
     id="path3120"
     style="fill:#ffcc00;fill-rule:evenodd" /><path
     d="M 757.98146,509.58564 C 756.62929,507.52193 757.20255,506.00415 759.33419,506.00415 760.50728,506.00415 761.17755,506.48083 761.61227,507.62417 762.92202,511.06917 759.99102,512.65259 757.98146,509.58564 z"
     id="path3118"
     style="fill:#d40000;fill-opacity:1;fill-rule:evenodd" /><path
     d="M 675.68371,506.63388 C 677.73323,505.75221 680.17033,503.89822 682.21658,501.66416 L 685.48036,498.10077 689.24616,498.55723 C 693.9102,499.12259 693.98734,499.16878 693.98734,501.39669 693.98734,503.16716 694.10302,503.22599 698.3766,503.62959 700.79071,503.8576 703.97379,504.04621 705.45015,504.04876 707.34486,504.05202 708.39687,504.41908 709.02657,505.29655 709.86675,506.46731 710.354,506.50051 717.39255,505.86601 723.97388,505.27272 725.26902,505.32914 728.23791,506.3383 730.34585,507.05481 732.66401,507.36542 734.42335,507.16714 739.46312,506.5991 746.43309,502.4534 747.44322,499.42306 747.56486,499.05814 749.39067,498.41443 751.50054,497.99259 756.59161,496.97478 756.82377,495.88251 752.07511,495.28922 750.01644,495.03197 746.92054,494.26514 745.19526,493.58512 743.47001,492.9051 741.11024,492.34871 739.95129,492.34871 737.39535,492.34871 734.95374,493.9322 734.95374,495.58989 734.95374,496.66811 735.34222,496.76713 738.36761,496.46008 741.22037,496.1706 742.07637,496.34716 743.57586,497.53455 744.56279,498.31605 745.20045,499.23018 744.99294,499.56599 744.32226,500.6512 738.38643,503.35875 735.75584,503.77938 734.0003,504.06011 732.56719,503.86143 731.18254,503.14542 728.87629,501.95278 725.48288,501.7688 724.84447,502.80176 724.56808,503.24896 723.84953,502.97217 722.85065,502.03378 L 721.28896,500.56663 717.74022,502.0375 C 714.14911,503.52594 712.84488,503.44558 712.84488,501.73584 712.84488,500.95192 711.79057,500.86367 706.50485,501.20518 700.67027,501.58217 700.07055,501.50963 698.98245,500.29533 697.97653,499.1728 697.92558,498.77495 698.64105,497.62929 699.3068,496.56325 699.31526,496.116 698.68164,495.48239 698.05183,494.85257 697.25672,494.84909 694.94959,495.46616 689.15611,497.01567 687.48476,496.15673 687.48476,491.62984 687.48476,487.66777 684.24949,485.97168 681.01428,488.23771 675.6998,491.96013 674.3207,496.36545 677.93081,498.08735 680.58615,499.35387 679.91012,500.85015 675.73954,502.93725 669.77123,505.92401 664.51524,505.54354 654.50887,501.40046 652.04617,500.38078 651.41338,500.79054 651.9778,503.03949 652.53139,505.24508 654.54047,506.4529 659.56417,507.60017 664.95836,508.83209 671.48307,508.44093 675.68371,506.63388 z"
     id="path3116"
     style="fill:#ffcc00;fill-rule:evenodd" /><path
     d="M 680.53096,493.88031 C 680.27918,493.22425 680.58982,492.46779 681.33461,491.92317 682.36476,491.16992 682.6897,491.17651 683.47996,491.96679 683.9922,492.47903 684.23415,493.35974 684.01763,493.92393 683.49956,495.27404 681.05402,495.24343 680.53096,493.88031 z"
     id="path3114"
     style="fill:#cf1126;fill-opacity:1;fill-rule:evenodd" /><path
     d="M 672.09604,495.60184 C 675.63118,493.3599 675.54833,493.53342 676.05537,487.3092 676.41284,482.92093 676.35069,482.59482 675.15723,482.59482 673.43193,482.59482 672.52878,484.48946 672.52878,488.10884 672.52878,490.42539 672.16576,491.47027 670.93267,492.70339 667.99495,495.64114 660.68818,494.29926 659.77327,490.65401 659.45747,489.39575 659.85668,488.26966 661.38949,486.09502 664.57972,481.56903 663.85578,480.46428 659.94804,483.89534 657.26317,486.25268 656.77758,486.32497 657.28797,484.29139 657.75739,482.42101 656.78336,481.67528 654.58992,482.22578 653.466,482.50788 652.86454,483.21441 652.59316,484.57137 652.32697,485.90225 651.71788,486.63545 650.65737,486.90161 648.88563,487.34626 645.86811,485.66878 645.86811,484.23923 645.86811,483.17812 650.38582,477.66422 656.19385,471.6366 658.38284,469.36484 660.17383,467.24337 660.17383,466.92221 660.17383,466.60105 659.00336,466.33829 657.57279,466.33829 655.47829,466.33829 654.97176,466.57192 654.97176,467.53776 654.97176,468.19745 652.04558,472.03249 648.46915,476.06005 641.01149,484.45842 640.39258,486.20608 644.07989,488.45428 647.05384,490.26752 650.85739,490.12898 653.8454,488.09858 L 656.27228,486.44948 656.27228,489.44183 C 656.27228,493.26145 657.03351,494.63332 660.03135,496.21631 663.79939,498.20598 668.35563,497.97393 672.09604,495.60184 z"
     id="path3112"
     style="fill:#ffcc00;fill-rule:evenodd" /><path
     d="M 779.50499,491.96835 C 779.51272,487.83973 779.61916,487.49067 780.8055,487.70279 788.25143,489.03435 791.69427,488.03852 794.91135,483.6228 796.66983,481.20918 796.8216,480.59618 796.58945,476.84608 L 796.33419,472.72303 799.94518,473.15529 C 806.49294,473.93912 806.56601,473.98057 806.11118,476.65428 804.86941,483.95374 802.58866,487.97377 796.96159,492.78113 793.02724,496.14235 793.03798,497.78708 796.98202,495.9155 800.3207,494.3312 804.197,490.34721 806.28301,486.35614 807.81466,483.42565 808.08369,482.11991 808.11089,477.48377 808.13949,472.60674 808.29753,471.92225 809.64742,470.82917 810.779,469.91287 812.03804,469.64848 814.72511,469.76276 817.95293,469.90005 818.45505,469.7324 819.92206,468.02766 821.20017,466.54247 821.4625,465.69563 821.15392,464.05084 820.58596,461.02323 821.22595,459.96523 824.68606,458.21184 829.37137,455.83763 831.19221,453.31015 831.19221,449.18081 831.19221,445.38166 830.01816,443.14203 828.36009,443.77827 827.10094,444.26145 826.91447,447.54628 828.04354,449.35422 828.45764,450.01729 828.61377,451.03579 828.39051,451.6176 827.78487,453.19584 824.27482,455.10092 821.09362,455.57795 817.07838,456.1801 814.30048,458.32524 812.20585,462.44135 808.87472,468.98728 809.35488,468.68573 806.44675,466.05837 801.98318,462.0258 798.03748,463.09176 796.35863,468.7837 L 795.64147,471.21527 794.43888,468.77677 C 793.21679,466.2988 791.76523,465.70928 790.35589,467.11862 789.09487,468.37961 789.46827,470.37169 791.53821,473.42646 792.60462,475.00026 793.47714,476.98995 793.47714,477.84798 793.47714,481.85032 789.6925,485.08931 786.07644,484.18174 784.13974,483.69569 782.42273,480.97879 782.42273,478.40041 782.42273,476.06808 780.67523,476.28736 780.14846,478.68577 779.26333,482.71572 777.45373,481.07642 776.6597,475.5254 776.12205,471.76673 774.76032,471.5621 773.08664,474.98842 772.01624,477.17966 771.9881,477.58664 772.83909,478.56482 774.6131,480.60405 777.39145,488.73538 777.72361,492.86028 778.17756,498.49773 779.49398,497.8386 779.50499,491.96835 z"
     id="path3110"
     style="fill:#ffcc00;fill-rule:evenodd" /><path
     d="M 800.97375,470.00876 C 799.38667,468.84826 800.11441,466.98857 802.15562,466.98857 804.01224,466.98857 805.48099,468.52231 804.94985,469.90645 804.48115,471.12787 802.57144,471.177 800.97375,470.00876 z"
     id="path3108"
     style="fill:#cf1126;fill-opacity:1;fill-rule:evenodd" /><path
     d="M 815.25095,465.65683 C 814.74286,464.05596 815.93228,462.43674 817.61637,462.43674 818.86486,462.43674 819.21751,463.94055 818.4426,465.95999 817.87758,467.43236 815.75036,467.23033 815.25095,465.65683 z"
     id="path3106"
     style="fill:#cf1126;fill-opacity:1;fill-rule:evenodd" /><path
     d="M 645.10297,491.48198 C 645.22462,490.85478 644.89824,490.39792 644.32851,490.39792 643.12051,490.39792 642.3914,491.45796 642.96314,492.38304 643.55132,493.33473 644.84966,492.78803 645.10297,491.48198 z"
     id="path3104"
     style="fill:#ffcc00;fill-rule:evenodd" /><path
     d="M 695.93813,485.79841 C 695.93813,484.86784 695.58795,484.51765 694.80765,484.66793 693.11257,484.99436 692.92353,487.14662 694.58992,487.14662 695.52049,487.14662 695.93813,486.72901 695.93813,485.79841 z"
     id="path3102"
     style="fill:#ffcc00;fill-rule:evenodd" /><path
     d="M 625.40361,480.23657 627.20233,477.87835 633.9481,478.33023 C 642.16303,478.88052 643.14436,478.42143 649.23579,471.17853 651.4747,468.51642 653.68123,466.33829 654.13916,466.33829 654.59707,466.33829 654.97176,465.60676 654.97176,464.71265 654.97176,462.35449 652.14251,462.46047 650.63145,464.87522 648.45584,468.35198 642.38771,474.91096 640.78191,475.52149 639.88682,475.86182 637.84531,475.94392 636.24522,475.70395 633.8196,475.34024 633.53319,475.1573 634.52254,474.60364 636.23876,473.64319 640.01578,469.7524 640.01578,468.94492 640.01578,467.89445 636.88954,466.93691 634.93112,467.38748 633.97244,467.60807 631.68799,468.61479 629.85461,469.62462 626.38457,471.53597 623.75928,471.58355 623.75928,469.73513 623.75928,469.18329 625.29551,467.07278 627.17314,465.04509 629.05075,463.01737 631.4165,460.43053 632.43034,459.29651 633.44419,458.16249 634.5415,457.23468 634.86882,457.23468 635.19613,457.23468 635.46395,456.79575 635.46395,456.25928 635.46395,455.56558 634.75938,455.28389 633.02436,455.28389 630.79373,455.28389 630.4508,455.53642 629.02055,458.23246 628.16024,459.85419 626.43277,462.07973 625.18179,463.17814 623.33682,464.79805 622.50637,465.11015 620.78473,464.83077 617.41189,464.28345 615.30588,462.57676 615.30588,460.39079 615.30588,459.34776 614.88985,458.33469 614.3813,458.13957 613.00854,457.61279 610.75408,459.05233 610.75408,460.45567 610.75408,462.84233 611.61142,463.82308 615.34564,465.7081 618.66416,467.38328 619.14814,467.87335 619.32795,469.7403 619.50909,471.62157 619.7413,471.85097 621.35114,471.73894 623.92211,471.55999 624.92947,473.85084 623.49745,476.62003 622.38448,478.77229 622.08659,482.59482 623.03183,482.59482 623.34702,482.59482 624.41434,481.53361 625.40361,480.23657 z"
     id="path3100"
     style="fill:#ffcc00;fill-rule:evenodd" /><path
     d="M 628.3111,475.11682 C 628.3111,474.05766 628.90592,473.91144 630.58835,474.55705 631.45232,474.8886 631.49597,475.08388 630.80409,475.52248 629.45628,476.37685 628.3111,476.19048 628.3111,475.11682 z"
     id="path3098"
     style="fill:#ff00ff;fill-rule:evenodd" /><path
     d="M 630.91213,472.29501 C 630.91213,471.72804 633.75946,470.23984 634.84429,470.23984 636.10938,470.23984 635.41147,472.05303 634.00085,472.43106 631.95449,472.97945 630.91213,472.93355 630.91213,472.29501 z"
     id="path3096"
     style="fill:#cf1126;fill-opacity:1;fill-rule:evenodd" /><path
     d="M 674.15441,476.74248 C 674.15441,475.33223 671.61751,475.5265 671.34185,476.95785 671.16402,477.88124 671.45401,478.10025 672.6335,477.93321 673.47,477.81475 674.15441,477.27893 674.15441,476.74248 z"
     id="path3094"
     style="fill:#ffcc00;fill-rule:evenodd" /><path
     d="M 786.20229,466.81655 C 786.46109,465.47276 784.58393,464.56726 783.5932,465.55799 782.60243,466.54873 783.50794,468.42591 784.85175,468.16711 785.47461,468.04716 786.08236,467.43943 786.20229,466.81655 z"
     id="path3092"
     style="fill:#ffcc00;fill-rule:evenodd" /><path
     d="M 611.82416,453.09147 C 613.58001,451.58115 613.6009,451.47946 612.83581,448.16488 611.76193,443.51259 611.83067,443.00991 613.60165,442.56542 615.84323,442.00281 621.528,445.05217 622.79108,447.49466 623.76594,449.37987 623.73952,449.51193 622.07952,451.05036 620.29483,452.70441 620.30077,454.63362 622.09058,454.63362 623.56836,454.63362 627.66083,450.7635 627.66083,449.36605 627.66083,447.44057 623.11784,442.88071 619.53258,441.2076 617.31383,440.1722 615.08719,439.68832 612.52132,439.68401 607.92191,439.67621 607.29917,440.66837 608.54356,446.02151 610.00067,452.28977 608.02251,453.13707 602.96833,448.40946 599.21842,444.90187 597.7445,441.249 597.75845,435.49766 597.77344,429.32537 600.13279,426.27649 605.44574,425.56386 608.9775,425.09015 608.89385,424.26224 605.25916,423.7172 599.96209,422.92285 595.48029,426.46047 593.7789,432.77889 591.89114,439.78935 596.216,448.33411 603.87574,452.72752 607.88879,455.0293 609.48623,455.10245 611.82416,453.09147 z"
     id="path3090"
     style="fill:#ffcc00;fill-rule:evenodd" /><path
     d="M 820.65799,445.39992 C 821.08717,444.97077 821.43832,444.00343 821.43832,443.25037 821.43832,442.49725 822.16986,440.88955 823.06398,439.67763 823.95808,438.46575 824.68962,437.22923 824.68962,436.92984 824.68962,435.69811 822.66434,435.74028 821.05589,437.00548 819.41756,438.29422 818.18701,438.32346 818.18701,437.07368 818.18701,436.75667 818.9701,436.11556 819.92723,435.649 822.31228,434.48638 822.51383,433.34096 820.49522,432.42123 817.9155,431.24584 815.32729,433.39047 815.0637,436.92183 814.88735,439.28461 815.08089,439.68931 816.89836,440.75839 818.56456,441.73847 818.86901,442.26153 818.59022,443.665 818.10853,446.0899 819.11967,446.93827 820.65799,445.39992 z"
     id="path3088"
     style="fill:#ffcc00;fill-rule:evenodd" /><path
     d="M 840.29398,443.17839 C 841.72559,441.88502 842.89688,440.42379 842.89688,439.93118 842.89688,439.43857 844.14053,438.14207 845.66051,437.05006 849.97214,433.95246 850.9176,430.81851 848.99211,426.00626 848.23776,424.12094 845.87555,421.50668 840.75435,416.88947 836.80527,413.32906 833.18458,410.416 832.70836,410.416 831.30839,410.416 831.55843,415.56812 832.98046,416.0226 835.54417,416.84194 837.08806,417.88527 841.11503,421.51975 845.80301,425.75084 847.96025,429.70377 846.78237,431.90466 845.64709,434.02588 844.14698,433.36859 840.01785,428.94075 837.84608,426.61182 835.70341,424.70982 835.25634,424.71405 834.78237,424.71852 834.44354,425.56289 834.44354,426.73951 834.44354,428.21531 835.22951,429.63156 837.36969,432.0119 840.85591,435.8894 841.19822,438.2232 838.58252,440.2807 837.64017,441.02196 836.67366,441.62842 836.43471,441.62842 836.19575,441.62842 835.43053,440.47386 834.7342,439.06273 833.27008,436.09566 824.34337,426.67249 822.99677,426.67249 822.39363,426.67249 822.08856,427.43134 822.08856,428.93169 822.08856,430.74132 822.44622,431.37584 823.88565,432.12024 825.66338,433.03953 830.03615,437.45233 834.44354,442.77492 835.69527,444.2866 836.93805,445.52491 837.20526,445.52671 837.47244,445.5285 838.86236,444.47176 840.29398,443.17839 z"
     id="path3086"
     style="fill:#ffcc00;fill-rule:evenodd" /><path
     d="M 849.04738,418.10556 C 848.46681,416.24123 836.49043,403.91344 835.2598,403.91344 834.61536,403.91344 834.4241,404.66634 834.56869,406.63375 834.74338,409.01017 835.00483,409.41677 836.63695,409.85023 837.66453,410.12309 840.81832,412.5973 843.64535,415.34842 846.4724,418.09954 848.95034,420.1856 849.15184,419.98405 849.35336,419.78253 849.30637,418.93722 849.04738,418.10556 z"
     id="path3084"
     style="fill:#ffcc00;fill-rule:evenodd" /><use
     transform="matrix(-1,0,0,1,1440,0)"
     id="use3950"
     style="fill-rule:evenodd"
     x="0"
     y="0"
     width="17926044"
     height="16293461"
     xlink:href="#g3939" /><g
     transform="matrix(2.6776684e-5,0,0,2.6776684e-5,480.00001,143.85322)"
     id="g3939"
     style="fill-rule:evenodd"><path
       d="M 1195950.3,12176545 C 1098100.5,12166241 999669.94,12247783 1033015.8,12351961 1041280.3,12370811 1074179.7,12407284 1129099.8,12444565 1184961.6,12482485 1263204,12522808 1359495,12559218 1552077.3,12632041 1817141.5,12688289 2126101.3,12680044 2117383.8,12680044 2094982.2,12680044 2082227.2,12680044 2395770.9,12684173 2564011,12655152 2783263.1,12582727 2968583.4,12522133 3128438,12476101 3139633.1,12312276 3139633.1,12284093 3131118.9,12267523 3116903.5,12254068 3102688.9,12240614 3080694.9,12230139 3052847.4,12224082 2997156.8,12211969 2932843.4,12244148 2876904.6,12262523 2757706.1,12301677 2505270.5,12408417 2082285.9,12411115 1859297.3,12416801 1694880.6,12363717 1524699.6,12307037 1320992.5,12239191 1292500.4,12190437 1195950.3,12176545 z"
       id="path3169"
       style="fill:#cf1126;fill-opacity:1;stroke:none" /><path
       d="M 56999.267,5932314.8 C 54036.661,5932568.8 51603.263,5933302.6 49061.767,5934078.7 38895.787,5937185.9 28073.638,5944630.7 17311.768,5964946.7 L 17311.768,5965827.3 C 13610.568,5972174.4 4185.3,6005826.9 1436.7689,6052257.8 -1311.7649,6098688.7 53.230997,6159275.6 4082.6022,6230410.6 12141.342,6372680.8 32816.486,6555590.1 63172.877,6750757.8 123859.18,7140923.2 222146.08,7581230.8 325992.31,7844368.8 427727.94,8087917.9 650562.05,8306314.1 867506.18,8503181.3 1084402.8,8700005.6 1295865.4,8871686.5 1371978.4,9049104.9 1386187.2,9080825.8 1392911.3,9125172.3 1400200.6,9188452.1 1407512.4,9251928.1 1413002.2,9332528.3 1417839.5,9426577.1 1427514.1,9614674 1433333.8,9856036.6 1435478.4,10115376 1438885.6,10527432 1434680,10980287 1427540.9,11339515 1437687.1,11343947 1448330.5,11348608 1459290.9,11353626 1511717.3,11377627 1573315.3,11408729 1641853.4,11440056 1778929.4,11502709 1944538.9,11563467 2116339.5,11558237 L 2117221.4,11558237 C 2463742.6,11555731 2618150.4,11454347 2735464.4,11409188 L 2736346.4,11409188 C 2758844.6,11400536 2783504.3,11393973 2808665.8,11389785 2804246.8,11060279 2773828,8776155.1 2774270,8379709.1 L 2774270,8378828.6 C 2778062.5,8270283.4 2675182.2,8131958.4 2541436.7,8008411.9 2407691.2,7884865.5 2249259.4,7775195.9 2156908.9,7705905 L 2156027,7705024.5 2154263.1,7704143.9 C 2099391.8,7655348.5 1987385.6,7537280.9 1881742.2,7420157.8 1828920.5,7361596.4 1777905.6,7303088.1 1737985.3,7255234.2 1698065.1,7207380.3 1670550.3,7174162.5 1656846.4,7146755.1 1652945.2,7138942.6 1631230.9,7110448.9 1601283.9,7081491.2 1571337,7052533.5 1532671,7021053.8 1491040.9,6994178.7 1449410.7,6967303.5 1404558.8,6945192.5 1364922.8,6935970.3 1325286.9,6926748.2 1292723,6929297.2 1266145,6945671.7 1242362.5,6960311.4 1233187.1,6983663.6 1234395,7026810.6 1235603,7069957.6 1251216,7128161.4 1275846.4,7189088.4 1325107.1,7310942.1 1408998,7446464.9 1469874.2,7529518.9 1507049.1,7580233.7 1541366.3,7664892.5 1574825.6,7763234.2 1608284.9,7861575.9 1639147.8,7971954.7 1661256.1,8066623.1 1683364.3,8161291.1 1697857.9,8233854.1 1694770,8280053.6 1693998.2,8291603.3 1698124,8305127.7 1676249.2,8322387 1665311.9,8331015.9 1646101.3,8332510.8 1635679.8,8328560.6 1625258.2,8324610 1619922.1,8319195.9 1615395,8314449.5 1597286.8,8295464.4 1585183.6,8270768.8 1565124.2,8226255 L 1565124.2,8225374.5 1564242.3,8224493.9 C 1533880.1,8146983.3 1415587.4,8060569.4 1265263.1,7973139.8 1114938.8,7885710.2 935906.57,7794124.3 791658.96,7682980.1 756942.07,7654819.7 748145.94,7613185.1 737860.35,7563917.6 727574.76,7514650.3 717546.25,7453182.9 696408.96,7377827.3 654134.33,7227116.1 566972.09,7019643 342749.25,6756056.5 L 331283.98,6742827.3 334811.75,6725188.5 C 383926.63,6474037.2 317619.54,6232435.2 227214.54,6083132.9 182012.05,6008481.8 129351.57,5957673 91395.098,5940257.9 77161.427,5933727 65887.085,5931579 56999.267,5932320.4 z"
       id="path3165"
       style="fill:#cf1126;stroke:none" /><path
       d="M 427415.92,5987877.3 C 410472.71,5988266.8 395598.02,5994741.5 381554.81,6005516.2 353907.25,6026729.1 332292.92,6069551.3 333929.81,6126342.6 407323.05,6284687.8 451090.49,6497557.1 411540.92,6721655 633787.38,6986512.4 723916.57,7200924.8 767846.46,7357536.9 790185.36,7437176.4 800500.08,7501671.8 810179.79,7548036.9 819754.38,7593898.6 831031.1,7618460.1 838402.01,7624766.1 974576.32,7729582.6 1149616.6,7819947.9 1302304.8,7908752.2 1427093.8,7981330.2 1538902.8,8050252.5 1600402,8136293.9 1596935.8,8119227.6 1593216.4,8101702.7 1588936.7,8083377.2 1576597,8030537.9 1560834.2,7972125.5 1543957.5,7914043.9 1519113.3,7851578.8 1447599.3,7771649.8 1364922.8,7706786.9 1282246.4,7641924.4 1187960.9,7591071 1125033.9,7576259.2 L 1097693.7,7570085.6 1095929.8,7542745.3 C 1091194.6,7471545.1 1033116.8,7307401 952172.84,7153807.8 871228.74,7000214.6 764615.27,6851946.9 680533.96,6797502.3 L 662895.07,6786037 663777.02,6764870.3 C 677338.11,6276922.8 568991.28,6062654 484742.3,6007280.1 463680.06,5993436.5 444359.13,5987487.8 427415.92,5987877.3 z"
       id="path3163"
       style="fill:#cf1126;stroke:none" /><path
       d="M 736978.4,6078717.6 C 724138.59,6079490.8 714726.96,6083563.3 703464.52,6097238.4 692866.65,6110106.6 681666.21,6133378.4 674360.35,6167793.9 718884.77,6299000.5 744469.6,6486531.8 738742.29,6747231.4 841497.79,6822338.7 938885.87,6967804.4 1018318.7,7118530 1095092.6,7264210.3 1152980.1,7410974 1167367.3,7510995.3 1243800.5,7534765.7 1330858,7585873.9 1410783.9,7648578.6 1432053.6,7665265.6 1452878.9,7682563.2 1472520,7700613.3 1449819.9,7643699 1427094.9,7597068 1409902,7573613.3 1345718.3,7486047.1 1260116.5,7347681.7 1207054.8,7216425.8 1189031,7171841.2 1174351.3,7128495.3 1166485.3,7086780 1079648.2,6996084 997007.42,6831703.9 1017436.7,6669620.3 1035592.2,6461708.9 949243.91,6257542 856040.9,6152800.9 809391.09,6100376.1 762658.2,6077171 736978.4,6078717.6 z"
       id="path3161"
       style="fill:#cf1126;stroke:none" /><path
       d="M 1088874.2,6128988.4 C 1079086.3,6129643.1 1068199.4,6133815.5 1054478.4,6143981.4 1036641.2,6157197.3 1015086.6,6181703.5 992742.28,6218946.7 1061333.8,6342289.4 1106619.1,6505790.3 1091520.1,6676675.9 L 1091520.1,6677556.4 1091520.1,6678436.9 C 1079181.7,6774700.4 1117811.6,6884416 1167367.3,6965068.9 1176924.7,6931270.2 1196012.4,6901454.9 1227339.5,6882166.1 1260765,6861576.9 1298343,6855487.6 1335818.7,6857471.6 1318538.7,6601096.5 1265260.3,6364006.1 1197353.4,6233937 1161841.9,6165918 1123889.3,6132373.9 1098575.6,6128985.6 1095411.4,6128562.2 1092136.9,6128759.8 1088874.2,6128985.6 z"
       id="path3159"
       style="fill:#cf1126;stroke:none" /><path
       d="M 1620686.7,8272995.2 C 1616847.6,8278174 1620469.4,8278891.1 1620686.7,8275639.7 1620731.9,8274948.2 1620676.2,8273861.7 1620686.7,8272995.2 z"
       id="path3157"
       style="fill:#cf1126;stroke:none" /><path
       d="M 2809547.8,11465634 C 2792974,11468998 2777003,11473404 2762804.7,11478863 2701435.4,11502487 2610529.9,11551690 2469117.2,11588224 L 2811311.6,11584696 C 2811310.8,11584640 2809671.9,11474794 2809547.8,11465634 z"
       id="path697-1"
       style="fill:#cf1126;stroke:none" /><path
       d="M 1429697.9,11417218 C 1357149.6,11406914 1284170.7,11488456 1308894.1,11592634 1315021.6,11611484 1339414,11647957 1380133.3,11685238 1421550.6,11723158 1479561.5,11763481 1550954.1,11799891 1693739.5,11872714 1890264.8,11928962 2119335.6,11920717 2112872.3,11920717 2096263.2,11920717 2086806.3,11920717 2319275.6,11924846 2444013.2,11895825 2606572.3,11823400 2743973.4,11762806 2862493.7,11716774 2870794.2,11552949 2870794.2,11524766 2864481.4,11508196 2853941.8,11494741 2843402.7,11481287 2827095.8,11470812 2806449,11464755 2765158.6,11452642 2717475,11484821 2676000.5,11503196 2587623.7,11542350 2400461.4,11649090 2086849.7,11651788 1921520.4,11657474 1799617.6,11604390 1673441,11547710 1522407.3,11479864 1501282.6,11431110 1429697.9,11417218 z"
       id="path3151"
       style="fill:#cf1126;stroke:none" /><path
       d="M 1300692.1,11788956 C 1215678.4,11778652 1130160.1,11860194 1159131.6,11964372 1166311.9,11983222 1194895.5,12019695 1242611.2,12056976 1291144.9,12094896 1359123.3,12135219 1442782.7,12171629 1610101.8,12244452 1840394.4,12300700 2108824.4,12292455 2101250.5,12292455 2081787.6,12292455 2070705.8,12292455 2343118.3,12296584 2489288.5,12267563 2679778.7,12195138 2840788.4,12134544 2979673,12088512 2989399.6,11924687 2989399.6,11896504 2982002.2,11879934 2969651.6,11866479 2957301.7,11853025 2938192.9,11842550 2913998.6,11836493 2865613.6,11824380 2809736.9,11856559 2761136.2,11874934 2657574.3,11914088 2438253.7,12020828 2070756.8,12023526 1877020.2,12029212 1734172,11976128 1586315.5,11919448 1409331,11851602 1384576.6,11802848 1300692.1,11788956 z"
       id="path3167"
       style="fill:#cf1126;fill-opacity:1;stroke:none" /></g><path
     d="M 715.66691,475.98093 C 703.18632,474.66359 692.31686,466.75371 687.05514,455.1597 685.29457,451.28035 685.34092,450.27515 687.21802,451.62751 690.39282,453.91477 694.91741,455.93413 696.86745,455.93413 698.47009,455.93413 699.80004,456.75778 702.93966,459.69476 709.02268,465.38512 715.84026,466.85846 712.87715,461.84235 710.79845,458.32342 711.37849,455.94907 715.82947,449.75713 718.06473,446.64752 720.18622,444.08186 720.54385,444.05567 720.90148,444.02949 722.70998,446.12182 724.56274,448.70534 728.54419,454.25719 729.77685,458.43532 728.30767,461.39869 727.01977,463.99643 727.11327,465.68805 728.54478,465.68805 730.11188,465.68805 735.52808,462.24966 738.75114,459.20871 740.50062,457.55806 742.41663,456.50043 744.60348,455.97815 746.39168,455.55109 749.4206,454.32314 751.33436,453.24937 753.24814,452.17557 754.94868,451.43174 755.11338,451.59644 755.89569,452.37878 750.70286,461.20116 747.3392,464.80439 740.8122,471.79627 734.53049,474.92335 725.05725,475.89658 722.21723,476.18834 717.99158,476.22631 715.66691,475.98093 z"
     id="path3082"
     style="fill:#cf1126;fill-opacity:1;fill-rule:evenodd" /><path
     d="M 731.531,460.22001 C 731.32581,459.68525 731.32508,458.97722 731.52944,458.64656 732.31389,457.37732 729.83544,451.35979 726.76429,447.07713 724.99997,444.61681 723.0844,441.94543 722.50747,441.14071 721.93056,440.33602 721.0932,439.67763 720.64667,439.67763 719.69683,439.67763 713.53795,448.04366 710.95252,452.8459 709.96899,454.67271 709.1643,457.13903 709.1643,458.32666 709.1643,459.51426 708.85216,460.48596 708.47067,460.48596 706.68105,460.48596 703.15352,456.7471 701.20303,452.78297 699.22857,448.77014 699.08764,448.03817 699.1205,441.96492 699.16203,434.2771 700.29315,429.41228 704.49043,418.86939 707.18507,412.10092 707.47059,410.86698 707.49994,405.86418 707.53528,399.83849 706.39754,396.68276 703.07014,393.57724 701.08775,391.72702 701.38115,390.90816 704.02649,390.90816 706.49065,390.90816 710.35321,392.87652 712.29074,395.11964 714.13793,397.25815 715.32446,396.56195 715.89309,393.00597 716.10677,391.66977 717.14503,389.55383 718.20036,388.30386 719.79025,386.42077 720.32276,386.14973 721.30691,386.72266 723.08367,387.75704 725.4208,392.79903 725.4208,395.59776 725.4208,398.80746 726.42875,398.76215 729.6781,395.40638 732.54937,392.44108 734.49563,391.28479 737.61318,390.69215 740.42808,390.15705 740.38045,391.31975 737.47199,394.13871 734.09248,397.41428 732.40295,401.50897 732.36562,406.51446 732.32972,411.3325 732.98269,413.67978 736.54335,421.53148 739.90024,428.93386 741.6773,436.11042 741.6773,442.26466 741.6773,448.89334 740.34478,453.09787 737.06209,456.82722 733.79156,460.54272 732.06195,461.60367 731.531,460.22001 z"
     id="path3080"
     style="fill:#cf1126;fill-opacity:1;fill-rule:evenodd" /><path
     d="M 726.73055,389.62571 C 725.09246,386.41481 721.66928,382.45478 720.53175,382.45478 719.50497,382.45478 714.36639,388.15537 714.36639,389.29444 714.36639,389.73676 713.96319,390.43329 713.47036,390.84229 712.77553,391.41894 711.97641,391.19447 709.91166,389.84264 706.55403,387.64431 705.03962,383.55699 705.0831,376.81034 705.12102,370.92594 706.06516,366.90692 709.317,358.78744 711.67927,352.88913 711.87458,351.93937 711.65713,347.40789 711.36968,341.41781 709.74712,337.74028 705.19334,332.75774 703.4433,330.8429 702.01144,329.0978 702.01144,328.8797 702.01144,328.66162 703.36682,328.48318 705.02342,328.48318 708.37623,328.48318 711.13238,329.88533 713.9122,333.00519 714.88281,334.09452 715.92959,334.98578 716.2384,334.98578 716.54722,334.98578 717.00138,333.44954 717.24764,331.57192 717.74039,327.81544 719.08286,325.23188 720.54214,325.23188 721.92124,325.23188 723.47004,328.66527 723.47004,331.7226 723.47004,335.43987 724.80041,335.67625 727.69419,332.47316 728.99452,331.03385 731.06428,329.52428 732.29368,329.11854 734.60316,328.35635 738.11736,328.75823 738.79987,329.86259 739.01374,330.2086 737.96672,331.81738 736.47319,333.43767 729.9256,340.54095 728.60768,348.54051 732.45385,357.83409 735.59147,365.41552 736.6432,370.7947 736.31411,377.57783 735.95839,384.91039 734.63811,388.27901 731.23808,390.52905 729.84211,391.45284 728.55335,392.20868 728.37413,392.20868 728.19491,392.20868 727.45529,391.04634 726.73055,389.62571 z"
     id="path3078"
     style="fill:#cf1126;fill-opacity:1;fill-rule:evenodd" /><path
     d="M 711.61122,326.89475 C 708.25173,324.42928 707.13975,322.07537 707.13975,317.4293 707.13975,315.04562 707.58184,313.76233 709.14752,311.60094 711.46279,308.40478 711.03638,307.39407 707.76807,308.33141 702.51373,309.83834 700.00125,308.46276 699.82254,303.98124 699.73525,301.79179 700.20159,300.8573 703.14898,297.31565 705.51074,294.4777 706.36773,292.98727 705.9042,292.52375 705.44069,292.06024 702.64612,294.48113 696.91939,300.30718 692.34775,304.95808 687.20815,309.70935 685.49803,310.86555 675.66446,317.51396 666.26445,318.54 661.96794,313.4339 659.77091,310.82287 659.89245,309.34725 662.43436,307.7708 663.59671,307.04993 665.5719,305.39085 666.82363,304.08394 669.77112,301.00658 678.55612,294.66536 682.91756,292.46696 686.45549,290.68366 687.30184,289.46759 685.00499,289.46759 682.02014,289.46759 672.45693,295.69452 665.21392,302.35422 663.07684,304.3192 660.00909,306.51047 658.39668,307.22372 654.77945,308.8238 647.67281,309.40866 644.51415,308.36621 642.27578,307.62748 638.2122,303.79323 638.2122,302.41991 638.2122,302.05808 639.13838,301.26357 640.27039,300.65433 641.4024,300.04509 643.42699,298.58299 644.76952,297.40523 650.56857,292.31776 661.55646,287.08419 670.28368,285.25275 673.05282,284.67164 672.02874,283.26937 668.93531,283.40644 662.95362,283.6715 651.0645,289.23661 643.95677,295.09854 635.6354,301.96138 623.08686,301.31272 619.04684,293.81089 618.35341,292.52324 617.94322,291.31252 618.13534,291.1204 618.32746,290.92829 620.80187,290.18537 623.63404,289.46948 626.69095,288.69677 632.74695,286.1916 638.53733,283.30447 647.6539,278.75886 650.34563,277.78851 656.6238,276.78444 659.44309,276.33355 659.58629,274.95395 656.84746,274.63004 653.3153,274.21232 647.90721,275.98236 638.35211,280.6835 626.07366,286.72453 622.62898,287.76339 616.15863,287.37674 610.2563,287.02403 606.93374,285.50671 602.14382,280.97661 599.01234,278.01498 594.56653,270.47153 595.43857,269.59947 595.64507,269.39298 597.08718,269.59789 598.64325,270.05483 600.36384,270.56007 605.29466,270.89533 611.22642,270.9104 619.54004,270.93151 621.74842,270.71285 626.18238,269.42959 633.58511,267.28712 643.44458,262.28172 650.17578,257.24879 663.06627,247.61054 673.57767,243.73635 686.98168,243.68324 699.35229,243.63422 707.21866,246.48923 714.19169,253.55877 716.54771,255.9474 718.5614,257.49771 718.88615,257.17295 719.19893,256.86017 719.53696,252.68025 719.63734,247.88422 719.63734,247.88422 723.2843,247.53433 724.04652,248.55438 724.04652,256.34025 724.13585,256.95458 725.26813,256.95458 726.01145,256.95458 726.805,256.19352 727.29491,255.01082 728.35018,252.46316 732.2732,248.96749 736.45543,246.8482 745.51353,242.25811 761.17479,242.11785 773.74883,246.51418 779.04951,248.36749 784.93115,251.6938 790.53361,256.00667 796.14538,260.32672 807.63654,266.11247 814.43276,268.03984 821.30114,269.98766 833.40664,270.48125 839.62459,269.06701 842.18307,268.4851 844.58435,268.00899 844.9608,268.00899 847.25243,268.00899 843.34713,275.64443 838.76979,280.11334 830.39986,288.28501 819.51208,288.24679 804.18506,279.99192 794.63818,274.85016 783.2203,272.04252 783.2203,274.83672 783.2203,275.41977 783.81925,275.81211 784.70933,275.81211 788.02506,275.81211 794.44078,278.03618 803.37835,282.28392 813.05325,286.88209 818.48131,288.81732 821.70365,288.81732 824.04005,288.81732 824.11205,290.26934 821.93457,293.4738 819.61946,296.88079 815.69734,298.57447 810.16335,298.55694 804.86612,298.54017 801.92719,297.38244 797.20089,293.45067 789.29355,286.87266 769.58382,279.53198 770.33753,283.44572 770.48912,284.23274 771.44301,284.71186 773.47397,285.02105 780.33346,286.06534 788.38459,289.9131 796.6215,296.08362 799.16397,297.98827 801.79631,299.87036 802.47116,300.26604 803.60031,300.92814 803.62058,301.1303 802.72549,302.80282 801.25159,305.55679 797.52203,307.70213 793.48373,308.11892 788.2506,308.65902 783.69867,307.10261 778.99358,303.16439 769.04944,294.84096 759.68261,288.81732 756.68375,288.81732 754.2293,288.81732 755.33,290.16749 759.6527,292.45911 765.33147,295.46965 771.16997,299.54358 775.46655,303.49358 777.50485,305.36745 779.79072,307.23143 780.54617,307.63576 782.34995,308.60111 782.28071,310.00505 780.30132,312.6002 778.28448,315.24438 774.93886,316.39741 770.60918,315.94045 761.96969,315.02863 755.22847,310.85817 744.63734,299.873 740.49895,295.58059 736.8066,292.06862 736.43211,292.06862 735.01956,292.06862 735.84612,293.98494 738.57545,297.03781 741.95876,300.82214 742.61324,302.95478 741.33227,306.02059 740.19731,308.7369 738.31887,309.36672 734.45526,308.32636 730.50723,307.26327 729.89246,308.23454 732.47743,311.45117 736.34358,316.26208 735.76818,322.1457 731.03535,326.19681 729.56624,327.45431 728.02701,328.48318 727.61484,328.48318 727.20266,328.48318 726.15803,327.40965 725.29341,326.09756 722.25002,321.47914 719.57581,321.50557 716.61905,326.18332 715.59342,327.80588 714.72355,329.12619 714.68601,329.11732 714.64847,329.10845 713.26478,328.1083 711.61122,326.89475 z"
     id="path3059"
     style="fill:#cf1126;fill-opacity:1;fill-rule:evenodd" /><path
     d="M 726.66852,233.02552 721.54395,237.0874 716.93891,233.61591 716.93891,261.36438 726.66852,261.48246 z"
     id="path689-7"
     style="fill:#cf1126;fill-rule:evenodd;stroke:none" /><path
     d="M 716.95377,197.56452 C 712.49443,197.64186 707.7875,197.70294 703.56376,198.53276 700.62848,199.10945 697.9674,200.05592 695.74701,201.6264 696.11431,210.15792 736.74665,213.71594 747.65399,201.79171 745.35735,200.11684 742.56477,199.13041 739.48301,198.53276 735.41357,197.74358 730.91122,197.65803 726.63615,197.58814 726.64422,199.93395 726.65973,202.27974 726.65973,204.62557 L 716.95381,204.60196 C 716.95375,202.2004 716.95389,199.64831 716.95377,197.56452 z"
     id="path3139"
     style="fill:#cf1126;fill-rule:evenodd;stroke:none" /><path
     d="M 724.8923,155.23736 722.47606,178.87653 746.80173,190.75513 734.48922,174.29606 751.3018,168.85451 z"
     id="path625-4"
     style="fill:#cf1126;fill-rule:evenodd;stroke:none" /><path
     d="M 722.18215,149.08143 C 718.48819,149.08143 715.75872,150.46125 715.75872,152.09821 715.75872,153.73634 718.48819,155.12701 722.18215,155.12701 725.87353,155.12701 728.58197,153.73634 728.58197,152.09821 728.58197,150.46125 725.87353,149.08143 722.18215,149.08143 z"
     id="path690-0"
     style="fill:#cf1126;fill-rule:evenodd;stroke:none" /><path
     d="M 724.90186,153.97023 718.58831,154.01746 718.58806,203.40265 725.02584,203.42626 z"
     id="path4149"
     style="fill:#cf1126;fill-rule:evenodd;stroke:none" /><path
     d="M 694.88681,204.24694 C 693.86529,217.36443 690.53979,226.51319 685.91067,236.60423 L 697.00798,226.31108 704.72784,235.47842 713.09102,226.15026 721.61503,234.03095 729.81739,225.82859 738.34141,235.80008 745.7396,227.59773 758.28438,236.60423 C 753.73082,226.51061 747.56916,217.95627 748.34327,203.76445 736.19146,212.78657 707.31509,214.41639 694.88681,204.24694 z"
     id="path3969"
     style="fill:#cf1126;fill-opacity:1;fill-rule:evenodd;stroke:none" /><g
     transform="matrix(2.6776684e-5,0,0,2.6776684e-5,-70.970375,143.85136)"
     id="g3072"
     style="fill:#ffcc00;fill-rule:evenodd"><path
       d="M 1134.5412,545.32147 A 2.3562641,2.1599088 0 1 1 1129.8287,545.32147 2.3562641,2.1599088 0 1 1 1134.5412,545.32147 z"
       transform="matrix(28222.221,0,0,28222.221,-332495.24,35170.295)"
       id="path3068"
       style="fill:#ffcc00;fill-opacity:1;fill-rule:nonzero;stroke:none" /><path
       d="M 1134.5412,545.32147 A 2.3562641,2.1599088 0 1 1 1129.8287,545.32147 2.3562641,2.1599088 0 1 1 1134.5412,545.32147 z"
       transform="matrix(28222.221,0,0,28222.221,-97451.278,-43177.692)"
       id="path3070"
       style="fill:#ffcc00;fill-opacity:1;fill-rule:nonzero;stroke:none" /></g></svg>