<svg xmlns="http://www.w3.org/2000/svg" width="600" height="400" viewBox="0 0 750 500.01"><title>Flag of Swaziland</title>
<rect fill-rule="evenodd" height="500.01" width="750" y="0" x="0" fill="#3e5eb9"/>
<rect fill-rule="evenodd" height="321.43" width="750" y="89.287" x="0" fill="#ffd900"/>
<rect fill-rule="evenodd" height="250" width="750" y="125" x="0" fill="#b10c0c"/>
<rect fill-rule="evenodd" rx="5.2795" ry="5.3572" height="10.714" width="607.14" stroke="#000" y="244.65" x="74.767" stroke-width="1.3496" fill="#ffd900"/>
<g stroke="#000" stroke-dasharray="none" transform="matrix(1.0079365,0,0,1.0079473,-614.28579,-25.000134)">
<path d="m-106.3,265.75-88.583,35.433,88.583,35.433,88.582-35.433-88.582-35.433z" fill-rule="evenodd" transform="matrix(0.340001,0,0,0.300002,1256.811,136.4168)" stroke-width="3.91388011" fill="#FFF"/>
<rect fill-rule="evenodd" rx="3.8514" ry="3.5433" height="7.0866" width="442.91" y="223.23" x="761.81" stroke-width="1.25" fill="#ffd900"/>
<path d="m1224.4,279.92c-3.54,0-7.09-3.544-7.09-7.087s3.55-7.087,7.09-7.087" transform="matrix(-0.500011,0,0,0.500001,1806.328,90.35433)" stroke-width="2.49996996" fill="none"/>
<path d="m1224.4,279.92c-3.54,0-7.09-3.544-7.09-7.087s3.55-7.087,7.09-7.087" transform="matrix(-0.500011,0,0,0.500001,1802.785,90.35418)" stroke-width="2.49996996" fill="none"/>
<path d="m1224.4,279.92c-3.54,0-7.09-3.544-7.09-7.087s3.55-7.087,7.09-7.087" transform="matrix(-0.500011,0,0,0.500001,1799.241,90.3546)" stroke-width="2.49996996" fill="none"/></g>
<g stroke="#000" stroke-dasharray="none" transform="matrix(1.0079365,0,0,1.0079473,-642.85716,-3.5714476)">
<path d="m-106.3,265.75-88.583,35.433,88.583,35.433,88.582-35.433-88.582-35.433z" fill-rule="evenodd" transform="matrix(0.340001,0,0,0.300002,1256.811,136.4168)" stroke-width="3.91388011" fill="#FFF"/>
<rect fill-rule="evenodd" rx="3.8514" ry="3.5433" height="7.0866" width="442.91" y="223.23" x="761.81" stroke-width="1.25" fill="#ffd900"/>
<path d="m1224.4,279.92c-3.54,0-7.09-3.544-7.09-7.087s3.55-7.087,7.09-7.087" transform="matrix(-0.500011,0,0,0.500001,1806.328,90.35433)" stroke-width="2.49996996" fill="none"/>
<path d="m1224.4,279.92c-3.54,0-7.09-3.544-7.09-7.087s3.55-7.087,7.09-7.087" transform="matrix(-0.500011,0,0,0.500001,1802.785,90.35418)" stroke-width="2.49996996" fill="none"/>
<path d="m1224.4,279.92c-3.54,0-7.09-3.544-7.09-7.087s3.55-7.087,7.09-7.087" transform="matrix(-0.500011,0,0,0.500001,1799.241,90.3546)" stroke-width="2.49996996" fill="none"/></g>
<g stroke-width="1pt" fill-rule="evenodd" transform="matrix(0.47172739,0,0,0.47382898,348.424,253.51974)">
<path stroke-linejoin="miter" d="m338.07-0.41631c-5.571,12.442,4.275-4.1375,28.299,16.691,4.452,3.8696,8.342,14.09,8.342,21.177-1.13-0.9748-1.969-3.1443-3.214-4.5522-1.743,2.2527,1.664,12.577,2.162,17.457-3.756-2.7108-3.394-3.9938-4.642-7.3242,0.249,4.0258-0.645,15.116,0.849,19.386-2.96-1.0897-2.764-4.1629-4.31-4.7801,1.052,4.834-0.916,10.094-0.394,15.528-1.73-2.2082-3.573-3.9375-4.376-4.829-0.135,2.5882-3.327,9.3883-3.4,11.835-1.468-1.1436-1.866-2.9265-2.111-4.1265-1.824,2.9554-8.308,13.872-8.724,17.202-4.996-5.6892-17.793-19.545-19.459-26.899-1.473,4.175-3.604,5.583-7.817,8.6317-1.665-11.656-7.891-24.756-4.561-34.747-2.359,1.8039-4.302,3.6077-6.66,5.8279,2.234-16.88,13.628-36.674,30.016-46.477z" transform="matrix(2.058631,0,0,1.589422,-79.54089,-15.73869)" stroke="#000" stroke-linecap="butt" fill="#3d5da7"/>
<path d="m273.5,33.156c-19.565,0.6626-27.155-1.6652-39.755-1.2489-22.163,0.7088-38.09,4.4093-38.09-0.4162,0-4.8256,8.006-7.0769,30.181-7.0769,22.174,0,27.682,1.4187,47.664,8.742z" transform="matrix(-0.276657,0.475558,-0.981454,-0.259237,681.8329,-39.92822)" fill="#a70000"/>
<path d="m273.5,33.156c-19.565,0.6626-27.155-1.6652-39.755-1.2489-22.163,0.7088-38.09,4.4093-38.09-0.4162,0-4.8256,8.006-7.0769,30.181-7.0769,22.174,0,27.682,1.4187,47.664,8.742z" transform="matrix(5.95138e-4,0.371544,-0.904786,0.08268648,635.6661,-0.247017)" fill="#a70000"/>
<path d="m273.5,33.156c-19.565,0.6626-27.155-1.6652-39.755-1.2489-22.163,0.7088-38.09,4.4093-38.09-0.4162,0-4.8256,8.006-7.0769,30.181-7.0769,22.174,0,27.682,1.4187,47.664,8.742z" transform="matrix(0.06912644,0.522143,-0.838604,0.216493,639.1691,-31.72491)" fill="#a70000"/>
<path d="m273.5,33.156c-19.565,0.6626-27.155-1.6652-39.755-1.2489-22.163,0.7088-38.09,4.4093-38.09-0.4162,0-4.8256,8.006-7.0769,30.181-7.0769,22.174,0,27.682,1.4187,47.664,8.742z" transform="matrix(0.320317,0.211522,0.45182,-0.559948,553.0942,8.394493)" fill="#a70000"/>
<path d="m273.5,33.156c-19.565,0.6626-27.155-1.6652-39.755-1.2489-22.163,0.7088-38.09,4.4093-38.09-0.4162,0-4.8256,8.006-7.0769,30.181-7.0769,22.174,0,27.682,1.4187,47.664,8.742z" transform="matrix(0.188149,0.320913,0.808386,-0.337905,573.209,4.559387)" fill="#a70000"/></g>
<g stroke-width="1pt" fill-rule="evenodd" transform="matrix(0.46216812,0,0,0.47298633,-111.4688,249.82007)">
<path stroke-linejoin="miter" d="m329.6,20.703c-0.272-2.6623,0.253-2.9806-1.258-4.9889,2.2,0.9974,2.284,3.6487,4.959,1.7668,0.983-0.5511,1.411-0.5686,0.217-3.526,2.79,0.1401,11.927,3.5353,13.39,3.6142,3.842,0.191,10.855-4.3733,15.723,1.2392,4.672,5.1175,3.112,10.429,3.112,17.516-1.877-0.9748-0.973-1.4548-2.965-3.9891,1.494,6.195-0.08,17.364-0.08,23.934-0.767-1.5844-0.654-0.8963-1.404-2.537-1.992,5.9969-4.38,7.231-4.38,14.318-0.719-2.7793-0.025-2.1917-0.825-3.6536-1.936,4.5523-14.925,8.4437-9.92,13.033-4.518-2.8699-6.499-2.5689-8.548-5.15-0.882,0.6171-1.584,1.7852-2.404,3.3868-7.943-3.9596-5.103-12.501-11.326-18.206-1.077,2.3922-0.586,2.0448-1.75,5.9383-1.26-5.4076-1.604-8.8441-3.021-12.819-1.223,2.2038-1.113,1.359-3.333,4.6893-0.918-6.5873-2.413-8.142-1.822-12.501-2.359,1.8039-0.815,1.0733-3.173,3.2935,2.234-16.88,11.884-29.352,18.808-25.358z" transform="matrix(2.40293,0,0,2.166935,-332.3264,-34.37559)" stroke="#000" stroke-linecap="butt" fill="#3d5da7"/>
<path d="m273.5,33.156c-19.565,0.6626-27.155-1.6652-39.755-1.2489-22.163,0.7088-38.09,4.4093-38.09-0.4162,0-4.8256,8.006-7.0769,30.181-7.0769,22.174,0,27.682,1.4187,47.664,8.742z" transform="matrix(-0.28442,0.590521,-0.977125,-0.336744,546.3839,-80.15939)" fill="#a70000"/>
<path d="m273.5,33.156c-19.565,0.6626-27.155-1.6652-39.755-1.2489-22.163,0.7088-38.09,4.4093-38.09-0.4162,0-4.8256,8.006-7.0769,30.181-7.0769,22.174,0,27.682,1.4187,47.664,8.742z" transform="matrix(-0.131478,0.536393,-0.907928,-0.09700552,520.879,-43.83943)" fill="#a70000"/>
<path d="m273.5,33.156c-19.565,0.6626-27.155-1.6652-39.755-1.2489-22.163,0.7088-38.09,4.4093-38.09-0.4162,0-4.8256,8.006-7.0769,30.181-7.0769,22.174,0,27.682,1.4187,47.664,8.742z" transform="matrix(-0.0577307,0.523526,-0.866044,0.00969092,521.5908,-23.37511)" fill="#a70000"/>
<path d="m273.5,33.156c-19.565,0.6626-27.155-1.6652-39.755-1.2489-22.163,0.7088-38.09,4.4093-38.09-0.4162,0-4.8256,8.006-7.0769,30.181-7.0769,22.174,0,27.682,1.4187,47.664,8.742z" transform="matrix(0.49337,0.431504,0.766549,-0.693234,364.558,-41.83645)" fill="#a70000"/>
<path d="m273.5,33.156c-19.565,0.6626-27.155-1.6652-39.755-1.2489-22.163,0.7088-38.09,4.4093-38.09-0.4162,0-4.8256,8.006-7.0769,30.181-7.0769,22.174,0,27.682,1.4187,47.664,8.742z" transform="matrix(0.331456,0.441747,0.796999,-0.445574,402.2715,-18.44129)" fill="#a70000"/></g>
<g fill-rule="evenodd" transform="matrix(1.0079365,0,0,1.0079473,0,1.2399686e-4)">
<path d="M637.8,230.32c-53.15,59.05-124.02,177.16-265.75,177.16-124.02,0-212.6-118.11-265.75-177.16,53.15-59.06,141.73-177.17,265.75-177.17,141.73,0,212.6,118.11,265.75,177.17z" transform="matrix(0.666667,0,0,0.6,124.016,109.8426)" stroke="#000" stroke-dasharray="none" stroke-width="1.97642004" fill="#FFF"/>
<path d="m353.5,114.78c14.14,17.671,2.333,24.795,17.3,25.955,15.784,1.288,6.837,18.672,20.114,19.276,9.282,0.45-0.927,41.652,8.009,55.247,9.102,14.174,16.725,4.153,16.885,14.393,0.158,10.59-24.773,9.522-25.21,42.146-0.731,18.8-21.039,20.004-22.008,32.101-1.205,11.378,40.008,17.766,39.459,27.952-0.565,10.155-44.501,8.565-46.414,20.146-0.981,10.402,60.359,18.928,65.291,49.013-9.153,3.326-35.194,6.457-54.877,6.474-124,0.1-212.59-118.12-265.74-177.17,53.15-59.06,141.73-177.17,265.75-177.17,0,0-36.813,37.374-18.549,61.627z" transform="matrix(0.666667,0,0,0.6,124.0159,109.8424)" stroke-width="1pt"/>
<g font-size="12px" transform="matrix(0.484849,0,0,0.533333,183.7152,210.2362)" stroke-width="1pt" fill="#FFF">
<rect height="53.15" width="17.717" y="0.000038" x="159.45"/>
<rect height="53.15" width="17.717" y="88.583" x="159.45"/>
<rect height="53.15" width="17.717" y="0.000099" x="194.88"/>
<rect height="53.15" width="17.717" y="88.583" x="194.88"/>
<rect height="53.15" width="17.717" y="-0.000015" x="230.31"/>
<rect height="53.15" width="17.717" y="88.583" x="230.31"/>
<rect height="53.15" width="17.717" y="0.000046" x="265.75"/>
<rect height="53.15" width="17.717" y="88.583" x="265.75"/>
<rect height="53.15" width="17.717" y="-0.000015" x="301.18"/>
<rect height="53.15" width="17.717" y="88.583" x="301.18"/>
<rect height="53.15" width="17.717" y="0.000046" x="336.61"/>
<rect height="53.15" width="17.717" y="88.583" x="336.61"/></g>
<g font-size="12px" transform="matrix(0.484849,0,0,0.533333,313.6365,210.2362)" stroke-width="1pt" fill="#000">
<rect height="53.15" width="17.717" y="0.000038" x="159.45"/>
<rect height="53.15" width="17.717" y="88.583" x="159.45"/>
<rect height="53.15" width="17.717" y="0.000099" x="194.88"/>
<rect height="53.15" width="17.717" y="88.583" x="194.88"/>
<rect height="53.15" width="17.717" y="-0.000015" x="230.31"/>
<rect height="53.15" width="17.717" y="88.583" x="230.31"/>
<rect height="53.15" width="17.717" y="0.000046" x="265.75"/>
<rect height="53.15" width="17.717" y="88.583" x="265.75"/>
<rect height="53.15" width="17.717" y="-0.000015" x="301.18"/>
<rect height="53.15" width="17.717" y="88.583" x="301.18"/>
<rect height="53.15" width="17.717" y="0.000046" x="336.61"/>
<rect height="53.15" width="17.717" y="88.583" x="336.61"/></g></g>
<g stroke-width="1pt" fill-rule="evenodd" transform="matrix(0.53134179,0,0,0.52021975,143.80523,162.0966)">
<path stroke-linejoin="miter" d="m338.07-0.4163c-5.571,12.442,9.754-4.1376,33.778,16.691,4.452,3.8696,10.833,19.159,10.833,26.245-5.115-1.2564-14.173-7.0866-14.173-7.0866s10.63,12.295,10.63,26.468c-3.756-2.7108-5.635-2.3043-6.883-5.6345,0,4.5889,3.34,7.5126,3.34,14.599-2.711-2.4977-5.006-4.1629-7.3-5.6248,3.543,7.0866-6.457,20.834-1.452,25.423-8.752-1.4619-17.707-7.9192-21.25-15.006-1.878,1.4619-2.082,3.7564-2.155,6.2028,0.276,0.2643-13.322-11.656-12.073-16.235-1.824,2.9554-2.081,4.5791-2.497,7.9094-4.996-5.6892-9.574-11.378-11.24-18.733-2.22,3.3302-2.359,3.3302-4.579,6.6605-1.665-11.656-1.665-11.24,1.665-21.23-2.359,1.8039-4.302,3.6077-6.66,5.8279,2.234-16.88,13.628-36.674,30.016-46.477z" transform="matrix(1.671432,0,0,1.478311,-238.6252,0.199112)" stroke="#000" stroke-linecap="butt" fill="#3d5da7"/>
<path d="m273.5,33.156c-19.565,0.6626-27.155-1.6652-39.755-1.2489-22.163,0.7088-38.09,4.4093-38.09-0.4162,0-4.8256,8.006-7.0769,30.181-7.0769,22.174,0,27.682,1.4187,47.664,8.742z" transform="matrix(-0.111023,0.645975,-1.032059,-0.05499046,368.0553,-85.39377)" fill="#a70000"/>
<path d="m273.5,33.156c-19.565,0.6626-27.155-1.6652-39.755-1.2489-22.163,0.7088-38.09,4.4093-38.09-0.4162,0-4.8256,8.006-7.0769,30.181-7.0769,22.174,0,27.682,1.4187,47.664,8.742z" transform="matrix(0.0211318,0.551867,-0.899589,0.156468,353.5242,-43.45949)" fill="#a70000"/>
<path d="m273.5,33.156c-19.565,0.6626-27.155-1.6652-39.755-1.2489-22.163,0.7088-38.09,4.4093-38.09-0.4162,0-4.8256,8.006-7.0769,30.181-7.0769,22.174,0,27.682,1.4187,47.664,8.742z" transform="matrix(0.252816,0.462057,0.80443,-0.320963,274.2416,15.86573)" fill="#a70000"/>
<path d="m273.5,33.156c-19.565,0.6626-27.155-1.6652-39.755-1.2489-22.163,0.7088-38.09,4.4093-38.09-0.4162,0-4.8256,8.006-7.0769,30.181-7.0769,22.174,0,27.682,1.4187,47.664,8.742z" transform="matrix(0.593028,0.279155,0.546303,-0.877339,203.7838,1.463341)" fill="#a70000"/>
<path d="m273.5,33.156c-19.565,0.6626-27.155-1.6652-39.755-1.2489-22.163,0.7088-38.09,4.4093-38.09-0.4162,0-4.8256,8.006-7.0769,30.181-7.0769,22.174,0,27.682,1.4187,47.664,8.742z" transform="matrix(0.440176,0.333539,0.643699,-0.647607,246.4775,13.58279)" fill="#a70000"/></g>
</svg>
