<?xml version="1.0" encoding="UTF-8" standalone="no"?>
<svg
   xmlns:dc="http://purl.org/dc/elements/1.1/"
   xmlns:cc="http://creativecommons.org/ns#"
   xmlns:rdf="http://www.w3.org/1999/02/22-rdf-syntax-ns#"
   xmlns:svg="http://www.w3.org/2000/svg"
   xmlns="http://www.w3.org/2000/svg"
   xmlns:sodipodi="http://sodipodi.sourceforge.net/DTD/sodipodi-0.dtd"
   xmlns:inkscape="http://www.inkscape.org/namespaces/inkscape"
   version="1.0"
   width="450"
   height="300"
   id="svg8808"
   sodipodi:version="0.32"
   inkscape:version="0.46"
   sodipodi:docname="Naval Ensign of SFR Yugoslavia.svg"
   sodipodi:docbase="C:\Documents and Settings\David Nelson\Archives\Svg"
   inkscape:output_extension="org.inkscape.output.svg.inkscape">
  <metadata
     id="metadata8819">
    <rdf:RDF>
      <cc:Work
         rdf:about="">
        <dc:format>image/svg+xml</dc:format>
        <dc:type
           rdf:resource="http://purl.org/dc/dcmitype/StillImage" />
      </cc:Work>
    </rdf:RDF>
  </metadata>
  <defs
     id="defs8817">
    <inkscape:perspective
       sodipodi:type="inkscape:persp3d"
       inkscape:vp_x="0 : 150 : 1"
       inkscape:vp_y="0 : 1000 : 0"
       inkscape:vp_z="450 : 150 : 1"
       inkscape:persp3d-origin="225 : 100 : 1"
       id="perspective12" />
  </defs>
  <sodipodi:namedview
     inkscape:window-height="736"
     inkscape:window-width="1272"
     inkscape:pageshadow="2"
     inkscape:pageopacity="0.0"
     borderopacity="1.0"
     bordercolor="#666666"
     pagecolor="#ffffff"
     id="base"
     inkscape:zoom="2.4566201"
     inkscape:cx="114.33136"
     inkscape:cy="240.17041"
     inkscape:window-x="0"
     inkscape:window-y="29"
     inkscape:current-layer="svg8808"
     showgrid="false" />
  <rect
     style="opacity:1;fill:#dd0000;fill-opacity:1;fill-rule:evenodd;stroke:none;stroke-width:1;stroke-linecap:square;stroke-linejoin:miter;stroke-miterlimit:4;stroke-dasharray:none;stroke-dashoffset:0.99999998000000001;stroke-opacity:1"
     id="rect8839"
     width="450"
     height="300"
     x="0"
     y="-7.6293945e-006" />
  <rect
     style="opacity:1;fill:#ffffff;fill-opacity:1;fill-rule:evenodd;stroke:none;stroke-width:1;stroke-linecap:square;stroke-linejoin:miter;stroke-miterlimit:4;stroke-dasharray:none;stroke-dashoffset:0.99999998;stroke-opacity:1"
     id="rect8841"
     width="225"
     height="150"
     x="0"
     y="3.8146973e-006" />
  <rect
     style="fill:#003893"
     x="0"
     y="0"
     width="221.99985"
     height="49"
     id="rect8810" />
  <rect
     style="fill:#ffffff"
     x="0"
     y="49"
     width="221.99985"
     height="49"
     id="rect8812" />
  <rect
     style="fill:#dd0000;fill-opacity:1"
     x="0"
     y="98"
     width="221.99985"
     height="49"
     id="rect8814" />
  <path
     style="fill:#f5bf22;fill-opacity:1;stroke:#000000;stroke-width:1;stroke-miterlimit:4;stroke-dasharray:none;stroke-opacity:1"
     d="M 89.370078,28.762115 C 87.626784,27.281757 86.681821,29.805852 85.433048,30.200415 C 83.514148,31.678787 72.907892,38.56944 73.008197,41.811941 C 73.042332,42.876843 72.400908,44.346559 72.706418,45.539077 C 72.762176,45.756727 72.851978,45.975793 72.982998,46.169438 C 73.01539,46.21731 73.048474,46.270813 73.08624,46.316885 C 73.223396,46.506234 73.39854,46.665541 73.583989,46.79238 C 74.600096,47.487334 76.20056,47.387262 77.189568,47.783558 C 80.202216,48.986814 90.304865,41.376934 92.350381,40.079388 C 93.148256,39.040878 95.843329,39.016197 95.048485,36.871721 C 94.807919,36.43072 94.42149,36.129235 94.005073,36.009214 C 92.295218,35.856398 90.416593,35.363706 88.670546,35.294769 C 89.198497,33.634366 89.384113,31.690534 89.823702,30.037598 C 89.853342,29.605241 89.702206,29.139005 89.370078,28.762115 z"
     id="path5408"
     sodipodi:nodetypes="ccsssssscccccc" />
  <path
     style="fill:#f5bf22;fill-opacity:1;stroke:#000000;stroke-width:1;stroke-miterlimit:4;stroke-dasharray:none;stroke-opacity:1"
     d="M 78.170968,36.152187 C 76.087164,35.209691 75.874542,37.896474 74.7829,38.61996 C 73.345829,40.569984 65.049764,50.117185 66.039937,53.206429 C 66.36627,54.22067 66.154806,55.810253 66.777188,56.872363 C 66.890776,57.066214 67.037483,57.252041 67.216806,57.402071 C 67.261135,57.439159 67.307686,57.481471 67.356688,57.515348 C 67.540722,57.659557 67.752992,57.764417 67.966219,57.835224 C 69.13452,58.22318 70.6454,57.685838 71.70533,57.794176 C 74.932936,58.120421 82.546657,48.020666 84.155282,46.209564 C 84.635996,44.99136 87.219863,44.224771 85.864712,42.38246 C 85.51191,42.024851 85.05735,41.841557 84.623981,41.840967 C 82.938242,42.16537 80.996586,42.209584 79.299178,42.624593 C 79.349008,40.882989 78.99164,38.963295 78.958589,37.253224 C 78.867908,36.829445 78.594114,36.42293 78.170968,36.152187 z"
     id="path5406"
     sodipodi:nodetypes="ccsssssscccccc" />
  <path
     style="fill:#f5bf22;fill-opacity:1;stroke:#000000;stroke-width:1;stroke-miterlimit:4;stroke-dasharray:none;stroke-opacity:1"
     d="M 69.353221,45.99699 C 67.09036,45.66538 67.626546,48.306686 66.776612,49.303043 C 65.932715,51.573637 60.58958,63.037699 62.392907,65.734345 C 62.986172,66.619342 63.221051,68.205637 64.112065,69.055055 C 64.274699,69.210084 64.466939,69.348275 64.680664,69.443066 C 64.733497,69.466498 64.789916,69.49434 64.84635,69.513395 C 65.063012,69.601294 65.295961,69.643582 65.520443,69.652872 C 66.750419,69.703775 68.05466,68.770792 69.103392,68.582777 C 72.295889,68.006734 76.8308,56.1996 77.877902,54.015258 C 78.004213,52.711745 80.276684,51.262644 78.46622,49.865227 C 78.028513,49.61872 77.541038,49.567818 77.124295,49.686703 C 75.593279,50.463193 73.739024,51.040888 72.221764,51.907688 C 71.789611,50.219814 70.916946,48.472992 70.413821,46.838276 C 70.209839,46.455906 69.834604,46.140608 69.353221,45.99699 z"
     id="path5414"
     sodipodi:nodetypes="ccsssssscccccc" />
  <path
     style="fill:#f5bf22;fill-opacity:1;stroke:#000000;stroke-width:1;stroke-miterlimit:4;stroke-dasharray:none;stroke-opacity:1"
     d="M 112.13088,23.160705 C 111.62616,20.966288 110.47457,22.696432 109.72898,22.401519 C 108.35313,22.713761 101.08647,23.315561 100.28216,26.21296 C 100.01861,27.165122 99.301212,28.125724 99.143384,29.329243 C 99.11458,29.548901 99.102882,29.787285 99.119065,30.024524 C 99.123068,30.083164 99.125939,30.14711 99.133181,30.206943 C 99.153653,30.443557 99.201564,30.673304 99.263348,30.879856 C 99.601841,32.011548 100.45033,32.745511 100.85373,33.601152 C 102.0836,36.204143 109.28141,34.7125 110.67458,34.62398 C 111.35853,34.122186 112.74936,35.484367 112.90711,33.194068 C 112.89995,32.683487 112.78103,32.220448 112.59881,31.901294 C 111.76089,30.889217 110.92597,29.49216 110.0473,28.535114 C 110.75674,27.348895 111.36515,25.73813 112.02723,24.513094 C 112.15656,24.14884 112.20199,23.662036 112.13088,23.160705 z"
     id="path5502"
     sodipodi:nodetypes="ccsssssscccccc" />
  <path
     style="fill:#f5bf22;fill-opacity:1;stroke:#000000;stroke-width:1;stroke-miterlimit:4;stroke-dasharray:none;stroke-opacity:1"
     d="M 100.48039,24.485519 C 99.28892,22.550278 98.300737,24.592573 97.297492,24.558404 C 95.666175,25.316305 86.781197,28.315304 86.524833,31.360719 C 86.441547,32.361267 85.795853,33.521182 85.908637,34.72743 C 85.929223,34.947587 85.9759,35.179989 86.056964,35.402003 C 86.077005,35.456879 86.097001,35.517218 86.121376,35.572158 C 86.207617,35.792141 86.326227,35.996397 86.456135,36.173796 C 87.167881,37.145758 88.411905,37.566481 89.133489,38.252199 C 91.331973,40.337375 99.902753,36.50836 101.61308,35.959134 C 102.335,35.250166 104.41503,36.092296 104.02303,33.844332 C 103.88298,33.357298 103.61611,32.953089 103.30747,32.707898 C 102.00515,32.017065 100.60771,30.956206 99.268849,30.331701 C 99.846707,28.95817 100.18984,27.211365 100.69881,25.816411 C 100.76615,25.424142 100.69763,24.94237 100.48039,24.485519 z"
     id="path5504"
     sodipodi:nodetypes="ccsssssscccccc" />
  <path
     style="fill:#f5bf22;fill-opacity:1;stroke:#000000;stroke-width:1;stroke-miterlimit:4;stroke-dasharray:none;stroke-opacity:1"
     d="M 88.400682,29.015764 C 86.748934,27.45484 86.323006,29.683307 85.345102,29.909961 C 83.96553,31.064253 76.159498,36.260665 76.700081,39.268662 C 76.878594,40.256673 76.55511,41.544183 76.97625,42.680138 C 77.053116,42.887466 77.158352,43.099868 77.294116,43.293336 C 77.327677,43.341155 77.362608,43.394263 77.400372,43.441022 C 77.54061,43.631188 77.708044,43.797786 77.87944,43.935518 C 78.818496,44.690147 80.129022,44.774558 81.003496,45.250151 C 83.666751,46.695266 90.954468,40.778441 92.464367,39.805264 C 92.978194,38.933607 95.205308,39.20869 94.244849,37.138781 C 93.983517,36.70459 93.621124,36.383225 93.25954,36.226271 C 91.822795,35.896042 90.198401,35.233015 88.743527,34.976313 C 88.946199,33.500023 88.825533,31.723929 88.95612,30.244776 C 88.919639,29.848445 88.728762,29.400823 88.400682,29.015764 z"
     id="path5506"
     sodipodi:nodetypes="ccsssssscccccc" />
  <path
     style="fill:#f5bf22;fill-opacity:1;stroke:#000000;stroke-width:1;stroke-miterlimit:4;stroke-dasharray:none;stroke-opacity:1"
     d="M 78.367227,35.677109 C 76.367764,34.596875 76.53312,36.859646 75.6472,37.331678 C 74.613388,38.803698 68.418271,45.843396 69.718961,48.608985 C 70.147107,49.517127 70.167878,50.84449 70.868674,51.83274 C 70.996581,52.013108 71.153205,52.191036 71.334417,52.342774 C 71.379211,52.380277 71.426697,52.422535 71.475276,52.457926 C 71.659954,52.605316 71.864802,52.722902 72.066005,52.811581 C 73.168376,53.297451 74.456094,53.039796 75.423863,53.272853 C 78.370394,53.979426 83.8784,46.378013 85.084973,45.047205 C 85.355691,44.072261 87.578115,43.761552 86.11465,42.010758 C 85.749846,41.658999 85.316626,41.442379 84.92674,41.384357 C 83.453481,41.437238 81.712833,41.217227 80.241094,41.345821 C 80.054768,39.867379 79.478528,38.183035 79.221831,36.720484 C 79.084015,36.3471 78.783789,35.964133 78.367227,35.677109 z"
     id="path5508"
     sodipodi:nodetypes="ccsssssscccccc" />
  <path
     style="fill:#f5bf22;fill-opacity:1;stroke:#000000;stroke-width:1;stroke-miterlimit:4;stroke-dasharray:none;stroke-opacity:1"
     d="M 68.942485,46.251846 C 66.731567,45.725919 67.476936,47.86879 66.743374,48.554031 C 66.125775,50.243464 61.96376,58.646704 63.935917,60.981415 C 64.584519,61.7478 64.948129,63.024558 65.880824,63.797755 C 66.051055,63.938872 66.248393,64.0702 66.462703,64.169867 C 66.515678,64.194499 66.572483,64.223026 66.628566,64.244638 C 66.845099,64.339208 67.0734,64.399769 67.290699,64.433351 C 68.48126,64.617351 69.658414,64.035189 70.653527,64.009828 C 73.682532,63.929707 77.035467,55.161729 77.856488,53.563983 C 77.865648,52.552192 79.931927,51.676865 78.06519,50.3645 C 77.621774,50.119145 77.14725,50.022032 76.755632,50.066897 C 75.34626,50.499284 73.60798,50.737282 72.219672,51.242408 C 71.657046,49.862568 70.6645,48.384758 70.038014,47.038481 C 69.808255,46.713489 69.41914,46.421275 68.942485,46.251846 z"
     id="path5510"
     sodipodi:nodetypes="ccsssssscccccc" />
  <path
     style="fill:#f5bf22;fill-opacity:1;stroke:#000000;stroke-width:1;stroke-miterlimit:4;stroke-dasharray:none;stroke-opacity:1"
     d="M 63.569443,58.939042 C 61.29774,59.003263 62.572327,60.880202 62.041114,61.731954 C 61.881817,63.523667 60.036538,72.717783 62.545763,74.462508 C 63.370619,75.034909 64.052289,76.174053 65.153321,76.679505 C 65.354275,76.771754 65.578879,76.847533 65.811683,76.888336 C 65.869228,76.898418 65.931481,76.911271 65.991246,76.917631 C 66.224877,76.952936 66.461074,76.952344 66.67966,76.928541 C 67.877276,76.798132 68.863645,75.931136 69.818287,75.649085 C 72.723344,74.78773 73.69271,65.450711 74.072228,63.694911 C 73.819205,62.715225 75.588526,61.334931 73.445732,60.550431 C 72.953922,60.428201 72.470432,60.457213 72.10377,60.601907 C 70.854332,61.384333 69.236881,62.064122 68.026615,62.911356 C 67.126031,61.724152 65.78482,60.553587 64.831239,59.415329 C 64.525195,59.160877 64.073708,58.979331 63.569443,58.939042 z"
     id="path5512"
     sodipodi:nodetypes="ccsssssscccccc" />
  <path
     style="fill:#f5bf22;fill-opacity:1;stroke:#000000;stroke-width:1;stroke-miterlimit:4;stroke-dasharray:none;stroke-opacity:1"
     d="M 61.382721,71.974711 C 59.205046,72.624704 60.92199,74.1078 60.629328,75.068017 C 60.939188,76.839908 61.536398,86.198336 64.411691,87.234175 C 65.356589,87.573584 66.309864,88.497483 67.5042,88.700744 C 67.722182,88.737839 67.958746,88.752904 68.194178,88.732063 C 68.252372,88.726908 68.31583,88.723211 68.375205,88.713886 C 68.610013,88.687519 68.838008,88.625815 69.042985,88.546249 C 70.166041,88.110318 70.894405,87.017573 71.743519,86.498053 C 74.326653,84.914164 72.84639,75.644406 72.758542,73.850207 C 72.260579,72.96939 73.612366,71.178194 71.339542,70.975021 C 70.832855,70.984246 70.373348,71.137406 70.056629,71.372069 C 69.052272,72.451213 67.665876,73.526465 66.716129,74.658071 C 65.538961,73.744408 63.940486,72.96086 62.724795,72.108192 C 62.363322,71.94162 61.880232,71.883114 61.382721,71.974711 z"
     id="path5514"
     sodipodi:nodetypes="ccsssssscccccc" />
  <path
     style="fill:#f5bf22;fill-opacity:1;stroke:#000000;stroke-width:1;stroke-miterlimit:4;stroke-dasharray:none;stroke-opacity:1"
     d="M 63.341883,87.522431 C 61.406641,88.7139 63.448935,89.702083 63.414767,90.705328 C 64.172668,92.336645 67.171668,101.22162 70.217083,101.47799 C 71.21763,101.56127 72.377545,102.20697 73.583793,102.09418 C 73.803949,102.0736 74.036351,102.02692 74.258367,101.94586 C 74.313244,101.92581 74.373583,101.90582 74.428521,101.88144 C 74.648504,101.7952 74.85276,101.67659 75.030159,101.54669 C 76.002121,100.83494 76.422843,99.590915 77.108563,98.86933 C 79.193738,96.670847 75.364724,88.100068 74.815496,86.389742 C 74.106529,85.66782 74.948659,83.58779 72.700694,83.97979 C 72.21366,84.119841 71.809451,84.386711 71.564259,84.695351 C 70.873428,85.997671 69.812568,87.39511 69.188064,88.73397 C 67.814534,88.156113 66.067728,87.812979 64.672774,87.304009 C 64.280506,87.236669 63.798734,87.30519 63.341883,87.522431 z"
     id="path5516"
     sodipodi:nodetypes="ccsssssscccccc" />
  <path
     style="fill:#f5bf22;fill-opacity:1;stroke:#000000;stroke-width:1;stroke-miterlimit:4;stroke-dasharray:none;stroke-opacity:1"
     d="M 69.28169,101.68323 C 67.720765,103.33498 69.94923,103.7609 70.175886,104.7388 C 71.330178,106.11838 76.526588,113.92441 79.534584,113.38382 C 80.522596,113.20531 81.810105,113.52879 82.946062,113.10766 C 83.15339,113.0308 83.36579,112.92556 83.559259,112.78979 C 83.607083,112.75624 83.660189,112.7213 83.706944,112.68353 C 83.897114,112.54331 84.063709,112.37586 84.201444,112.20448 C 84.956073,111.26542 85.040479,109.95488 85.516074,109.08041 C 86.961187,106.41715 81.044366,99.12944 80.071187,97.619542 C 79.19953,97.105713 79.474614,94.878599 77.404705,95.839058 C 76.970513,96.100391 76.649149,96.462784 76.492194,96.824368 C 76.161967,98.261113 75.498939,99.885506 75.242237,101.34038 C 73.765949,101.13771 71.989854,101.25837 70.510701,101.12779 C 70.11437,101.16427 69.666749,101.35514 69.28169,101.68323 z"
     id="path5518"
     sodipodi:nodetypes="ccsssssscccccc" />
  <rect
     style="fill:#d00f0f;fill-opacity:1;stroke:none;stroke-width:1;stroke-miterlimit:4;stroke-dasharray:none;stroke-opacity:1"
     id="rect5464"
     width="22.084412"
     height="14.365587"
     x="101.27621"
     y="109.66535" />
  <rect
     style="fill:#d00f0f;fill-opacity:1;stroke:none;stroke-width:1;stroke-miterlimit:4;stroke-dasharray:none;stroke-opacity:1"
     id="rect5576"
     width="22.084412"
     height="14.365587"
     x="-122.5965"
     y="109.66535"
     transform="scale(-1,1)" />
  <rect
     style="fill:#d00f0f;fill-opacity:1;stroke:none;stroke-width:1;stroke-miterlimit:4;stroke-dasharray:none;stroke-opacity:1"
     id="rect5610"
     width="22.084412"
     height="14.365587"
     x="-119.91261"
     y="109.66535"
     transform="scale(-1,1)" />
  <path
     style="fill:#f5bf22;fill-opacity:1;stroke:#000000;stroke-width:1;stroke-miterlimit:4;stroke-dasharray:none;stroke-opacity:1"
     d="M 132.43199,28.762115 C 134.17529,27.281757 135.12025,29.805852 136.36902,30.200415 C 138.28792,31.678787 148.89418,38.56944 148.79387,41.811941 C 148.75974,42.876843 149.40116,44.346559 149.09565,45.539077 C 149.0399,45.756727 148.95009,45.975793 148.81907,46.169438 C 148.78668,46.21731 148.7536,46.270813 148.71583,46.316885 C 148.57867,46.506234 148.40353,46.665541 148.21808,46.79238 C 147.20197,47.487334 145.60151,47.387262 144.6125,47.783558 C 141.59985,48.986814 131.49721,41.376934 129.45169,40.079388 C 128.65382,39.040878 125.95874,39.016197 126.75359,36.871721 C 126.99415,36.43072 127.38058,36.129235 127.797,36.009214 C 129.50685,35.856398 131.38548,35.363706 133.13153,35.294769 C 132.60357,33.634366 132.41796,31.690534 131.97837,30.037598 C 131.94873,29.605241 132.09987,29.139005 132.43199,28.762115 z"
     id="path5618"
     sodipodi:nodetypes="ccsssssscccccc" />
  <path
     style="fill:#f5bf22;fill-opacity:1;stroke:#000000;stroke-width:1;stroke-miterlimit:4;stroke-dasharray:none;stroke-opacity:1"
     d="M 143.6311,36.152187 C 145.71491,35.209691 145.92753,37.896474 147.01917,38.61996 C 148.45624,40.569984 156.75231,50.117185 155.76213,53.206429 C 155.4358,54.22067 155.64727,55.810253 155.02488,56.872363 C 154.9113,57.066214 154.76459,57.252041 154.58527,57.402071 C 154.54094,57.439159 154.49439,57.481471 154.44538,57.515348 C 154.26135,57.659557 154.04908,57.764417 153.83585,57.835224 C 152.66755,58.22318 151.15667,57.685838 150.09674,57.794176 C 146.86913,58.120421 139.25541,48.020666 137.64679,46.209564 C 137.16608,44.99136 134.58221,44.224771 135.93736,42.38246 C 136.29016,42.024851 136.74472,41.841557 137.17809,41.840967 C 138.86383,42.16537 140.80548,42.209584 142.50289,42.624593 C 142.45306,40.882989 142.81043,38.963295 142.84348,37.253224 C 142.93416,36.829445 143.20796,36.42293 143.6311,36.152187 z"
     id="path5620"
     sodipodi:nodetypes="ccsssssscccccc" />
  <path
     style="fill:#f5bf22;fill-opacity:1;stroke:#000000;stroke-width:1;stroke-miterlimit:4;stroke-dasharray:none;stroke-opacity:1"
     d="M 152.44885,45.99699 C 154.71171,45.66538 154.17553,48.306686 155.02546,49.303043 C 155.86936,51.573637 161.21249,63.037699 159.40916,65.734345 C 158.8159,66.619342 158.58102,68.205637 157.69001,69.055055 C 157.52737,69.210084 157.33513,69.348275 157.12141,69.443066 C 157.06857,69.466498 157.01216,69.49434 156.95572,69.513395 C 156.73906,69.601294 156.50611,69.643582 156.28163,69.652872 C 155.05165,69.703775 153.74741,68.770792 152.69868,68.582777 C 149.50618,68.006734 144.97127,56.1996 143.92417,54.015258 C 143.79786,52.711745 141.52539,51.262644 143.33585,49.865227 C 143.77356,49.61872 144.26103,49.567818 144.67778,49.686703 C 146.20879,50.463193 148.06305,51.040888 149.58031,51.907688 C 150.01246,50.219814 150.88513,48.472992 151.38825,46.838276 C 151.59223,46.455906 151.96747,46.140608 152.44885,45.99699 z"
     id="path5622"
     sodipodi:nodetypes="ccsssssscccccc" />
  <path
     style="fill:#f5bf22;fill-opacity:1;stroke:#000000;stroke-width:1;stroke-miterlimit:4;stroke-dasharray:none;stroke-opacity:1"
     d="M 109.67119,23.160705 C 110.17591,20.966288 111.3275,22.696432 112.07309,22.401519 C 113.44894,22.713761 120.7156,23.315561 121.51991,26.21296 C 121.78346,27.165122 122.50086,28.125724 122.65869,29.329243 C 122.68749,29.548901 122.69919,29.787285 122.68301,30.024524 C 122.679,30.083164 122.67613,30.14711 122.66889,30.206943 C 122.64842,30.443557 122.60051,30.673304 122.53872,30.879856 C 122.20023,32.011548 121.35174,32.745511 120.94834,33.601152 C 119.71847,36.204143 112.52066,34.7125 111.12749,34.62398 C 110.44354,34.122186 109.05271,35.484367 108.89496,33.194068 C 108.90212,32.683487 109.02104,32.220448 109.20326,31.901294 C 110.04118,30.889217 110.8761,29.49216 111.75477,28.535114 C 111.04533,27.348895 110.43692,25.73813 109.77484,24.513094 C 109.64551,24.14884 109.60008,23.662036 109.67119,23.160705 z"
     id="path5624"
     sodipodi:nodetypes="ccsssssscccccc" />
  <path
     style="fill:#f5bf22;fill-opacity:1;stroke:#000000;stroke-width:1;stroke-miterlimit:4;stroke-dasharray:none;stroke-opacity:1"
     d="M 121.32168,24.485519 C 122.51315,22.550278 123.50133,24.592573 124.50458,24.558404 C 126.1359,25.316305 135.02087,28.315304 135.27724,31.360719 C 135.36052,32.361267 136.00622,33.521182 135.89343,34.72743 C 135.87285,34.947587 135.82617,35.179989 135.74511,35.402003 C 135.72507,35.456879 135.70507,35.517218 135.68069,35.572158 C 135.59445,35.792141 135.47584,35.996397 135.34594,36.173796 C 134.63419,37.145758 133.39017,37.566481 132.66858,38.252199 C 130.4701,40.337375 121.89932,36.50836 120.18899,35.959134 C 119.46707,35.250166 117.38704,36.092296 117.77904,33.844332 C 117.91909,33.357298 118.18596,32.953089 118.4946,32.707898 C 119.79692,32.017065 121.19436,30.956206 122.53322,30.331701 C 121.95536,28.95817 121.61223,27.211365 121.10326,25.816411 C 121.03592,25.424142 121.10444,24.94237 121.32168,24.485519 z"
     id="path5626"
     sodipodi:nodetypes="ccsssssscccccc" />
  <path
     style="fill:#f5bf22;fill-opacity:1;stroke:#000000;stroke-width:1;stroke-miterlimit:4;stroke-dasharray:none;stroke-opacity:1"
     d="M 133.40139,29.015764 C 135.05314,27.45484 135.47907,29.683307 136.45697,29.909961 C 137.83654,31.064253 145.64257,36.260665 145.10199,39.268662 C 144.92348,40.256673 145.24696,41.544183 144.82582,42.680138 C 144.74896,42.887466 144.64372,43.099868 144.50796,43.293336 C 144.47439,43.341155 144.43946,43.394263 144.4017,43.441022 C 144.26146,43.631188 144.09403,43.797786 143.92263,43.935518 C 142.98357,44.690147 141.67305,44.774558 140.79857,45.250151 C 138.13532,46.695266 130.8476,40.778441 129.3377,39.805264 C 128.82388,38.933607 126.59676,39.20869 127.55722,37.138781 C 127.81855,36.70459 128.18095,36.383225 128.54253,36.226271 C 129.97928,35.896042 131.60367,35.233015 133.05854,34.976313 C 132.85587,33.500023 132.97654,31.723929 132.84595,30.244776 C 132.88243,29.848445 133.07331,29.400823 133.40139,29.015764 z"
     id="path5628"
     sodipodi:nodetypes="ccsssssscccccc" />
  <path
     style="fill:#f5bf22;fill-opacity:1;stroke:#000000;stroke-width:1;stroke-miterlimit:4;stroke-dasharray:none;stroke-opacity:1"
     d="M 143.43484,35.677109 C 145.43431,34.596875 145.26895,36.859646 146.15487,37.331678 C 147.18868,38.803698 153.3838,45.843396 152.08311,48.608985 C 151.65496,49.517127 151.63419,50.84449 150.9334,51.83274 C 150.80549,52.013108 150.64887,52.191036 150.46765,52.342774 C 150.42286,52.380277 150.37537,52.422535 150.3268,52.457926 C 150.14212,52.605316 149.93727,52.722902 149.73607,52.811581 C 148.63369,53.297451 147.34598,53.039796 146.37821,53.272853 C 143.43168,53.979426 137.92367,46.378013 136.7171,45.047205 C 136.44638,44.072261 134.22396,43.761552 135.68742,42.010758 C 136.05223,41.658999 136.48544,41.442379 136.87533,41.384357 C 138.34859,41.437238 140.08924,41.217227 141.56098,41.345821 C 141.7473,39.867379 142.32354,38.183035 142.58024,36.720484 C 142.71806,36.3471 143.01828,35.964133 143.43484,35.677109 z"
     id="path5630"
     sodipodi:nodetypes="ccsssssscccccc" />
  <path
     style="fill:#f5bf22;fill-opacity:1;stroke:#000000;stroke-width:1;stroke-miterlimit:4;stroke-dasharray:none;stroke-opacity:1"
     d="M 152.85959,46.251846 C 155.0705,45.725919 154.32514,47.86879 155.0587,48.554031 C 155.6763,50.243464 159.83831,58.646704 157.86615,60.981415 C 157.21755,61.7478 156.85394,63.024558 155.92125,63.797755 C 155.75102,63.938872 155.55368,64.0702 155.33937,64.169867 C 155.28639,64.194499 155.22959,64.223026 155.17351,64.244638 C 154.95697,64.339208 154.72867,64.399769 154.51137,64.433351 C 153.32081,64.617351 152.14366,64.035189 151.14854,64.009828 C 148.11954,63.929707 144.7666,55.161729 143.94558,53.563983 C 143.93642,52.552192 141.87014,51.676865 143.73688,50.3645 C 144.1803,50.119145 144.65482,50.022032 145.04644,50.066897 C 146.45581,50.499284 148.19409,50.737282 149.5824,51.242408 C 150.14503,49.862568 151.13757,48.384758 151.76406,47.038481 C 151.99382,46.713489 152.38293,46.421275 152.85959,46.251846 z"
     id="path5632"
     sodipodi:nodetypes="ccsssssscccccc" />
  <path
     style="fill:#f5bf22;fill-opacity:1;stroke:#000000;stroke-width:1;stroke-miterlimit:4;stroke-dasharray:none;stroke-opacity:1"
     d="M 158.23263,58.939042 C 160.50433,59.003263 159.22974,60.880202 159.76096,61.731954 C 159.92025,63.523667 161.76553,72.717783 159.25631,74.462508 C 158.43145,75.034909 157.74978,76.174053 156.64875,76.679505 C 156.4478,76.771754 156.22319,76.847533 155.99039,76.888336 C 155.93284,76.898418 155.87059,76.911271 155.81083,76.917631 C 155.57719,76.952936 155.341,76.952344 155.12241,76.928541 C 153.9248,76.798132 152.93843,75.931136 151.98378,75.649085 C 149.07873,74.78773 148.10936,65.450711 147.72984,63.694911 C 147.98287,62.715225 146.21355,61.334931 148.35634,60.550431 C 148.84815,60.428201 149.33164,60.457213 149.6983,60.601907 C 150.94774,61.384333 152.56519,62.064122 153.77546,62.911356 C 154.67604,61.724152 156.01725,60.553587 156.97083,59.415329 C 157.27688,59.160877 157.72836,58.979331 158.23263,58.939042 z"
     id="path5634"
     sodipodi:nodetypes="ccsssssscccccc" />
  <path
     style="fill:#f5bf22;fill-opacity:1;stroke:#000000;stroke-width:1;stroke-miterlimit:4;stroke-dasharray:none;stroke-opacity:1"
     d="M 160.41935,71.974711 C 162.59703,72.624704 160.88008,74.1078 161.17274,75.068017 C 160.86288,76.839908 160.26567,86.198336 157.39038,87.234175 C 156.44548,87.573584 155.49221,88.497483 154.29787,88.700744 C 154.07989,88.737839 153.84333,88.752904 153.60789,88.732063 C 153.5497,88.726908 153.48624,88.723211 153.42687,88.713886 C 153.19206,88.687519 152.96406,88.625815 152.75909,88.546249 C 151.63603,88.110318 150.90767,87.017573 150.05855,86.498053 C 147.47542,84.914164 148.95568,75.644406 149.04353,73.850207 C 149.54149,72.96939 148.1897,71.178194 150.46253,70.975021 C 150.96922,70.984246 151.42872,71.137406 151.74544,71.372069 C 152.7498,72.451213 154.1362,73.526465 155.08594,74.658071 C 156.26311,73.744408 157.86159,72.96086 159.07728,72.108192 C 159.43875,71.94162 159.92184,71.883114 160.41935,71.974711 z"
     id="path5636"
     sodipodi:nodetypes="ccsssssscccccc" />
  <path
     style="fill:#f5bf22;fill-opacity:1;stroke:#000000;stroke-width:1;stroke-miterlimit:4;stroke-dasharray:none;stroke-opacity:1"
     d="M 158.46019,87.522431 C 160.39543,88.7139 158.35314,89.702083 158.3873,90.705328 C 157.6294,92.336645 154.6304,101.22162 151.58499,101.47799 C 150.58444,101.56127 149.42453,102.20697 148.21828,102.09418 C 147.99812,102.0736 147.76572,102.02692 147.5437,101.94586 C 147.48883,101.92581 147.42849,101.90582 147.37355,101.88144 C 147.15357,101.7952 146.94931,101.67659 146.77191,101.54669 C 145.79995,100.83494 145.37923,99.590915 144.69351,98.86933 C 142.60833,96.670847 146.43735,88.100068 146.98657,86.389742 C 147.69554,85.66782 146.85341,83.58779 149.10138,83.97979 C 149.58841,84.119841 149.99262,84.386711 150.23781,84.695351 C 150.92864,85.997671 151.9895,87.39511 152.61401,88.73397 C 153.98754,88.156113 155.73434,87.812979 157.1293,87.304009 C 157.52157,87.236669 158.00334,87.30519 158.46019,87.522431 z"
     id="path5638"
     sodipodi:nodetypes="ccsssssscccccc" />
  <path
     style="fill:#f5bf22;fill-opacity:1;stroke:#000000;stroke-width:1;stroke-miterlimit:4;stroke-dasharray:none;stroke-opacity:1"
     d="M 152.52038,101.68323 C 154.08131,103.33498 151.85284,103.7609 151.62619,104.7388 C 150.47189,106.11838 145.27548,113.92441 142.26749,113.38382 C 141.27947,113.20531 139.99197,113.52879 138.85601,113.10766 C 138.64868,113.0308 138.43628,112.92556 138.24281,112.78979 C 138.19499,112.75624 138.14188,112.7213 138.09513,112.68353 C 137.90496,112.54331 137.73836,112.37586 137.60063,112.20448 C 136.846,111.26542 136.76159,109.95488 136.286,109.08041 C 134.84088,106.41715 140.7577,99.12944 141.73088,97.619542 C 142.60254,97.105713 142.32746,94.878599 144.39737,95.839058 C 144.83156,96.100391 145.15292,96.462784 145.30988,96.824368 C 145.6401,98.261113 146.30313,99.885506 146.55983,101.34038 C 148.03612,101.13771 149.81222,101.25837 151.29137,101.12779 C 151.6877,101.16427 152.13532,101.35514 152.52038,101.68323 z"
     id="path5640"
     sodipodi:nodetypes="ccsssssscccccc" />
  <path
     sodipodi:type="arc"
     style="fill:none;fill-opacity:1;stroke:#000000;stroke-width:1.21692994;stroke-miterlimit:4;stroke-dasharray:none;stroke-opacity:1"
     id="path4805"
     sodipodi:cx="116.84211"
     sodipodi:cy="71.503754"
     sodipodi:rx="52.33083"
     sodipodi:ry="56.165413"
     d="M 169.17294,71.503754 A 52.33083,56.165413 0 1 1 64.51128,71.503754 A 52.33083,56.165413 0 1 1 169.17294,71.503754 z"
     transform="matrix(0.8513146,0,0,0.7931928,11.427147,17.007075)" />
  <rect
     style="fill:#dd0000;fill-opacity:1;stroke:none;stroke-width:1;stroke-miterlimit:4;stroke-dasharray:none;stroke-opacity:1"
     id="rect5612"
     width="22.084412"
     height="14.365587"
     x="98.592331"
     y="109.66535" />
  <path
     style="fill:#f5bf22;fill-opacity:1;stroke:#000000;stroke-width:1;stroke-miterlimit:4;stroke-dasharray:none;stroke-opacity:1"
     d="M 141.66576,113.14535 C 142.38237,115.30203 140.18269,114.74626 139.56401,115.53674 C 137.93482,116.29924 124.53354,124.46627 122.03582,122.7051 C 121.21583,122.12576 119.91224,121.87481 119.06069,121.01305 C 118.90527,120.85577 118.75725,120.67063 118.63929,120.46582 C 118.61013,120.4152 118.57676,120.36109 118.55034,120.30711 C 118.43726,120.09964 118.35703,119.87749 118.30464,119.66394 C 118.01757,118.49395 118.49492,117.27053 118.43346,116.27699 C 118.24928,113.25254 132.08443,105.85971 133.60454,104.90256 C 134.61168,104.80526 135.30359,102.67054 136.77366,104.4158 C 137.05672,104.83615 137.19483,105.3004 137.18426,105.69444 C 136.87636,107.13613 136.79077,108.88854 136.40858,110.31558 C 137.8322,110.75581 139.39088,111.61579 140.78663,112.12256 C 141.13041,112.32312 141.45543,112.68529 141.66576,113.14535 z"
     id="path5642"
     sodipodi:nodetypes="ccsssssscccccc" />
  <path
     style="fill:#f5bf22;fill-opacity:1;stroke:#000000;stroke-width:1;stroke-miterlimit:4;stroke-dasharray:none;stroke-opacity:1"
     d="M 80.136311,113.14535 C 79.419698,115.30203 81.619377,114.74626 82.238061,115.53674 C 83.867246,116.29924 97.268531,124.46627 99.766246,122.7051 C 100.58624,122.12576 101.88983,121.87481 102.74138,121.01305 C 102.8968,120.85577 103.04482,120.67063 103.16278,120.46582 C 103.19194,120.4152 103.22531,120.36109 103.25173,120.30711 C 103.36481,120.09964 103.44504,119.87749 103.49743,119.66394 C 103.7845,118.49395 103.30715,117.27053 103.36861,116.27699 C 103.55279,113.25254 89.717637,105.85971 88.197533,104.90256 C 87.19039,104.80526 86.498476,102.67054 85.028413,104.4158 C 84.745355,104.83615 84.607245,105.3004 84.617808,105.69444 C 84.925708,107.13613 85.0113,108.88854 85.393492,110.31558 C 83.969874,110.75581 82.411194,111.61579 81.01544,112.12256 C 80.671657,112.32312 80.346641,112.68529 80.136311,113.14535 z"
     id="path5524"
     sodipodi:nodetypes="ccsssssscccccc" />
  <path
     style="fill:none;fill-rule:evenodd;stroke:#000000;stroke-width:1;stroke-linecap:butt;stroke-linejoin:miter;stroke-miterlimit:4;stroke-dasharray:none;stroke-opacity:1"
     d="M 84.984989,109.82133 C 84.374954,110.77868 107.42108,123.24424 109.29141,123.77954 C 111.977,124.64196 118.18316,130.28208 118.71717,131.55556 C 118.89639,131.85981 119.10663,132.15034 119.37365,132.38402"
     id="path5429"
     sodipodi:nodetypes="cccc" />
  <path
     style="fill:none;fill-rule:evenodd;stroke:#000000;stroke-width:1;stroke-linecap:butt;stroke-linejoin:miter;stroke-miterlimit:4;stroke-dasharray:none;stroke-opacity:1"
     d="M 136.20385,109.82133 C 136.81388,110.77868 113.76776,123.24424 111.89743,123.77954 C 109.21184,124.64196 103.00568,130.28208 102.47167,131.55556 C 102.29245,131.85981 102.08221,132.15034 101.81519,132.38402"
     id="path5616"
     sodipodi:nodetypes="cccc" />
  <path
     style="fill:#f5bf22;fill-opacity:1;stroke:#000000;stroke-width:1;stroke-miterlimit:4;stroke-dasharray:none;stroke-opacity:1"
     d="M 110.84517,19.396197 C 106.86745,31.534794 102.96548,43.697958 99.025542,55.848809 C 86.071293,55.827787 73.117028,55.800466 60.162741,55.790931 C 70.648166,63.394697 81.133398,70.998641 91.618799,78.602477 C 87.629186,90.90409 83.597436,103.19203 79.605435,115.49287 C 90.088573,107.9089 100.52947,100.26677 110.99867,92.663727 C 121.46408,100.25572 131.8845,107.91077 142.38171,115.45761 C 138.40944,103.16348 134.35941,90.89461 130.38099,78.602477 C 140.8664,70.998641 151.35166,63.394697 161.83711,55.790931 C 148.88369,55.800466 135.93019,55.827787 122.97673,55.848809 C 118.98162,43.543593 115.04318,31.219958 110.99867,18.930757 C 110.94755,19.085913 110.89632,19.241069 110.84517,19.396197 z"
     id="path5489"
     inkscape:transform-center-x="-7.7135326" />
  <path
     style="fill:#dd0000;fill-opacity:1;stroke:none;stroke-width:1;stroke-miterlimit:4;stroke-dasharray:none;stroke-opacity:1"
     d="M 109.03338,30.678634 C 106.07734,39.616372 103.22553,48.620161 100.30779,57.582512 C 88.728753,57.572209 77.149725,57.547753 65.570696,57.549464 C 74.964286,64.315343 84.343476,71.101163 93.730532,77.876105 C 90.140796,88.904874 86.51364,99.921503 82.955759,110.96061 C 92.304209,104.12297 101.66321,97.299781 111.01645,90.468706 C 120.38179,97.298291 129.73161,104.14917 139.11018,110.96061 C 135.49224,99.933866 131.88321,88.904182 128.26931,77.876105 C 137.65629,71.101089 147.03562,64.315462 156.42915,57.549464 C 144.85011,57.547579 133.27108,57.572319 121.69205,57.582512 C 118.16579,46.664779 114.65338,35.742549 111.1156,24.828529 C 110.42152,26.778565 109.72744,28.7286 109.03338,30.678634 z"
     id="path5492"
     inkscape:transform-center-x="-7.7135376"
     inkscape:transform-center-y="0.682756" />
</svg>
