<?xml version="1.0" encoding="UTF-8" standalone="no"?>
<!-- Created with Inkscape (http://www.inkscape.org/) -->

<svg
   xmlns:dc="http://purl.org/dc/elements/1.1/"
   xmlns:cc="http://creativecommons.org/ns#"
   xmlns:rdf="http://www.w3.org/1999/02/22-rdf-syntax-ns#"
   xmlns:svg="http://www.w3.org/2000/svg"
   xmlns="http://www.w3.org/2000/svg"
   xmlns:xlink="http://www.w3.org/1999/xlink"
   xmlns:sodipodi="http://sodipodi.sourceforge.net/DTD/sodipodi-0.dtd"
   xmlns:inkscape="http://www.inkscape.org/namespaces/inkscape"
   version="1.1"
   width="1200"
   height="600"
   id="svg2"
   inkscape:version="0.47 r22583"
   sodipodi:docname="British_Burma_1937_flag.svg">
  <metadata
     id="metadata203">
    <rdf:RDF>
      <cc:Work
         rdf:about="">
        <dc:format>image/svg+xml</dc:format>
        <dc:type
           rdf:resource="http://purl.org/dc/dcmitype/StillImage" />
      </cc:Work>
    </rdf:RDF>
  </metadata>
  <sodipodi:namedview
     pagecolor="#ffffff"
     bordercolor="#666666"
     borderopacity="1"
     objecttolerance="10"
     gridtolerance="10"
     guidetolerance="10"
     inkscape:pageopacity="0"
     inkscape:pageshadow="2"
     inkscape:window-width="1280"
     inkscape:window-height="725"
     id="namedview201"
     showgrid="false"
     inkscape:zoom="0.82833333"
     inkscape:cx="600"
     inkscape:cy="300"
     inkscape:window-x="0"
     inkscape:window-y="24"
     inkscape:window-maximized="1"
     inkscape:current-layer="svg2" />
  <defs
     id="defs4">
    <inkscape:perspective
       sodipodi:type="inkscape:persp3d"
       inkscape:vp_x="0 : 300 : 1"
       inkscape:vp_y="0 : 1000 : 0"
       inkscape:vp_z="1200 : 300 : 1"
       inkscape:persp3d-origin="600 : 200 : 1"
       id="perspective205" />
    <clipPath
       id="Canton">
      <path
         d="m 0,0 600,0 0,300 -600,0 z"
         id="path7" />
    </clipPath>
    <clipPath
       id="Diagonals">
      <path
         d="M 0,0 300,150 0,150 z M 300,0 600,0 300,150 z m 0,150 300,0 0,150 z m 0,0 0,150 -300,0 z"
         id="path10" />
    </clipPath>
    <g
       id="Pentagram">
      <g
         transform="translate(0,-0.324925)"
         id="Arm">
        <path
           d="M 0,0 0,0.5 1,0 z"
           id="path14" />
        <path
           d="M 0,0 0,-0.5 1,0 z"
           transform="matrix(0.80901699,-0.58778525,0.58778525,0.80901699,0.19098301,0.58778525)"
           id="path16" />
      </g>
      <use
         transform="scale(-1,1)"
         id="use18"
         x="0"
         y="0"
         width="1200"
         height="600"
         xlink:href="#Arm" />
      <use
         transform="matrix(0.30901699,0.95105652,-0.95105652,0.30901699,0,0)"
         id="use20"
         x="0"
         y="0"
         width="1200"
         height="600"
         xlink:href="#Arm" />
      <use
         transform="matrix(0.30901699,-0.95105652,0.95105652,0.30901699,0,0)"
         id="use22"
         x="0"
         y="0"
         width="1200"
         height="600"
         xlink:href="#Arm" />
      <use
         transform="matrix(-0.30901699,0.95105652,0.95105652,0.30901699,0,0)"
         id="use24"
         x="0"
         y="0"
         width="1200"
         height="600"
         xlink:href="#Arm" />
    </g>
    <inkscape:perspective
       sodipodi:type="inkscape:persp3d"
       inkscape:vp_x="0 : 0.5 : 1"
       inkscape:vp_y="0 : 1000 : 0"
       inkscape:vp_z="1 : 0.5 : 1"
       inkscape:persp3d-origin="0.5 : 0.33333333 : 1"
       id="perspective3030" />
    <radialGradient
       gradientTransform="matrix(0.80501508,-3.4147871e-8,3.3973858e-8,0.80091282,26.866384,26.239502)"
       gradientUnits="userSpaceOnUse"
       xlink:href="#linearGradient3998"
       id="radialGradient4218"
       fy="131.799"
       fx="137.787"
       r="95.617996"
       cy="131.799"
       cx="137.787" />
    <linearGradient
       id="linearGradient3998">
      <stop
         offset="0"
         style="stop-color:#1d7f6f;stop-opacity:1"
         id="stop4000" />
      <stop
         offset="1"
         style="stop-color:#54d8c3;stop-opacity:1"
         id="stop4002" />
    </linearGradient>
    <inkscape:perspective
       id="perspective219"
       inkscape:persp3d-origin="150 : 66.666667 : 1"
       inkscape:vp_z="300 : 100 : 1"
       inkscape:vp_y="0 : 1000 : 0"
       inkscape:vp_x="0 : 100 : 1"
       sodipodi:type="inkscape:persp3d" />
  </defs>
  <rect
     width="1200"
     height="600"
     x="0"
     y="0"
     id="rect26"
     style="fill:#00247d" />
  <g
     id="Flag_of_the_United_Kingdom">
    <path
       d="M 0,0 600,300 M 0,300 600,0"
       clip-path="url(#Canton)"
       id="Saint_Andrews_Cross"
       style="stroke:#ffffff;stroke-width:60" />
    <path
       d="M 0,0 600,300 M 0,300 600,0"
       clip-path="url(#Diagonals)"
       id="Saint_Patricks_Cross"
       style="stroke:#cc142b;stroke-width:40" />
    <g
       id="Saint_Georges_Cross">
      <path
         d="m 300,0 0,300 M 0,150 l 600,0"
         clip-path="url(#Canton)"
         id="path32"
         style="stroke:#ffffff;stroke-width:100" />
      <path
         d="m 300,0 0,300 M 0,150 l 600,0"
         clip-path="url(#Canton)"
         id="path34"
         style="stroke:#cc142b;stroke-width:60" />
    </g>
  </g>
  <path
     d="m 959.74574,302.54236 a 60.381355,60.381355 0 1 1 -120.76272,0 60.381355,60.381355 0 1 1 120.76272,0 z"
     transform="matrix(1.7803509,0,0,1.7803509,-697.28591,-244.43667)"
     id="path3242"
     style="fill:#c79841;fill-opacity:1;stroke:none" />
  <g
     id="g4011"
     transform="matrix(0.68576484,0,0,0.68576732,808.56019,193.70657)">
    <path
       style="fill:#000063"
       id="path4"
       d="m 215.74,218.47 c -0.969,-5.419 -8.424,-5.467 -10.967,-1.434 -2.757,4.373 -5.689,9.288 -11.639,8.338 -2.985,-0.478 -5.503,-1.498 -7.44,-3.155 -0.041,-0.086 -0.086,-0.166 -0.125,-0.255 -0.559,-1.267 -1.352,-2.104 -2.256,-2.594 -0.647,-1.104 -1.148,-2.365 -1.486,-3.799 -1.775,-7.531 -13.346,-4.337 -11.572,3.189 0.997,4.23 2.969,7.78 5.638,10.628 9.37,16.91 43.64,10.24 39.86,-10.92 z" />
    <path
       style="fill:#3ca39c"
       id="path6"
       d="m 78.661,213.83 c -1.128,3.971 -3.03,8.908 -6.502,11.424 -4.652,3.371 -9.138,-4.626 -10.333,-7.945 -2.6,-7.225 -14.198,-4.109 -11.571,3.189 3.444,9.571 10.855,18.444 22.018,17.159 9.883,-1.138 15.525,-12.066 17.959,-20.638 2.119,-7.45 -9.461,-10.61 -11.571,-3.18 z" />
    <path
       style="fill:url(#radialGradient4218);fill-opacity:1"
       id="path8"
       d="m 87.822,224.46 45.79,-79.311 47.943,83.041 c 30.793,-16.949 51.85,-51.221 51.85,-90.742 0,-56.355 -42.81,-102.04 -95.618,-102.04 -52.808,0 -95.618,45.685 -95.618,102.04 0.007,36.8 18.275,69.06 45.66,87.01 z" />
    <rect
       style="fill:#54d8c3;stroke:#000000"
       id="rect10"
       y="256.76199"
       x="55.825001"
       height="11.795"
       width="157.367" />
    <path
       style="fill:#6b2900"
       id="path12"
       d="m 147.83,186.62 c -2.967,0 -1.599,-0.365 -7.359,-1.719 -7.19,-1.688 -15.81,-0.291 -31.262,-2.614 -2.752,-0.413 -3.327,-1.881 -4.972,-4.43 -10.215,-15.828 -3.651,-43.318 -2.515,-49.707 2.999,-16.872 18.993,-22.651 36.062,-21.21 9.173,0.78 19.255,3.633 27.08,13.69 10.321,13.265 12.23,29.73 9.74,44.819 l -4.708,-0.785 c 2.133,-12.927 2.156,-27.14 -6.819,-38.676 -6.365,-8.18 -15.248,-14.258 -25.638,-14.439 -15.576,-0.271 -26.914,6.724 -29.135,19.218 -3.082,17.333 -3.568,36.567 0.588,42.498 0.693,0.988 1.263,1.074 1.506,1.111 15.774,2.371 26.831,4.968 34.147,6.687 4.655,1.094 4.687,-5.573 6.449,-5.625 0.26,-1.469 4.461,2.684 4.284,-0.772 -0.203,-3.947 -2.528,-15.102 -2.528,-15.102 0,-6.058 4.219,-16.065 -0.323,-23.379 -2.725,-4.387 -4.598,-10.743 -14.645,-13.382 -6.972,-1.832 -11.592,-2.248 -20.055,6.214 l -3.737,5.578 0.835,-5.578 c 2.739,-6.492 9.124,-11.453 18.944,-11.152 10.68,1.245 16.987,6.41 22.49,14.323 5.726,8.233 3.275,23.366 3.275,29.181 0.011,5.859 3.537,9.112 3.731,12.887 0.412,8.037 -4.519,5.132 -7.771,7.847 -1.437,1.199 -1.379,1.779 -3.555,1.779 l -4.09,2.73 z" />
    <path
       style="fill:none;stroke:#00086b;stroke-width:5"
       id="path14-3"
       d="M 50.109,219.93 C 40.4,234.18 15.451,204.52 32.361,197.91" />
    <path
       style="fill:#54d8c3;stroke:#000000"
       id="path16-3"
       d="m 29.911,196.55 c 15.111,-9.935 28.237,-17.554 28.237,-17.554 l 12.394,6.236 3.334,13.278 -23.063,24.186 c -12.272,3.88 -28.188,-11.3 -20.902,-26.16 z" />
    <path
       style="fill:none;stroke:#754c24;stroke-width:4;stroke-linecap:round"
       id="path18"
       d="m 55.779,197.13 c 2.119,-1.735 4.486,-3.353 6.669,-5.112" />
    <rect
       style="fill:#754c24"
       id="rect20"
       transform="matrix(-0.9943,-0.1068,0.1068,-0.9943,70.1951,413.762)"
       y="199.981"
       x="41.157001"
       height="10.04"
       width="10.04" />
    <path
       style="fill:#754c24"
       id="path22"
       d="m 47.455,192.07 c 2.416,-1.946 5.948,0.536 9.16,4.521 3.212,3.986 4.888,7.965 2.472,9.912 -2.415,1.946 -5.816,-7.216 -5.816,-7.216 0,0 -8.231,-5.27 -5.816,-7.21 z" />
    <path
       style="fill:#f7931e"
       id="path24"
       d="m 40.92,195.07 c 4.743,-3.822 9.665,-1.449 13.487,3.294 3.822,4.742 5.097,10.057 0.354,13.879 -4.742,3.823 -6.921,-8.587 -6.921,-8.587 0,0 -11.662,-4.75 -6.92,-8.58 z" />
    <path
       style="fill:none;stroke:#00086b;stroke-width:5"
       id="path26"
       d="M 30.658,192.42 C 17.384,203.42 1.623,168.011 19.702,166.346" />
    <path
       style="fill:#54d8c3;stroke:#000000"
       id="path28"
       d="m 17.725,164.36 c 17.271,-5.36 31.994,-9.047 31.994,-9.047 l 10.182,9.424 -0.473,13.683 -28.858,16.854 c -12.872,0.36 -23.962,-18.64 -12.845,-30.9 z" />
    <path
       style="fill:none;stroke:#754c24;stroke-width:4;stroke-linecap:round"
       id="path30"
       d="m 42.42,172.08 c 2.517,-1.081 5.239,-1.979 7.824,-3.065" />
    <rect
       style="fill:#754c24"
       id="rect32"
       transform="matrix(-0.9258,-0.378,0.378,-0.9258,-7.1703,352.561)"
       y="171.965"
       x="25.995001"
       height="10.039"
       width="10.04" />
    <path
       style="fill:#754c24"
       id="path34-8"
       d="m 35.825,164.91 c 2.86,-1.201 5.566,2.162 7.55,6.881 1.983,4.72 2.491,9.007 -0.369,10.209 -2.859,1.201 -3.59,-8.544 -3.59,-8.544 0,0 -6.451,-7.35 -3.591,-8.55 z" />
    <path
       style="fill:#f7931e"
       id="path36"
       d="m 28.713,165.99 c 5.616,-2.359 9.688,1.283 12.047,6.899 2.36,5.615 2.113,11.075 -3.502,13.435 -5.616,2.36 -4.272,-10.168 -4.272,-10.168 0,0 -9.888,-7.8 -4.273,-10.16 z" />
    <path
       style="fill:none;stroke:#00086b;stroke-width:5"
       id="path38"
       d="M 19.586,160.6 C 3.784,167.494 -1.554,129.104 16.279,132.511" />
    <path
       style="fill:#54d8c3;stroke:#000000"
       id="path40"
       d="m 14.931,130.05 c 18.081,-0.368 33.248,0.167 33.248,0.167 l 7.173,11.875 -4.244,13.017 -32.397,8.202 c -12.462,-3.24 -17.859,-24.56 -3.78,-33.27 z" />
    <path
       style="fill:none;stroke:#754c24;stroke-width:4;stroke-linecap:round"
       id="path42"
       d="m 36.521,144.31 c 2.718,-0.342 5.582,-0.452 8.367,-0.779" />
    <rect
       style="fill:#754c24"
       id="rect44"
       transform="matrix(-0.7849,-0.6196,0.6196,-0.7849,-47.1764,275.352)"
       y="140.845"
       x="19.184"
       height="10.039"
       width="10.04" />
    <path
       style="fill:#754c24"
       id="path46"
       d="m 32.17,135.59 c 3.081,-0.362 4.75,3.62 5.349,8.703 0.599,5.084 -0.1,9.345 -3.182,9.707 -3.08,0.363 -1.084,-9.203 -1.084,-9.203 0,0 -4.164,-8.84 -1.083,-9.21 z" />
    <path
       style="fill:#f7931e"
       id="path48"
       d="m 25.037,134.66 c 6.049,-0.712 8.954,3.917 9.665,9.966 0.712,6.049 -1.037,11.227 -7.086,11.938 -6.05,0.713 -1.29,-10.953 -1.29,-10.953 0,0 -7.338,-10.24 -1.289,-10.96 z" />
    <path
       style="fill:none;stroke:#00086b;stroke-width:5"
       id="path50"
       d="M 17.759,126.96 C 0.667,129.2 6.168,90.838 22.361,99.05" />
    <path
       style="fill:#54d8c3;stroke:#000000"
       id="path52"
       d="m 21.746,96.313 c 17.475,4.654 31.901,9.368 31.901,9.368 l 3.604,13.397 -7.683,11.332 -33.401,-1.09 C 5.087,122.76 5.808,100.78 21.746,96.313 z" />
    <path
       style="fill:none;stroke:#754c24;stroke-width:4;stroke-linecap:round"
       id="path54"
       d="m 38.542,116 c 2.706,0.424 5.489,1.111 8.256,1.568" />
    <rect
       style="fill:#754c24"
       id="rect56"
       transform="matrix(-0.5826,-0.8127,0.8127,-0.5826,-51.1244,201.897)"
       y="109.055"
       x="21.257999"
       height="10.04"
       width="10.04" />
    <path
       style="fill:#754c24"
       id="path58"
       d="m 36.776,106.41 c 3.061,0.505 3.562,4.793 2.729,9.843 -0.833,5.051 -2.684,8.952 -5.746,8.446 -3.06,-0.504 1.507,-9.144 1.507,-9.144 0,0 -1.551,-9.65 1.51,-9.15 z" />
    <path
       style="fill:#f7931e"
       id="path60"
       d="m 30.181,103.54 c 6.01,0.991 7.519,6.243 6.527,12.253 -0.991,6.01 -4.105,10.5 -10.115,9.509 -6.011,-0.99 1.794,-10.882 1.794,-10.882 0,0 -4.217,-11.87 1.794,-10.88 z" />
    <path
       style="fill:none;stroke:#00086b;stroke-width:5"
       id="path62"
       d="M 25.321,94.122 C 8.274,91.549 24.186,56.207 37.471,68.581" />
    <path
       style="fill:#54d8c3;stroke:#000000"
       id="path64"
       d="m 37.638,65.781 c 15.503,9.311 28.06,17.836 28.06,17.836 L 65.451,97.488 54.93,106.249 23.138,95.951 C 14.306,86.582 21.086,65.657 37.638,65.78 z" />
    <path
       style="fill:none;stroke:#754c24;stroke-width:4;stroke-linecap:round"
       id="path66"
       d="m 48.327,89.345 c 2.482,1.157 4.967,2.588 7.499,3.793" />
    <rect
       style="fill:#754c24"
       id="rect68"
       transform="matrix(-0.3348,-0.9423,0.9423,-0.3348,-29.7642,147.195)"
       y="79.084"
       x="32.054001"
       height="10.04"
       width="10.04" />
    <path
       style="fill:#754c24"
       id="path70"
       d="m 49.284,79.648 c 2.801,1.333 2.095,5.592 -0.103,10.214 -2.199,4.623 -5.058,7.858 -7.86,6.525 -2.801,-1.332 3.98,-8.369 3.98,-8.369 0,0 1.181,-9.703 3.983,-8.37 z" />
    <path
       style="fill:#f7931e"
       id="path72"
       d="m 43.741,75.063 c 5.5,2.617 5.496,8.081 2.878,13.581 -2.616,5.5 -6.853,8.953 -12.353,6.336 -5.501,-2.616 4.737,-9.959 4.737,-9.959 0,0 -0.763,-12.574 4.738,-9.958 z" />
    <path
       style="fill:none;stroke:#00086b;stroke-width:5"
       id="path74"
       d="M 41.68,64.666 C 26.013,57.473 51.089,27.919 60.428,43.489" />
    <path
       style="fill:#54d8c3;stroke:#000000"
       id="path76"
       d="m 61.364,40.844 c 12.318,13.24 22.023,24.909 22.023,24.909 L 79.309,79.013 66.773,84.518 39.075,65.82 C 33.184,54.372 45.494,36.143 61.364,40.844 z" />
    <path
       style="fill:none;stroke:#754c24;stroke-width:4;stroke-linecap:round"
       id="path78"
       d="m 65.109,66.447 c 2.065,1.799 4.056,3.863 6.155,5.722" />
    <rect
       style="fill:#754c24"
       id="rect80"
       transform="matrix(-0.0608,-0.9982,0.9982,-0.0608,0.9499,117.482)"
       y="53.273998"
       x="50.727001"
       height="10.04"
       width="10.04" />
    <path
       style="fill:#754c24"
       id="path82"
       d="m 68.714,57.394 c 2.322,2.057 0.464,5.953 -2.928,9.786 -3.394,3.833 -7.037,6.15 -9.359,4.093 -2.323,-2.055 6.142,-6.939 6.142,-6.939 0,0 3.822,-8.997 6.145,-6.94 z" />
    <path
       style="fill:#f7931e"
       id="path84"
       d="m 64.657,51.454 c 4.561,4.038 3.043,9.287 -0.995,13.847 -4.037,4.561 -9.064,6.705 -13.624,2.668 -4.562,-4.038 7.31,-8.258 7.31,-8.258 0,0 2.749,-12.295 7.309,-8.257 z" />
    <path
       style="fill:none;stroke:#00086b;stroke-width:5"
       id="path86"
       d="M 65.557,40.892 C 52.494,29.641 84.774,8.188 89.436,25.735" />
    <path
       style="fill:#54d8c3;stroke:#000000"
       id="path88"
       d="m 91.067,23.453 c 8.17,16.133 14.264,30.034 14.264,30.034 L 97.741,65.099 84.171,66.918 62.735,41.28 C 60.244,28.648 77.121,14.541 91.068,23.453 z" />
    <path
       style="fill:none;stroke:#754c24;stroke-width:4;stroke-linecap:round"
       id="path90"
       d="m 87.576,49.091 c 1.486,2.301 2.828,4.835 4.33,7.203" />
    <rect
       style="fill:#754c24"
       id="rect92"
       transform="matrix(0.218,-0.9759,0.9759,0.218,25.4792,109.129)"
       y="33.645"
       x="75.818001"
       height="10.04"
       width="10.04" />
    <path
       style="fill:#754c24"
       id="path94"
       d="m 93.547,41.391 c 1.662,2.619 -1.203,5.849 -5.523,8.593 -4.322,2.743 -8.464,3.961 -10.127,1.341 -1.663,-2.618 7.824,-4.967 7.824,-4.967 0,0 6.163,-7.587 7.826,-4.967 z" />
    <path
       style="fill:#f7931e"
       id="path96"
       d="m 91.294,34.56 c 3.264,5.143 0.353,9.766 -4.791,13.03 -5.142,3.265 -10.566,3.932 -13.83,-1.209 -3.265,-5.143 9.312,-5.911 9.312,-5.911 0,0 6.045,-11.053 9.309,-5.91 z" />
    <path
       style="fill:none;stroke:#00086b;stroke-width:5"
       id="path98"
       d="M 95.083,24.66 C 85.647,10.232 122.605,-1.443 122.226,16.709" />
    <path
       style="fill:#54d8c3;stroke:#000000"
       id="path100"
       d="m 124.42,14.968 c 3.383,17.765 5.389,32.81 5.389,32.81 l -10.51,9.056 -13.543,-2.01 -13.497,-30.573 c 1.105,-12.828 21.227,-21.709 32.157,-9.283 z" />
    <path
       style="fill:none;stroke:#754c24;stroke-width:4;stroke-linecap:round"
       id="path102"
       d="m 113.97,38.637 c 0.791,2.622 1.378,5.429 2.166,8.12" />
    <rect
       style="fill:#754c24"
       id="rect104"
       transform="matrix(0.4797,-0.8774,0.8774,0.4797,33.9551,110.769)"
       y="21.732"
       x="105.363"
       height="10.04"
       width="10.04" />
    <path
       style="fill:#754c24"
       id="path106"
       d="m 121.84,32.891 c 0.871,2.977 -2.775,5.287 -7.687,6.727 -4.913,1.439 -9.23,1.462 -10.103,-1.516 -0.873,-2.976 8.894,-2.606 8.894,-2.606 0,0 8.03,-5.582 8.9,-2.605 z" />
    <path
       style="fill:#f7931e"
       id="path108"
       d="m 121.57,25.703 c 1.712,5.846 -2.366,9.482 -8.212,11.194 -5.845,1.713 -11.242,0.853 -12.955,-4.992 -1.713,-5.846 10.584,-3.102 10.584,-3.102 0,0 8.88,-8.946 10.59,-3.1 z" />
    <path
       style="fill:none;stroke:#00086b;stroke-width:5"
       id="path110"
       d="m 127.95,17.239 c -5.071,-16.477 33.674,-17.46 28.283,-0.123" />
    <path
       style="fill:#54d8c3;stroke:#000000"
       id="path112"
       d="m 158.83,16.052 c -1.669,18.007 -3.907,33.019 -3.907,33.019 l -12.607,5.791 -12.457,-5.682 -4.503,-33.114 c 4.62,-12.02 26.41,-14.982 33.48,-0.014 z" />
    <path
       style="fill:none;stroke:#754c24;stroke-width:4;stroke-linecap:round"
       id="path114"
       d="m 142.23,35.9 c 0.033,2.738 -0.18,5.598 -0.168,8.402" />
    <rect
       style="fill:#754c24"
       id="rect116"
       transform="matrix(0.704,-0.7102,0.7102,0.704,25.3776,107.858)"
       y="18.466999"
       x="137.052"
       height="10.04"
       width="10.041" />
    <path
       style="fill:#754c24"
       id="path118"
       d="m 151.38,32.559 c 0.013,3.102 -4.131,4.312 -9.249,4.335 -5.12,0.022 -9.274,-1.151 -9.288,-4.254 -0.014,-3.102 9.267,-0.042 9.267,-0.042 0,0 9.26,-3.142 9.27,-0.039 z" />
    <path
       style="fill:#f7931e"
       id="path120"
       d="m 153.11,25.576 c 0.026,6.091 -4.898,8.456 -10.99,8.482 -6.091,0.028 -11.039,-2.294 -11.066,-8.384 -0.027,-6.092 11.03,-0.049 11.03,-0.049 0,0 11,-6.14 11.03,-0.049 z" />
    <path
       style="fill:none;stroke:#00086b;stroke-width:5"
       id="path122"
       d="m 161.59,19.211 c -0.31,-17.236 37.192,-7.452 27.211,7.714" />
    <path
       style="fill:#54d8c3;stroke:#000000"
       id="path124"
       d="m 191.59,26.622 c -6.591,16.841 -12.898,30.645 -12.898,30.645 l -13.719,2.073 -10.396,-8.91 4.843,-33.065 c 7.77,-10.273 29.53,-7.083 32.18,9.257 z" />
    <path
       style="fill:none;stroke:#754c24;stroke-width:4;stroke-linecap:round"
       id="path126"
       d="m 170.14,41.096 c -0.727,2.641 -1.723,5.329 -2.488,8.027" />
    <rect
       style="fill:#754c24"
       id="rect128"
       transform="matrix(0.8731,-0.4875,0.4875,0.8731,7.8067,88.2448)"
       y="24.105"
       x="168.40601"
       height="10.04"
       width="10.041" />
    <path
       style="fill:#754c24"
       id="path130"
       d="m 179.86,40.42 c -0.847,2.984 -5.163,3 -10.088,1.604 -4.926,-1.396 -8.593,-3.675 -7.746,-6.66 0.845,-2.984 8.916,2.527 8.916,2.527 0,0 9.76,-0.456 8.92,2.529 z" />
    <path
       style="fill:#f7931e"
       id="path132"
       d="m 183.45,34.189 c -1.661,5.86 -7.049,6.769 -12.909,5.106 -5.861,-1.66 -9.972,-5.261 -8.312,-11.12 1.661,-5.861 10.612,3.007 10.612,3.007 0,0 12.27,-2.853 10.61,3.007 z" />
    <path
       style="fill:none;stroke:#00086b;stroke-width:5"
       id="path134"
       d="m 193.36,30.42 c 4.477,-16.648 37.802,3.14 24.011,14.948" />
    <path
       style="fill:#54d8c3;stroke:#000000"
       id="path136"
       d="m 220.14,45.849 c -10.996,14.357 -20.88,25.875 -20.88,25.875 l -13.757,-1.807 -7.521,-11.44 13.811,-30.431 c 10.3,-7.721 30.33,1.371 28.35,17.803 z" />
    <path
       style="fill:none;stroke:#754c24;stroke-width:4;stroke-linecap:round"
       id="path138"
       d="m 195.52,53.818 c -1.43,2.336 -3.131,4.644 -4.614,7.024" />
    <rect
       style="fill:#754c24"
       id="rect140"
       transform="matrix(0.974,-0.2267,0.2267,0.974,-4.5405,46.9101)"
       y="38.206001"
       x="196.972"
       height="10.04"
       width="10.041" />
    <path
       style="fill:#754c24"
       id="path142"
       d="m 205.04,55.86 c -1.64,2.633 -5.792,1.453 -10.138,-1.251 -4.346,-2.706 -7.239,-5.911 -5.599,-8.544 1.638,-2.633 7.867,4.897 7.867,4.897 0,0 9.52,2.265 7.87,4.898 z" />
    <path
       style="fill:#f7931e"
       id="path144"
       d="m 210.22,50.868 c -3.219,5.171 -8.647,4.552 -13.818,1.332 -5.172,-3.218 -8.125,-7.817 -4.907,-12.987 3.22,-5.172 9.365,5.828 9.365,5.828 0,0 12.58,0.657 9.36,5.827 z" />
    <path
       style="fill:none;stroke:#00086b;stroke-width:5"
       id="path146"
       d="m 220.79,49.991 c 8.912,-14.757 35.454,13.485 18.933,21.012" />
    <path
       style="fill:#54d8c3;stroke:#000000"
       id="path148"
       d="m 242.24,72.23 c -14.542,10.75 -27.229,19.081 -27.229,19.081 l -12.718,-5.546 -4.06,-13.075 21.698,-25.417 c 12.04,-4.565 28.77,9.718 22.31,24.957 z" />
    <path
       style="fill:none;stroke:#754c24;stroke-width:4;stroke-linecap:round"
       id="path150"
       d="m 216.38,73.07 c -2.021,1.849 -4.295,3.595 -6.379,5.472" />
    <rect
       style="fill:#754c24"
       id="rect152"
       transform="matrix(0.9987,0.0519,-0.0519,0.9987,3.6639,-11.6262)"
       y="59.666"
       x="220.51601"
       height="10.04"
       width="10.041" />
    <path
       style="fill:#754c24"
       id="path154"
       d="m 224.97,77.671 c -2.305,2.076 -5.968,-0.208 -9.395,-4.01 -3.427,-3.804 -5.319,-7.685 -3.014,-9.761 2.303,-2.077 6.204,6.884 6.204,6.884 0,0 8.51,4.811 6.2,6.887 z" />
    <path
       style="fill:#f7931e"
       id="path156"
       d="m 231.33,74.309 c -4.524,4.078 -9.569,1.979 -13.646,-2.547 -4.078,-4.524 -5.643,-9.761 -1.119,-13.838 4.526,-4.079 7.385,8.194 7.385,8.194 0,0 11.92,4.114 7.39,8.191 z" />
    <path
       style="fill:none;stroke:#00086b;stroke-width:5"
       id="path158"
       d="m 241.72,76.391 c 12.65,-11.712 30.333,22.776 12.373,25.434" />
    <path
       style="fill:#54d8c3;stroke:#000000"
       id="path160"
       d="m 256.18,103.7 c -16.95,6.303 -31.448,10.794 -31.448,10.794 l -10.685,-8.852 -0.28,-13.688 27.889,-18.414 c 12.84,-1.048 24.96,17.309 14.53,30.162 z" />
    <path
       style="fill:none;stroke:#754c24;stroke-width:4;stroke-linecap:round"
       id="path162"
       d="m 231.1,97.348 c -2.455,1.217 -5.123,2.265 -7.645,3.491" />
    <rect
       style="fill:#754c24"
       id="rect164"
       transform="matrix(0.9452,0.3264,-0.3264,0.9452,43.2443,-74.0381)"
       y="86.806"
       x="237.19701"
       height="10.04"
       width="10.041" />
    <path
       style="fill:#754c24"
       id="path166"
       d="m 238.08,104.15 c -2.789,1.357 -5.677,-1.853 -7.917,-6.455 -2.239,-4.604 -2.982,-8.857 -0.192,-10.213 2.788,-1.358 4.055,8.333 4.055,8.333 0,0 6.85,6.975 4.06,8.335 z" />
    <path
       style="fill:#f7931e"
       id="path168"
       d="m 245.12,102.68 c -5.477,2.666 -9.743,-0.749 -12.408,-6.226 -2.665,-5.477 -2.718,-10.942 2.757,-13.607 5.479,-2.666 4.827,9.918 4.827,9.918 0,0 10.3,7.245 4.82,9.915 z" />
    <path
       style="fill:none;stroke:#00086b;stroke-width:5"
       id="path170"
       d="m 254.53,107.56 c 15.399,-7.75 22.839,30.286 4.846,27.865" />
    <path
       style="fill:#54d8c3;stroke:#000000"
       id="path172"
       d="m 260.86,137.8 c -18.032,1.363 -33.207,1.663 -33.207,1.663 l -7.815,-11.464 3.521,-13.23 31.896,-9.97 c 12.61,2.54 19.18,23.54 5.6,33 z" />
    <path
       style="fill:none;stroke:#754c24;stroke-width:4;stroke-linecap:round"
       id="path174"
       d="m 238.52,124.75 c -2.696,0.489 -5.55,0.758 -8.313,1.237" />
    <rect
       style="fill:#754c24"
       id="rect176"
       transform="matrix(0.8178,0.5754,-0.5754,0.8178,116.175,-121.959)"
       y="117.505"
       x="245.709"
       height="10.041"
       width="10.041" />
    <path
       style="fill:#754c24"
       id="path178"
       d="m 243.34,133.22 c -3.056,0.531 -4.941,-3.352 -5.819,-8.395 -0.877,-5.044 -0.413,-9.336 2.644,-9.867 3.055,-0.533 1.588,9.13 1.588,9.13 0,0 4.65,8.61 1.59,9.14 z" />
    <path
       style="fill:#f7931e"
       id="path180"
       d="m 250.51,133.76 c -6.001,1.044 -9.155,-3.417 -10.199,-9.419 -1.044,-6.001 0.419,-11.267 6.418,-12.312 6.003,-1.044 1.892,10.868 1.892,10.868 0,0 7.89,9.81 1.89,10.86 z" />
    <path
       style="fill:none;stroke:#00086b;stroke-width:5"
       id="path182"
       d="m 258.2,141.05 c 16.944,-3.183 13.56,35.427 -3.061,28.118" />
    <path
       style="fill:#54d8c3;stroke:#000000"
       id="path184"
       d="m 255.91,171.87 c -17.705,-3.685 -32.369,-7.599 -32.369,-7.599 l -4.335,-13.18 7.048,-11.738 33.41,-0.747 c 11.43,5.94 11.92,27.93 -3.75,33.27 z" />
    <path
       style="fill:none;stroke:#754c24;stroke-width:4;stroke-linecap:round"
       id="path186"
       d="m 238.06,153.14 c -2.727,-0.276 -5.543,-0.809 -8.33,-1.113" />
    <rect
       style="fill:#754c24"
       id="rect188"
       transform="matrix(0.6265,0.7794,-0.7794,0.6265,213.847,-137.51)"
       y="149.36"
       x="245.386"
       height="10.041"
       width="10.041" />
    <path
       style="fill:#754c24"
       id="path190"
       d="m 240.34,162.61 c -3.083,-0.336 -3.82,-4.59 -3.268,-9.678 0.555,-5.09 2.189,-9.086 5.273,-8.749 3.082,0.334 -1.003,9.212 -1.003,9.212 0,0 2.09,9.55 -1,9.22 z" />
    <path
       style="fill:#f7931e"
       id="path192"
       d="m 247.09,165.11 c -6.056,-0.658 -7.851,-5.819 -7.192,-11.875 0.659,-6.056 3.523,-10.71 9.577,-10.053 6.057,0.659 -1.192,10.967 -1.192,10.967 0,0 4.85,11.61 -1.2,10.95 z" />
    <path
       style="fill:none;stroke:#00086b;stroke-width:5"
       id="path194"
       d="m 252.46,174.25 c 17.163,1.635 3.218,37.797 -10.728,26.171" />
    <path
       style="fill:#54d8c3;stroke:#000000"
       id="path196"
       d="m 241.72,203.23 c -15.992,-8.443 -28.998,-16.265 -28.998,-16.265 l -0.516,-13.865 10.022,-9.327 32.311,8.534 c 9.34,8.87 3.72,30.14 -12.81,30.93 z" />
    <path
       style="fill:none;stroke:#754c24;stroke-width:4;stroke-linecap:round"
       id="path198"
       d="m 229.75,180.29 c -2.543,-1.021 -5.102,-2.313 -7.695,-3.377" />
    <rect
       style="fill:#754c24"
       id="rect200"
       transform="matrix(0.3862,0.9224,-0.9224,0.3862,318.644,-109.066)"
       y="179.88"
       x="236.255"
       height="10.041"
       width="10.041" />
    <path
       style="fill:#754c24"
       id="path202"
       d="m 229.33,190.02 c -2.869,-1.177 -2.399,-5.469 -0.459,-10.204 1.942,-4.737 4.619,-8.125 7.489,-6.946 2.869,1.174 -3.515,8.573 -3.515,8.573 0,0 -0.64,9.76 -3.51,8.58 z" />
    <path
       style="fill:#f7931e"
       id="path204"
       d="m 235.12,194.29 c -5.637,-2.31 -5.932,-7.766 -3.622,-13.402 2.311,-5.637 6.352,-9.315 11.986,-7.008 5.637,2.311 -4.183,10.208 -4.183,10.208 0,0 1.44,12.51 -4.19,10.2 z" />
    <path
       style="fill:none;stroke:#00086b;stroke-width:5"
       id="path206"
       d="m 237.74,204.56 c 16.039,6.323 -7.375,37.21 -17.556,22.177" />
    <path
       style="fill:#54d8c3;stroke:#000000"
       id="path208"
       d="m 219.4,229.43 c -13.028,-12.542 -23.359,-23.659 -23.359,-23.659 l 3.344,-13.466 12.214,-6.187 28.684,17.147 c 6.52,11.11 -4.77,29.99 -20.87,26.17 z" />
    <path
       style="fill:none;stroke:#754c24;stroke-width:4;stroke-linecap:round"
       id="path210"
       d="m 214.25,204.07 c -2.16,-1.686 -4.262,-3.635 -6.459,-5.376" />
    <rect
       style="fill:#754c24"
       id="rect212"
       transform="matrix(0.1157,0.9933,-0.9933,0.1157,408.391,-35.3489)"
       y="206.677"
       x="219.02901"
       height="10.041"
       width="10.04" />
    <path
       style="fill:#754c24"
       id="path214"
       d="m 211.15,213.31 c -2.431,-1.926 -0.791,-5.92 2.385,-9.933 3.179,-4.014 6.688,-6.527 9.12,-4.601 2.432,1.923 -5.751,7.265 -5.751,7.265 0,0 -3.33,9.2 -5.76,7.27 z" />
    <path
       style="fill:#f7931e"
       id="path216"
       d="m 215.53,219.02 c -4.777,-3.78 -3.55,-9.104 0.23,-13.882 3.781,-4.776 8.683,-7.191 13.458,-3.414 4.776,3.781 -6.846,8.65 -6.846,8.65 0,0 -2.07,12.42 -6.84,8.64 z" />
    <path
       style="fill:none;stroke:#754c24;stroke-width:4;stroke-linecap:round"
       id="path218"
       d="m 80.077,161.46 c 2.042,-1.001 10.026,-4.649 12.124,-5.659" />
    <polygon
       style="fill:#754c24"
       id="polygon220"
       points="68.592,161.369 76.135,163.438 73.058,170.623 65.517,168.552 " />
    <path
       style="fill:#754c24"
       id="path222"
       d="m 74.724,156.67 c 2.319,-1.117 4.516,1.157 6.127,4.494 1.61,3.337 2.023,6.471 -0.297,7.589 -2.319,1.116 -2.916,-6.041 -2.916,-6.041 0,0 -5.233,-4.92 -2.914,-6.04 z" />
    <path
       style="fill:#f7931e"
       id="path224"
       d="m 68.956,158.04 c 4.554,-2.193 7.859,0.18 9.775,4.15 1.915,3.97 1.717,8.032 -2.837,10.226 -4.555,2.194 -3.469,-7.188 -3.469,-7.188 0,0 -8.025,-5 -3.469,-7.19 z" />
    <path
       style="fill:none;stroke:#754c24;stroke-width:4;stroke-linecap:round"
       id="path226"
       d="m 75.725,145.18 c 2.235,-0.419 10.904,-1.804 13.194,-2.217" />
    <polygon
       style="fill:#754c24"
       id="polygon228"
       points="64.681,142.024 71.398,146.032 66.515,152.134 59.8,148.126 " />
    <path
       style="fill:#754c24"
       id="path230"
       d="m 71.844,139.14 c 2.533,-0.457 4.043,2.321 4.706,5.967 0.661,3.646 0.223,6.776 -2.312,7.234 -2.533,0.456 -1.197,-6.601 -1.197,-6.601 0,0 -3.73,-6.15 -1.197,-6.6 z" />
    <path
       style="fill:#f7931e"
       id="path232"
       d="m 65.92,138.91 c 4.975,-0.897 7.526,2.271 8.313,6.609 0.786,4.337 -0.49,8.199 -5.464,9.098 -4.976,0.898 -1.424,-7.854 -1.424,-7.854 0,0 -6.4,-6.96 -1.425,-7.86 z" />
    <path
       style="fill:none;stroke:#754c24;stroke-width:4;stroke-linecap:round"
       id="path234"
       d="m 75.877,128.32 c 2.266,0.193 10.99,1.173 13.307,1.386" />
    <polygon
       style="fill:#754c24"
       id="polygon236"
       points="66.076,122.337 71.479,127.993 65.144,132.57 59.743,126.916 " />
    <path
       style="fill:#754c24"
       id="path238"
       d="m 73.75,121.47 c 2.563,0.236 3.277,3.316 2.942,7.006 -0.336,3.69 -1.594,6.59 -4.159,6.354 -2.563,-0.236 0.608,-6.681 0.608,-6.681 0,0 -1.954,-6.92 0.609,-6.68 z" />
    <path
       style="fill:#f7931e"
       id="path240"
       d="m 68.102,119.67 c 5.034,0.463 6.646,4.198 6.247,8.589 -0.4,4.389 -2.661,7.771 -7.694,7.309 -5.035,-0.462 0.724,-7.949 0.724,-7.949 0,0 -4.312,-8.41 0.723,-7.95 z" />
    <path
       style="fill:none;stroke:#754c24;stroke-width:4;stroke-linecap:round"
       id="path242"
       d="m 80.522,112.12 c 2.132,0.791 10.278,4.064 12.455,4.888" />
    <polygon
       style="fill:#754c24"
       id="polygon244"
       points="72.676,103.738 76.373,110.63 69.046,113.351 65.35,106.459 " />
    <path
       style="fill:#754c24"
       id="path246"
       d="m 80.304,104.95 c 2.407,0.912 2.272,4.071 0.965,7.538 -1.309,3.466 -3.295,5.925 -5.705,5.014 -2.407,-0.912 2.369,-6.276 2.369,-6.276 0,0 -0.037,-7.18 2.371,-6.27 z" />
    <path
       style="fill:#f7931e"
       id="path248"
       d="m 75.34,101.71 c 4.728,1.79 5.285,5.82 3.727,9.944 -1.558,4.123 -4.639,6.778 -9.366,4.99 -4.729,-1.79 2.819,-7.467 2.819,-7.467 0,0 -1.908,-9.254 2.82,-7.46 z" />
    <path
       style="fill:none;stroke:#754c24;stroke-width:4;stroke-linecap:round"
       id="path250"
       d="m 89.324,97.751 c 1.844,1.331 8.82,6.66 10.698,8.036" />
    <polygon
       style="fill:#754c24"
       id="polygon252"
       points="84.001,87.575 85.724,95.204 77.937,95.87 76.215,88.242 " />
    <path
       style="fill:#754c24"
       id="path254"
       d="m 91.03,90.776 c 2.077,1.521 1.104,4.53 -1.082,7.521 -2.187,2.991 -4.758,4.831 -6.836,3.309 -2.076,-1.521 3.958,-5.416 3.958,-5.416 0,0 1.883,-6.94 3.96,-5.418 z" />
    <path
       style="fill:#f7931e"
       id="path256"
       d="m 87.111,86.328 c 4.078,2.987 3.539,7.02 0.937,10.579 -2.602,3.558 -6.28,5.294 -10.358,2.308 -4.08,-2.987 4.71,-6.444 4.71,-6.444 0,0 0.632,-9.43 4.711,-6.443 z" />
    <path
       style="fill:none;stroke:#754c24;stroke-width:4;stroke-linecap:round"
       id="path258"
       d="m 101.64,86.25 c 1.422,1.775 6.722,8.773 8.164,10.6" />
    <polygon
       style="fill:#754c24"
       id="polygon260"
       points="99.23,75.021 98.854,82.833 91.171,81.396 91.548,73.586 " />
    <path
       style="fill:#754c24"
       id="path262"
       d="m 105.15,79.983 c 1.595,2.02 -0.146,4.66 -3.05,6.959 -2.906,2.299 -5.875,3.385 -7.471,1.364 -1.595,-2.021 5.26,-4.162 5.26,-4.162 0,0 3.661,-6.182 5.261,-4.161 z" />
    <path
       style="fill:#f7931e"
       id="path264"
       d="m 102.56,74.65 c 3.133,3.967 1.537,7.709 -1.921,10.445 -3.457,2.734 -7.465,3.426 -10.599,-0.541 -3.134,-3.968 6.26,-4.953 6.26,-4.953 0,0 3.125,-8.918 6.259,-4.951 z" />
    <path
       style="fill:none;stroke:#754c24;stroke-width:4;stroke-linecap:round"
       id="path266"
       d="m 116.59,78.454 c 0.896,2.09 4.136,10.249 5.038,12.395" />
    <polygon
       style="fill:#754c24"
       id="polygon268"
       points="117.257,66.989 114.81,74.417 107.79,70.981 110.238,63.555 " />
    <path
       style="fill:#754c24"
       id="path270"
       d="m 121.64,73.351 c 0.998,2.373 -1.384,4.452 -4.798,5.893 -3.414,1.44 -6.565,1.694 -7.564,-0.68 -0.998,-2.373 6.18,-2.607 6.18,-2.607 0,0 5.18,-4.979 6.18,-2.606 z" />
    <path
       style="fill:#f7931e"
       id="path272"
       d="m 120.56,67.521 c 1.96,4.66 -0.577,7.84 -4.639,9.553 -4.062,1.712 -8.108,1.309 -10.07,-3.351 -1.961,-4.661 7.354,-3.102 7.354,-3.102 0,0 5.4,-7.761 7.36,-3.1 z" />
    <path
       style="fill:none;stroke:#754c24;stroke-width:4;stroke-linecap:round"
       id="path274"
       d="m 133.07,74.93 c 0.306,2.253 1.25,10.981 1.547,13.29" />
    <polygon
       style="fill:#754c24"
       id="polygon276"
       points="136.774,64.061 132.433,70.566 126.585,65.381 130.927,58.877 " />
    <path
       style="fill:#754c24"
       id="path278"
       d="m 139.3,71.36 c 0.328,2.553 -2.523,3.921 -6.197,4.398 -3.675,0.477 -6.779,-0.12 -7.108,-2.674 -0.328,-2.553 6.652,-0.863 6.652,-0.863 0,0 6.33,-3.414 6.66,-0.861 z" />
    <path
       style="fill:#f7931e"
       id="path280"
       d="m 139.82,65.456 c 0.645,5.014 -2.649,7.401 -7.021,7.968 -4.371,0.566 -8.164,-0.903 -8.81,-5.917 -0.646,-5.015 7.916,-1.026 7.916,-1.026 0,0 7.27,-6.04 7.91,-1.025 z" />
    <path
       style="fill:none;stroke:#754c24;stroke-width:4;stroke-linecap:round"
       id="path282"
       d="m 149.89,75.934 c -0.307,2.253 -1.727,10.917 -2.057,13.221" />
    <polygon
       style="fill:#754c24"
       id="polygon284"
       points="156.365,66.449 150.444,71.559 146.193,65.001 152.113,59.893 " />
    <path
       style="fill:#754c24"
       id="path286"
       d="m 156.85,74.157 c -0.365,2.548 -3.479,3.106 -7.146,2.584 -3.669,-0.521 -6.501,-1.925 -6.137,-4.474 0.365,-2.547 6.642,0.944 6.642,0.944 0,0 7.01,-1.602 6.65,0.946 z" />
    <path
       style="fill:#f7931e"
       id="path288"
       d="m 158.93,68.606 c -0.717,5.004 -4.528,6.425 -8.894,5.805 -4.363,-0.622 -7.626,-3.05 -6.91,-8.054 0.716,-5.006 7.901,1.124 7.901,1.124 0,0 8.62,-3.879 7.9,1.125 z" />
    <path
       style="fill:none;stroke:#754c24;stroke-width:4;stroke-linecap:round"
       id="path290"
       d="m 165.84,81.393 c -0.897,2.09 -4.578,10.059 -5.512,12.192" />
    <polygon
       style="fill:#754c24"
       id="polygon292"
       points="174.607,73.979 167.537,77.324 165.191,69.869 172.26,66.526 " />
    <path
       style="fill:#754c24"
       id="path294"
       d="m 173.02,81.537 c -1.032,2.358 -4.182,2.064 -7.577,0.583 -3.396,-1.481 -5.751,-3.59 -4.719,-5.95 1.031,-2.357 6.148,2.683 6.148,2.683 0,0 7.18,0.326 6.15,2.684 z" />
    <path
       style="fill:#f7931e"
       id="path296"
       d="m 176.5,76.743 c -2.026,4.631 -6.079,4.983 -10.12,3.22 -4.039,-1.764 -6.535,-4.975 -4.51,-9.606 2.026,-4.633 7.314,3.192 7.314,3.192 0,0 9.35,-1.438 7.32,3.194 z" />
    <path
       style="fill:none;stroke:#754c24;stroke-width:4;stroke-linecap:round"
       id="path298"
       d="m 179.74,90.909 c -1.423,1.774 -7.097,8.472 -8.566,10.278" />
    <polygon
       style="fill:#754c24"
       id="polygon300"
       points="190.178,86.107 182.471,87.442 182.2,79.632 189.904,78.297 " />
    <path
       style="fill:#754c24"
       id="path302"
       d="m 186.63,92.965 c -1.624,1.997 -4.581,0.873 -7.458,-1.461 -2.877,-2.334 -4.584,-4.995 -2.959,-6.994 1.623,-1.997 5.209,4.227 5.209,4.227 0,0 6.83,2.231 5.21,4.228 z" />
    <path
       style="fill:#f7931e"
       id="path304"
       d="m 191.27,89.276 c -3.189,3.922 -7.188,3.18 -10.612,0.402 -3.422,-2.778 -4.97,-6.539 -1.782,-10.461 3.189,-3.924 6.197,5.029 6.197,5.029 0,0 9.38,1.108 6.19,5.03 z" />
    <path
       style="fill:none;stroke:#754c24;stroke-width:4;stroke-linecap:round"
       id="path306"
       d="m 190.61,103.79 c -1.845,1.331 -9.101,6.271 -10.999,7.619" />
    <polygon
       style="fill:#754c24"
       id="polygon308"
       points="201.945,101.951 194.161,101.18 195.986,93.581 203.767,94.352 " />
    <path
       style="fill:#754c24"
       id="path310"
       d="m 196.69,107.61 c -2.098,1.491 -4.647,-0.381 -6.797,-3.399 -2.149,-3.018 -3.084,-6.038 -0.984,-7.53 2.097,-1.491 3.892,5.464 3.892,5.464 0,0 5.99,3.98 3.89,5.47 z" />
    <path
       style="fill:#f7931e"
       id="path312"
       d="m 202.15,105.3 c -4.12,2.929 -7.776,1.146 -10.334,-2.446 -2.557,-3.59 -3.044,-7.628 1.075,-10.557 4.121,-2.931 4.63,6.5 4.63,6.5 0,0 8.74,3.577 4.62,6.507 z" />
    <path
       style="fill:none;stroke:#754c24;stroke-width:4;stroke-linecap:round"
       id="path314"
       d="m 197.64,119.11 c -2.133,0.79 -10.444,3.614 -12.634,4.406" />
    <polygon
       style="fill:#754c24"
       id="polygon316"
       points="209.057,120.361 201.761,117.54 205.548,110.704 212.84,113.523 " />
    <path
       style="fill:#754c24"
       id="path318"
       d="m 202.48,124.41 c -2.42,0.877 -4.377,-1.608 -5.644,-5.09 -1.266,-3.482 -1.36,-6.642 1.062,-7.519 2.419,-0.877 2.292,6.304 2.292,6.304 0,0 4.71,5.44 2.29,6.31 z" />
    <path
       style="fill:#f7931e"
       id="path320"
       d="m 208.36,123.64 c -4.752,1.723 -7.8,-0.972 -9.306,-5.116 -1.506,-4.143 -0.897,-8.164 3.854,-9.887 4.754,-1.724 2.727,7.5 2.727,7.5 0,0 7.48,5.79 2.73,7.51 z" />
    <path
       style="fill:none;stroke:#754c24;stroke-width:4;stroke-linecap:round"
       id="path322"
       d="m 200.33,135.75 c -2.267,0.192 -11.03,0.694 -13.352,0.874" />
    <polygon
       style="fill:#754c24"
       id="polygon324"
       points="210.995,140.001 204.717,135.335 210.191,129.758 216.467,134.422 " />
    <path
       style="fill:#754c24"
       id="path326"
       d="m 203.58,142.15 c -2.565,0.198 -3.788,-2.719 -4.079,-6.413 -0.291,-3.693 0.462,-6.764 3.03,-6.963 2.564,-0.2 0.525,6.688 0.525,6.688 0,0 3.08,6.48 0.52,6.68 z" />
    <path
       style="fill:#f7931e"
       id="path328"
       d="m 209.45,142.97 c -5.039,0.392 -7.257,-3.02 -7.602,-7.415 -0.346,-4.394 1.314,-8.107 6.354,-8.5 5.042,-0.393 0.625,7.956 0.625,7.956 0,0 5.67,7.56 0.63,7.95 z" />
    <path
       style="fill:none;stroke:#754c24;stroke-width:4;stroke-linecap:round"
       id="path330"
       d="m 198.47,152.5 c -2.235,-0.42 -10.815,-2.275 -13.1,-2.722" />
    <polygon
       style="fill:#754c24"
       id="polygon332"
       points="207.62,159.447 202.815,153.273 209.58,149.361 214.383,155.53 " />
    <path
       style="fill:#754c24"
       id="path334"
       d="m 199.9,159.54 c -2.525,-0.494 -2.925,-3.631 -2.22,-7.269 0.706,-3.637 2.251,-6.396 4.779,-5.901 2.524,0.492 -1.279,6.585 -1.279,6.585 0,0 1.24,7.07 -1.28,6.58 z" />
    <path
       style="fill:#f7931e"
       id="path336"
       d="m 205.34,161.9 c -4.96,-0.968 -6.188,-4.847 -5.346,-9.175 0.84,-4.326 3.431,-7.462 8.392,-6.495 4.964,0.968 -1.521,7.835 -1.521,7.835 0,0 3.44,8.81 -1.52,7.84 z" />
    <path
       style="fill:none;stroke:#754c24;stroke-width:4;stroke-linecap:round"
       id="path338"
       d="m 192.22,168.15 c -2.042,-1.002 -9.815,-5.08 -11.897,-6.12" />
    <polygon
       style="fill:#754c24"
       id="polygon340"
       points="199.177,177.286 196.194,170.053 203.758,168.088 206.74,175.316 " />
    <path
       style="fill:#754c24"
       id="path342"
       d="m 191.71,175.31 c -2.302,-1.15 -1.85,-4.279 -0.199,-7.598 1.651,-3.315 3.877,-5.563 6.182,-4.411 2.301,1.148 -2.991,6.005 -2.991,6.005 0,0 -0.69,7.16 -2.99,6.01 z" />
    <path
       style="fill:#f7931e"
       id="path344"
       d="m 196.32,179.04 c -4.521,-2.257 -4.669,-6.322 -2.702,-10.269 1.964,-3.945 5.298,-6.275 9.821,-4.02 4.525,2.258 -3.559,7.145 -3.559,7.145 0,0 0.96,9.4 -3.56,7.14 z" />
    <path
       style="fill:#000063"
       id="path346"
       d="m 187.9,161.24 c -2.524,-0.664 -6.098,-0.38 -8.892,-0.38 -4.638,0 -9.247,0.159 -13.722,-1.644 -0.662,-0.267 -1.285,-0.845 -1.77,-0.578 -0.117,-0.253 -0.93,-0.495 -1.125,-0.711 -0.764,-0.847 -1.168,-1.23 -2.157,-1.817 -0.968,-0.575 -6.298,-2.146 -6.604,-2.01 -0.76,-0.252 -6.55,-2.469 -7.023,-2.789 -3.598,-2.428 -8.086,-7.289 -8.319,-11.949 -0.078,-1.57 0.431,-3.725 -0.791,-3.758 -1.222,-0.033 -4.174,2.055 -4.2,3.565 -0.367,0.396 -0.583,0.955 -0.509,1.692 0.393,3.928 2.398,8.131 5.366,11.25 -0.932,0.876 -1.35,2.422 -0.3,3.684 2.427,2.918 4.065,6.353 6.834,9 2.775,2.654 6.913,4.003 10.436,5.311 0.279,0.104 0.538,0.142 0.786,0.15 -5.883,5.708 -16.721,-8.78 -21.193,-12.22 -1.278,-0.983 -3.328,0.061 -3.672,1.493 -1.206,5.023 1.477,8.604 5.042,11.879 4.481,4.117 8.669,5.403 14.703,5.453 0.408,0.003 0.764,-0.075 1.068,-0.212 3.169,0.539 6.236,-0.554 8.936,-4.473 1.3,-0.005 2.599,0.002 3.9,0.064 1.86,0.089 3.538,0.931 5.329,1.202 -0.537,1.718 -0.481,3.448 -0.33,5.2 -0.991,1.088 -3.653,1.724 -4.61,2.145 -2.393,1.055 -4.37,2.86 -6.415,4.52 -0.384,-0.646 -1.063,-1.112 -2.045,-1.113 -10.671,-0.009 -20.452,-1.523 -28.81,-8.731 -3.849,-3.319 -6.87,-8.312 -8.451,-13.607 0.083,-0.351 0.097,-0.737 0.005,-1.159 -0.525,-2.417 0.471,-4.896 -0.035,-7.356 1.025,-0.08 1.452,-0.771 1.702,-1.813 0.366,-1.526 0.574,-3.096 0.589,-4.665 0.013,-1.363 -1.147,-2.5 -2.5,-2.5 -1.373,0 -2.487,1.138 -2.5,2.5 -0.004,0.38 -0.021,0.724 -0.045,1.059 -0.792,1.06 -0.834,-0.398 -1.084,1.315 -0.068,0.464 -0.723,1.432 -0.768,1.9 -0.415,-0.132 -2.231,-0.35 -2.768,-0.186 -2.553,0.783 -4.981,0.771 -7.37,2.112 -2.091,1.173 -3.965,2.624 -5.54,4.43 -3.062,3.508 -4.699,8.397 -5.67,12.87 -0.091,0.418 -0.079,0.8 0.002,1.147 -0.203,0.74 -0.06,1.572 0.641,2.285 6.638,6.751 12.082,15.135 19.228,21.31 0.096,0.083 0.2,0.146 0.298,0.221 0.055,1.205 0.893,1.853 2.448,1.853 0.601,0 3.104,0.113 3.481,-0.169 0.989,0.4 -0.116,1.076 0.68,1.809 -0.233,0.473 0.219,0.893 0.417,1.555 1.073,3.604 2.389,7.368 2.923,11.134 0.185,1.036 0.123,1.434 0.417,2.187 0.45,1.15 -0.069,2.354 0.55,3.431 0.25,0.435 0.623,0.762 1.05,0.97 0.52,1.255 2.58,2.755 2.627,4.171 0.731,-3.729 0.328,-1.526 0.951,-4.752 0.358,-1.604 0.601,-2.92 1.13,-4.708 0.247,-0.836 0.619,-2.466 1.062,-3.987 0.623,-1.136 1.548,-2.26 1.572,-2.278 2.048,-2.55 4.028,5.353 4.486,6.416 1.598,3.709 4.22,6.979 6.846,10.008 0.445,0.514 0.953,0.75 1.458,0.799 0.522,0.794 1.45,1.31 2.641,1.012 0.222,-0.056 0.444,-0.111 0.667,-0.167 1.028,-0.258 1.897,-1.329 1.835,-2.411 -0.241,-4.183 -0.861,-8.306 -0.5,-12.5 0.08,-0.686 0.143,-1.373 0.188,-2.063 0.071,-0.406 0.807,-2.835 0.879,-3.241 1.537,0.057 2.593,1.285 4.131,1.39 0.684,0.046 1.794,0.127 2.376,0.328 1.914,0.263 2.863,0.549 4.762,0.83 1.348,0.199 2.989,0.166 3.384,-1.266 0.046,-0.167 -0.241,-0.825 -0.235,-1.007 0.072,-0.487 -0.049,-1 -0.325,-1.566 -2.053,-4.21 -3.775,-7.138 -5.977,-11.319 1.711,-1.63 4.216,-3.584 5.916,-4.858 1.612,-1.209 3.234,-1.863 4.927,-2.915 1.251,-0.777 2.692,-1.254 3.687,-1.955 0.802,-0.43 1.264,-1.426 1.175,-2.357 -0.002,-0.019 0.264,-3.552 0.304,-3.657 0.768,-0.146 1.209,-0.28 1.976,-0.432 0.135,-0.026 1.759,-0.075 1.88,-0.127 1.475,0.787 1.602,2.379 1.914,3.032 1.082,2.261 2.385,4.471 4.417,5.59 4.931,2.714 6.753,-5.367 6.679,-8.961 -0.16,-5.35 -0.97,-11.69 -4.49,-13.86 z m -59.2,35.26 c -1.447,-0.496 -2.798,-1.024 -4.203,-1.291 -0.007,-0.544 -0.183,-1.103 -0.614,-1.615 -3.213,-3.824 -4.458,-8.452 -5.533,-13.221 -0.266,-1.179 -0.537,-2.347 -0.813,-3.511 0.611,0.89 1.293,1.736 2.026,2.542 -0.317,0.411 -0.5,0.911 -0.448,1.457 0.886,9.2 8.963,14.597 17.564,15.521 0.085,0.335 0.168,0.666 0.255,1.002 -2.79,0.03 -5.6,0.01 -8.24,-0.89 z" />
    <path
       style="fill:#f7931e"
       id="path348"
       d="m 159.89,262.13 c -0.24,-1.57 -0.365,-3.272 -1.08,-4.653 -0.226,-0.435 -0.55,-0.805 -0.925,-1.126 -0.289,0.01 -0.582,-0.029 -0.855,-0.172 -0.026,-0.014 -0.036,-0.021 -0.054,-0.029 -0.022,-0.005 -0.047,-0.011 -0.089,-0.022 -0.093,-0.027 -0.187,-0.053 -0.281,-0.075 -0.19,-0.046 -0.383,-0.085 -0.571,-0.137 -0.436,-0.119 -0.885,-0.275 -1.248,-0.548 -0.175,-0.131 -0.327,-0.284 -0.45,-0.451 -0.206,-0.009 -0.408,-0.005 -0.603,0.021 -1.085,-0.806 -2.777,-0.874 -3.7,0.608 -1.221,1.963 -2.813,3.747 -4.412,5.46 -0.393,1.73 -1.866,3.113 -2.744,4.611 -0.305,0.521 -0.625,1.14 -0.914,1.804 0.022,0.267 -0.017,0.55 -0.155,0.841 -0.491,1.032 -0.699,1.984 -0.727,3.025 1.32,-0.273 2.687,-0.818 3.505,-1.938 0.256,-0.351 0.601,-0.608 0.982,-0.718 0.368,-0.459 0.726,-0.934 0.956,-1.432 0.272,-0.588 0.456,-1.188 0.841,-1.718 0.435,-0.599 1.081,-0.761 1.663,-0.646 0.104,-0.128 0.204,-0.259 0.31,-0.386 0.378,0.247 0.819,0.389 1.285,0.415 0.084,0.236 0.147,0.479 0.198,0.726 0.471,0.226 0.835,0.67 0.856,1.341 0.048,1.509 -0.043,3.016 -0.246,4.51 -0.006,0.237 -0.006,0.475 -0.013,0.712 0.035,0.016 0.07,0.031 0.108,0.042 0.171,0.047 0.35,0.069 0.529,0.075 0.005,-0.018 0.005,-0.035 0.012,-0.053 0.176,-0.478 0.399,-0.92 0.64,-1.354 0.002,-0.017 0.012,-0.038 0.013,-0.054 0.049,-0.59 0.352,-1.108 0.831,-1.376 0.204,-0.351 0.378,-0.72 0.397,-1.112 0.034,-0.709 0.451,-1.16 0.966,-1.371 0.009,-0.038 0.017,-0.077 0.028,-0.115 -0.001,-0.003 -0.002,-0.007 -0.004,-0.01 0.007,-0.007 0.011,-0.016 0.018,-0.021 0.096,-0.277 0.264,-0.528 0.486,-0.716 0.064,-0.136 0.134,-0.27 0.174,-0.416 0.034,0.028 0.063,0.063 0.098,0.089 -0.002,0.05 -0.003,0.101 -0.005,0.15 0.754,-0.395 1.62,-0.096 2.077,0.595 0.048,0.073 0.068,0.153 0.107,0.229 0.183,0.237 0.298,0.546 0.303,0.926 0.007,0.493 -0.061,0.979 -0.134,1.464 0.041,0.008 0.081,0.017 0.124,0.017 0.308,0 0.592,-0.077 0.863,-0.184 0.086,-0.396 0.162,-0.795 0.264,-1.188 0.073,-0.285 0.205,-0.504 0.366,-0.676 0.115,-1.306 0.103,-2.621 -0.065,-3.926 -0.09,-0.42 0.03,-0.76 0.25,-1.01 z" />
    <path
       style="fill:#f7931e"
       id="path350"
       d="m 123.8,272.29 c -0.04,-0.52 0.113,-1.009 0.453,-1.354 0.011,-0.102 0.027,-0.204 0.036,-0.306 0.012,-0.314 0.008,-0.631 0.007,-0.952 0,-0.146 0.019,-0.278 0.049,-0.403 0.011,-1.256 -0.076,-2.517 -0.097,-3.797 -0.038,-2.223 0.42,-4.51 0.078,-6.718 -0.034,-0.217 -0.042,-0.424 -0.031,-0.624 -0.167,-0.123 -0.342,-0.233 -0.531,-0.317 -0.03,-0.073 -0.053,-0.149 -0.09,-0.222 -0.125,-0.246 -0.114,-1.041 -0.169,-1.527 -0.107,-0.958 -0.31,-1.882 -0.891,-2.676 -0.721,-0.984 -1.635,-1.483 -2.854,-1.581 -0.229,-0.019 -0.275,-0.014 -0.276,-0.007 -0.022,-0.008 -0.086,-0.026 -0.226,-0.06 -0.35,-0.572 -0.82,-0.89 -1.322,-1.042 -0.282,0.417 -0.772,0.668 -1.32,0.73 0.258,-0.029 -0.292,0.097 -0.274,0.091 -0.115,0.038 -0.229,0.078 -0.342,0.122 -0.226,0.089 -0.45,0.186 -0.678,0.269 -0.397,0.144 -0.811,0.224 -1.231,0.256 -1.881,0.839 -3.423,2.311 -4.55,4.042 0.054,0.316 -0.002,0.666 -0.233,1.023 -0.176,0.272 -0.452,0.779 -0.781,1.442 0.084,0.266 0.082,0.576 -0.047,0.924 -0.894,2.399 -1.73,4.368 -2.04,6.958 -0.263,2.195 -1.82,4.117 -0.026,6.069 0.364,-0.12 0.646,-0.331 0.878,-0.597 0.146,-0.197 0.284,-0.407 0.407,-0.623 0.793,-1.697 0.428,-4.567 0.875,-5.969 0.549,-1.724 0.782,-3.344 2.39,-4.394 0.527,-0.345 1.042,-0.319 1.451,-0.09 0.152,-0.124 0.292,-0.262 0.403,-0.43 0.168,0.213 0.376,0.388 0.599,0.543 0.647,0.126 1.194,0.615 1.151,1.478 -0.078,1.579 -0.084,3.149 -0.06,4.729 0.013,0.82 0.01,2.181 0.538,2.877 0.182,0.24 0.72,0.408 1.028,0.54 0.067,-0.078 0.145,-0.155 0.238,-0.228 0.554,-0.431 0.819,-1.256 0.956,-2.135 0.003,-0.022 0.005,-0.047 0.01,-0.069 0.129,-0.873 0.138,-1.789 0.179,-2.416 0.097,-1.479 -0.171,-2.938 -0.069,-4.396 0.055,-0.785 0.57,-1.261 1.168,-1.434 -0.005,-0.028 -0.005,-0.061 -0.011,-0.088 0.207,-0.095 0.403,-0.205 0.574,-0.344 0.05,0.124 0.108,0.248 0.166,0.372 0.697,0.086 1.305,0.579 1.24,1.493 -0.005,0.067 -0.002,0.134 -0.006,0.201 0.173,0.711 0.405,1.415 0.479,2.227 0.269,0.197 0.472,0.471 0.532,0.811 0.125,0.714 0.382,1.369 0.458,2.099 0.068,0.658 0.103,1.313 0.073,1.974 -0.007,0.161 -0.04,0.306 -0.083,0.441 0.522,0.679 0.683,1.618 0.47,2.459 0.324,0.186 0.589,0.435 0.789,0.729 h 0.289 c 0.096,0 0.189,0.016 0.282,0.029 -0.01,-0.02 -0.02,-0.07 -0.02,-0.11 z" />
    <path
       style="fill:#42210b"
       id="path352"
       d="m 143.05,267.76 c -0.459,0 -0.841,0.114 -1.169,0.288 -0.023,0.071 -0.043,0.143 -0.077,0.215 -0.491,1.032 -0.699,1.985 -0.728,3.028 1.321,-0.273 2.688,-0.822 3.506,-1.94 0.144,-0.196 0.316,-0.359 0.506,-0.488 -0.39,-0.64 -1.06,-1.1 -2.04,-1.1 z" />
    <path
       style="fill:#42210b"
       id="path354"
       d="m 151.47,269.19 c -0.006,1.053 -0.026,2.106 -0.054,3.159 -0.001,0.023 -0.001,0.034 -0.001,0.055 0.002,10e-4 0.005,10e-4 0.007,0.002 0.198,0.044 0.385,0.104 0.568,0.177 0.335,-0.606 0.691,-1.299 0.73,-1.771 0.037,-0.445 0.219,-0.852 0.512,-1.141 -0.402,-0.444 -0.99,-0.741 -1.771,-0.741 -0.006,0 -0.01,0.002 -0.016,0.002 0,0.08 0.02,0.17 0.02,0.26 z" />
    <path
       style="fill:#42210b"
       id="path356"
       d="m 158.58,266.81 c -0.219,0 -0.419,0.027 -0.607,0.07 0.128,0.215 0.212,0.472 0.216,0.782 0.016,1.144 -0.349,2.246 -0.334,3.388 0.003,0.23 -0.039,0.431 -0.109,0.608 0.221,0.074 0.456,0.13 0.724,0.141 0.259,-1.348 0.493,-2.699 0.837,-4.028 0.078,-0.303 0.222,-0.531 0.398,-0.707 -0.32,-0.15 -0.69,-0.25 -1.13,-0.25 z" />
    <path
       style="fill:#42210b"
       id="path358"
       d="m 123.8,272.29 c -0.04,-0.528 0.117,-1.027 0.469,-1.372 0.031,-0.409 0.028,-0.821 0.026,-1.239 0,-0.147 0.02,-0.281 0.051,-0.408 -0.395,-0.361 -0.934,-0.594 -1.626,-0.594 -0.316,0 -0.591,0.06 -0.845,0.146 -0.04,1.313 -0.148,3.125 1.335,3.656 0.202,0.072 0.368,0.174 0.508,0.293 0.033,-0.066 0.063,-0.134 0.096,-0.201 -0.02,-0.11 -0.03,-0.2 -0.03,-0.29 z" />
    <path
       style="fill:#42210b"
       id="path360"
       d="m 116.2,271.13 c 0.234,-0.395 0.4,-0.804 0.59,-1.236 0.123,-0.278 0.255,-0.539 0.416,-0.798 0.031,-0.048 0.058,-0.098 0.087,-0.146 -0.104,-0.45 -0.016,-0.836 0.18,-1.143 -0.38,-0.659 -1.062,-1.141 -2.059,-1.141 -0.512,0 -0.934,0.136 -1.283,0.349 0.186,0.239 0.299,0.553 0.293,0.944 -0.009,0.584 -0.127,1.288 -0.034,1.903 0.285,0.058 0.55,0.191 0.745,0.424 0.286,0.341 0.637,0.523 0.999,0.778 0.02,0.03 0.04,0.06 0.06,0.08 z" />
    <path
       style="fill:#42210b"
       id="path362"
       d="m 105.34,269.51 c -0.117,0.844 -0.468,3.018 0.771,3.271 0.948,0.194 1.819,-1.8 2.136,-2.434 0.018,-0.036 0.041,-0.063 0.061,-0.096 -0.328,-0.822 -1.062,-1.466 -2.215,-1.466 -0.276,0 -0.519,0.048 -0.748,0.114 0.02,0.21 0.02,0.41 -0.01,0.62 z" />
    <path
       style="fill:#3ca39c;stroke:#000000;stroke-width:0.25"
       id="path364"
       d="m 169.12,171.33 c -2.52,1.525 -10.267,-2.648 -10.267,2.316 0,0.529 -0.666,0.781 -1.038,1.105 -0.614,-0.256 -1.339,-0.277 -2.091,0.105 -2.209,1.123 -5.224,0.086 -7.556,-0.148 -2.438,-0.246 -4.806,-0.186 -7.197,-0.494 -2.996,-1.4 -5.53,-3.629 -7.286,-6.477 -1.403,-2.273 -1.752,-4.979 -1.802,-7.59 -0.06,-3.162 0.708,-2.447 2.714,-0.846 2.591,2.066 4.42,4.873 7.13,6.824 3.555,2.561 7.063,4.942 11.214,6.327 3.068,1.023 14.178,-8.325 1.833,-5.325 -2.589,0.629 -5.006,-1.893 -7.316,-3.227 -0.173,-0.416 -0.459,-0.805 -0.903,-1.119 -10.815,-7.66 -8.145,-22.783 -8.211,-34.67 0.225,-0.057 0.174,-0.396 0.355,-0.505 -0.016,-1.22 0.086,-2.46 0.103,-3.687 0.002,-0.189 0.027,-3.399 0.06,-3.567 -0.372,-0.267 -0.845,1.699 -1.428,1.699 -0.104,0 -0.426,-0.536 -0.524,-0.438 -0.428,-0.421 -0.753,0.681 -1.393,0.765 -2.906,0.384 -4.919,1.253 -6.377,3.904 -0.928,1.687 -1.102,3.711 -1.896,5.459 -1.08,2.377 -3.462,3.761 -5.639,4.97 -0.059,0.033 -0.103,0.074 -0.157,0.109 -0.621,-0.301 -1.47,-0.399 -2.144,0.275 -1.817,1.817 -3.294,3.582 -3.179,6.47 0.054,1.34 0.758,2.449 1.324,3.66 1.437,3.072 1.438,5.799 1.44,9.139 0.008,8.65 1.553,15.986 8.799,21.461 6.34,4.789 13.079,5.982 20.739,6.912 6.624,0.805 14.927,2.453 19.828,-2.865 11.38,-12.3 8.9,-15.37 0.89,-10.53 z" />
    <path
       style="fill:#3ca39c;stroke:#000000;stroke-width:0.25"
       id="path366"
       d="m 107.24,156.75 c -5.902,3.461 -9.013,9.711 -6.31,16.975 0.668,1.797 5.676,7.516 2.491,0.364 -2.294,-6.167 -0.097,-11.715 5.023,-15.218 4.26,1.55 1.49,-3.69 -1.2,-2.11 z" />
    <path
       style="fill:#3ca39c;stroke:#000000;stroke-width:0.25"
       id="path368"
       d="m 113.39,179.84 c -1.411,-4.54 -6.556,-15.798 -0.769,-16.942 1.343,-0.266 0.844,-3.36 -2.121,-2.121 -6.803,2.843 -3.683,9.166 0.457,19.401 2.1,1.48 3,1.51 2.43,-0.34 z" />
    <path
       style="fill:#3ca39c;stroke:#000000;stroke-width:0.25"
       id="path370"
       d="m 134.94,193.84 c -4.289,0.33 -7.896,-1.87 -10.884,-5.018 -2.833,-2.985 -3.15,-7.381 -4.149,-11.165 -0.432,-1.639 -0.975,-4.154 -2.217,-3.721 -1.119,0.391 -3.39,3.967 -2.604,5.051 3.223,4.444 2.222,9.984 6.148,14.121 3.583,3.775 8.685,5.259 13.706,5.731 3.2,0.3 8.7,-5.67 -0.01,-5 z" />
    <path
       style="fill:#afe7e6"
       id="path372"
       d="m 141.96,104.34 c -1.965,-1.965 -7.419,2.569 -9.27,0.719 -5.287,-5.287 -2.488,-1.047 -3.535,0 -0.055,0.055 -0.098,0.123 -0.147,0.184 0.337,0.446 0.547,0.992 0.547,1.584 v 1.15 c 0,0.281 -0.058,0.548 -0.142,0.805 0.206,0.151 0.15,0.562 0.357,0.709 -0.181,0.341 -1.868,12.129 -2.133,12.353 -0.813,2.596 -1.388,5.387 -3.045,7.601 -0.28,0.374 -0.622,0.68 -0.996,0.908 -0.245,0.515 -0.556,0.932 -0.989,1.25 -0.975,2.034 -2.295,3.754 -3.797,5.472 -0.037,0.042 -0.083,0.071 -0.123,0.11 0.225,0.07 0.465,0.121 0.736,0.127 2.783,0.063 4.82,0.056 7.039,-1.758 2.381,-1.947 2.573,-5.759 3.336,-8.463 0.726,-2.573 6.939,-1.542 8.393,-4.47 1.281,-2.579 1.262,-5.276 1.853,-8.038 0.129,-0.603 0.054,-1.138 -0.153,-1.589 0.98,-1.06 3.39,-7.32 2.06,-8.65 z" />
    <path
       style="fill:#000063;fill-opacity:1;stroke:#000000;stroke-width:1;stroke-linecap:butt;stroke-linejoin:miter;stroke-miterlimit:4;stroke-opacity:1;stroke-dasharray:none"
       id="path4006"
       d="m 140.2881,67.835337 -4.20089,3.203239 -4.60367,-3.476017 -4.95064,7.306882 4.41945,4.931612 1.17434,7.76273 5.04156,0.738596 5.25115,-10.598831 5.15787,-3.391296 -7.28917,-6.476915 z m -4.40111,7.214847 c 1.48162,1.683782 0.93217,5.678312 -0.65177,7.397255 -1.71766,-2.860204 -0.76967,-5.022944 0.65177,-7.397255 z" />
    <path
       style="fill:#ffffff"
       id="path374"
       d="m 143.63,95.292 c -0.493,-0.485 -0.804,-1.155 -0.804,-1.887 v -0.192 c 0,-0.208 0.031,-0.41 0.079,-0.606 -0.678,-1.736 -1.964,-2.936 -3.256,-4.228 -3.216,-3.216 -8.607,-2.747 -11.289,-0.041 -0.136,0.011 -0.354,0.547 -0.481,0.582 -0.625,0.172 -1.167,0.59 -1.494,1.149 -0.372,0.635 -0.353,1.228 -0.252,1.926 0,0.002 0.001,0.005 0.001,0.008 -0.021,0.05 -0.044,0.1 -0.063,0.149 -0.111,0.295 -0.108,0.625 -0.138,0.937 -0.036,0.365 0.043,0.711 0.193,1.027 -0.235,0.397 -0.562,0.702 -0.963,1.008 -0.305,0.232 -0.674,0.365 -1.059,0.445 -0.178,0.245 -0.443,0.445 -0.806,0.559 -0.47,0.147 -0.931,0.32 -1.392,0.496 -0.028,0.15 -0.541,0.07 -0.545,0.226 -1.376,0.229 -2.229,0.878 -3.413,1.634 -1.083,0.692 -0.081,2.424 1.01,1.727 0.041,-0.026 0.084,-0.044 0.125,-0.069 0.143,0.105 0.307,0.188 0.521,0.206 1.24,0.103 2.405,-0.13 3.532,-0.531 0.054,0.041 0.114,0.072 0.171,0.108 0.08,-0.081 0.166,-0.158 0.259,-0.227 0.224,-0.166 0.495,-0.257 0.757,-0.349 0.325,-0.114 0.663,-0.08 0.967,0.047 0.099,-0.021 0.2,-0.033 0.303,-0.034 0.346,-0.005 0.687,0.015 1.025,0.064 0.216,-0.031 0.42,-0.024 0.607,0.104 0.593,-0.15 1.245,1.085 1,0.485 0.546,1.337 0.159,1.509 1.101,2.76 2.048,2.722 4.234,4.75 8.123,6.064 1.55,0.524 3.327,0.255 4.105,-1.076 1.8,-3.08 2.26,-7.962 2.07,-12.468 z" />
    <path
       style="fill:#ffffff"
       id="path376"
       d="m 127.04,220.07 c -0.362,-0.579 -0.771,-1.127 -1.235,-1.73 -0.549,-0.715 -1.293,-1.017 -2.032,-1.037 0.023,0.151 0.045,0.304 0.044,0.472 -0.01,1.726 -0.183,3.422 -0.424,5.129 -0.034,0.238 -0.118,0.453 -0.233,0.65 -0.006,0.112 -0.003,0.221 -0.023,0.337 -1.436,8.584 -1.709,16.952 -4.387,25.296 -0.084,0.263 -0.204,0.485 -0.336,0.688 -0.001,0.132 -0.012,0.266 -0.01,0.396 0.045,3.222 5.045,3.226 5,0 -0.031,-2.216 0.518,-4.16 1.227,-6.244 0.692,-2.034 0.435,-4.304 0.804,-6.397 0.905,-5.128 2.121,-10.219 2.611,-15.47 0.1,-1.05 -0.35,-1.74 -1,-2.1 z" />
    <path
       style="fill:#ffffff"
       id="path378"
       d="m 153.66,253.59 c -0.721,-7.302 -2.086,-14.512 -2.23,-21.86 -0.011,-0.554 0.129,-1.008 0.354,-1.383 -0.049,-0.295 -0.097,-0.593 -0.145,-0.887 -0.136,-0.218 -0.248,-0.451 -0.298,-0.715 -0.428,-2.249 -0.127,-4.47 -0.211,-6.715 -0.055,0.052 -0.111,0.09 -0.164,0.148 -0.788,0.868 -1.543,1.72 -2.576,2.293 -0.397,0.22 -1.364,0.277 -1.632,0.095 -0.508,-0.348 -1.009,-0.47 -1.471,-0.431 0.443,0.475 0.724,1.1 0.709,1.783 -0.017,0.778 0.036,0.998 0.218,1.76 0.147,0.614 0.299,1.227 0.419,1.848 0.006,0.032 0.006,0.063 0.011,0.096 0.01,10e-4 0.02,0.003 0.029,0.003 -0.001,0.152 0.004,0.308 0.03,0.47 0.099,0.601 0.197,1.213 0.297,1.822 0.212,0.255 0.391,0.561 0.51,0.935 1.125,3.52 1.354,7.293 2.012,10.923 0.273,1.511 0.296,3.09 0.338,4.655 0.651,1.719 0.829,3.591 0.597,5.452 -0.034,0.273 -0.112,0.523 -0.211,0.761 1.034,0.893 2.782,0.835 3.655,-0.171 -0.13,-0.25 -0.22,-0.54 -0.26,-0.87 z" />
    <path
       style="fill:#ffffff"
       id="path380"
       d="m 133.92,91.027 c -0.1,0.044 -0.15,0.073 0,0 z" />
    <path
       style="fill:#f7931e"
       id="path382"
       d="m 128.39,99.515 c -0.043,-0.076 -0.087,-0.151 -0.131,-0.226 -0.317,-1.324 -1.235,-2.427 -2.307,-3.265 -0.124,-0.097 -0.256,-0.174 -0.392,-0.241 -0.248,-0.184 -0.562,-0.258 -0.877,-0.241 -0.137,-0.002 -0.277,0.009 -0.425,0.049 -0.238,0.065 -0.463,0.211 -0.652,0.398 -0.072,0.006 -0.141,0.011 -0.215,0.017 -0.627,0.05 -1.046,0.408 -1.264,0.858 -1.074,0.426 -2.172,0.773 -3.329,0.735 -1.936,-0.063 -1.93,2.938 0,3 1.997,0.064 3.772,-0.727 5.58,-1.447 0.108,0.165 0.221,0.327 0.336,0.487 0.252,-0.173 0.556,-0.276 0.88,-0.28 0.506,-0.007 1.005,-0.004 1.495,0.149 0.75,0.235 1.237,0.956 1.13,1.729 0.39,-0.47 0.45,-1.14 0.16,-1.725 z" />
    <path
       style="fill:#ff9c9c;stroke:#000000"
       id="path384"
       d="m 115.16,197.51 c -3.667,5.667 -27.708,31.514 -32.374,33.681 -6.333,3.834 -30.333,1.778 -22.833,-26 11.833,-19.333 30.939,-29.665 33.273,-31.999 4.251,4.25 21.934,24.32 21.934,24.32 z" />
    <path
       style="fill:none;stroke:#745c40;stroke-opacity:1"
       id="path386"
       d="m 76.083,223.66 c -2.331,0 -5.397,-0.751 -7.011,-2.858 -1.78,-2.324 -2.035,-6.567 -0.743,-12.028 7.001,-10.922 23.275,-25.141 29.282,-29.218 3.596,3.857 8.269,8.939 12.314,13.358 -7.231,7.839 -27.671,28.016 -31.148,30.216 l -0.229,0.105 -0.255,0.154 c -0.277,0.1 -1.045,0.27 -2.205,0.27 z" />
    <path
       style="fill:none;stroke:#745c40;stroke-opacity:1"
       id="path388"
       d="m 76.083,221.66 c -1.769,0 -4.251,-0.543 -5.423,-2.074 -1.344,-1.755 -1.509,-5.396 -0.461,-10.021 6.351,-9.728 20.279,-22.304 27.143,-27.364 3.212,3.458 6.905,7.476 9.861,10.701 -8.507,9.037 -26.188,26.313 -29.396,28.473 l -0.198,0.092 -0.109,0.065 c -0.226,0.04 -0.705,0.12 -1.414,0.12 z" />
    <path
       style="fill:none;stroke:#745c40;stroke-opacity:1"
       id="path390"
       d="m 76.083,219.66 c -1.415,0 -3.187,-0.443 -3.835,-1.29 -0.692,-0.903 -1.138,-3.535 -0.176,-8.013 5.633,-8.464 17.556,-19.673 25.034,-25.47 2.439,2.633 5.055,5.477 7.363,7.992 -9.196,9.64 -24.564,24.522 -27.637,26.737 -0.176,0.02 -0.426,0.04 -0.75,0.04 z" />
    <path
       style="fill:none;stroke:#745c40;stroke-opacity:1"
       id="path392"
       d="m 76.083,217.66 c -1.113,0 -2.075,-0.353 -2.278,-0.541 -0.183,-0.305 -0.624,-2.157 0.145,-5.971 5.328,-7.847 16.056,-17.974 22.945,-23.543 1.615,1.747 3.269,3.545 4.83,5.244 -8.775,9.099 -22.032,21.934 -25.627,24.811 h -0.01 z" />
    <path
       style="fill:none;stroke:#745c40;stroke-opacity:1"
       id="path394"
       d="m 75.529,215.54 c -0.041,-0.69 -0.017,-1.858 0.305,-3.596 4.601,-6.631 13.637,-15.547 20.872,-21.588 0.76,0.823 1.521,1.65 2.269,2.464 -8.098,8.33 -19.372,19.25 -23.446,22.73 z" />
    <path
       style="fill:none;stroke:#000000"
       id="path396"
       d="m 117.15,99.331 c 0,2.841 8.852,-1.375 10.841,0.613 1.601,1.601 4.034,20.642 -5.114,32.085 -9.148,11.443 -6.445,10.808 -6.445,14.146 0,3.338 -1.669,3.338 -1.669,5.007 -3.894,0 -18.834,-0.715 -21.537,22.014 21.775,24.159 21.298,23.683 21.934,24.318 2.305,-1.033 2.384,-0.397 4.132,-0.397 1.351,2.543 4.769,12.318 4.769,19.312 0,6.994 -3.021,23.839 -5.086,33.375 -3.017,4.427 -9.378,-1.748 -13.749,21.219 0.516,1.788 0.995,2.163 2.305,0 1.349,-2.228 -0.506,-11.348 6.96,-9.827 0.214,5.617 -0.369,6.552 0.415,8.671 1.383,1.987 1.567,0.202 2.083,-0.91 1.033,-5.165 -0.821,-8.952 1.881,-8.952 1.659,-0.646 3.443,5.218 3.443,10.939 0.219,1.848 2.066,2.86 2.066,-2.385 0,-5.245 0.238,-13.589 -2.066,-15.894 1.589,-4.133 6.33,-34.491 7.218,-37.034 0.888,-2.543 1.365,-9.695 4.544,-9.695 3.259,3.259 3.975,13.192 11.444,17.802 1.43,4.609 5.165,21.378 5.165,31.073 -6.119,8.186 -9.298,12.318 -9.298,16.609 4.77,-2.066 4.608,-4.769 6.675,-6.835 5.246,0 3.339,3.169 3.339,7.778 1.112,0.794 1.826,-4.041 4.449,-6.663 3.497,0.477 2.226,-0.479 2.226,6.663 2.066,-4.281 2.384,-13.023 0,-15.407 -2.384,-2.384 -2.384,-0.317 -4.45,-2.384 0,-3.338 -4.929,-41.324 -2.305,-50.146 5.404,2.066 1.849,0.735 7.073,1.669 4.224,0.755 5.801,1.828 7.629,0 0,-4.45 -5.882,-11.92 -6.676,-14.305 2.464,-2.464 10.49,-8.425 13.828,-9.378 3.338,-0.953 1.192,-5.006 2.543,-6.357 5.483,-1.191 3.178,-1.275 6.994,5.404 1.003,1.756 -0.08,-0.397 3.496,3.179 3.765,0 4.29,-1.271 5.404,-4.609 1.711,-5.126 0.222,-19.07 -4.927,-19.07 -24.478,0 -23.224,-2.399 -26.385,-4.927 -3.161,-2.528 -18.517,-1.3 -21.514,-15.521 -0.5,-2.373 -1,-24.794 2.122,-29.302 3.656,-6.675 3.456,-17.438 0.545,-21.139 -2.646,-3.364 -7.432,-6.659 -14.055,-0.954 -2.556,2.202 -0.189,4.609 -1.779,6.199 -2.6,0.574 -8.45,2.943 -8.45,4.035 z" />
    <path
       id="path398"
       d="m 134.08,93.475 c -0.192,-0.329 -0.515,-0.467 -0.853,-0.466 0.029,-0.149 0.035,-0.301 -0.005,-0.445 -0.152,-0.552 -0.697,-0.808 -1.23,-0.699 -1.104,0.226 -2.022,0.705 -2.113,1.94 -0.073,1.002 0.687,1.428 1.567,1.544 0.806,0.107 1.559,-0.163 2.274,-0.507 0.49,-0.235 0.62,-0.926 0.36,-1.367 z" />
    <path
       style="fill:#ff9c9c;stroke:#000000"
       id="path400"
       d="m 173.97,176.03 c 5.285,3.485 29.384,26.332 31.406,30.768 3.576,6.019 1.659,28.826 -24.244,21.699 -18.028,-11.247 -27.663,-29.404 -29.839,-31.62 3.95,-4.04 22.67,-20.85 22.67,-20.85 z" />
    <path
       style="fill:none;stroke:#745c40;stroke-opacity:1"
       id="path402"
       d="m 202.31,215.19 c 0.059,2.331 -0.616,5.415 -2.683,7.08 -2.279,1.838 -6.515,2.198 -12.007,1.042 -11.092,-6.729 -25.711,-22.644 -29.936,-28.548 3.767,-3.69 8.731,-8.488 13.048,-12.643 8.017,7.035 28.694,26.968 30.98,30.389 l 0.111,0.226 0.16,0.252 c 0.11,0.27 0.3,1.04 0.33,2.2 z" />
    <path
       style="fill:none;stroke:#745c40;stroke-opacity:1"
       id="path404"
       d="m 200.31,215.24 c 0.044,1.769 -0.438,4.264 -1.938,5.474 -1.721,1.387 -5.356,1.642 -10.006,0.71 -9.883,-6.107 -22.801,-19.718 -28.03,-26.454 3.377,-3.297 7.302,-7.089 10.452,-10.124 9.246,8.279 26.955,25.525 29.194,28.679 l 0.097,0.196 0.068,0.106 c 0.06,0.21 0.15,0.69 0.17,1.4 z" />
    <path
       style="fill:none;stroke:#745c40;stroke-opacity:1"
       id="path406"
       d="m 198.31,215.29 c 0.035,1.415 -0.364,3.197 -1.194,3.866 -0.886,0.714 -3.506,1.226 -8.006,0.375 -8.602,-5.421 -20.104,-17.062 -26.084,-24.394 2.571,-2.503 5.35,-5.188 7.807,-7.559 9.865,8.954 25.125,23.948 27.416,26.965 0.02,0.15 0.04,0.4 0.05,0.73 z" />
    <path
       style="fill:none;stroke:#745c40;stroke-opacity:1"
       id="path408"
       d="m 196.31,215.34 c 0.028,1.112 -0.301,2.083 -0.483,2.29 -0.301,0.19 -2.142,0.678 -5.973,0.004 -7.977,-5.131 -18.367,-15.604 -24.106,-22.353 1.707,-1.658 3.463,-3.356 5.123,-4.959 9.313,8.547 22.474,21.479 25.439,25.003 v 0.02 z" />
    <path
       style="fill:none;stroke:#745c40;stroke-opacity:1"
       id="path410"
       d="m 194.2,215.94 c -0.689,0.059 -1.857,0.063 -3.602,-0.216 -6.743,-4.434 -15.881,-13.246 -22.101,-20.329 0.805,-0.78 1.612,-1.561 2.407,-2.329 8.51,7.9 19.71,18.9 23.29,22.88 z" />
  </g>
</svg>
