<?xml version="1.0" encoding="UTF-8" standalone="no"?>
<svg
   xmlns:dc="http://purl.org/dc/elements/1.1/"
   xmlns:cc="http://creativecommons.org/ns#"
   xmlns:rdf="http://www.w3.org/1999/02/22-rdf-syntax-ns#"
   xmlns:svg="http://www.w3.org/2000/svg"
   xmlns="http://www.w3.org/2000/svg"
   xmlns:sodipodi="http://sodipodi.sourceforge.net/DTD/sodipodi-0.dtd"
   xmlns:inkscape="http://www.inkscape.org/namespaces/inkscape"
   version="1.1"
   width="1200"
   height="600"
   id="svg2"
   inkscape:version="0.48.3.1 r9886"
   sodipodi:docname="USSR1.svg">
  <metadata
     id="metadata16">
    <rdf:RDF>
      <cc:Work
         rdf:about="">
        <dc:format>image/svg+xml</dc:format>
        <dc:type
           rdf:resource="http://purl.org/dc/dcmitype/StillImage" />
        <dc:title></dc:title>
      </cc:Work>
    </rdf:RDF>
  </metadata>
  <defs
     id="defs14" />
  <sodipodi:namedview
     pagecolor="#ffffff"
     bordercolor="#666666"
     borderopacity="1"
     objecttolerance="10"
     gridtolerance="10"
     guidetolerance="10"
     inkscape:pageopacity="0"
     inkscape:pageshadow="2"
     inkscape:window-width="1600"
     inkscape:window-height="848"
     id="namedview12"
     showgrid="false"
     inkscape:zoom="0.5"
     inkscape:cx="211.07249"
     inkscape:cy="401.6365"
     inkscape:window-x="-8"
     inkscape:window-y="-8"
     inkscape:window-maximized="1"
     inkscape:current-layer="svg2" />
  <rect
     fill="#c00"
     width="1200"
     height="600"
     id="rect4" />
  <path
     fill="#ffd700"
     d="m 191.6,61.4 -27,0 21.8,16 -8.2,25.6 21.8,-15.8 21.8,15.8 -8.2,-25.6 21.8,-16 -27,0 -8.4,-25.8 -8.4,25.8 z m 8.4,-9.8 4.8,14.8 15.4,0 -12.4,9 4.72,14.7 -12.52,-9.1 -12.52,9.1 4.72,-14.7 -12.4,-9 15.4,0 4.8,-14.8 z"
     id="path6" />
  <path
     style="fill:#ffd700;fill-opacity:1;fill-rule:evenodd;stroke:none"
     d="m 166.57653,138.64507 -33.98504,32.37042 18.12536,18.12534 15.65136,-15.75551 c 30.52185,30.97994 54.24551,55.06532 83.71886,84.97747 8.15951,8.45996 22.36846,-3.04386 13.26894,-12.8119 -31.13941,-30.3468 -52.72212,-52.2508 -85.16467,-84.06683 l 19.23453,-19.34808 z"
     id="hammer_head"
     inkscape:connector-curvature="0"
     sodipodi:nodetypes="ccccccccc" />
  <g
     id="g3852"
     transform="matrix(0.83334944,0,0,0.83334944,-15.22385,-132.01121)">
    <path
       style="fill:#ffd700;fill-opacity:1;fill-rule:evenodd;stroke:none"
       d="m 216.7812,433.75 c 72.96097,67.686 191.19511,-54.3637 40.09375,-142.8125 l 5e-5,0 c 112.44686,124.9296 4.49418,163.2273 -34.59375,124.6875 L 220.3125,414 c -1.5958,1.79152 -3.19491,3.58011 -4.78871,5.37341 -3.02847,-2.85878 -7.73236,-3.69883 -9.18009,1.18909 -5.95051,-0.4117 -9.44226,2.885 -11,9.0625 -11.06856,7.3329 -23.05082,13.76655 -29.9375,25.28125 -3.93605,12.18 3.84864,17.47725 12.65625,16.46875 14.43702,-5.9976 18.89869,-18.96115 26.625,-29.65625 5.46174,-1.7386 10.0877,-4.07577 10.93599,-9.048"
       id="sickle_handle"
       inkscape:connector-curvature="0"
       sodipodi:nodetypes="cccccccccccc" />
  </g>
</svg>
