<svg xmlns="http://www.w3.org/2000/svg" width="600" height="300" viewBox="0 0 1200 600"><title>Flag of Dominica</title>
<rect height="600" width="1200" y="0" x="0" fill="#006b3f"/>
<rect height="50" width="1200" y="325" x="0" fill="#FFF"/>
<rect height="50" width="1200" y="275" x="0" fill="#000"/>
<rect height="50" width="1200" y="225" x="0" fill="#fcd116"/>
<rect height="600" width="50" y="0.000012934" x="525" fill="#fcd116"/>
<rect height="600" width="50" y="0.000012934" x="575" fill="#000"/>
<rect height="600" width="50" y="0.000012934" x="625" fill="#FFF"/>
<path d="M750.88,300.25a150.38,150.38,0,1,1,-300.75,0,150.38,150.38,0,1,1,300.75,0z" transform="matrix(0.997483,0,0,0.997483,1.006676,0.503455)" fill="#d41c30"/>
<path d="M595.19,181.59c0-0.22,4.81-13.72,4.81-13.72l4.37,13.5s14.65,0.44,14.65,0.22-11.59,8.85-11.59,8.85,5.47,15.49,5.25,15.05-12.68-9.29-12.68-9.29-12.68,8.85-12.46,8.85,4.81-14.61,4.81-14.61l-11.37-8.63,14.21-0.22z" stroke="#000" stroke-miterlimit="4" stroke-width="1" fill="#006b3f"/>
<path d="M604.81,418.75c0,0.22-4.81,13.72-4.81,13.72l-4.37-13.5s-14.65-0.44-14.65-0.22,11.59-8.85,11.59-8.85-5.47-15.49-5.25-15.05,12.68,9.3,12.68,9.3,12.68-8.86,12.46-8.86-4.81,14.61-4.81,14.61l11.37,8.63-14.21,0.22z" stroke="#000" stroke-miterlimit="4" stroke-width="1" fill="#006b3f"/>
<path d="M669.72,215.46c0,0.22-4.81,13.72-4.81,13.72l-4.38-13.5s-14.64-0.44-14.64-0.22,11.58-8.85,11.58-8.85-5.46-15.49-5.24-15.05c0.21,0.44,12.68,9.29,12.68,9.29s12.68-8.85,12.46-8.85-4.81,14.61-4.81,14.61l11.37,8.63-14.21,0.22z" stroke="#000" stroke-miterlimit="4" stroke-width="1" fill="#006b3f"/>
<path d="M711.81,338.51c0,0.22-4.81,13.72-4.81,13.72l-4.37-13.5s-14.65-0.44-14.65-0.22,11.59-8.85,11.59-8.85-5.47-15.49-5.25-15.05,12.68,9.29,12.68,9.29,12.68-8.85,12.46-8.85c-0.21,0-4.81,14.61-4.81,14.61l11.37,8.63-14.21,0.22z" stroke="#000" stroke-miterlimit="4" stroke-width="1" fill="#006b3f"/>
<path d="M497.79,342.03c0,0.22-4.81,13.71-4.81,13.71l-4.37-13.49s-14.65-0.45-14.65-0.22c0,0.22,11.59-8.86,11.59-8.86s-5.47-15.49-5.25-15.04c0.22,0.44,12.68,9.29,12.68,9.29s12.68-8.85,12.46-8.85-4.81,14.6-4.81,14.6l11.37,8.63-14.21,0.23z" stroke="#000" stroke-miterlimit="4" stroke-width="1" fill="#006b3f"/>
<path d="M536.65,216.9c0,0.22-4.81,13.72-4.81,13.72l-4.38-13.5s-14.64-0.44-14.64-0.22,11.58-8.85,11.58-8.85-5.46-15.49-5.24-15.05c0.21,0.44,12.68,9.29,12.68,9.29s12.68-8.85,12.46-8.85-4.81,14.61-4.81,14.61l11.37,8.63-14.21,0.22z" stroke="#000" stroke-miterlimit="4" stroke-width="1" fill="#006b3f"/>
<path d="M487.32,261.86c0-0.22,4.81-13.72,4.81-13.72l4.37,13.5s14.65,0.44,14.65,0.22-11.59,8.85-11.59,8.85,5.47,15.49,5.25,15.05-12.68-9.29-12.68-9.29-12.68,8.85-12.46,8.85c0.21,0,4.81-14.61,4.81-14.61l-11.37-8.63,14.21-0.22z" stroke="#000" stroke-miterlimit="4" stroke-width="1" fill="#006b3f"/>
<path d="M529.14,384.69c0-0.23,4.81-13.72,4.81-13.72l4.37,13.49s14.65,0.45,14.65,0.23c0-0.23-11.58,8.85-11.58,8.85s5.46,15.49,5.24,15.04c-0.22-0.44-12.68-9.29-12.68-9.29s-12.68,8.85-12.46,8.85,4.81-14.6,4.81-14.6l-11.37-8.63,14.21-0.22z" stroke="#000" stroke-miterlimit="4" stroke-width="1" fill="#006b3f"/>
<path d="M701.43,258.59c0-0.23,4.81-13.72,4.81-13.72l4.37,13.49s14.65,0.45,14.65,0.23c0-0.23-11.59,8.85-11.59,8.85s5.47,15.49,5.25,15.04c-0.22-0.44-12.68-9.29-12.68-9.29s-12.68,8.85-12.46,8.85,4.81-14.6,4.81-14.6l-11.37-8.63,14.21-0.22z" stroke="#000" stroke-miterlimit="4" stroke-width="1" fill="#006b3f"/>
<path d="M662.45,383.53c0-0.22,4.81-13.72,4.81-13.72l4.37,13.5s14.65,0.44,14.65,0.22-11.59,8.85-11.59,8.85,5.47,15.49,5.25,15.05c-0.22-0.45-12.68-9.3-12.68-9.3s-12.68,8.85-12.46,8.85,4.81-14.6,4.81-14.6l-11.37-8.63,14.21-0.22z" stroke="#000" stroke-miterlimit="4" stroke-width="1" fill="#006b3f"/>
<rect height="0" width="0.71601" y="267.32" x="499.08" stroke-width="1pt" fill="#009543"/>
<rect height="0" width="0.71601" y="358.22" x="628.2" stroke-width="1pt" fill="#009543"/>
<rect height="0" width="0.71601" y="502.51" x="590.57" stroke-width="1pt" fill="#009543"/>
<rect height="0" width="0.71601" y="502.51" x="410.04" stroke-width="1pt" fill="#009543"/>
<rect height="0" width="0.71601" y="354.5" x="377.07" stroke-width="1pt" fill="#009543"/>
<rect transform="scale(-1,-1)" height="0" width="0.71601" y="-86.095" x="-772.57" stroke-width="1pt" fill="#009543"/>
<rect transform="scale(-1,-1)" height="0" width="0.71601" y="-227.09" x="-824.41" stroke-width="1pt" fill="#009543"/>
<rect transform="scale(-1,-1)" height="0" width="0.71601" y="-330.24" x="-695.85" stroke-width="1pt" fill="#009543"/>
<rect transform="scale(-1,-1)" height="0" width="0.71601" y="-227.09" x="-575.08" stroke-width="1pt" fill="#009543"/>
<rect transform="scale(-1,-1)" height="0" width="0.71601" y="-88.168" x="-619.65" stroke-width="1pt" fill="#009543"/>
<g transform="matrix(1.260717,0,0,1.260717,-31.14955,-15.98474)">
<g font-size="12px" transform="translate(7.403947,348.7255)">
<g transform="matrix(0.163503,-1.627543e-2,1.182242e-2,0.184363,429.835,-215.6278)" stroke="#000" stroke-width="2.5" fill="#006b3f">
<ellipse d="m 711.01062,586.12573 c 0,104.83738 -13.79184,189.82486 -30.80493,189.82486 -17.0131,0 -30.80493,-84.98748 -30.80493,-189.82486 0,-104.83737 13.79183,-189.82486 30.80493,-189.82486 17.01309,0 30.80493,84.98749 30.80493,189.82486 z" rx="30.805" ry="189.82" transform="matrix(1.405124,-5.812161e-3,8.166948e-3,0.999983,-534.2869,263.7234)" cy="586.13" cx="680.21"/>
<ellipse d="m 711.01062,586.12573 c 0,104.83738 -13.79184,189.82486 -30.80493,189.82486 -17.0131,0 -30.80493,-84.98748 -30.80493,-189.82486 0,-104.83737 13.79183,-189.82486 30.80493,-189.82486 17.01309,0 30.80493,84.98749 30.80493,189.82486 z" rx="30.805" ry="189.82" transform="matrix(1.486152,-5.812161e-3,8.637901e-3,0.999983,-547.2176,267.0538)" cy="586.13" cx="680.21"/>
<ellipse d="m 711.01062,586.12573 c 0,104.83738 -13.79184,189.82486 -30.80493,189.82486 -17.0131,0 -30.80493,-84.98748 -30.80493,-189.82486 0,-104.83737 13.79183,-189.82486 30.80493,-189.82486 17.01309,0 30.80493,84.98749 30.80493,189.82486 z" rx="30.805" ry="189.82" transform="matrix(1.18905,-6.423977e-3,6.911065e-3,1.105246,-364.9289,214.0982)" cy="586.13" cx="680.21"/>
</g>
<g stroke="#000" transform="translate(72.86526,-9.797035)">
<path d="M238.34,971.79c29.97-1.67,16.65-16.65,31.64-24.98,14.98-8.32,36.63-3.33,43.29,6.66s1.67,19.99,9.99,19.99c8.33,0,234.56-12.68,242.88-4.35,8.33,8.32,10,24.97,1.67,31.59-8.33,6.7-294.5,14.4-304.49,7.7-9.99-6.6-24.98-34.94-24.98-36.61z" transform="matrix(0.202443,3.486294e-3,-3.936657e-3,0.21385,340.8638,-247.3115)" stroke-width="2.50539994" fill="#9c4a00"/>
<path d="M529.59,405.46c0,39.98,45.56,27.88,46.81,61.25-0.72,35.41-76.71,3.47-78.64-61.25,1.93-64.72,75.11-97.93,76.71-61.01,1.25,30.68-44.88,21.03-44.88,61.01z" transform="matrix(0.147992,1.951432e-3,-2.754835e-3,0.114586,340.4216,-81.69088)" stroke-width="3.85272002" fill="#fcd116"/>
<path d="M529.59,405.46c0,39.98,45.56,27.88,46.81,61.25-0.72,35.41-76.71,3.47-78.64-61.25,1.93-64.72,75.11-97.93,76.71-61.01,1.25,30.68-44.88,21.03-44.88,61.01z" transform="matrix(0.147992,1.951432e-3,-2.754835e-3,0.114586,344.4198,-81.63816)" stroke-width="3.85272002" fill="#fcd116"/>
<path d="M529.59,405.46c0,39.98,45.56,27.88,46.81,61.25-0.72,35.41-76.71,3.47-78.64-61.25,1.93-64.72,75.11-97.93,76.71-61.01,1.25,30.68-44.88,21.03-44.88,61.01z" transform="matrix(0.147992,1.951432e-3,-2.754835e-3,0.114586,348.7088,-81.79968)" stroke-width="3.85272002" fill="#fcd116"/>
<path d="M529.59,405.46c0,39.98,45.56,27.88,46.81,61.25-0.72,35.41-76.71,3.47-78.64-61.25,1.93-64.72,75.11-97.93,76.71-61.01,1.25,30.68-44.88,21.03-44.88,61.01z" transform="matrix(0.147992,1.951432e-3,-2.754835e-3,0.114586,352.7069,-81.74693)" stroke-width="3.85272002" fill="#fcd116"/>
<ellipse d="m 481.91562,-41.085754 c 0,1.879412 -1.58217,3.402977 -3.53388,3.402977 -1.9517,0 -3.53387,-1.523565 -3.53387,-3.402977 0,-1.879413 1.58217,-3.402977 3.53387,-3.402977 1.95171,0 3.53388,1.523564 3.53388,3.402977 z" rx="3.5339" ry="3.403" transform="matrix(1.094549,1.648336e-2,-2.428555e-2,1.153662,-75.5714,4.677567)" cy="-41.086" cx="478.38" stroke-width="0.39908" fill="#9c4a00"/>
</g>
<g stroke="#000" stroke-width="2.5" transform="matrix(0.994885,-0.101022,0.101022,0.994885,66.68384,66.33841)">
<ellipse d="m 447.92003,904.99817 c 0,13.33459 -9.31881,24.14441 -20.81413,24.14441 -11.49533,0 -20.81414,-10.80982 -20.81414,-24.14441 0,-13.33459 9.31881,-24.14441 20.81414,-24.14441 11.49532,0 20.81413,10.80982 20.81413,24.14441 z" rx="20.814" ry="24.144" transform="matrix(0.166193,-8.072795e-3,1.687537e-3,0.315205,369.7997,-361.6541)" cy="905" cx="427.11" fill="#006b3f"/>
<ellipse d="m 447.92003,904.99817 c 0,13.33459 -9.31881,24.14441 -20.81413,24.14441 -11.49533,0 -20.81414,-10.80982 -20.81414,-24.14441 0,-13.33459 9.31881,-24.14441 20.81414,-24.14441 11.49532,0 20.81413,10.80982 20.81413,24.14441 z" rx="20.814" ry="24.144" transform="matrix(0.166193,-8.072795e-3,1.687537e-3,0.315205,364.0408,-362.7012)" cy="905" cx="427.11" fill="#006b3f"/>
<ellipse d="m 447.92003,904.99817 c 0,13.33459 -9.31881,24.14441 -20.81413,24.14441 -11.49533,0 -20.81414,-10.80982 -20.81414,-24.14441 0,-13.33459 9.31881,-24.14441 20.81414,-24.14441 11.49532,0 20.81413,10.80982 20.81413,24.14441 z" rx="20.814" ry="24.144" transform="matrix(0.166193,-8.072776e-3,1.687537e-3,0.315204,360.6378,-370.5537)" cy="905" cx="427.11" fill="#006b3f"/>
<ellipse d="m 447.92003,904.99817 c 0,13.33459 -9.31881,24.14441 -20.81413,24.14441 -11.49533,0 -20.81414,-10.80982 -20.81414,-24.14441 0,-13.33459 9.31881,-24.14441 20.81414,-24.14441 11.49532,0 20.81413,10.80982 20.81413,24.14441 z" rx="20.814" ry="24.144" transform="matrix(0.159905,-8.905569e-3,1.623691e-3,0.347721,369.2988,-399.3517)" cy="905" cx="427.11" fill="#006b3f"/>
<ellipse d="m 447.92003,904.99817 c 0,13.33459 -9.31881,24.14441 -20.81413,24.14441 -11.49533,0 -20.81414,-10.80982 -20.81414,-24.14441 0,-13.33459 9.31881,-24.14441 20.81414,-24.14441 11.49532,0 20.81413,10.80982 20.81413,24.14441 z" rx="20.814" ry="24.144" transform="matrix(0.159905,-8.350374e-3,1.623691e-3,0.326043,377.4103,-379.0724)" cy="905" cx="427.11" fill="#009543"/>
<ellipse d="m 447.92003,904.99817 c 0,13.33459 -9.31881,24.14441 -20.81413,24.14441 -11.49533,0 -20.81414,-10.80982 -20.81414,-24.14441 0,-13.33459 9.31881,-24.14441 20.81414,-24.14441 11.49532,0 20.81413,10.80982 20.81413,24.14441 z" rx="20.814" ry="24.144" transform="matrix(0.159905,-8.350374e-3,1.623691e-3,0.326043,373.222,-382.2137)" cy="905" cx="427.11" fill="#009543"/>
<ellipse d="m 447.92003,904.99817 c 0,13.33459 -9.31881,24.14441 -20.81413,24.14441 -11.49533,0 -20.81414,-10.80982 -20.81414,-24.14441 0,-13.33459 9.31881,-24.14441 20.81414,-24.14441 11.49532,0 20.81413,10.80982 20.81413,24.14441 z" rx="20.814" ry="24.144" transform="matrix(0.159905,-8.350374e-3,1.623691e-3,0.326043,367.9866,-386.6638)" cy="905" cx="427.11" fill="#009543"/>
<ellipse d="m 447.92003,904.99817 c 0,13.33459 -9.31881,24.14441 -20.81413,24.14441 -11.49533,0 -20.81414,-10.80982 -20.81414,-24.14441 0,-13.33459 9.31881,-24.14441 20.81414,-24.14441 11.49532,0 20.81413,10.80982 20.81413,24.14441 z" rx="20.814" ry="24.144" transform="matrix(0.159905,-8.350374e-3,1.623691e-3,0.326043,363.0129,-389.5432)" cy="905" cx="427.11" fill="#006b3f"/>
</g>
<path d="M173.17,346.35s-54.19,64.89-21.25,208.81c33.96,144.59,178.97,189.78,178.97,189.78s26.49-47.42,1.72-164.04c-39.96-169.84-116.14-234.55-116.14-234.55h-43.3z" transform="matrix(0.176889,3.219125e-2,-3.142231e-2,0.182359,461.7877,-208.6117)" stroke="#000" stroke-width="2.5" fill="#9461c9"/>
<g transform="matrix(0.996961,7.791016e-2,-7.791016e-2,0.996961,60.53158,-11.75977)" stroke="#000" stroke-width="2.5" fill="#006b3f">
<ellipse d="m 447.92003,904.99817 c 0,13.33459 -9.31881,24.14441 -20.81413,24.14441 -11.49533,0 -20.81414,-10.80982 -20.81414,-24.14441 0,-13.33459 9.31881,-24.14441 20.81414,-24.14441 11.49532,0 20.81413,10.80982 20.81413,24.14441 z" rx="20.814" ry="24.144" transform="matrix(0.166193,-8.072795e-3,1.687537e-3,0.315205,369.7997,-361.6541)" cy="905" cx="427.11"/>
<ellipse d="m 447.92003,904.99817 c 0,13.33459 -9.31881,24.14441 -20.81413,24.14441 -11.49533,0 -20.81414,-10.80982 -20.81414,-24.14441 0,-13.33459 9.31881,-24.14441 20.81414,-24.14441 11.49532,0 20.81413,10.80982 20.81413,24.14441 z" rx="20.814" ry="24.144" transform="matrix(0.166193,-8.072795e-3,1.687537e-3,0.315205,364.0408,-362.7012)" cy="905" cx="427.11"/>
<ellipse d="m 447.92003,904.99817 c 0,13.33459 -9.31881,24.14441 -20.81413,24.14441 -11.49533,0 -20.81414,-10.80982 -20.81414,-24.14441 0,-13.33459 9.31881,-24.14441 20.81414,-24.14441 11.49532,0 20.81413,10.80982 20.81413,24.14441 z" rx="20.814" ry="24.144" transform="matrix(0.166193,-8.072776e-3,1.687537e-3,0.315204,360.6378,-370.5537)" cy="905" cx="427.11"/>
<ellipse d="m 447.92003,904.99817 c 0,13.33459 -9.31881,24.14441 -20.81413,24.14441 -11.49533,0 -20.81414,-10.80982 -20.81414,-24.14441 0,-13.33459 9.31881,-24.14441 20.81414,-24.14441 11.49532,0 20.81413,10.80982 20.81413,24.14441 z" rx="20.814" ry="24.144" transform="matrix(0.159905,-8.905569e-3,1.623691e-3,0.347721,369.2988,-399.3517)" cy="905" cx="427.11"/>
<ellipse d="m 447.92003,904.99817 c 0,13.33459 -9.31881,24.14441 -20.81413,24.14441 -11.49533,0 -20.81414,-10.80982 -20.81414,-24.14441 0,-13.33459 9.31881,-24.14441 20.81414,-24.14441 11.49532,0 20.81413,10.80982 20.81413,24.14441 z" rx="20.814" ry="24.144" transform="matrix(0.159905,-8.350374e-3,1.623691e-3,0.326043,377.4103,-379.0724)" cy="905" cx="427.11"/>
<ellipse d="m 447.92003,904.99817 c 0,13.33459 -9.31881,24.14441 -20.81413,24.14441 -11.49533,0 -20.81414,-10.80982 -20.81414,-24.14441 0,-13.33459 9.31881,-24.14441 20.81414,-24.14441 11.49532,0 20.81413,10.80982 20.81413,24.14441 z" rx="20.814" ry="24.144" transform="matrix(0.159905,-8.350374e-3,1.623691e-3,0.326043,373.222,-382.2137)" cy="905" cx="427.11"/>
<ellipse d="m 447.92003,904.99817 c 0,13.33459 -9.31881,24.14441 -20.81413,24.14441 -11.49533,0 -20.81414,-10.80982 -20.81414,-24.14441 0,-13.33459 9.31881,-24.14441 20.81414,-24.14441 11.49532,0 20.81413,10.80982 20.81413,24.14441 z" rx="20.814" ry="24.144" transform="matrix(0.159905,-8.350374e-3,1.623691e-3,0.326043,367.9866,-386.6638)" cy="905" cx="427.11"/>
<ellipse d="m 447.92003,904.99817 c 0,13.33459 -9.31881,24.14441 -20.81413,24.14441 -11.49533,0 -20.81414,-10.80982 -20.81414,-24.14441 0,-13.33459 9.31881,-24.14441 20.81414,-24.14441 11.49532,0 20.81413,10.80982 20.81413,24.14441 z" rx="20.814" ry="24.144" transform="matrix(0.159905,-8.350374e-3,1.623691e-3,0.326043,363.0129,-389.5432)" cy="905" cx="427.11"/>
</g>
<ellipse d="m 682.70337,606.1073 c 0,102.99811 -26.09264,186.49458 -58.27954,186.49458 -32.1869,0 -58.27954,-83.49647 -58.27954,-186.49458 0,-102.99811 26.09264,-186.49458 58.27954,-186.49458 32.1869,0 58.27954,83.49647 58.27954,186.49458 z" rx="58.28" ry="186.49" stroke="#000" transform="matrix(0.156948,-6.062813e-2,6.364226e-2,0.148405,369.6128,-145.0546)" cy="606.11" cx="624.42" stroke-width="1pt" fill="#d41c30"/>
<g stroke="#000" transform="matrix(0.999842,1.780211e-2,-1.780211e-2,0.999842,-34.81445,-4.628464)">
<ellipse d="m 228.95542,356.75403 c 0,7.12711 -4.84577,12.90477 -10.82334,12.90477 -5.97757,0 -10.82334,-5.77766 -10.82334,-12.90477 0,-7.12711 4.84577,-12.90477 10.82334,-12.90477 5.97757,0 10.82334,5.77766 10.82334,12.90477 z" rx="10.823" ry="12.905" transform="matrix(0.395296,0,0,0.292704,445.0725,-230.5263)" cy="356.75" cx="218.13" stroke-width="1.4635" fill="#009543"/>
<ellipse d="m 228.95542,356.75403 c 0,7.12711 -4.84577,12.90477 -10.82334,12.90477 -5.97757,0 -10.82334,-5.77766 -10.82334,-12.90477 0,-7.12711 4.84577,-12.90477 10.82334,-12.90477 5.97757,0 10.82334,5.77766 10.82334,12.90477 z" rx="10.823" ry="12.905" transform="matrix(0.35412,0,0,0.292704,457.1741,-235.9224)" cy="356.75" cx="218.13" stroke-width="1.5462" fill="#009543"/>
<ellipse d="m 228.95542,356.75403 c 0,7.12711 -4.84577,12.90477 -10.82334,12.90477 -5.97757,0 -10.82334,-5.77766 -10.82334,-12.90477 0,-7.12711 4.84577,-12.90477 10.82334,-12.90477 5.97757,0 10.82334,5.77766 10.82334,12.90477 z" rx="10.823" ry="12.905" transform="matrix(0.35412,0,0,0.292704,452.0043,-235.9224)" cy="356.75" cx="218.13" stroke-width="1.5462" fill="#009543"/>
<ellipse d="m 228.95542,356.75403 c 0,7.12711 -4.84577,12.90477 -10.82334,12.90477 -5.97757,0 -10.82334,-5.77766 -10.82334,-12.90477 0,-7.12711 4.84577,-12.90477 10.82334,-12.90477 5.97757,0 10.82334,5.77766 10.82334,12.90477 z" rx="10.823" ry="12.905" transform="matrix(0.370591,0,0,0.274783,449.4811,-233.4606)" cy="356.75" cx="218.13" stroke-width="1.56" fill="#006b3f"/>
<ellipse d="m 228.95542,356.75403 c 0,7.12711 -4.84577,12.90477 -10.82334,12.90477 -5.97757,0 -10.82334,-5.77766 -10.82334,-12.90477 0,-7.12711 4.84577,-12.90477 10.82334,-12.90477 5.97757,0 10.82334,5.77766 10.82334,12.90477 z" rx="10.823" ry="12.905" transform="matrix(0.370591,0,0,0.274783,448.9463,-237.9316)" cy="356.75" cx="218.13" stroke-width="1.56" fill="#006b3f"/>
<ellipse d="m 228.95542,356.75403 c 0,7.12711 -4.84577,12.90477 -10.82334,12.90477 -5.97757,0 -10.82334,-5.77766 -10.82334,-12.90477 0,-7.12711 4.84577,-12.90477 10.82334,-12.90477 5.97757,0 10.82334,5.77766 10.82334,12.90477 z" rx="10.823" ry="12.905" transform="matrix(0.35412,0,0,0.292704,447.0128,-238.8517)" cy="356.75" cx="218.13" stroke-width="1.5462" fill="#006b3f"/>
<ellipse d="m 228.95542,356.75403 c 0,7.12711 -4.84577,12.90477 -10.82334,12.90477 -5.97757,0 -10.82334,-5.77766 -10.82334,-12.90477 0,-7.12711 4.84577,-12.90477 10.82334,-12.90477 5.97757,0 10.82334,5.77766 10.82334,12.90477 z" rx="10.823" ry="12.905" transform="matrix(0.35412,0,0,0.28673,448.0824,-241.577)" cy="356.75" cx="218.13" stroke-width="1.5623" fill="#006b3f"/>
<ellipse d="m 228.95542,356.75403 c 0,7.12711 -4.84577,12.90477 -10.82334,12.90477 -5.97757,0 -10.82334,-5.77766 -10.82334,-12.90477 0,-7.12711 4.84577,-12.90477 10.82334,-12.90477 5.97757,0 10.82334,5.77766 10.82334,12.90477 z" rx="10.823" ry="12.905" transform="matrix(0.395296,0,0,0.292704,432.772,-243.4769)" cy="356.75" cx="218.13" stroke-width="1.4635" fill="#006b3f"/>
<ellipse d="m 228.95542,356.75403 c 0,7.12711 -4.84577,12.90477 -10.82334,12.90477 -5.97757,0 -10.82334,-5.77766 -10.82334,-12.90477 0,-7.12711 4.84577,-12.90477 10.82334,-12.90477 5.97757,0 10.82334,5.77766 10.82334,12.90477 z" rx="10.823" ry="12.905" transform="matrix(0.370591,0,0,0.274783,445.9157,-243.4819)" cy="356.75" cx="218.13" stroke-width="1.56" fill="#006b3f"/>
<ellipse d="m 228.95542,356.75403 c 0,7.12711 -4.84577,12.90477 -10.82334,12.90477 -5.97757,0 -10.82334,-5.77766 -10.82334,-12.90477 0,-7.12711 4.84577,-12.90477 10.82334,-12.90477 5.97757,0 10.82334,5.77766 10.82334,12.90477 z" rx="10.823" ry="12.905" transform="matrix(0.35412,0,0,0.28673,444.1605,-246.9731)" cy="356.75" cx="218.13" stroke-width="1.5623" fill="#006b3f"/>
<ellipse d="m 228.95542,356.75403 c 0,7.12711 -4.84577,12.90477 -10.82334,12.90477 -5.97757,0 -10.82334,-5.77766 -10.82334,-12.90477 0,-7.12711 4.84577,-12.90477 10.82334,-12.90477 5.97757,0 10.82334,5.77766 10.82334,12.90477 z" rx="10.823" ry="12.905" transform="matrix(0.35412,0,0,0.292704,436.1385,-243.1686)" cy="356.75" cx="218.13" stroke-width="1.5462" fill="#006b3f"/>
<ellipse d="m 228.95542,356.75403 c 0,7.12711 -4.84577,12.90477 -10.82334,12.90477 -5.97757,0 -10.82334,-5.77766 -10.82334,-12.90477 0,-7.12711 4.84577,-12.90477 10.82334,-12.90477 5.97757,0 10.82334,5.77766 10.82334,12.90477 z" rx="10.823" ry="12.905" transform="matrix(0.35412,0,0,0.28673,437.4203,-243.8784)" cy="356.75" cx="218.13" stroke-width="1.5623" fill="#006b3f"/>
<ellipse d="m 228.95542,356.75403 c 0,7.12711 -4.84577,12.90477 -10.82334,12.90477 -5.97757,0 -10.82334,-5.77766 -10.82334,-12.90477 0,-7.12711 4.84577,-12.90477 10.82334,-12.90477 5.97757,0 10.82334,5.77766 10.82334,12.90477 z" rx="10.823" ry="12.905" transform="matrix(0.35412,0,0,0.28673,438.9908,-247.0197)" cy="356.75" cx="218.13" stroke-width="1.5623" fill="#006b3f"/>
</g>
<g stroke="#000" fill="#006b3f" transform="matrix(0.179609,-4.521057e-3,4.192619e-3,0.185123,420.9863,-216.8024)">
<ellipse d="m 596.11665,564.479 c 0,113.57383 -30.19291,205.6436 -67.43776,205.6436 -37.24484,0 -67.43776,-92.06977 -67.43776,-205.6436 0,-113.57382 30.19292,-205.6436 67.43776,-205.6436 37.24485,0 67.43776,92.06978 67.43776,205.6436 z" rx="67.438" ry="205.64" transform="matrix(0.97574,-0.307929,0.363045,0.874481,-245.8061,324.3975)" cy="564.48" cx="528.68" stroke-width="2.5449"/>
<ellipse d="m 541.99991,646.07043 c 0,22.53084 -5.96405,40.79569 -13.32108,40.79569 -7.35702,0 -13.32107,-18.26485 -13.32107,-40.79569 0,-22.53083 5.96405,-40.79568 13.32107,-40.79568 7.35703,0 13.32108,18.26485 13.32108,40.79568 z" rx="13.321" ry="40.796" transform="matrix(0.917882,-0.396852,0.396852,0.917882,-210.4826,304.4884)" cy="646.07" cx="528.68" stroke-width="2.5"/>
<path d="M139.87,643.99c0,57.67-18.75,86.17-34.55,110.31,7.52-32.47,12.9-52.63,12.9-110.31s29.58-85.34,40.38-101.99c-4.18,16.65-18.73,44.31-18.73,101.99z" transform="matrix(1.882818,-0.455977,0.953423,1.182187,-352.2551,-10.01956)" stroke-width="1.53268003"/>
<path d="M139.87,643.99c0,57.67-18.75,86.17-34.55,110.31,7.52-32.47,12.9-52.63,12.9-110.31s29.58-85.34,40.38-101.99c-4.18,16.65-18.73,44.31-18.73,101.99z" transform="matrix(1.882818,-0.455977,0.953423,1.182187,-348.4234,44.05751)" stroke-width="1.53268003"/>
<path d="M139.87,643.99c0,57.67-18.75,86.17-34.55,110.31,7.52-32.47,12.9-52.63,12.9-110.31s29.58-85.34,40.38-101.99c-4.18,16.65-18.73,44.31-18.73,101.99z" transform="matrix(1.87302,-0.494682,0.977582,1.162287,-361.9242,105.7834)" stroke-width="1.53268003"/>
<ellipse d="m 541.99991,646.07043 c 0,22.53084 -5.96405,40.79569 -13.32108,40.79569 -7.35702,0 -13.32107,-18.26485 -13.32107,-40.79569 0,-22.53083 5.96405,-40.79568 13.32107,-40.79568 7.35703,0 13.32108,18.26485 13.32108,40.79568 z" rx="13.321" ry="40.796" transform="matrix(1.810478,-0.400515,0.699068,1.635286,-915.63,-221.0144)" cy="646.07" cx="528.68" stroke-width="1.3887"/>
<ellipse d="m 541.99991,646.07043 c 0,22.53084 -5.96405,40.79569 -13.32108,40.79569 -7.35702,0 -13.32107,-18.26485 -13.32107,-40.79569 0,-22.53083 5.96405,-40.79568 13.32107,-40.79568 7.35703,0 13.32108,18.26485 13.32108,40.79568 z" rx="13.321" ry="40.796" transform="matrix(1.625675,-0.230684,0.541575,1.352842,-739.4891,-91.77486)" cy="646.07" cx="528.68" stroke-width="1.6398"/>
<ellipse d="m 541.99991,646.07043 c 0,22.53084 -5.96405,40.79569 -13.32108,40.79569 -7.35702,0 -13.32107,-18.26485 -13.32107,-40.79569 0,-22.53083 5.96405,-40.79568 13.32107,-40.79568 7.35703,0 13.32108,18.26485 13.32108,40.79568 z" rx="13.321" ry="40.796" transform="matrix(1.630439,-0.197194,0.512514,1.363529,-750.6206,-91.82552)" cy="646.07" cx="528.68" stroke-width="1.6398"/>
<ellipse d="m 541.99991,646.07043 c 0,22.53084 -5.96405,40.79569 -13.32108,40.79569 -7.35702,0 -13.32107,-18.26485 -13.32107,-40.79569 0,-22.53083 5.96405,-40.79568 13.32107,-40.79568 7.35703,0 13.32108,18.26485 13.32108,40.79568 z" rx="13.321" ry="40.796" transform="matrix(1.31445,-0.200604,0.468889,1.010117,-531.0563,47.56802)" cy="646.07" cx="528.68" stroke-width="2.0966"/>
<ellipse d="m 541.99991,646.07043 c 0,22.53084 -5.96405,40.79569 -13.32108,40.79569 -7.35702,0 -13.32107,-18.26485 -13.32107,-40.79569 0,-22.53083 5.96405,-40.79568 13.32107,-40.79568 7.35703,0 13.32108,18.26485 13.32108,40.79568 z" rx="13.321" ry="40.796" transform="matrix(1.325781,-0.130444,0.403422,1.032739,-517.8685,12.21143)" cy="646.07" cx="528.68" stroke-width="2.0966"/>
<path d="M145.7,569.47c0,34.01-6.71,61.61-14.99,61.61-8.27,0-14.98-27.6-14.98-61.61" transform="matrix(1.025425,-0.492771,0.464381,1.177331,12.76656,-14.519)" stroke-width="2.08615994"/>
<ellipse d="m 541.99991,646.07043 c 0,22.53084 -5.96405,40.79569 -13.32108,40.79569 -7.35702,0 -13.32107,-18.26485 -13.32107,-40.79569 0,-22.53083 5.96405,-40.79568 13.32107,-40.79568 7.35703,0 13.32108,18.26485 13.32108,40.79568 z" rx="13.321" ry="40.796" transform="matrix(1.325781,-0.130444,0.403422,1.032739,-519.5336,-34.41226)" cy="646.07" cx="528.68" stroke-width="2.0966"/>
<ellipse d="m 541.99991,646.07043 c 0,22.53084 -5.96405,40.79569 -13.32108,40.79569 -7.35702,0 -13.32107,-18.26485 -13.32107,-40.79569 0,-22.53083 5.96405,-40.79568 13.32107,-40.79568 7.35703,0 13.32108,18.26485 13.32108,40.79568 z" rx="13.321" ry="40.796" transform="matrix(1.328753,-0.105107,0.379547,1.040012,-533.9751,-40.12073)" cy="646.07" cx="528.68" stroke-width="2.0966"/>
<path d="M145.7,569.47c0,34.01-6.71,61.61-14.99,61.61-8.27,0-14.98-27.6-14.98-61.61" transform="matrix(0.672197,-0.471822,0.458936,0.799103,39.48589,143.278)" stroke-width="2.8796699"/>
<path d="M145.7,569.47c0,34.01-6.71,61.61-14.99,61.61-8.27,0-14.98-27.6-14.98-61.61" transform="matrix(0.672197,-0.471822,0.458936,0.799103,51.14178,125.7941)" stroke-width="2.8796699"/>
<path d="M145.7,569.47c0,34.01-6.71,61.61-14.99,61.61-8.27,0-14.98-27.6-14.98-61.61" transform="matrix(0.937396,-0.644677,0.639998,1.091861,-40.19822,-10.74352)" stroke-width="2.08615994"/>
<path d="M145.7,569.47c0,34.01-6.71,61.61-14.99,61.61-8.27,0-14.98-27.6-14.98-61.61" transform="matrix(0.672197,-0.520221,0.458936,0.881076,68.62559,71.17856)" stroke-width="2.74245"/>
</g>
<g transform="matrix(1.101444,0.275869,-0.265588,0.974374,-85.41525,-157.9016)" stroke="#000" stroke-width="2.5" fill="#9461c9">
<path d="M276.27,345.41c-12.28,9.17,0.41,25.14,12.02,30.68,13.06,7.67,86.6,58.18,136.31,12-40.79,0.83-118.66-63.19-148.33-42.68z" transform="matrix(0.134413,-3.04485e-2,4.851113e-2,0.216811,448.7474,-184.9145)"/>
<path d="M276.27,345.41c-12.28,9.17,0.41,25.14,12.02,30.68,13.06,7.67,86.6,58.18,136.31,12-40.79,0.83-118.66-63.19-148.33-42.68z" transform="matrix(0.134413,-3.04485e-2,4.851113e-2,0.216811,446.2043,-190.218)"/>
<path d="M276.27,345.41c-12.28,9.17,0.41,25.14,12.02,30.68,13.06,7.67,86.6,58.18,136.31,12-40.79,0.83-118.66-63.19-148.33-42.68z" transform="matrix(0.134413,-3.04485e-2,4.851113e-2,0.216811,443.3872,-195.1923)"/>
<path d="M276.27,345.41c-12.28,9.17,0.41,25.14,12.02,30.68,13.06,7.67,86.6,58.18,136.31,12-40.79,0.83-118.66-63.19-148.33-42.68z" transform="matrix(0.134413,-3.04485e-2,4.851113e-2,0.216811,438.6063,-200.4414)"/>
</g>
<g transform="matrix(0.999842,1.780211e-2,-1.780211e-2,0.999842,12.04015,10.60534)">
<path d="M211.17,247.3c21.77-12.06,56.61-9.75,79.73,11.17,19.36,16.94,45.31,75.19,70.32,92.83-20.22,0.02-31.3-5.77-42.24-15.18-28.76,15.44-38.12,16.72-63.89,15.63-35.88-1.33-62.46-17.65-68.18-40.6-6.16-21.81,4.93-52.5,24.26-63.85z" transform="matrix(0.208828,-4.091126e-2,4.730467e-2,0.180604,407.8048,-213.6359)" stroke="#000" stroke-width="2.5" fill="#9461c9"/>
<ellipse d="m 301.3886,323.03516 c 0,8.27662 -6.33679,14.98616 -14.15361,14.98616 -7.81683,0 -14.15361,-6.70954 -14.15361,-14.98616 0,-8.27663 6.33678,-14.98616 14.15361,-14.98616 7.81682,0 14.15361,6.70953 14.15361,14.98616 z" rx="14.154" ry="14.986" stroke="#000" transform="matrix(0.24521,0,0,0.134333,401.8211,-215.1804)" cy="323.04" cx="287.23" stroke-width="2.5" fill="#d41c30"/>
<ellipse d="m 227.83175,348.26199 c 0,8.7787 -10.41124,15.89524 -23.25414,15.89524 -12.84291,0 -23.25415,-7.11654 -23.25415,-15.89524 0,-8.77869 10.41124,-15.89523 23.25415,-15.89523 12.8429,0 23.25414,7.11654 23.25414,15.89523 z" rx="23.254" ry="15.895" stroke="#000" transform="matrix(0.19364,-7.598685e-2,6.759024e-2,0.17273,398.6623,-208.0622)" cy="348.26" cx="204.58" stroke-width="2.5" fill="#fcd116"/>
<ellipse d="m 289.73268,333.85846 c 0,3.21868 -2.60926,5.82794 -5.82796,5.82794 -3.21869,0 -5.82795,-2.60926 -5.82795,-5.82794 0,-3.21868 2.60926,-5.82794 5.82795,-5.82794 3.2187,0 5.82796,2.60926 5.82796,5.82794 z" rx="5.828" ry="5.8279" transform="matrix(0.214119,0,0,0.18518,411.2866,-233.7407)" cy="333.86" cx="283.9" stroke-width="1pt"/>
<path d="M516.8,260.29c4.42,18.11-6.68,43.09-33.14,52.61-26.77,13.18-46.08,41.83-55.64,88.02-47.24-103.27-23.1-148.28,20.6-160.35,37.38-14.36,60.42-13.37,68.18,19.72z" transform="matrix(9.228922e-2,8.874689e-4,-3.397048e-3,8.481727e-2,417.8523,-191.4926)" stroke="#000" stroke-width="6.55976009" fill="#fcd116"/>
<ellipse d="m 203.69458,362.39093 c 0,2.6011 -2.1086,4.7097 -4.7097,4.7097 -2.6011,0 -4.7097,-2.1086 -4.7097,-4.7097 0,-2.6011 2.1086,-4.7097 4.7097,-4.7097 2.6011,0 4.7097,2.1086 4.7097,4.7097 z" rx="4.7097" ry="4.7097" transform="matrix(0.186968,-1.313064e-2,1.398806e-2,0.19143,418.6864,-234.9767)" cy="362.39" cx="198.98" stroke-width="1pt"/>
</g></g></g></svg>
