<?xml version="1.0" encoding="UTF-8"?>
<svg xmlns="http://www.w3.org/2000/svg" width="833.33" height="500" xmlns:xlink="http://www.w3.org/1999/xlink">
<defs>
<linearGradient id="lg1">
<stop stop-color="#fbd55f" offset="0"/>
<stop stop-color="#cb8e32" offset="1"/>
</linearGradient>
<radialGradient id="rg1" gradientUnits="userSpaceOnUse" xlink:href="#lg1" cx="685.79" cy="453.08" r="8.1068" gradientTransform="matrix(1,0,0,0.99657949,1.767767,2.9639838)"/>
<radialGradient id="rg2" gradientUnits="userSpaceOnUse" xlink:href="#lg1" cx="604.74" cy="740" r="2.9141" gradientTransform="matrix(1,0,0,1.002649,0,-1.9602545)"/>
<radialGradient id="rg3" gradientUnits="userSpaceOnUse" xlink:href="#lg1" cx="602" cy="734.39" r="2.7235" gradientTransform="matrix(1,0,0,0.9888175,0,8.2122773)"/>
<radialGradient id="rg4" gradientUnits="userSpaceOnUse" xlink:href="#lg1" cx="600.03" cy="728.91" r="2.5058" gradientTransform="matrix(1,0,0,1.0264916,0,-19.309907)"/>
<radialGradient id="rg5" gradientUnits="userSpaceOnUse" xlink:href="#lg1" cx="612.94" cy="737.49" r="3.3776" gradientTransform="matrix(1,0,0,1.0156249,0,-11.523129)"/>
<radialGradient id="rg6" gradientUnits="userSpaceOnUse" xlink:href="#lg1" cx="609.28" cy="730.85" r="3.1216" gradientTransform="matrix(1,0,0,1.0185887,0,-13.585659)"/>
<radialGradient id="rg7" gradientUnits="userSpaceOnUse" xlink:href="#lg1" cx="606.69" cy="724.91" r="2.9465" gradientTransform="matrix(1,0,0,1.0048912,0,-3.5456759)"/>
<radialGradient id="rg8" gradientUnits="userSpaceOnUse" xlink:href="#lg1" cx="621.24" cy="734.22" r="3.4725" gradientTransform="matrix(1,0,0,1.0053201,0,-3.9060632)"/>
<radialGradient id="rg9" gradientUnits="userSpaceOnUse" xlink:href="#lg1" cx="617.69" cy="727.85" r="3.2563" gradientTransform="matrix(1,0,0,1.0158965,0,-11.570174)"/>
<radialGradient id="rg10" gradientUnits="userSpaceOnUse" xlink:href="#lg1" cx="614.05" cy="721.3" r="3.0532" gradientTransform="matrix(1,0,0,1.0098243,0,-7.0862892)"/>
<radialGradient id="rg11" gradientUnits="userSpaceOnUse" xlink:href="#lg1" cx="629.94" cy="730.32" r="3.9042" gradientTransform="matrix(1,0,0,1.0334059,0,-24.396805)"/>
<radialGradient id="rg12" gradientUnits="userSpaceOnUse" xlink:href="#lg1" cx="625.6" cy="723.58" r="3.6344" gradientTransform="matrix(1,0,0,1.018911,0,-13.683723)"/>
<radialGradient id="rg13" gradientUnits="userSpaceOnUse" xlink:href="#lg1" cx="621.03" cy="717.31" r="3.417" gradientTransform="matrix(1,0,0,1.0162209,0,-11.635361)"/>
<radialGradient id="rg14" gradientUnits="userSpaceOnUse" xlink:href="#lg1" cx="639.59" cy="726.09" r="4.0485" gradientTransform="matrix(1,0,0,1.0317529,0,-23.055633)"/>
<radialGradient id="rg15" gradientUnits="userSpaceOnUse" xlink:href="#lg1" cx="633.37" cy="718.62" r="3.8713" gradientTransform="matrix(1,0,0,1.0211275,0,-15.182586)"/>
<radialGradient id="rg16" gradientUnits="userSpaceOnUse" xlink:href="#lg1" cx="628.35" cy="711.82" r="3.5169" gradientTransform="matrix(1,0,0,1.0267608,0,-19.048893)"/>
<radialGradient id="rg17" gradientUnits="userSpaceOnUse" xlink:href="#lg1" cx="649.42" cy="720.03" r="4.4051" gradientTransform="matrix(1,0,0,1.0072911,0,-5.2497842)"/>
<radialGradient id="rg18" gradientUnits="userSpaceOnUse" xlink:href="#lg1" cx="642.62" cy="712.94" r="4.1348" gradientTransform="matrix(1,0,0,1.0138365,0,-9.8645925)"/>
<radialGradient id="rg19" gradientUnits="userSpaceOnUse" xlink:href="#lg1" cx="637.01" cy="705.72" r="3.8724" gradientTransform="matrix(1,0,0,1.0109314,0,-7.7144857)"/>
<radialGradient id="rg20" gradientUnits="userSpaceOnUse" xlink:href="#lg1" cx="660.59" cy="713.14" r="4.846" gradientTransform="matrix(1,0,0,1.0171071,0,-12.199787)"/>
<radialGradient id="rg21" gradientUnits="userSpaceOnUse" xlink:href="#lg1" cx="653.02" cy="704.68" r="4.4892" gradientTransform="matrix(1,0,0,1.0055236,0,-3.8923755)"/>
<radialGradient id="rg22" gradientUnits="userSpaceOnUse" xlink:href="#lg1" cx="646.03" cy="696.48" r="4.1361" gradientTransform="matrix(1,0,0,1.0235512,0,-16.402866)"/>
<radialGradient id="rg23" gradientUnits="userSpaceOnUse" xlink:href="#lg1" cx="654.58" cy="687.37" r="4.4905" gradientTransform="matrix(1,0,0,1.0167156,0,-11.489764)"/>
<radialGradient id="rg24" gradientUnits="userSpaceOnUse" xlink:href="#lg1" cx="662.2" cy="695.65" r="5.2924" gradientTransform="matrix(1,0,0,1.0105542,0,-7.3420026)"/>
<radialGradient id="rg25" gradientUnits="userSpaceOnUse" xlink:href="#lg1" cx="671.6" cy="705.18" r="6.2825" gradientTransform="matrix(1,0,0,1.0059073,0,-4.1657144)"/>
<radialGradient id="rg26" gradientUnits="userSpaceOnUse" xlink:href="#lg1" cx="663.89" cy="678.28" r="4.4892" gradientTransform="matrix(1,0,0,1.0086158,0,-5.8438807)"/>
<radialGradient id="rg27" gradientUnits="userSpaceOnUse" xlink:href="#lg1" cx="673.31" cy="686.5" r="5.2924" gradientTransform="matrix(1,0,0,1.0169399,0,-11.629238)"/>
<radialGradient id="rg28" gradientUnits="userSpaceOnUse" xlink:href="#lg1" cx="682.71" cy="696.23" r="6.2825" gradientTransform="matrix(1,0,0,1.0080215,0,-5.5848596)"/>
<radialGradient id="rg29" gradientUnits="userSpaceOnUse" xlink:href="#lg1" cx="671.83" cy="668.65" r="4.7794" gradientTransform="matrix(1,0,0,1.0244221,0,-16.329851)"/>
<radialGradient id="rg30" gradientUnits="userSpaceOnUse" xlink:href="#lg1" cx="682.92" cy="676.43" r="5.7212" gradientTransform="matrix(1,0,0,1.0058211,0,-3.9375592)"/>
<radialGradient id="rg31" gradientUnits="userSpaceOnUse" xlink:href="#lg1" cx="694.25" cy="686.15" r="6.7525" gradientTransform="matrix(1,0,0,1.0098582,0,-6.764146)"/>
<radialGradient id="rg32" gradientUnits="userSpaceOnUse" xlink:href="#lg1" cx="680.18" cy="655.53" r="5.651" gradientTransform="matrix(1,0,0,1.005335,0,-3.4972325)"/>
<radialGradient id="rg33" gradientUnits="userSpaceOnUse" xlink:href="#lg1" cx="693.57" cy="664.01" r="6.6149" gradientTransform="matrix(1,0,0,1.0130247,0,-8.6484819)"/>
<radialGradient id="rg34" gradientUnits="userSpaceOnUse" xlink:href="#lg1" cx="707.38" cy="674.82" r="7.9527" gradientTransform="matrix(1,0,0,0.99129931,0,5.8714289)"/>
<radialGradient id="rg35" gradientUnits="userSpaceOnUse" xlink:href="#lg1" cx="686.7" cy="642.53" r="6.0914" gradientTransform="matrix(1,0,0,1.0069017,0,-4.4345452)"/>
<radialGradient id="rg36" gradientUnits="userSpaceOnUse" xlink:href="#lg1" cx="702.21" cy="650.42" r="7.3007" gradientTransform="matrix(1,0,0,0.99900567,0,0.64672954)"/>
<radialGradient id="rg37" gradientUnits="userSpaceOnUse" xlink:href="#lg1" cx="718.42" cy="660.82" r="8.6228" gradientTransform="matrix(1,0,0,1.0025204,0,-1.6655165)"/>
<radialGradient id="rg38" gradientUnits="userSpaceOnUse" xlink:href="#lg1" cx="695.15" cy="628.49" r="6.6403" gradientTransform="matrix(1,0,0,0.99767367,0,1.4620886)"/>
<radialGradient id="rg39" gradientUnits="userSpaceOnUse" xlink:href="#lg1" cx="712.98" cy="635.08" r="7.7916" gradientTransform="matrix(1,0,0,1.0059701,0,-3.7914899)"/>
<radialGradient id="rg40" gradientUnits="userSpaceOnUse" xlink:href="#lg1" cx="731.65" cy="644.12" r="9.333" gradientTransform="matrix(1,0,0,0.99834283,0,1.0674183)"/>
<radialGradient id="rg41" gradientUnits="userSpaceOnUse" xlink:href="#lg1" cx="700.55" cy="614.7" r="7.0303" gradientTransform="matrix(1,0,0,0.99645445,0,2.1794581)"/>
<radialGradient id="rg42" gradientUnits="userSpaceOnUse" xlink:href="#lg1" cx="720.45" cy="618.78" r="8.3454" gradientTransform="matrix(1,0,0,1.0069062,0,-4.2733788)"/>
<radialGradient id="rg43" gradientUnits="userSpaceOnUse" xlink:href="#lg1" cx="741.9" cy="625.39" r="9.9495" gradientTransform="matrix(1,0,0,0.99914523,0,0.53456456)"/>
<radialGradient id="rg44" gradientUnits="userSpaceOnUse" xlink:href="#lg1" cx="706.08" cy="597.51" r="8.1235" gradientTransform="matrix(1,0,0,0.99726123,0,1.6364541)"/>
<radialGradient id="rg45" gradientUnits="userSpaceOnUse" xlink:href="#lg1" cx="729.67" cy="600.54" r="9.9495" gradientTransform="matrix(1,0,0,0.99914504,0,0.51343256)"/>
<radialGradient id="rg46" gradientUnits="userSpaceOnUse" xlink:href="#lg1" cx="751.9" cy="604.02" r="10.462" gradientTransform="matrix(1,0,0,0.98918678,0,6.5313784)"/>
<radialGradient id="rg47" gradientUnits="userSpaceOnUse" xlink:href="#lg1" cx="711.71" cy="576.36" r="10.886" gradientTransform="matrix(1,0,0,0.99258737,0,4.2723119)"/>
<radialGradient id="rg48" gradientUnits="userSpaceOnUse" xlink:href="#lg1" cx="737.53" cy="577.5" r="10.886" gradientTransform="matrix(1,0,0,0.99205108,0,4.590533)"/>
<radialGradient id="rg49" gradientUnits="userSpaceOnUse" xlink:href="#lg1" cx="761.91" cy="580.39" r="10.886" gradientTransform="matrix(1,0,0,0.99258613,0,4.3029387)"/>
<radialGradient id="rg50" gradientUnits="userSpaceOnUse" xlink:href="#lg1" cx="714.26" cy="552.78" r="11.385" gradientTransform="matrix(1,0,0,0.9889997,0,6.0807253)"/>
<radialGradient id="rg51" gradientUnits="userSpaceOnUse" xlink:href="#lg1" cx="741.28" cy="552.78" r="11.347" gradientTransform="matrix(1,0,0,0.99233508,0,4.2369993)"/>
<radialGradient id="rg52" gradientUnits="userSpaceOnUse" xlink:href="#lg1" cx="768.04" cy="552.78" r="11.383" gradientTransform="matrix(1,0,0,0.98916178,0,5.9911264)"/>
<radialGradient id="rg53" gradientUnits="userSpaceOnUse" xlink:href="#lg1" cx="716.86" cy="525.29" r="12.039" gradientTransform="matrix(1,0,0,0.99305484,0,3.6482547)"/>
<radialGradient id="rg54" gradientUnits="userSpaceOnUse" xlink:href="#lg1" cx="745.39" cy="525.29" r="12.039" gradientTransform="matrix(1,0,0,0.99305484,0,3.6482547)"/>
<radialGradient id="rg55" gradientUnits="userSpaceOnUse" xlink:href="#lg1" cx="772.18" cy="526.29" r="12.039" gradientTransform="matrix(1,0,0,0.99305468,0,3.6552815)"/>
<radialGradient id="rg56" gradientUnits="userSpaceOnUse" xlink:href="#lg1" cx="714.14" cy="499.67" r="12.039" gradientTransform="matrix(1,0,0,0.99099091,0,4.5016128)"/>
<radialGradient id="rg57" gradientUnits="userSpaceOnUse" xlink:href="#lg1" cx="742.68" cy="499.67" r="12.039" gradientTransform="matrix(1,0,0,0.99099076,0,4.5016897)"/>
<radialGradient id="rg58" gradientUnits="userSpaceOnUse" xlink:href="#lg1" cx="771.02" cy="499.67" r="12.039" gradientTransform="matrix(1,0,0,0.99099076,0,4.5016897)"/>
<radialGradient id="rg59" gradientUnits="userSpaceOnUse" xlink:href="#lg1" cx="703.46" cy="474.25" r="12.039" gradientTransform="matrix(1,0,0,0.99305499,0,3.2936939)"/>
<radialGradient id="rg60" gradientUnits="userSpaceOnUse" xlink:href="#lg1" cx="731.81" cy="474.25" r="12.039" gradientTransform="matrix(1,0,0,0.99305499,0,1.8794803)"/>
<radialGradient id="rg61" gradientUnits="userSpaceOnUse" xlink:href="#lg1" cx="760.54" cy="474.25" r="12.039" gradientTransform="matrix(1,0,0,0.99305468,0,3.2938406)"/>
<radialGradient id="rg62" xlink:href="#lg1" gradientUnits="userSpaceOnUse" cy="814.57" cx="416.38" gradientTransform="matrix(1,0,0,1.0056918,0,-4.6363549)" r="7.4216"/>
<radialGradient id="rg63" xlink:href="#lg1" gradientUnits="userSpaceOnUse" cy="837.95" cx="393.34" gradientTransform="matrix(1,0,0,0.99108823,0,7.4676287)" r="7.5059"/>
<radialGradient id="rg64" xlink:href="#lg1" gradientUnits="userSpaceOnUse" cy="860.97" cx="416.58" gradientTransform="matrix(1,0,0,1.008203,0,-7.0625498)" r="7.4216"/>
<radialGradient id="rg65" xlink:href="#lg1" gradientUnits="userSpaceOnUse" cy="837.58" cx="439.62" gradientTransform="matrix(1,0,0,0.98777727,0,10.237496)" r="7.5059"/>
<radialGradient id="rg66" xlink:href="#lg1" gradientUnits="userSpaceOnUse" cy="837.65" cx="416.51" gradientTransform="matrix(1,0,0,0.98848397,0,9.6464339)" r="11.146"/>
</defs>
<rect height="500" width="833.33" fill="#002b7f"/>
<rect height="333.33" width="833.33" y="83.333" fill="#fff"/>
<rect height="166.67" width="833.33" y="166.67" fill="#ce1126"/>
<ellipse cx="250" cy="250" rx="62.5" ry="72.9167" fill="#fff"/>
<g transform="matrix(0.12818226,0,0,0.12818226,194.18224,173.31543)">
<g transform="translate(18.976386,172.25814)">
<g>
<g stroke-linejoin="round" stroke="#000" stroke-linecap="round">
<path style="color:#000000;" d="m105.36,349.34,11-20.25-26-7.25-8,18,23,9.5z" stroke-dashoffset="0" stroke-width="3" fill="#cea849"/>
<path style="color:#000000;" d="m727.6,349.34-11-20.25,26-7.25,8,18-23,9.5z" stroke-dashoffset="0" stroke-width="3" fill="#cea849"/>
<path d="m409.48,91.438-40.094,1.1573c-25.601,2.4174-35.334,12.289-19.437,30.965-41.272,6.4682-81.637,15.908-118.94,35.626-10.486-1.741-22.662,4.1336-26.156,14.232-2.9124,8.158,4.1877,16.828,16.812,13.387-8.3494,21.987-106.99,19.428-109.5,56.05,7.4724-6.3687,15.699-11.766,23.906-6.3182l-5.6562,17.109c-14.363,4.278-24.455,6.6448-30.469,22.364-6.2124,15.769-15.131,39.832-21.344,51.671-4.0803,5.4718-5.0625,11.284-5.0625,14.169,0,6.8149,4.8682,16.327,16.125,16.327,11.456,0,17.094-7.1751,17.094-14.388-0.66592-5.0194-2.6439-10.912-14.75-10.228,20.321-4.8714,37.886,1.9532,49.687,9.4773,16.306,12.038,20.387,35.379,10.875,54.58-9.3235,18.654-33.013,29.543-68.344,15.764-28.736-11.292-57.644,3.4834-67.156,29.151-43.293,117.15,32.408,212.17,118.22,267.58,89.304,57.703,105.21,73.418,129.09,101.62,24.069,28.155,47.369,60.398,82.312,60.398,5.4371,0,10.682-1.5605,15.344-4.0974,21.995,0,23.424,8.2077,52.937,8.7266v0.0312c0.51201,0,1.0036-0.027,1.5-0.0312,0.49143,0.004,0.96207,0.0312,1.4688,0.0312v-0.0312c29.545-0.51353,30.966-8.7266,52.969-8.7266,4.6618,2.5369,9.8754,4.0974,15.312,4.0974,34.943,0,58.243-32.243,82.312-60.398,23.88-28.205,39.821-43.92,129.12-101.62,85.81-55.415,161.51-150.44,118.22-267.58-9.5124-25.668-38.451-40.443-67.187-29.151-35.331,13.779-58.989,2.8898-68.312-15.764-9.5124-19.201-5.4312-42.542,10.875-54.58,11.802-7.524,29.335-14.349,49.656-9.4773-12.106-0.68424-14.053,5.2085-14.719,10.228,0,7.2128,5.6381,14.388,17.094,14.388,11.257,0,16.094-9.5123,16.094-16.327,0-2.8851-0.95095-8.6972-5.0312-14.169-6.2124-11.839-15.163-35.903-21.375-51.671-6.0136-15.719-16.106-18.086-30.469-22.364l-5.625-17.109c8.2073-5.4477,16.434-0.0505,23.906,6.3182-2.5064-36.622-101.18-34.064-109.53-56.05,12.625,3.4414,19.756-5.2291,16.844-13.387-3.4938-10.098-15.67-15.973-26.156-14.232-37.27-19.72-77.67-29.16-118.94-35.63,15.89-18.68,6.16-28.547-19.44-30.964l-40.094-1.1573-7-0.21895-6.9687,0.21895z" stroke-width="3.00134611" fill="#dca842"/>
<path d="m365.36,93.093c38.572,0.12087,30.016,46.144-5,48.25-43.149,5.0346-96.201,3.6198-125,15.5" stroke-width="3" fill="none"/>
<path style="color:#000000;" d="m136.36,218.09c33.314-9.378,69.202-1.7924,91-11.75s26.49-42.896,3-47.25" stroke-dashoffset="0" stroke-width="3" fill="none"/>
<path d="m349.11,123.59c7.6806-1.7696,15.889-2.0444,19.979-5.7706,4.0903-3.7262,5.3125-10.404-4.4794-11.229" stroke-width="3" fill="none"/>
<path style="color:#000000;" d="m221.62,187.09c7.1611-12.05,4.837-20.454-4.5184-14.67" stroke-dashoffset="0" stroke-width="3" fill="none"/>
<path d="m467.6,93.093c-38.572,0.12087-30.016,46.144,5,48.25,43.149,5.0346,96.201,3.6198,125,15.5" stroke-width="3" fill="none"/>
<path style="color:#000000;" d="m696.6,218.09c-33.314-9.378-69.202-1.7924-91-11.75s-26.49-42.896-3-47.25" stroke-dashoffset="0" stroke-width="3" fill="none"/>
<path d="m483.85,123.59c-7.6806-1.7696-15.889-2.0444-19.979-5.7706-4.0903-3.7262-5.3125-10.404,4.4794-11.229" stroke-width="3" fill="none"/>
<path style="color:#000000;" d="m611.33,187.09c-7.1611-12.05-4.837-20.454,4.5184-14.67" stroke-dashoffset="0" stroke-width="3" fill="none"/>
<g stroke-width="3" fill="none">
<path d="m219.23,742.45c61.736,43.665,70.667,100.43,134.54,103.15"/>
<path d="m354.55,854.5c-37.662,8.1098-62.318-12.363-92.023-56.818-15.15-22.4-54.94-53.9-122.89-96.38-106.78-66.66-138.42-182.91-103.67-246.66,8.5433-15.676,30.48-21.857,43.099-18.346,32.811,8.8516,87.947,0,88.141-53.159,0.1938-29.917-24.268-64.879-55.912-64.879-19.224,0-29.511,6.3791-34.556,13.154"/>
<path d="m349.89,831.9c0-2.9176,2.5197-5.9835,6.2124-5.9835,3.6877,0,6.9877,3.2637,6.9877,7.3186,0,8.9011-5.0494,13.698-15.725,11.571-8.7371-1.7308-12.619-11.176-8.9309-20.67,3.6877-9.6428,16.112-15.626,29.506-9.6428,13.399,6.1813,11.843,26.654,7.1865,38.275-2.7185,6.7252-8.1556,12.363-14.756,16.022"/>
<path d="M613.72,742.45c-61.73,43.66-70.66,100.43-134.73,103.15"/>
<path d="m478.41,854.5c37.662,8.1098,62.318-12.363,92.018-56.818,14.949-22.401,54.942-53.901,122.89-96.379,106.77-66.659,138.42-182.92,103.67-246.66-8.5383-15.676-30.475-21.857-43.094-18.346-32.811,8.8516-87.947,0-88.141-53.159-0.19383-29.917,24.268-64.879,55.911-64.879,19.219,0,29.511,6.3791,34.556,13.154"/>
<path d="m495.88,830.52c0-26.456-44.843-34.764-79.205-34.764-34.168,0-79.205,8.3076-79.205,34.764"/>
<path d="m483.07,831.9c0-2.9176-2.5197-5.9835-6.2124-5.9835-3.6877,0-6.9877,3.2637-6.9877,7.3186,0,8.9011,5.0494,13.698,15.725,11.571,8.7371-1.7308,12.619-11.176,8.9309-20.67-3.6877-9.6428-16.112-15.626-29.506-9.6428-13.399,6.1813-11.843,26.654-7.1865,38.275,2.7185,6.7252,8.1556,12.363,14.756,16.022"/>
<path d="m460.16,857.17c-18.056,0-17.474,19.44-43.681,19.44-26.012,0-25.431-19.44-43.487-19.44"/>
</g>
</g>
<g stroke="#000" stroke-width="3">
<path d="m416.48,828.14c-12.812,0-12.812,19.035,0,19.035s13.006-19.035,0-19.035" fill="url(#rg66)"/>
<path d="m439.58,831.66c-7.9568,0-7.9568,11.828,0,11.828,7.9618,0,8.1556-11.828,0-11.828" fill="url(#rg65)"/>
<path d="m422.5,860.99c0-8.0016-11.843-8.0016-11.843,0,0,7.9518,11.843,7.9518,11.843,0" fill="url(#rg64)"/>
<path d="m393.38,843.89c7.9568,0,7.9568-11.878,0-11.878-7.9618,0-8.1556,11.878,0,11.878" fill="url(#rg63)"/>
<path d="m410.46,814.57c0,7.9518,11.843,7.9518,11.843,0s-11.843-7.9518-11.843,0" fill="url(#rg62)"/>
</g>
<g id="g" stroke="#000" transform="matrix(-1,0,0,1,833.41216,0)">
<path d="m679.36,272.66c-2.1755,0.12117-4.3908,0.6695-6.4375,1.5312-3.6158,1.5224-6.7842,4.1288-7.9062,7.75-0.007,0.0228-0.0245,0.0397-0.0312,0.0625-31.912,88.551-14.845,126.29,13.5,183.59,40.958,82.506,11.105,205.42-80.375,259.16-44.974,26.295-79.656,35.262-106.22,41.906-13.281,3.3224-24.558,6.071-34.094,10.156-9.1992,3.9409-18.697,11.001-24.695,19.174,9.1907,0.75959,24.191,3.2816,31.554,5.4456,10.704-13.603,37.624-26.11,65.484-35.588,27.86-9.4785,56.925-16.224,72.688-19.344h0.0312c51.284-14.874,99.099-48.249,135.12-90.656,38.135-44.889,57.625-106.35,50.094-167.97-1.6872-14.102-7.2923-22.719-15.281-27.406-7.989-4.6871-18.096-5.4861-28.812-4.7812-19.477,1.1241-38.56-4.1942-56-14.938-22.488-13.845-31.704-38.325-31.344-64.906,0.35977-26.581,10.401-55.133,26.312-76.406,5.6856-7.6576,7.9622-13.4,7.8438-17.844-0.11847-4.444-3.0018-7.3782-6.5312-8.4062-0.88237-0.25701-1.8063-0.42555-2.75-0.5-0.70775-0.0558-1.4311-0.0716-2.1562-0.0312v-0.00005z" stroke-width="3" fill="#825123"/>
<path fill="url(#rg61)" d="m760.57,462.8c15.337,0,15.337,22.911,0,22.911s-15.531-22.911,0-22.911"/>
<path fill="url(#rg60)" d="m731.84,461.38c15.337,0,15.337,22.911,0,22.911s-15.531-22.911,0-22.911"/>
<path fill="url(#rg59)" d="m703.5,462.8c15.337,0,15.337,22.911,0,22.911s-15.531-22.911,0-22.911"/>
<path fill="url(#rg58)" d="m771.06,488.24c15.337,0,15.337,22.862,0,22.862s-15.531-22.862,0-22.862"/>
<path fill="url(#rg57)" d="m742.71,488.24c15.337,0,15.337,22.862,0,22.862s-15.531-22.862,0-22.862"/>
<path fill="url(#rg56)" d="m714.17,488.24c15.337,0,15.337,22.862,0,22.862s-15.531-22.862,0-22.862"/>
<path fill="url(#rg55)" d="m772.22,514.84c15.337,0,15.337,22.911,0,22.911s-15.531-22.911,0-22.911"/>
<path fill="url(#rg54)" d="m745.43,513.84c15.337,0,15.337,22.911,0,22.911s-15.531-22.911,0-22.911"/>
<path fill="url(#rg53)" d="m716.89,513.84c15.337,0,15.337,22.911,0,22.911s-15.531-22.911,0-22.911"/>
<path fill="url(#rg52)" d="m768.14,542.02c14.368,0,14.368,21.52,0,21.52-14.557,0-14.751-21.52,0-21.52"/>
<path fill="url(#rg51)" d="m741.35,542.02c14.363,0,14.363,21.52,0,21.52-14.562,0-14.562-21.52,0-21.52"/>
<path fill="url(#rg50)" d="m714.37,542.02c14.368,0,14.368,21.52,0,21.52-14.562,0-14.756-21.52,0-21.52"/>
<path fill="url(#rg49)" d="m762.43,570.11c13.782,0.54669,12.812,21.172-0.96913,20.575-13.787-0.59639-13.011-21.371,0.96913-20.575"/>
<path fill="url(#rg48)" d="m738.05,567.22c13.782,0.59639,12.812,21.172-0.9741,20.575-13.782-0.54669-13.006-21.122,0.9741-20.575"/>
<path fill="url(#rg47)" d="m712.23,566.07c13.787,0.59639,12.817,21.172-0.96914,20.575-13.782-0.59639-13.006-21.371,0.96914-20.575"/>
<path fill="url(#rg46)" d="m752.61,594.2c13.205,0.99398,11.843,20.575-1.3568,19.631-13.2-0.79519-12.037-20.575,1.3568-19.631"/>
<path fill="url(#rg45)" d="m730.29,591.12c12.619,0.74549,11.262,19.581-1.163,18.836-12.619-0.79518-11.456-19.631,1.163-18.836"/>
<path fill="url(#rg44)" d="m706.61,589.93c10.094,0.59638,9.1198,15.953-0.9741,15.158-10.094-0.59639-9.3186-15.705,0.9741-15.158"/>
<path fill="url(#rg43)" d="m742.52,615.97c12.619,0.74548,11.262,19.581-1.163,18.836-12.619-0.79519-11.456-19.631,1.163-18.836"/>
<path fill="url(#rg42)" d="m720.97,610.9c10.487,0.79519,9.3186,16.5-0.96913,15.755-10.486-0.79519-9.5124-16.5,0.96913-15.755"/>
<path fill="url(#rg41)" d="m700.97,608.22c8.7371,0.3479,7.763,13.568-0.77531,12.971-8.7371-0.39759-7.9618-13.568,0.77531-12.971"/>
<path fill="url(#rg40)" d="m733.59,635.55c11.456,2.5347,7.5741,19.83-3.8815,17.096-11.456-2.5346-7.5692-19.581,3.8815-17.096"/>
<path fill="url(#rg39)" d="m714.56,628c9.5124,2.1371,6.2124,16.5-3.1062,14.164-9.5124-2.1371-6.4062-16.5,3.1062-14.164"/>
<path fill="url(#rg38)" d="m696.51,622.58c7.9618,1.7395,5.2432,13.767-2.7185,11.828-7.9568-1.7395-5.2383-13.767,2.7185-11.828"/>
<path fill="url(#rg37)" d="m721.16,653.24c10.099,3.4789,4.6618,18.836-5.4371,15.158-10.094-3.5286-4.8506-18.836,5.4371-15.158"/>
<path fill="url(#rg36)" d="m704.47,644.1c8.5433,2.9322,3.8815,15.755-4.468,12.624-8.5383-2.8826-4.0753-15.705,4.468-12.624"/>
<path fill="url(#rg35)" d="m688.55,637.34c6.9877,2.2862,3.3,12.971-3.6877,10.437-6.9927-2.485-3.3-13.17,3.6877-10.437"/>
<path fill="url(#rg34)" d="m710.49,668.2c8.9309,4.0753,2.7185,17.444-6.2124,13.17-8.9309-3.8765-2.7185-17.246,6.2124-13.17"/>
<path fill="url(#rg33)" d="m696.12,658.46c7.3803,3.3298,2.1371,14.562-5.0445,11.083-7.3803-3.2801-2.3309-14.562,5.0445-11.083"/>
<path fill="url(#rg32)" d="m682.34,650.91c6.2124,2.9322,1.7444,12.027-4.2741,9.2937-6.2124-2.8825-1.9383-12.226,4.2741-9.2937"/>
<path fill="url(#rg31)" d="m697.09,680.63c7.3803,3.6777,1.5556,14.91-5.6259,11.033-7.3803-3.6777-1.7494-14.91,5.6259-11.033"/>
<path fill="url(#rg30)" d="m685.25,671.88c6.2124,3.0814,1.3568,12.425-4.6618,9.0949-6.2124-3.0813-1.3568-12.425,4.6618-9.0949"/>
<path fill="url(#rg29)" d="m673.79,664.87c5.0494,2.7334,0.96914,10.288-3.8815,7.604-5.0494-2.5346-1.1679-10.486,3.8815-7.604"/>
<path fill="url(#rg28)" d="m685.83,691.46c6.4062,4.0753,0,13.816-6.2124,9.5422-6.4062-4.0753-0.19382-13.816,6.2124-9.5422"/>
<path fill="url(#rg27)" d="m675.93,682.57c5.2383,3.4789,0,11.431-5.2432,7.9519-5.2432-3.4789,0-11.679,5.2432-7.9519"/>
<path fill="url(#rg26)" d="m666.03,674.96c4.468,2.9322,0,9.5422-4.2692,6.61-4.463-2.8825,0-9.4925,4.2692-6.61"/>
<path fill="url(#rg25)" d="m674.73,700.43c6.4062,4.2741,0,13.767-6.2124,9.4925-6.4062-4.0753-0.19382-13.767,6.2124-9.4925"/>
<path fill="url(#rg24)" d="m664.83,691.66c5.2383,3.5286,0,11.48-5.2432,7.9519-5.2432-3.4789,0-11.431,5.2432-7.9519"/>
<path fill="url(#rg23)" d="m656.71,684.11c4.463,2.9322,0,9.4925-4.2741,6.61-4.463-2.9322,0-9.741,4.2741-6.61"/>
<path fill="url(#rg22)" d="m647.98,693.4c4.0753,2.5346,0,8.747-3.8865,6.2124-4.0753-2.6838,0-8.8961,3.8865-6.2124"/>
<path fill="url(#rg21)" d="m655.16,701.4c4.463,2.8826,0,9.4925-4.2692,6.5603-4.468-2.8826,0-9.4925,4.2692-6.5603"/>
<path fill="url(#rg20)" d="m662.92,709.55c4.8506,3.2801,0,10.486-4.6618,7.1567-4.8556-3.0814,0-10.487,4.6618-7.1567"/>
<path fill="url(#rg19)" d="m638.85,702.94c3.6877,2.5347,0,7.9519-3.6877,5.616-3.6926-2.5346,0-8.1506,3.6877-5.616"/>
<path fill="url(#rg18)" d="m644.57,709.92c4.0753,2.7334,0,8.747-3.8815,6.0136-4.0803-2.6838,0-8.6973,3.8815-6.0136"/>
<path fill="url(#rg17)" d="m651.55,716.84c4.2741,2.6838,0,9.2937-4.2692,6.4112-4.2741-2.9322,0-9.3434,4.2692-6.4112"/>
<path fill="url(#rg16)" d="m630,709.28c3.3,2.1371,0,7.4052-3.3,5.0693-3.3-2.1371,0-7.3555,3.3-5.0693"/>
<path fill="url(#rg15)" d="m635.21,715.78c3.6877,2.5346,0,8.1506-3.6877,5.6657-3.6877-2.5346,0-8.1506,3.6877-5.6657"/>
<path fill="url(#rg14)" d="m641.53,723.19c3.8815,2.5346,0,8.747-3.8815,5.8148-3.8815-2.5347,0-8.747,3.8815-5.8148"/>
<path fill="url(#rg13)" d="m622.74,714.97c3.1062,2.3359-0.39263,7.0076-3.4988,4.6717-2.9124-2.3358,0.39263-7.0076,3.4988-4.6717"/>
<path fill="url(#rg12)" d="m627.45,721.07c3.3,2.5346-0.38765,7.5543-3.6877,5.0196-3.3-2.485,0.38765-7.5543,3.6877-5.0196"/>
<path fill="url(#rg11)" d="m631.97,727.58c3.4938,2.7334-0.38765,8.3494-4.0753,5.4669-3.4938-2.7334,0.38765-8.3494,4.0753-5.4669"/>
<path fill="url(#rg10)" d="m615.7,719.44c2.5247,2.1371-0.77531,6.0633-3.3,3.7274-2.5197-2.3358,0.78027-6.0136,3.3-3.7274"/>
<path fill="url(#rg9)" d="m619.58,725.92c2.5247,2.2862-0.96913,6.5603-3.6877,3.8765-2.7185-2.3358,0.96913-6.61,3.6877-3.8765"/>
<path fill="url(#rg8)" d="m623.18,732.05c2.9124,2.7334-0.96913,7.0076-3.8815,4.2741-2.9124-2.485,0.96913-6.9579,3.8815-4.2741"/>
<path fill="url(#rg7)" d="m608.34,723.22c2.3309,2.1371-0.96913,5.616-3.3,3.4789-2.3309-2.3359,0.96914-5.8148,3.3-3.4789"/>
<path fill="url(#rg6)" d="m611.02,729c2.5247,2.5347-0.96913,6.2124-3.4938,3.6777-2.5247-2.3358,0.96913-6.2124,3.4938-3.6777"/>
<path fill="url(#rg5)" d="m614.9,735.44c2.7185,2.7334-1.163,6.8088-3.8815,4.0753-2.7185-2.5347,0.97411-6.8088,3.8815-4.0753"/>
<path fill="url(#rg4)" d="m601.5,727.58c1.7444,1.9383-1.1679,4.6717-2.9124,2.7334-1.7494-1.9383,0.96914-4.8705,2.9124-2.7334"/>
<path fill="url(#rg3)" d="m603.61,732.94c1.9432,2.1371-1.163,5.0196-3.3,2.8826-1.7444-2.1371,1.1679-5.0196,3.3-2.8826"/>
<path fill="url(#rg2)" d="m606.49,738.49c2.1321,2.3359-1.3618,5.4172-3.4988,3.131-2.1321-2.3359,1.3618-5.6657,3.4988-3.131"/>
<path fill="url(#rg1)" d="m687.6,446.92c10.094,0,10.094,15.158,0,15.158s-10.288-15.158,0-15.158"/>
</g>
<use xlink:href="#g" transform="matrix(-1,0,0,1,832.95721,0)" height="500" width="833.33331" y="0" x="0"/>
</g>
<g>
<path fill="#89c5e3" d="m182.15,433.08c11.262-37.473,16.893-85.632,0.9741-148.3,70.081-45.226,119.39-86.576,233.55-86.576,113.96,0,167.73,31.41,233.55,86.576-15.725,62.671-10.094,110.63,0.96913,148.3h-469.42" stroke="#000"/>
<path fill-rule="nonzero" fill="#fcdd09" d="M235.5,341.84,230.28,398.5c-0.0512,0.007-0.10514-0.008-0.15625,0l-20.12-56.16,9.6875,59.312c-0.0721,0.0331-0.14687,0.0602-0.21875,0.0937l-22.47-29.65,13.5,35.25-16.5-11.5,10.031,18.812c-0.0905,0.12886-0.19232,0.245-0.28125,0.375l-11.75-1.4375,7.2812,10.219c-1.48,4.12-2.28,8.55-2.28,13.17,0,0.21385,0.0591,0.41197,0.0625,0.625h77.625c0.003-0.21303,0.0625-0.41115,0.0625-0.625,0-4.6375-0.79162-9.095-2.2812-13.219l15.29-14.67-19.25,6.72c-0.15561-0.23949-0.30805-0.48294-0.46875-0.71875,2.9579-3.6337,31.907-39.25,30.719-39.25-1.2282,0-36.6,30.34-37.844,31.406-0.0624-0.0526-0.1248-0.10402-0.1875-0.15625l27.781-61.5-38.438,55.188c-0.12647-0.0496-0.24789-0.10791-0.375-0.15625l11.32-58.28-20.25,56-5.25-56.5z"/>
<path fill="#0f47af" d="m181.82,433.08c-6.2124,20.774-13.975,38.467-20.769,53.576-17.668,39.809-21.356,132.4,43.874,197.85,96.873,96.863,170.65,57.85,207.73,110.63h7.5692c37.08-52.78,110.85-13.767,207.73-110.63,65.23-65.454,61.736-158.04,43.874-197.85-6.6-14.959-14.562-32.801-20.774-53.576h-469.42" stroke="#000"/>
<path d="m323.62,343.97c-1.1219-5.4316-13.795-4.3878-12.875-13.125-8.4286-1.3436-6.8578-16.406,8.875-15.375,1.6575-2.9905,20.674-9.8352,18.375-0.375,9.5438-8.3157,16.457-0.70166,11.125,3,3.6823,3.6867,5.5407,12.114-5.75,11.375,4.3209,7.685-5.7117,7.3985-12.375,5.25,0.16435,2.9111-0.3317,5.2168-4.125,4.5-2.3939,1.6183-0.58198,3.7038-0.25,5.625l-3-0.875z" fill="#fff"/>
<path fill="#fff" d="m498.22,349.9c0.10663-6.8553-12.811-4.7625-12.33-12.57-7.0117-1.0746-5.9929-15.596,8.4994-14.724-0.80715-4.1943,19.514-9.5773,17.597-0.35913,7.0785-7.5058,14.066-0.48981,9.7792,2.8731,3.5265,3.5307,7.8063,9.6013-4.6317,10.894,5.0131,4.8598-5.47,7.0854-11.851,5.0278,0.1574,2.7879-1.6927,3.746-5.3254,3.0596-2.2926,1.5498,0.81765,4.7971,1.1356,6.637l-2.8731-0.83798z"/>
<path d="m598.9,373.59c1.2025-5.1907-10.656-4.7311-10.349-10.643-5.3872-0.81368-4.6045-11.809,6.5303-11.149-0.62015-3.1758,13.868-8.5018,12.896-0.77192,5.4386-5.6832,11.432,0.12911,8.1386,2.6754,2.7095,2.6734,5.9977,7.27-3.5586,8.2485,3.8517,3.6798-4.2028,5.365-9.1057,3.807,0.12094,2.1109-0.55051,2.4614-3.3417,1.9417-1.7615,1.1735,2.1282,4.0073,2.3725,5.4004l-3.5824,0.4905z" fill="#fff"/>
<g transform="matrix(1.0018628,0,0,1,867.91096,0)">
<path d="m-308.88,472.49c2.9124-15.158,15.337-29.124,16.699-40.952,1.163-10.685,3.3-15.158,9.5124-26.39,6.2124-11.282,8.7321-16.5,10.094-24.303,1.9383-10.089,9.5124-12.226,13.006-1.9383,3.3,10.288,9.9,36.131,13.394,42.145,3.3,6.0136,6.7988,14.363,6.2124,18.438-0.58148,4.0753,4.468,5.616,7.3803,8.5482,2.9124,2.7334,3.3,12.226,11.843,20.377,8.5383,8.1506,18.051,13.965,26.012,18.041,7.1815,16.152,12.037,40.604,10.869,68.535h-533.29c-0.1938-7.3555,0-14.562,0.3877-21.52,47.368-12.226,65.036-43.487,85.03-41.35,10.874-15.158,24.074-31.46,33.199-39.809,10.869-9.8901,32.225-49.301,37.662-73.406,5.4371-23.856,13.394-36.678,19.412-35.336,6.0186,1.3916,8.5433,2.5346,15.725,24.104,9.905,29.67,16.699,33.199,24.268,54.52,6.6,18.488,20.387,51.637,41.548,68.933,13.2-9.8901,28.343-20.973,33.194-28.726,4.0803-6.8088,10.293-17.295,17.668-22.315,3.3-9.8901,7.5692-27.583,11.068-31.857,3.3-3.8765,4.6568-7.7531,5.0445-14.562,0.19383-6.8088,5.4371-21.172,12.619-33.199,7.1865-11.828,16.699-15.705,20.968,0,4.0753,15.755,13.588,48.755,22.519,69.33,3.6877,8.5482,10.487,25.396,25.431,43.089l1.6134,1.9057c0.30376-0.52961,0.60752-0.92591,0.91128-2.3033z" stroke="#000" stroke-width="0.99906987" fill="#509164"/>
<path fill="#034418" d="m-370.02,528.38c-9.9-9.5422-25.625-7.4052-33.582-14.959-7.768-7.3555-20.193-2.3358-46.986-15.904-3.3-1.7395-6.6-3.8765-9.9001-6.4112-21.162-17.295-34.943-50.494-41.543-68.933-7.3803-21.172-14.368-24.651-24.268-54.57-5.2432-15.904-8.1556-20.774-11.649-22.514,9.1248,9.9398,4.2741,25.446,11.649,42.145,2.9124,6.61-1.9432,6.61-3.4938,4.4729-1.3568-2.1371-5.8247-3.131-7.9618-2.9322,3.8865,3.3298,4.4679,11.679,8.3494,20.377,3.6877,8.747-2.9124,7.8028,5.0494,20.228,2.1321,3.4789,2.9124,8.6973-0.19382,10.834-3.3,1.9383-5.6309-6.0136-10.487-3.2801,1.3618,3.131,6.9877,8.747,10.68,12.027,3.6877,3.3298,0.19383,5.0693-2.7185,3.5286-3.1062-1.5904-7.1865-3.131-9.3186-4.8705,0,2.5347,3.1062,5.4172,7.3753,9.2937,4.468,3.7274,1.5556,6.4112-8.7371,6.4112,1.5556,2.3359,0.9741,8.1506-3.6877,8.9458,6.4062,0.39759,11.262,12.226,19.219,13.021,7.768,0.54669,8.5433,6.0136,0.9741,7.3555-7.5741,1.3419-22.911-10.884-30.48-18.836-1.9432,2.7334-6.0186,3.8765-8.9309,2.3359-0.19382,3.6777,0.96914,12.624,4.463,18.438-3.6877-1.5407-8.5383-6.4112-13.394-12.425-4.6568-5.616-7.763,2.7334-3.6877,7.753,4.0753,5.0693,6.7939,9.1446,0.19383,13.021-6.4062,3.6777-10.482,2.3359-15.337-4.4729-6.7939,5.6657-9.5124,6.0136-14.756,5.0693,0,3.2801-5.6309,11.083-8.1506,16.898-5.6309,11.232,249.66,34.541,242.48,7.3555"/>
<path fill="#034418" d="m-186.4,530.1c-67.173-5.8645-104.25-31.857-125.22-56.707-14.949-17.494-21.743-34.541-25.431-43.089-8.9309-20.575-18.443-53.576-22.519-69.33-1.3618-5.2184-3.3-8.3494-5.6309-9.4925-3.4938-1.7395-1.7494,4.2741,0.7753,7.3555,2.7185,2.9322,2.5247,5.6657-0.96913,3.5286-3.4938-1.9383-5.2432,1.9383-1.9432,6.7591,3.1062,4.6717,7.9618,10.139,8.9309,15.357,0.9741,5.0693,1.3618,9.4925,3.8815,12.027,2.3309,2.5346-6.4062,3.131-10.094-2.8825-0.19383,3.8765,0.9741,9.4925,3.4938,8.8961,2.3309-0.39759,3.1062,1.7395-0.19383,7.604-3.3,5.616-2.9124,7.5543-1.7444,10.089,1.7444,3.8765,6.2124-11.48,8.9309-2.7334,1.3568,4.0753,3.6877,9.1446,5.8198,12.425,2.1371,3.131,1.9432,5.0693-1.163,5.0693s-5.8247-7.8028-6.2124-1.1928c-0.19383,6.4112,4.8556,8.5482,10.094,8.1506,5.0494-0.19879,5.8247,1.7395,5.0494,4.4729-0.58148,2.7334,1.5506,5.4172,4.463,4.8705,2.7185-0.79519,6.9927,1.7395,9.3186,8.3494,2.3309,6.61-1.5506,9.4925-7.1815,4.8208-5.6309-4.8208-13.782-9.0949-14.562-12.624-0.58148-3.0813-2.9124,1.3916-0.38766,5.6657,2.3309,4.2741,3.6877,6.2124,6.7939,7.9518,3.1062,1.5407-0.19383,7.9519-5.4321,3.8765-5.0494-3.8765-7.3803-2.9322-8.9309,1.5407-2.5247,7.2064-10.094,5.4669-7.768,9.3434,2.3309,3.8765,1.3618,10.089-2.1321,11.63-3.6926,1.5407-7.9618-0.74548-7.5741-7.5543-0.96913,1.3419-4.6568,1.9383-7.5692,1.1431-0.38765,9.5422-3.1062,12.822-8.9309,10.288-0.19383,2.1371-0.38765,5.8148-3.3,8.5482,6.4062-0.94428,7.763,3.4789,8.3445,6.2124,0.39263,2.7334,1.3618,2.3359,5.0494,2.7334,3.4938,0.1988,7.9618,4.8208,1.3618,3.6777-6.605-0.94428-16.893,1.3419-22.911-3.0813,6.2124,5.616,23.88,5.8148,31.256,12.971,53.779,22.166,148.52,29.919,185.98,19.631,0.19383-4.4729-0.38765-14.761-0.7753-18.041"/>
<path fill="#034418" d="m-264.39,372.77c1.5506,0.74549,3.1062,2.8826,4.463,6.2124,3.3,10.288,9.9,36.082,13.399,42.095,3.3,6.0136,6.7939,14.363,6.2124,18.438-0.58645,4.0753,4.463,5.6657,7.3753,8.5482,2.9124,2.7334,3.3,12.226,11.843,20.377,8.5433,8.1506,18.056,14.015,26.012,18.09,4.8556,10.834,8.5433,25.396,10.094,42.493-22.906-1.7395-51.637-8.5482-66.005-14.959,0.58148-2.1371,0.58148-4.8208-0.19383-8.8961-0.96913-4.0753-0.19382-7.2064,4.0753-11.083,4.2741-3.8765,2.9124-10.487,0.58645-14.164-2.3309-3.4789-2.1371-5.616-0.1988-7.753,1.7494-1.9383,1.7494-5.4669-2.3259-9.3434-4.2741-3.8765-1.3618-7.9518,0.96914-11.431,2.3309-3.5286,5.8247-9.5422,3.3-17.295-2.5247-7.5543-6.4062,1.7395-9.5124-1.1431-1.9432-1.988-3.1062-5.6657-0.96913-8.747,2.1321-2.9322,0.77531-8.5482-1.7494-12.822,5.6309-1.5407-3.8815-18.041-5.4371-25.048-1.5506-7.0076,1.7494-10.486-1.9383-13.22"/>
<path fill="#509164" d="m-508.65,435.81c0,3.6777-0.96913,8.9458-1.9432,10.685,2.3309,3.6777,5.4371,11.232,5.0494,13.568,3.1062-2.8825,9.1248-0.59639,10.482,7.4052,1.3618,8.1506,2.7185,15.705,1.9432,20.178,2.7185,2.3358,8.5433,6.4112,9.5124,10.884,0.96914,4.2741,3.8815,3.6777,6.7939,3.2801,9.1248-1.3419,8.3494,9.6913,17.862,8.1506,13.394-1.9383,5.0494,8.747,18.443,8.3494,7.763-0.39759,18.443,1.1431,23.88,8.747,6.0136-8.1506,11.257-5.0693,16.694-2.9322,5.4371,1.9383,12.231,1.3916,6.2124-2.8825-6.2124-4.4729-18.443-5.0693-23.88-3.7274-5.4371,1.3916-13.588,0.39759-19.219-4.622-5.4371-5.0693-14.949-9.3434-20.774-9.5422-5.8247-0.19879-7.1815-0.54669-11.644-7.1567-4.2741-6.4112-11.262-5.6657-14.756-6.0136-3.3-0.1988-5.8247-4.4729-1.9432-8.5482,5.6309-6.0136-2.3309-6.8088,0.58148-10.487,2.9124-3.6777,1.3618-8.5482-6.4062-9.1446-7.763-0.59639-4.8506-3.0814-3.6877-8.5482,2.7185-12.971-14.756-10.834-13.394-17.047"/>
<path fill="#509164" d="m-203.85,505.69c0.7753-7.9518-5.2432-11.232-6.6-17.295-1.163-6.0136-10.68-6.2124-13.2-4.4232,0.96913,1.7395,0,4.8208-1.1679,6.5603-1.163,1.5904-1.163,2.5347,1.1679,3.3298,2.5197,0.59639,4.6568,1.1431,4.8506,3.2801,0.19382,1.9383,1.3618,0.1988,2.3309-2.3359,0.77531-2.485,7.5692,3.131,8.3494,8.1506,0.58148,5.0693,3.3,8.5482,4.0753,2.5346"/>
<path fill="#509164" d="m-235.3,497.14c1.163,2.9322,5.4371,7.0076,7.763,7.0076,2.3309,0,5.8247,1.7395,6.4062,4.4729,0.39262,2.3359,2.3309,5.616,4.8556,6.0136,2.5247,0.39759,1.163,2.3359-1.9432,2.1371-3.3-0.19879-8.3445-2.1371-8.7321-4.4729,1.163,4.8705-0.39262,7.0076-3.4988,3.4789-2.9124-3.2801-4.463-7.9518-8.3445-8.5482,2.9124-0.54669,3.3-1.3419,1.9383-4.2741-1.163-2.8826-0.19382-10.636,1.5556-5.8148"/>
<path d="m-716.69,545.89c6.3822-3.131,16.23-1.9383,19.904,1.3419,1.9309-3.6777,5.0255-6.4112,10.828-5.4172,4.6443-5.0693,8.5113-7.604,11.22-5.0693,2.7084-5.0196,11.799-6.2124,14.894-3.0813,3.2877-5.0693,9.863-7.4052,14.309-4.6717,5.8029-7.604,16.052-10.288,22.241-6.4112,5.4167-4.0753,11.606-3.2801,14.314-0.59639,2.7084,2.5347,8.5113-2.6838,10.833,2.1371,4.0601-0.94428,11.794-1.1431,13.344,3.131,0.9655-2.3359,4.4463-3.7274,6.3822-1.9383,0-8.9458,6.3822-15.755,15.28-13.618,4.2532-6.4112,11.606-9.0949,15.087-6.8088,3.6739-3.6777,11.215-1.1431,14.502,3.3298,7.1596-0.19879,10.64,3.0813,14.314,9.4925,3.6739,6.4112,14.314,10.288,21.083,7.4052,6.7684-2.5347,12.958-3.3298,15.28-0.1988,4.0601-3.6777,8.5113-2.7334,11.215-0.1988,4.6443,4.0753,9.0906-3.131,11.799-0.39759,4.2581,4.4729,8.1251-4.0753,15.666,0.39759,7.3527,4.4729,21.855,11.232,33.075,11.232s20.117-13.767,27.272-4.0753c7.1546-4.8208,17.988-7.1567,25.529-3.0813,4.4512-4.0753,14.7-5.4172,18.76-1.5407,4.0601-6.2124,11.799-9.9398,18.374-7.8028,3.6739-6.3615,18.374-7.3555,22.821,1.5904,3.6788,0,9.4768,3.2801,9.4768,7.3555,3.6788,0,9.4818,2.3359,9.4818,6.61,4.0601-0.99398,9.0856,1.5407,9.863,6.4112,8.1201-0.59639,14.7,2.7334,18.374,9.4925,2.7084-2.3358,1.1586-8.3494,7.3477-9.4925,6.1891-0.99398,8.1251,0.94428,9.863,3.0813,6.7684-5.0196,16.25-4.4232,24.177,2.7334,5.8029-2.3358,11.22-1.3419,12.958,1.5407,2.5153-2.3358,6.5753-2.8825,10.64-2.8825,0.19309,13.17-0.97046,27.533-3.8719,42.294h-523.75c-2.7083-14.363-3.867-28.726-3.6738-41.946" stroke="#000" stroke-width="0.99906981" fill="#078930"/>
</g>
<g transform="translate(-9.2773435e-7,-4)" fill="#fff">
<path d="m416.28,249.04-5.2433,16.898-17.857,0,14.557,10.486-5.4371,16.898,14.174-10.487,14.368,10.487-5.4371-16.898,14.363-10.089-17.663,0-5.4371-16.898"/>
<path d="m348.72,254.66-2.5247,17.494-17.469,2.7334,15.919,7.9518-2.7185,17.444,12.425-12.624,15.725,8.0016-8.1556-15.755,12.619-12.425-17.469,2.7334-8.1556-15.755"/>
<path d="m282.72,271.16,0.19383,17.693-16.893,5.616,17.087,5.2681,0,17.643,10.094-14.562,16.893,5.2681-10.68-14.214,10.293-14.363-16.893,5.6657-10.675-14.214"/>
<path d="m220.4,298.14,3.1062,17.494-15.725,8.3494,17.663,2.3359,2.9124,17.444,7.5741-15.904,17.469,2.3359-12.812-12.425,7.768-15.755-15.725,8.3494-12.812-12.226"/>
<path d="m484.23,254.66,2.5247,17.494,17.469,2.7334-15.919,7.9518,2.7185,17.444-12.425-12.624-15.725,8.0016,8.1506-15.755-12.425-12.425,17.474,2.7334,8.1556-15.755"/>
<path d="m550.24,271.16-0.19383,17.693,16.888,5.616-17.082,5.2681,0,17.643-10.094-14.562-16.893,5.2681,10.68-14.214-10.293-14.363,16.699,5.6657,10.675-14.214"/>
<path d="m612.56,298.14-3.1062,17.494,15.725,8.3494-17.668,2.3359-2.9074,17.444-7.5741-15.904-17.474,2.3359,12.817-12.425-7.768-15.755,15.725,8.3494,12.812-12.226"/>
</g>
<g transform="translate(-1.534064,0)">
<path fill="#865800" d="m388.72,672.52,1.9383-129.86c0-6.2124,1.1679-7.2064,1.3618-0.39759l0.38765,131.65"/>
<path stroke-linejoin="round" d="m388.72,672.52,1.9383-129.86c0-6.2124,1.1679-7.2064,1.3618-0.39759l0.38765,131.65" stroke="#000" stroke-linecap="round" fill="#704d25"/>
<path fill="#fff" d="m392.21,542.46c4.463-3.8765,14.751,4.8705,21.157,1.1928-3.8815,12.574-19.412,2.6838-21.157,7.3555v-8.5482"/>
<path stroke-linejoin="round" d="m392.21,542.46c4.463-3.8765,14.751,4.8705,21.157,1.1928-3.8815,12.574-19.412,2.6838-21.157,7.3555v-8.5482" stroke="#000" stroke-linecap="round" fill="none"/>
<path fill="#865800" d="m432.59,672.72,1.9383-129.66c0-6.2124,1.1679-7.4052,1.3618-0.19879l0.38765,131.4"/>
<path stroke-linejoin="round" d="m432.59,672.72,1.9383-129.66c0-6.2124,1.1679-7.4052,1.3618-0.19879l0.38765,131.4" stroke="#000" stroke-linecap="round" fill="#704d25"/>
<path fill="#fff" d="m436.28,542.86c4.463-3.8765,14.756,4.8705,21.162,1.1431-4.0803,12.624-19.417,2.7334-21.162,7.4052v-8.5482"/>
<path stroke-linejoin="round" d="m436.28,542.86c4.463-3.8765,14.756,4.8705,21.162,1.1431-4.0803,12.624-19.417,2.7334-21.162,7.4052v-8.5482" stroke="#000" stroke-linecap="round" fill="none"/>
<path fill="#865800" d="m474.13,679.93,1.9432-129.91c0-6.2124,1.163-7.1567,1.3568-0.1491l0.38765,131.4"/>
<path stroke-linejoin="round" d="m474.13,679.93,1.9432-129.91c0-6.2124,1.163-7.1567,1.3568-0.1491l0.38765,131.4" stroke="#000" stroke-linecap="round" fill="#704d25"/>
<path fill="#fff" d="m477.63,550.02c4.4679-3.8765,14.756,4.8705,21.162,0.99398-4.0753,12.624-19.412,2.7334-21.162,7.3555v-8.4986"/>
<path stroke-linejoin="round" d="m477.63,550.02c4.4679-3.8765,14.756,4.8705,21.162,0.99398-4.0753,12.624-19.412,2.7334-21.162,7.3555v-8.4986,0.1491z" stroke="#000" stroke-linecap="round" fill="none"/>
<path fill="#704d25" d="m489.08,694.84c-4.4679,0-10.094-2.0874-11.649-5.616-3.3,3.131-17.082,4.8705-22.519,0.1988-3.6877,3.131-15.143,5.2681-20.968,1.5407-4.6568,4.0753-18.443,3.7274-25.625-0.54669-2.9124,3.0813-11.262,5.4172-15.725,5.8148-6.4062-9.1446-23.687-23.706-34.556-29.124-12.231-6.0136-36.693-17.693-49.699-23.309-7.5741-3.2801-14.562-8.9458-0.19383-2.7334,15.337,6.61,39.993,16.5,56.687,23.905,23.88,10.487,119.2,8.9458,134.92,7.5543,8.1556-0.54669,19.025-6.7591,26.599-11.431,5.8247-3.5286,6.0186-1.3916,0.38765,1.5407-6.2124,3.2801-13.006,5.8148-17.862,12.624-6.6,9.1446-15.725,13.22-19.219,19.234"/>
<path stroke-linejoin="round" d="m489.08,694.84c-4.4679,0-10.094-2.0874-11.649-5.616-3.3,3.131-17.082,4.8705-22.519,0.1988-3.6877,3.131-15.143,5.2681-20.968,1.5407-4.6568,4.0753-18.443,3.7274-25.625-0.54669-2.9124,3.0813-11.262,5.4172-15.725,5.8148-6.4062-9.1446-23.687-23.706-34.556-29.124-12.231-6.0136-36.693-17.693-49.699-23.309-7.5741-3.2801-14.562-8.9458-0.19383-2.7334,15.337,6.61,39.993,16.5,56.687,23.905,23.88,10.487,119.2,8.9458,134.92,7.5543,8.1556-0.54669,19.025-6.7591,26.599-11.431,5.8247-3.5286,6.0186-1.3916,0.38765,1.5407-6.2124,3.2801-13.006,5.8148-17.862,12.624-6.6,9.1446-15.725,13.22-19.219,19.234l-0.58148,0.3479z" stroke="#000" stroke-linecap="round" fill="#704d25"/>
<path fill="#fff" d="m498.01,572.18-30.868-3.3298c-5.4371,9.1446-6.2124,20.575-3.3,28.577,9.9001-9.3434,27.762-4.4729,36.693,0.34789-2.9124-8.1506-7.3803-19.184-2.3309-25.396"/>
<path stroke-linejoin="round" d="m498.01,572.18-30.868-3.3298c-5.4371,9.1446-6.2124,20.575-3.3,28.577,9.9001-9.3434,27.762-4.4729,36.693,0.34789-2.9124-8.1506-7.3803-19.184-2.3309-25.396l-0.19382-0.19879z" stroke="#000" stroke-linecap="round" fill="none"/>
<path fill="#fff" d="m500.34,597.58c-9.1198,0.1988-30.863-0.34789-37.662-0.34789-7.3754,9.4925-3.3,23.856-1.5506,29.322,8.1506-13.021,33.974-6.0633,43.874,3.2801-5.0494-9.5422-8.9309-17.693-4.463-32.404"/>
<path stroke-linejoin="round" d="m500.34,597.58c-9.1198,0.1988-30.863-0.34789-37.662-0.34789-7.3754,9.4925-3.3,23.856-1.5506,29.322,8.1506-13.021,33.974-6.0633,43.874,3.2801-5.0494-9.5422-8.9309-17.693-4.463-32.404l-0.1988,0.14909z" stroke="#000" stroke-linecap="round" fill="none"/>
<path fill="#fff" d="m504.81,630.23c-8.9309-1.5904-37.662-3.5286-43.487-5.0693-4.6618,9.6913-8.5433,22.315-10.482,34.392,13.975-15.357,46.399-4.0753,53.193,10.834-6.7939-12.822-13.593-32.205,0.96914-40.157"/>
<path stroke-linejoin="round" d="m504.81,630.23c-8.9309-1.5904-37.662-3.5286-43.487-5.0693-4.6618,9.6913-8.5433,22.315-10.482,34.392,13.975-15.357,46.399-4.0753,53.193,10.834-6.7939-12.822-13.593-32.205,0.96914-40.157h-0.19383z" stroke="#000" stroke-linecap="round" fill="none"/>
<path fill="#fff" d="m466.37,562.84-40.773-5.4172c-5.8198,6.8088-10.094,18.836-9.5124,32.801,8.5433-8.1506,39.799-4.8705,47.761,6.8088-2.7185-12.624-6.2124-28.527,2.7185-34.392"/>
<path stroke-linejoin="round" d="m466.37,562.84-40.773-5.4172c-5.8198,6.8088-10.094,18.836-9.5124,32.801,8.5433-8.1506,39.799-4.8705,47.761,6.8088-2.7185-12.624-6.2124-28.527,2.7185-34.392l-0.19382,0.19879z" stroke="#000" stroke-linecap="round" fill="none"/>
<path fill="#fff" d="m463.26,598.18-45.236-6.0136c-7.1815,9.1446-6.7939,22.116-5.0494,35.932,10.293-8.5482,43.874-3.8765,51.836,7.5543-4.8506-16.699-8.9309-26.589-1.3568-37.473"/>
<path stroke-linejoin="round" d="m463.26,598.18-45.236-6.0136c-7.1815,9.1446-6.7939,22.116-5.0494,35.932,10.293-8.5482,43.874-3.8765,51.836,7.5543-4.8506-16.699-8.9309-26.589-1.3568-37.473h-0.19383z" stroke="#000" stroke-linecap="round" fill="none"/>
<path fill="#fff" d="m464.62,635.65-46.011-4.6717c-7.1815,8.9458-12.037,18.09-10.482,31.46,7.1815-11.828,37.662-3.2801,50.668,9.8901-7.763-10.288-8.5433-25.048,5.8247-36.678"/>
<path stroke-linejoin="round" d="m464.62,635.65-46.011-4.6717c-7.1815,8.9458-12.037,18.09-10.482,31.46,7.1815-11.828,37.662-3.2801,50.668,9.8901-7.763-10.288-8.5433-25.048,5.8247-36.678z" stroke="#000" stroke-linecap="round" fill="none"/>
<path fill="#fff" d="m389.68,562.84c-5.0494,3.8765-12.812,17.295-13.98,20.973,8.5433-3.4789,26.599-4.4729,37.861,3.8765-3.3-6.4112-4.4679-17.643-1.5556-22.315-4.463-1.9383-16.306-2.9322-22.131-2.3358"/>
<path stroke-linejoin="round" d="m389.68,562.84c-5.0494,3.8765-12.812,17.295-13.98,20.973,8.5433-3.4789,26.599-4.4729,37.861,3.8765-3.3-6.4112-4.4679-17.643-1.5556-22.315-4.463-1.9383-16.306-2.9322-22.131-2.3358l-0.19383-0.1988z" stroke="#000" stroke-linecap="round" fill="none"/>
<path fill="#fff" d="m370.85,590.02c11.843-0.19879,36.106,2.7334,46.593,5.616-6.2124,9.3434-5.4371,25.247-2.9124,35.137-16.112-15.904-42.711-15.506-58.436-10.834,2.9124-7.2064,10.094-22.166,14.562-30.118"/>
<path stroke-linejoin="round" d="m370.85,590.02c11.843-0.19879,36.106,2.7334,46.593,5.616-6.2124,9.3434-5.4371,25.247-2.9124,35.137-16.112-15.904-42.711-15.506-58.436-10.834,2.9124-7.2064,10.094-22.166,14.562-30.118l0.19382,0.19879z" stroke="#000" stroke-linecap="round" fill="none"/>
<path fill="#fff" d="m417.83,634.31c-11.456,0.39759-40.768-4.6717-54.167-11.282-4.6568,12.624-6.7939,33.597-7.1815,41.151,13.006-17.444,44.848-7.7531,54.942,10.089-0.96913-9.4925-4.4679-32.801,6.4062-40.157"/>
<path stroke-linejoin="round" d="m417.83,634.31c-11.456,0.39759-40.768-4.6717-54.167-11.282-4.6568,12.624-6.7939,33.597-7.1815,41.151,13.006-17.444,44.848-7.7531,54.942,10.089-0.96913-9.4925-4.4679-32.801,6.4062-40.157v0.1988z" stroke="#000" stroke-linecap="round" fill="none"/>
<path fill="#fff" d="m389.68,562.84c-32.23,19.432-56.687,58.645-65.812,85.83,9.1248-0.1988,20.575,2.7334,24.656,10.884,9.5124-39.063,22.906-75.145,41.156-96.913"/>
<path stroke-linejoin="round" d="m389.68,562.84c-32.23,19.432-56.687,58.645-65.812,85.83,9.1248-0.1988,20.575,2.7334,24.656,10.884,9.5124-39.063,22.906-75.145,41.156-96.913v0.19879z" stroke="#000" stroke-linecap="round" fill="none"/>
<path stroke-linejoin="round" d="m390.65,544c-26.4,26.589-63.868,74.002-77.461,99.796" stroke="#000" stroke-linecap="round" fill="none"/>
<path stroke-linejoin="round" d="m498.01,572.18c7.1815,34.938,8.9309,81.904,6.0186,99.199" stroke="#000" stroke-linecap="round" fill="none"/>
<path fill="#00009e" d="m536.22,635.28c-8.1848,4.083-23.699-7.3384-31.024-2.1519v-4.5244c7.1093-4.9659,22.624,6.4556,31.024,2.1519v4.7452"/>
<path fill="#002b7f" d="m536.22,635.28c-8.1848,4.083-23.699-7.3384-31.024-2.1519v-4.5244c7.1093-4.9659,22.624,6.4556,31.024,2.1519v4.7452-0.22071z"/>
<path fill="#fff" d="m536.22,640.02c-8.1848,4.083-23.699-7.3384-31.024-2.3726v-4.7452c7.1093-4.9658,22.624,6.4556,31.024,2.1519v4.7452"/>
<path fill="none" d="m536.22,640.02c-8.1848,4.083-23.699-7.3384-31.024-2.3726v-4.7452c7.1093-4.9658,22.624,6.4556,31.024,2.1519v4.7452,0.2207z"/>
<path fill="#ff0016" d="m536.22,644.77c-8.1848,4.3038-23.699-7.1177-31.024-2.1519v-4.7452c7.1093-4.9659,22.624,6.4556,31.024,2.3726v4.5244"/>
<path fill="#ce1126" d="m536.22,644.77c-8.1848,4.3038-23.699-7.1177-31.024-2.1519v-4.7452c7.1093-4.9659,22.624,6.4556,31.024,2.3726v4.5244"/>
<path fill="#fff" d="m536.22,649.51c-8.1848,4.3037-23.699-7.1177-31.024-2.1519v-4.7452c7.1093-4.7452,22.624,6.4556,31.024,2.1519v4.7452"/>
<path fill="none" d="m536.22,649.51c-8.1848,4.3038-23.699-7.1177-31.024-2.1519v-4.7452c7.1093-4.7452,22.624,6.4556,31.024,2.1519v4.7452"/>
<path fill="#00009e" d="m536.22,654.04c-8.1848,4.3038-23.699-7.1177-31.024-2.1519v-4.7452c7.1093-4.9658,22.624,6.4556,31.024,2.1519v4.5244"/>
<path fill="#002b7f" d="m536.22,654.04c-8.1848,4.3038-23.699-7.1177-31.024-2.1519v-4.7452c7.1093-4.9658,22.624,6.4556,31.024,2.1519v4.5244,0.22071z"/>
</g>
<g transform="matrix(0.35485473,0,0,0.35485473,266.14471,201.4891)" stroke-width="1.83173549">
<path fill="#865800" d="m388.72,672.52,1.9383-129.86c0-6.2124,1.1679-7.2064,1.3618-0.39759l0.38765,131.65"/>
<path stroke-linejoin="round" d="m388.72,672.52,1.9383-129.86c0-6.2124,1.1679-7.2064,1.3618-0.39759l0.38765,131.65" stroke="#000" stroke-linecap="round" stroke-width="1.83173549" fill="#704d25"/>
<path fill="#fff" d="m392.21,542.46c4.463-3.8765,14.751,4.8705,21.157,1.1928-3.8815,12.574-19.412,2.6838-21.157,7.3555v-8.5482"/>
<path stroke-linejoin="round" d="m392.21,542.46c4.463-3.8765,14.751,4.8705,21.157,1.1928-3.8815,12.574-19.412,2.6838-21.157,7.3555v-8.5482" stroke="#000" stroke-linecap="round" stroke-width="1.83173549" fill="none"/>
<path fill="#865800" d="m432.59,672.72,1.9383-129.66c0-6.2124,1.1679-7.4052,1.3618-0.19879l0.38765,131.4"/>
<path stroke-linejoin="round" d="m432.59,672.72,1.9383-129.66c0-6.2124,1.1679-7.4052,1.3618-0.19879l0.38765,131.4" stroke="#000" stroke-linecap="round" stroke-width="1.83173549" fill="#704d25"/>
<path fill="#fff" d="m436.28,542.86c4.463-3.8765,14.756,4.8705,21.162,1.1431-4.0803,12.624-19.417,2.7334-21.162,7.4052v-8.5482"/>
<path stroke-linejoin="round" d="m436.28,542.86c4.463-3.8765,14.756,4.8705,21.162,1.1431-4.0803,12.624-19.417,2.7334-21.162,7.4052v-8.5482" stroke="#000" stroke-linecap="round" stroke-width="1.83173549" fill="none"/>
<path fill="#865800" d="m474.13,679.93,1.9432-129.91c0-6.2124,1.163-7.1567,1.3568-0.1491l0.38765,131.4"/>
<path stroke-linejoin="round" d="m474.13,679.93,1.9432-129.91c0-6.2124,1.163-7.1567,1.3568-0.1491l0.38765,131.4" stroke="#000" stroke-linecap="round" stroke-width="1.83173549" fill="#704d25"/>
<path fill="#fff" d="m477.63,550.02c4.4679-3.8765,14.756,4.8705,21.162,0.99398-4.0753,12.624-19.412,2.7334-21.162,7.3555v-8.4986"/>
<path stroke-linejoin="round" d="m477.63,550.02c4.4679-3.8765,14.756,4.8705,21.162,0.99398-4.0753,12.624-19.412,2.7334-21.162,7.3555v-8.4986,0.1491z" stroke="#000" stroke-linecap="round" stroke-width="1.83173549" fill="none"/>
<path fill="#704d25" d="m489.08,694.84c-4.4679,0-10.094-2.0874-11.649-5.616-3.3,3.131-17.082,4.8705-22.519,0.1988-3.6877,3.131-15.143,5.2681-20.968,1.5407-4.6568,4.0753-18.443,3.7274-25.625-0.54669-2.9124,3.0813-11.262,5.4172-15.725,5.8148-6.4062-9.1446-23.687-23.706-34.556-29.124-12.231-6.0136-36.693-17.693-49.699-23.309-7.5741-3.2801-14.562-8.9458-0.19383-2.7334,15.337,6.61,39.993,16.5,56.687,23.905,23.88,10.487,119.2,8.9458,134.92,7.5543,8.1556-0.54669,19.025-6.7591,26.599-11.431,5.8247-3.5286,6.0186-1.3916,0.38765,1.5407-6.2124,3.2801-13.006,5.8148-17.862,12.624-6.6,9.1446-15.725,13.22-19.219,19.234"/>
<path stroke-linejoin="round" d="m489.08,694.84c-4.4679,0-10.094-2.0874-11.649-5.616-3.3,3.131-17.082,4.8705-22.519,0.1988-3.6877,3.131-15.143,5.2681-20.968,1.5407-4.6568,4.0753-18.443,3.7274-25.625-0.54669-2.9124,3.0813-11.262,5.4172-15.725,5.8148-6.4062-9.1446-23.687-23.706-34.556-29.124-12.231-6.0136-36.693-17.693-49.699-23.309-7.5741-3.2801-14.562-8.9458-0.19383-2.7334,15.337,6.61,39.993,16.5,56.687,23.905,23.88,10.487,119.2,8.9458,134.92,7.5543,8.1556-0.54669,19.025-6.7591,26.599-11.431,5.8247-3.5286,6.0186-1.3916,0.38765,1.5407-6.2124,3.2801-13.006,5.8148-17.862,12.624-6.6,9.1446-15.725,13.22-19.219,19.234l-0.58148,0.3479z" stroke="#000" stroke-linecap="round" stroke-width="1.83173549" fill="#704d25"/>
<path fill="#fff" d="m498.01,572.18-30.868-3.3298c-5.4371,9.1446-6.2124,20.575-3.3,28.577,9.9001-9.3434,27.762-4.4729,36.693,0.34789-2.9124-8.1506-7.3803-19.184-2.3309-25.396"/>
<path stroke-linejoin="round" d="m498.01,572.18-30.868-3.3298c-5.4371,9.1446-6.2124,20.575-3.3,28.577,9.9001-9.3434,27.762-4.4729,36.693,0.34789-2.9124-8.1506-7.3803-19.184-2.3309-25.396l-0.19382-0.19879z" stroke="#000" stroke-linecap="round" stroke-width="1.83173549" fill="none"/>
<path fill="#fff" d="m500.34,597.58c-9.1198,0.1988-30.863-0.34789-37.662-0.34789-7.3754,9.4925-3.3,23.856-1.5506,29.322,8.1506-13.021,33.974-6.0633,43.874,3.2801-5.0494-9.5422-8.9309-17.693-4.463-32.404"/>
<path stroke-linejoin="round" d="m500.34,597.58c-9.1198,0.1988-30.863-0.34789-37.662-0.34789-7.3754,9.4925-3.3,23.856-1.5506,29.322,8.1506-13.021,33.974-6.0633,43.874,3.2801-5.0494-9.5422-8.9309-17.693-4.463-32.404l-0.1988,0.14909z" stroke="#000" stroke-linecap="round" stroke-width="1.83173549" fill="none"/>
<path fill="#fff" d="m504.81,630.23c-8.9309-1.5904-37.662-3.5286-43.487-5.0693-4.6618,9.6913-8.5433,22.315-10.482,34.392,13.975-15.357,46.399-4.0753,53.193,10.834-6.7939-12.822-13.593-32.205,0.96914-40.157"/>
<path stroke-linejoin="round" d="m504.81,630.23c-8.9309-1.5904-37.662-3.5286-43.487-5.0693-4.6618,9.6913-8.5433,22.315-10.482,34.392,13.975-15.357,46.399-4.0753,53.193,10.834-6.7939-12.822-13.593-32.205,0.96914-40.157h-0.19383z" stroke="#000" stroke-linecap="round" stroke-width="1.83173549" fill="none"/>
<path fill="#fff" d="m466.37,562.84-40.773-5.4172c-5.8198,6.8088-10.094,18.836-9.5124,32.801,8.5433-8.1506,39.799-4.8705,47.761,6.8088-2.7185-12.624-6.2124-28.527,2.7185-34.392"/>
<path stroke-linejoin="round" d="m466.37,562.84-40.773-5.4172c-5.8198,6.8088-10.094,18.836-9.5124,32.801,8.5433-8.1506,39.799-4.8705,47.761,6.8088-2.7185-12.624-6.2124-28.527,2.7185-34.392l-0.19382,0.19879z" stroke="#000" stroke-linecap="round" stroke-width="1.83173549" fill="none"/>
<path fill="#fff" d="m463.26,598.18-45.236-6.0136c-7.1815,9.1446-6.7939,22.116-5.0494,35.932,10.293-8.5482,43.874-3.8765,51.836,7.5543-4.8506-16.699-8.9309-26.589-1.3568-37.473"/>
<path stroke-linejoin="round" d="m463.26,598.18-45.236-6.0136c-7.1815,9.1446-6.7939,22.116-5.0494,35.932,10.293-8.5482,43.874-3.8765,51.836,7.5543-4.8506-16.699-8.9309-26.589-1.3568-37.473h-0.19383z" stroke="#000" stroke-linecap="round" stroke-width="1.83173549" fill="none"/>
<path fill="#fff" d="m464.62,635.65-46.011-4.6717c-7.1815,8.9458-12.037,18.09-10.482,31.46,7.1815-11.828,37.662-3.2801,50.668,9.8901-7.763-10.288-8.5433-25.048,5.8247-36.678"/>
<path stroke-linejoin="round" d="m464.62,635.65-46.011-4.6717c-7.1815,8.9458-12.037,18.09-10.482,31.46,7.1815-11.828,37.662-3.2801,50.668,9.8901-7.763-10.288-8.5433-25.048,5.8247-36.678z" stroke="#000" stroke-linecap="round" stroke-width="1.83173549" fill="none"/>
<path fill="#fff" d="m389.68,562.84c-5.0494,3.8765-12.812,17.295-13.98,20.973,8.5433-3.4789,26.599-4.4729,37.861,3.8765-3.3-6.4112-4.4679-17.643-1.5556-22.315-4.463-1.9383-16.306-2.9322-22.131-2.3358"/>
<path stroke-linejoin="round" d="m389.68,562.84c-5.0494,3.8765-12.812,17.295-13.98,20.973,8.5433-3.4789,26.599-4.4729,37.861,3.8765-3.3-6.4112-4.4679-17.643-1.5556-22.315-4.463-1.9383-16.306-2.9322-22.131-2.3358l-0.19383-0.1988z" stroke="#000" stroke-linecap="round" stroke-width="1.83173549" fill="none"/>
<path fill="#fff" d="m370.85,590.02c11.843-0.19879,36.106,2.7334,46.593,5.616-6.2124,9.3434-5.4371,25.247-2.9124,35.137-16.112-15.904-42.711-15.506-58.436-10.834,2.9124-7.2064,10.094-22.166,14.562-30.118"/>
<path stroke-linejoin="round" d="m370.85,590.02c11.843-0.19879,36.106,2.7334,46.593,5.616-6.2124,9.3434-5.4371,25.247-2.9124,35.137-16.112-15.904-42.711-15.506-58.436-10.834,2.9124-7.2064,10.094-22.166,14.562-30.118l0.19382,0.19879z" stroke="#000" stroke-linecap="round" stroke-width="1.83173549" fill="none"/>
<path fill="#fff" d="m417.83,634.31c-11.456,0.39759-40.768-4.6717-54.167-11.282-4.6568,12.624-6.7939,33.597-7.1815,41.151,13.006-17.444,44.848-7.7531,54.942,10.089-0.96913-9.4925-4.4679-32.801,6.4062-40.157"/>
<path stroke-linejoin="round" d="m417.83,634.31c-11.456,0.39759-40.768-4.6717-54.167-11.282-4.6568,12.624-6.7939,33.597-7.1815,41.151,13.006-17.444,44.848-7.7531,54.942,10.089-0.96913-9.4925-4.4679-32.801,6.4062-40.157v0.1988z" stroke="#000" stroke-linecap="round" stroke-width="1.83173549" fill="none"/>
<path fill="#fff" d="m389.68,562.84c-32.23,19.432-56.687,58.645-65.812,85.83,9.1248-0.1988,20.575,2.7334,24.656,10.884,9.5124-39.063,22.906-75.145,41.156-96.913"/>
<path stroke-linejoin="round" d="m389.68,562.84c-32.23,19.432-56.687,58.645-65.812,85.83,9.1248-0.1988,20.575,2.7334,24.656,10.884,9.5124-39.063,22.906-75.145,41.156-96.913v0.19879z" stroke="#000" stroke-linecap="round" stroke-width="1.83173549" fill="none"/>
<path stroke-linejoin="round" d="m390.65,544c-26.4,26.589-63.868,74.002-77.461,99.796" stroke="#000" stroke-linecap="round" stroke-width="1.83173549" fill="none"/>
<path stroke-linejoin="round" d="m498.01,572.18c7.1815,34.938,8.9309,81.904,6.0186,99.199" stroke="#000" stroke-linecap="round" stroke-width="1.83173549" fill="none"/>
<path fill="#00009e" d="m536.22,635.28c-8.1848,4.083-23.699-7.3384-31.024-2.1519v-4.5244c7.1093-4.9659,22.624,6.4556,31.024,2.1519v4.7452"/>
<path fill="#002b7f" d="m536.22,635.28c-8.1848,4.083-23.699-7.3384-31.024-2.1519v-4.5244c7.1093-4.9659,22.624,6.4556,31.024,2.1519v4.7452-0.22071z"/>
<path fill="#fff" d="m536.22,640.02c-8.1848,4.083-23.699-7.3384-31.024-2.3726v-4.7452c7.1093-4.9658,22.624,6.4556,31.024,2.1519v4.7452"/>
<path fill="none" d="m536.22,640.02c-8.1848,4.083-23.699-7.3384-31.024-2.3726v-4.7452c7.1093-4.9658,22.624,6.4556,31.024,2.1519v4.7452,0.2207z"/>
<path fill="#ff0016" d="m536.22,644.77c-8.1848,4.3038-23.699-7.1177-31.024-2.1519v-4.7452c7.1093-4.9659,22.624,6.4556,31.024,2.3726v4.5244"/>
<path fill="#ce1126" d="m536.22,644.77c-8.1848,4.3038-23.699-7.1177-31.024-2.1519v-4.7452c7.1093-4.9659,22.624,6.4556,31.024,2.3726v4.5244"/>
<path fill="#fff" d="m536.22,649.51c-8.1848,4.3037-23.699-7.1177-31.024-2.1519v-4.7452c7.1093-4.7452,22.624,6.4556,31.024,2.1519v4.7452"/>
<path fill="none" d="m536.22,649.51c-8.1848,4.3038-23.699-7.1177-31.024-2.1519v-4.7452c7.1093-4.7452,22.624,6.4556,31.024,2.1519v4.7452"/>
<path fill="#00009e" d="m536.22,654.04c-8.1848,4.3038-23.699-7.1177-31.024-2.1519v-4.7452c7.1093-4.9658,22.624,6.4556,31.024,2.1519v4.5244"/>
<path fill="#002b7f" d="m536.22,654.04c-8.1848,4.3038-23.699-7.1177-31.024-2.1519v-4.7452c7.1093-4.9658,22.624,6.4556,31.024,2.1519v4.5244,0.22071z"/>
</g>
<path d="m650.12,284.78c-24.656,97.46,2.9124,159.19,21.937,201.88,17.862,39.809,21.356,132.4-43.874,197.85-96.873,96.863-170.65,57.85-207.73,110.63" stroke="#000" stroke-width="3" fill="none"/>
<path d="M412.5,795.33c-37.08-52.78-110.85-13.76-207.73-110.63-65.23-65.45-61.73-158.04-43.87-197.85,19.02-42.49,46.59-104.22,21.94-201.88" stroke="#000" stroke-width="3" fill="none"/>
</g>
<g>
<g stroke-linejoin="round" stroke="#000" stroke-width="3" stroke-linecap="round">
<path d="m427.55,39.787c1.3568,6.3082,3.1062,23.321-6.2124,25.758,17.082,21.075,41.737,24.086,85.03,24.086,27.18,0,49.118-0.19116,65.23,0,0,5.4002-1.7494,11.183-1.7494,17.921,0,6.4994,6.7988,9.5101,16.699,7.264,9.9001-2.2461,31.062-8.6021,42.513,1.4815,19.224,17.204,54.555,20.167,64.067,31.015-2.9124-13.094-15.337-26.332-29.119-37.371,13.006-1.8638,29.894-0.52568,35.719,3.9187-14.76-15.999-41.55-16.382-55.14-24.219-13.59-7.838-26.6-14.767-36.69-17.395,0-4.4444-0.58645-8.0286-4.468-10.609-8.5433-5.9737-25.237-8.0286-38.825-8.7932,1.9383-2.0549,2.3259-4.4922,2.3259-8.2198v-21.075c0-7.3118,0.78028-9.1755-7.5692-14.385-32.225-19.785-71.442-33.978-142.88-33.978-71.249,0-110.47,14.002-142.88,33.978-8.5433,5.209-7.5692,7.0728-7.5692,14.385v21.075c0,3.7276,0.19383,6.1648,2.3259,8.2198-13.588,0.57347-30.088,2.6284-38.825,8.7932-3.6877,2.5806-4.4679,5.9737-4.4679,10.609-9.9001,2.4373-22.906,9.3667-36.688,17.395-13.593,7.8374-40.38,8.2198-55.136,24.229,5.6309-4.4444,22.519-5.9737,35.525-3.9187-13.588,10.848-26.012,24.086-29.119,37.371,9.5124-10.848,44.843-13.811,64.261-31.015,11.257-10.084,32.419-3.9187,42.513-1.4815,9.9,2.2461,16.699-0.57347,16.699-7.264,0-6.7383-1.7494-12.521-1.7494-17.921,15.919-0.38232,37.856,0,65.23,0,43.099,0,67.755-3.0107,85.03-24.086-9.5124-2.4373-7.763-19.259-6.2124-25.758-20.188-4.4922-30.282-12.138-46.593-12.138-16.112,0-19.025,8.5543-19.025,11.756v2.6284c-12.812,0-30.868-3.2019-35.331-11.613,24.85-10.084,61.736-19.211,112.4-19.211,50.668,0,87.555,9.1278,112.4,19.211-4.463,8.4109-22.519,11.613-35.331,11.613v-2.6284c0-3.0107-2.7185-11.756-19.025-11.756s-26.405,7.4551-46.593,12.138h-0.7753z" fill="#89c5e3"/>
<path d="m260.98,89.965c-12.619,0.19116-21.55,0.95578-26.405,2.4373-7.763,2.4373-8.5383,6.5471-3.4938,8.7932" fill="none"/>
<path d="m339.21,42.176v9.749c0,6.3082,6.7939,14.528,17.28,14.528,25.819,0,30.868-4.4444,50.087-3.9187" fill="none"/>
<path d="M406.38,62.009c-17.86-3.011-32.03-12.521-47.76-12.521-15.531,0-18.831,7.0728-16.112,10.466" fill="none"/>
<path d="m224.48,72.809v19.211c0,5.2568,3.6877,12.521,17.668,9.749,12.231-2.2461,20.188,0.52569,20.188,5.7825" fill="none"/>
<path d="m267.96,53.215c2.9124,2.9629,9.3186,5.5914,23.493,10.657,26.012,9.5101,85.805,16.009,124.64-0.95579" fill="none"/>
<path d="m528.88,30.42c5.0494,2.0549,9.7062,4.1099,13.787,6.1648,24.263,12.138,26.012,14.958,17.469,19.594" fill="none"/>
<path d="m571.79,89.965c12.619,0.19116,21.55,0.95578,26.405,2.4373,7.763,2.4373,8.5383,6.5471,3.4938,8.7932" fill="none"/>
<path d="m493.36,42.176v9.749c0,6.3082-6.7939,14.528-17.28,14.528-25.819,0-30.868-4.4444-50.087-3.9187" fill="none"/>
<path d="M426.18,62.009c17.87-3.011,32.04-12.521,47.77-12.521,15.526,0,18.831,7.0728,15.919,10.466" fill="none"/>
<path d="m608.09,72.809v19.211c0,5.2568-3.6877,12.521-17.668,9.749-12.231-2.2461-20.193,0.52569-20.193,5.7825" fill="none"/>
<path d="m564.61,53.215c-2.9124,2.9629-9.3186,5.5914-23.493,10.657-26.012,9.5101-85.805,16.009-124.64-0.95579" fill="none"/>
<path d="m416.28,66.453c11.843,0,12.231-8.9366,12.231-17.156,0-8.0286-0.38766-17.013-12.231-17.013s-12.231,8.9844-12.231,17.013,0.38766,17.156,12.231,17.156z" fill="#89c5e3"/>
<path d="m304.55,30.437c-5.169,2.0523-9.936,4.1046-14.113,6.1568-24.843,12.123-26.628,14.939-17.883,19.568" fill="none"/>
</g>
<g id="l" stroke="#000" stroke-width="3" fill="#078930">
<path d="m387.94,192.56c16.306-10.486,36.499-28.13,43.874-39.809,10.094-16.301,11.456-8.3494,19.219-9.6913-18.25,19.979-40.962,41.35-57.074,52.631l-6.0186-3.131"/>
<path d="m251.46,231.77c-40.768-23.11-56.299,0.99398-65.812,2.1371,11.257,2.7334,20.769,20.774,65.812-2.1371z"/>
<path d="m269.71,218.4c-38.83-26.241-56.105-3.3298-65.816-2.7334,11.068,3.4789,19.224,22.315,65.816,2.7334z"/>
<path d="m297.47,202.84c-38.248-26.987-56.105-4.4729-65.816-4.0753,11.068,3.8765,18.637,22.514,65.816,4.0753z"/>
<path d="m320.38,189.08c-35.137-31.062-55.33-10.486-64.842-11.282,10.482,5.0693,16.112,24.452,64.842,11.282z"/>
<path d="m349.69,178.99c-33.582-32.851-54.744-13.22-64.256-14.562,10.288,5.4172,14.95,25.396,64.256,14.562z"/>
<path d="m380.37,175.66c-27.762-37.672-51.831-21.917-61.15-24.651,9.1248,7.2064,10.482,27.384,61.15,24.651z"/>
<path d="m385.42,177.2c-1.3618-8.4985-17.28-19.383-18.637-23.458,4.0754-0.39759,4.6569-5.2681,2.9124-7.0076-1.3617-1.3419-4.6618-0.59639-6.4062,1.1928-1.7494,2.1371-3.4938,7.1567,2.1321,11.431,5.8247,4.2741,13.205,12.027,15.536,17.842"/>
<path stroke-linejoin="round" d="m214.38,234.5c11.063-3.3298,25.043-1.7395,34.75-2.7334" stroke-linecap="round"/>
<path stroke-linejoin="round" d="m232.44,218.2c11.451-2.5347,25.043,0,34.943,0" stroke-linecap="round"/>
<path stroke-linejoin="round" d="m260.2,201.85c11.451-2.0874,25.043,0.59639,34.943,0.59639" stroke-linecap="round"/>
<path stroke-linejoin="round" d="m283.49,184.01c11.65-0.94428,24.85,3.3298,34.556,4.4729" stroke-linecap="round"/>
<path stroke-linejoin="round" d="m313,171.98c11.644-0.39759,24.656,4.4729,34.362,6.2124" stroke-linecap="round"/>
<path stroke-linejoin="round" d="m345.42,163.03c11.649,1.1928,23.686,8.5482,32.811,11.48" stroke-linecap="round"/>
</g>
<use xlink:href="#l" transform="matrix(-1,0,0,1,832.76091,0)"/>
<g stroke-linejoin="round" stroke="#000" stroke-linecap="round" stroke-width="3">
<path d="m416.49,190.46c9.1248,0,16.888,0,22.519-0.74549v-13.021c0-4.2741,15.143-9.3434,38.05-4.8705,89.692,17.494,101.92,58.049,170.07,81.357,0.7753,0.1988,3.3,0.99399,6.2124,1.5407,1.7494-4.0753,3.6877-8.1506,5.8247-13.17,1.163-3.7274,11.068-3.5286,19.8,0.54669,10.099,4.8705,14.562,10.487,12.817,13.419-1.7494,4.2741-3.4988,7.7531-5.0494,11.232,15.919,5.6657,44.843,14.214,35.331,52.433-7.3754-7.1567-25.237-14.959-36.3-14.959-12.619,0-26.211-4.8208-21.937-18.637-2.3309-1.1431-6.4112-3.2801-8.5433-3.6777-0.38765,1.1928-0.96913,2.3358-1.5556,3.4789-2.9124,7.2064-15.531,9.741-28.15,5.4669-71.055-24.253-92.992-77.878-176.86-78.624v2.3359c0,6.7591-8.7371,12.971-32.225,12.971-23.299,0-32.225-6.2124-32.225-12.971v-2.3359c-83.673,0.54669-105.81,54.172-176.86,78.624-12.425,4.2741-25.043,1.5407-28.15-5.4669-0.3926-1.1431-0.9741-2.2862-1.5556-3.4789-2.1371,0.39759-6.2124,2.5346-8.5433,3.6777,4.0803,13.618-9.1247,18.637-21.937,18.637-11.063,0-28.731,7.8028-36.3,14.959-9.5124-38.02,19.025-46.568,35.331-52.433-1.5556-3.4789-3.1062-6.9579-5.0494-11.232-1.5506-2.9322,2.7185-8.5482,12.812-13.419,8.7371-4.2741,18.443-4.4729,19.805-0.54669,2.1371,4.8208,3.8815,8.8961,5.8247,13.17,2.9124-0.54669,5.2383-1.3419,6.2124-1.5407,67.949-23.309,80.373-63.863,170.06-81.357,22.717-4.4729,38.055,0.59639,38.055,4.8705v13.021c5.6309,0.54669,13.394,0.74549,22.519,0.74549z" fill="#fff"/>
<path d="m393.78,189.71c-6.0185-0.59639-9.5124-1.9383-9.5124-4.2741,0-5.8148,9.5124-3.8765,9.5124-8.747" fill="#fff"/>
<path d="m165.27,253.58c3.4939,8.3494,7.9618,19.035,12.037,28.13" fill="#fff"/>
<path d="m156.73,257.85c3.4938,8.1506,10.099,22.116,12.037,27.931" fill="#fff"/>
<path d="m140.62,255.71c2.3309,4.0753,14.562-1.9383,16.112,1.9383,1.3617,4.0753-2.326,6.2124-10.869,9.2937" fill="none"/>
<path d="m173.43,241.55c1.7444,5.2184-10.487,7.3555-7.9618,12.027,1.5555,3.0813,8.3494,2.1371,13.786,0.94428" fill="none"/>
<path d="m384.06,185.24v26.987" fill="#fff"/>
<path d="m439.2,189.71c5.8247-0.59639,9.5124-1.9383,9.5124-4.2741,0-5.8148-9.5124-3.8765-9.5124-8.747" fill="#fff"/>
<path d="m667.7,253.58c-3.4938,8.3494-7.9618,19.035-12.037,28.13" fill="#fff"/>
<path d="m676.24,257.85c-3.4988,8.1506-10.099,22.116-12.037,27.931" fill="#fff"/>
<path d="m692.36,255.71c-2.3309,4.0753-14.562-1.9383-16.112,1.9383-1.3618,4.0753,2.3259,6.2124,10.869,9.2937" fill="none"/>
<path d="m659.55,241.55c-1.7444,5.2184,10.487,7.3555,7.9618,12.027-1.5556,3.0813-8.3494,2.1371-13.787,0.94428" fill="none"/>
<path d="m448.91,185.24v26.987" fill="#fff"/>
</g>
<g fill="#000">
<path d="m203.96,281.77-7.5228-26.884,9.371-2.6222c2.3962-0.67048,4.1754-0.90797,5.3375-0.71245,1.1621,0.19558,2.24,0.79699,3.2337,1.8042,0.99372,1.0073,1.7232,2.3423,2.1885,4.005,0.58839,2.1028,0.55789,3.9372-0.0915,5.5031-0.64943,1.566-1.8571,2.774-3.623,3.624,1.1452,0.41781,2.1433,0.94598,2.9943,1.5845,0.85099,0.63855,2.1086,1.8587,3.7729,3.6605l4.145,4.4956-5.2998,1.483-4.8645-4.9468c-1.7533-1.79-2.9122-2.8928-3.4766-3.3083-0.56449-0.41549-1.1072-0.65911-1.6283-0.73085-0.52103-0.0717-1.295,0.0361-2.322,0.32346l-0.91692,0.25658,3.1405,11.223zm0.0967-16.756,3.3009-0.92368c2.0172-0.56444,3.2761-1.0123,3.7767-1.3435,0.50054-0.3312,0.84671-0.81367,1.0385-1.4474,0.19178-0.63369,0.16281-1.3968-0.0869-2.2893-0.23948-0.85577-0.60307-1.4956-1.0908-1.9194-0.48772-0.42378-1.0524-0.65138-1.6939-0.68281-0.45331-0.0181-1.6764,0.25158-3.6691,0.80918l-3.4843,0.97499z"/>
<path d="m228.67,274.55-12.392-25.016,15.221-7.5399,2.0963,4.2319-11.092,5.4943,2.7472,5.5459,10.307-5.1055,2.0878,4.2148-10.307,5.1055,3.3726,6.8086,11.467-5.6802,2.0878,4.2148z"/>
<path d="m248.81,263.92-15.128-23.463,6.2419-4.0244c2.326-1.4997,3.9187-2.3679,4.7781-2.6048,1.3756-0.37327,2.8159-0.20681,4.3211,0.49941,1.5052,0.70627,2.8597,1.993,4.0636,3.8602,1.0938,1.6965,1.6904,3.3247,1.7897,4.8844,0.0993,1.5598-0.18153,2.8813-0.84256,3.9646-0.66105,1.0833-2.1652,2.3816-4.5126,3.8951l-2.5448,1.6407,5.7064,8.8507zm-8.6953-21.991,4.2927,6.658,2.1446-1.3827c1.4404-0.92868,2.354-1.6612,2.7408-2.1976,0.38678-0.53636,0.57529-1.1752,0.56553-1.9167-0.01-0.74139-0.26229-1.4962-0.7576-2.2645-0.50219-0.77888-1.096-1.325-1.7814-1.6384-0.6854-0.31333-1.3373-0.39904-1.9558-0.25713-0.61843,0.14197-1.7386,0.73576-3.3604,1.7814z"/>
<path d="m250.55,229.77,3.7777-2.6394,8.6599,12.395c1.3452,1.9253,2.2682,3.1466,2.769,3.6639,0.87181,0.89314,1.8152,1.3955,2.8302,1.5072,1.015,0.11167,2.0376-0.19243,3.0679-0.91228,0.87417-0.61076,1.4507-1.304,1.7296-2.0796,0.27888-0.77561,0.27803-1.5803-0.003-2.4142-0.28061-0.83382-1.2171-2.3903-2.8095-4.6694l-8.8453-12.66,3.7933-2.6503,8.3982,12.02c2.145,3.07,3.5316,5.4038,4.16,7.0013,0.62832,1.5976,0.66382,3.2221,0.10648,4.8737-0.55737,1.6516-1.7779,3.1355-3.6615,4.4515-1.9565,1.367-3.7291,2.0828-5.3178,2.1474-1.5887,0.0647-3.0756-0.36776-4.4606-1.2972s-3.2737-3.1061-5.6659-6.5299z"/>
<path d="m269.82,215.83,7.7026-4.9568c2.1031-1.3534,3.7054-2.1127,4.8068-2.2781,1.1014-0.16525,2.2582,0.0489,3.4706,0.64253,1.2124,0.59366,2.2136,1.5043,3.0036,2.732,0.72823,1.1317,1.1352,2.3153,1.2208,3.551s-0.13105,2.33-0.65005,3.283c1.4034-0.32941,2.744-0.21086,4.022,0.35565,1.2779,0.56654,2.3703,1.5544,3.2772,2.9636,1.0992,1.7081,1.6174,3.4165,1.5545,5.1252s-0.5655,3.0625-1.5078,4.0614c-0.65568,0.6937-2.4034,1.9543-5.2431,3.7817l-6.5496,4.2148zm6.3898,1.4135,3.4935,5.4286,2.5622-1.6488c1.5373-0.98929,2.4703-1.6274,2.7989-1.9144,0.59319-0.53269,0.93062-1.1461,1.0123-1.8403,0.0817-0.69415-0.12826-1.4309-0.62978-2.2103-0.44656-0.6939-0.96109-1.1591-1.5436-1.3957-0.5825-0.23654-1.1243-0.26908-1.6254-0.0976-0.50107,0.17151-1.7765,0.91678-3.8262,2.2358zm6.008,9.336,4.0396,6.2774,3.6031-2.3187c1.58-1.0168,2.541-1.7522,2.8829-2.2062,0.34189-0.45401,0.50867-1.0218,0.50035-1.7034-0.008-0.68153-0.25297-1.396-0.73387-2.1433-0.49466-0.76864-1.0645-1.2964-1.7096-1.5833-0.64508-0.28686-1.2973-0.35025-1.9566-0.19015-0.65936,0.16014-1.8217,0.77607-3.4872,1.8478z"/>
<path d="m302.8,227.14-12.79-24.557,4.0873-2.1288,10.617,20.386,10.201-5.3131,2.1727,4.1717z"/>
<path d="m320.09,217.81-10.795-25.746,4.25-1.7819,10.795,25.746z"/>
<path d="m338.51,201.14,4.784,0.37732c0.22632,3.1921-0.23237,5.7114-1.3761,7.5576-1.1438,1.8463-2.8528,3.1097-5.1272,3.7902-2.8582,0.85525-5.5045,0.44783-7.9389-1.2222-2.8039-1.9305-4.8519-5.0547-6.1438-9.3724-1.3648-4.5609-1.4052-8.4381-0.12125-11.632,1.1182-2.7728,3.1855-4.6106,6.2018-5.5132,2.4568-0.73512,4.7634-0.51095,6.9197,0.67249,1.5364,0.83894,2.9295,2.3502,4.1792,4.5338l-3.9964,2.5872c-0.71282-1.3636-1.6014-2.3069-2.6656-2.83-1.0642-0.523-2.1619-0.61528-3.293-0.27685-1.6176,0.48406-2.7262,1.5844-3.3256,3.3009-0.59949,1.7166-0.41338,4.1985,0.55832,7.4459,1.0081,3.369,2.2237,5.6158,3.6468,6.7404s2.9313,1.4485,4.5246,0.97175c1.1676-0.34937,2.0415-1.1045,2.6218-2.2654,0.58023-1.1608,0.76408-2.7828,0.55156-4.866z"/>
<path d="m368.64,204.55-4.9417,0.92399-3.1309-5.8658-8.9849,1.68-0.68766,6.5798-4.8294,0.90299,3.6294-29.079,4.8107-0.89949zm-10.397-9.2923-4.9926-9.6054-1.1471,10.753z"/>
<path d="m397.3,193.94,8.2084,0.6235c2.0753,0.15766,3.6234,0.50821,4.6444,1.0516,1.021,0.54347,1.9344,1.3987,2.7403,2.5656,0.80586,1.167,1.3954,2.6468,1.7687,4.4393,0.3732,1.7926,0.46082,3.9921,0.26287,6.5985-0.17831,2.347-0.59895,4.3682-1.2619,6.0634-0.66302,1.6952-1.4406,3.0183-2.3328,3.9693-0.89225,0.951-1.9353,1.639-3.1292,2.0639-1.1939,0.42491-2.6988,0.5684-4.5147,0.43047l-8.4493-0.64181zm4.135,4.9358-1.3666,17.992,3.3723,0.25617c1.4453,0.10978,2.5025,0.0535,3.1717-0.16909,0.66915-0.22249,1.2315-0.59287,1.6871-1.1112,0.45557-0.51826,0.86427-1.36,1.2261-2.5252,0.36182-1.1652,0.6164-2.7175,0.76374-4.6569,0.15292-2.0135,0.13452-3.6114-0.0552-4.7937-0.18974-1.1822-0.55266-2.1292-1.0887-2.8408-0.53611-0.7116-1.2162-1.2043-2.0402-1.4781-0.61781-0.20842-1.8285-0.38114-3.632-0.51815z"/>
<path d="m420.77,222.48-1.7234-27.188,16.542-1.0486,0.29154,4.5992-12.054,0.76411,0.38206,6.0272,11.201-0.71004,0.29036,4.5807-11.201,0.71002,0.46904,7.3996,12.462-0.78998,0.29036,4.5807z"/>
<path d="m471.17,196.46,4.3783,1.9646c-0.86066,3.0823-2.14,5.3004-3.8382,6.6543-1.6982,1.354-3.7326,1.9688-6.1034,1.8447-2.9793-0.15605-5.3344-1.4299-7.0652-3.8216-1.9911-2.7612-2.8688-6.3922-2.6331-10.893,0.24901-4.7542,1.5152-8.4191,3.7985-10.995,1.9858-2.2351,4.5508-3.2703,7.695-3.1057,2.5609,0.13416,4.6577,1.1212,6.2902,2.961,1.1647,1.3069,1.9682,3.1986,2.4106,5.6754l-4.6338,1.0921c-0.21259-1.5239-0.73201-2.7112-1.5583-3.5617-0.82629-0.85051-1.829-1.3066-3.008-1.3684-1.6862-0.0883-3.1002,0.57498-4.2422,1.9898-1.142,1.4149-1.8016,3.8148-1.9789,7.1998-0.18394,3.5118,0.20504,6.0366,1.1669,7.5743,0.96189,1.5378,2.2732,2.3502,3.9341,2.4371,1.2171,0.0637,2.2941-0.35338,3.231-1.2514,0.93691-0.89802,1.6557-2.3636,2.1563-4.3969z"/>
<path d="m481.46,193.93c0.79449-3.2299,1.9264-5.7721,3.3959-7.6267,1.4694-1.8545,3.1004-3.1039,4.8931-3.7481,1.7927-0.64413,3.7862-0.69632,5.9805-0.15657,3.1806,0.7824,5.4738,2.6343,6.8797,5.5556,1.4058,2.9214,1.5569,6.6257,0.4531,11.113-1.116,4.5366-3.048,7.8201-5.7961,9.8504-2.4165,1.7981-5.2211,2.3044-8.414,1.519-3.2176-0.79148-5.4827-2.5318-6.7953-5.2211-1.4927-3.0734-1.6917-6.8353-0.59694-11.286zm4.6684,0.95225c-0.76722,3.119-0.75089,5.6037,0.049,7.4543,0.79986,1.8506,2.0751,2.9912,3.8256,3.4218,1.7629,0.43364,3.414,0.0194,4.9534-1.2427s2.7033-3.4958,3.4917-6.701c0.77325-3.1436,0.78087-5.6061,0.0229-7.3876-0.75806-1.7814-2.0493-2.8966-3.8738-3.3454-1.8245-0.44878-3.4965-0.056-5.016,1.1783s-2.6704,3.4418-3.4528,6.6223z"/>
<path d="m505.57,205.27,4.3628,1.2723c-0.92616,3.4823-0.092,5.7739,2.5024,6.8749,1.2855,0.54554,2.439,0.63855,3.4604,0.27903,1.0214-0.35953,1.7429-1.036,2.1645-2.0293,0.24796-0.58432,0.33019-1.1356,0.24669-1.6537-0.0835-0.51814-0.33246-1.0203-0.74674-1.5064-0.41432-0.48612-1.5009-1.4679-3.2598-2.9452-1.5783-1.318-2.6518-2.4769-3.2204-3.4768-0.56866-0.99983-0.87939-2.1281-0.93219-3.3848s0.17621-2.4869,0.68704-3.6906c0.59513-1.4024,1.4492-2.5294,2.5622-3.381,1.113-0.85159,2.352-1.3257,3.7169-1.4222s2.8713,0.20487,4.5191,0.90414c2.4775,1.0514,4.1265,2.5442,4.9468,4.4783,0.82033,1.9341,0.74074,4.169-0.23876,6.7046l-4.3564-1.5798c0.39821-1.4583,0.40419-2.5936,0.0179-3.4057-0.38631-0.81211-1.1521-1.4612-2.2974-1.9472-1.1453-0.48601-2.1293-0.62088-2.952-0.4046-0.82274,0.21631-1.3854,0.68089-1.6879,1.3938-0.29758,0.70121-0.26756,1.4104,0.0901,2.1276,0.3576,0.71722,1.4258,1.7911,3.2046,3.2218,1.8758,1.527,3.1448,2.8344,3.8072,3.9222,0.66229,1.0879,1.0153,2.2789,1.0591,3.5732s-0.26169,2.7127-0.91632,4.2553c-0.94729,2.2321-2.4299,3.8164-4.4478,4.7529s-4.4877,0.78481-7.4093-0.45506c-5.1654-2.1921-6.793-6.3513-4.8827-12.478z"/>
<path d="m527.08,225.29,11.3-20.255-5.9369-3.3122,2.3009-4.1242,15.882,8.8602-2.3009,4.1242-5.9203-3.3029-11.3,20.255z"/>
<path d="m556.83,243.82-4.2045-2.7561,1.8042-6.3996-7.6446-5.0111-5.0531,4.2699-4.109-2.6934,22.758-18.462,4.0931,2.683zm-1.064-13.904,3.0514-10.386-8.2752,6.9622z"/>
<path d="m566.04,250.48,15.933-22.924,7.9905,5.5537c2.0432,1.4201,3.3596,2.6404,3.9491,3.6608,0.58944,1.0204,0.81243,2.2344,0.66895,3.6421-0.14353,1.4077-0.70798,2.8204-1.6933,4.2381-1.2462,1.793-2.6798,2.938-4.3006,3.4348-1.6208,0.49683-3.3213,0.33533-5.1015-0.48453,0.40735,1.1489,0.63595,2.2548,0.68581,3.3175,0.0498,1.0628-0.0897,2.8095-0.41854,5.2401l-0.82533,6.059-4.5191-3.1409,0.71487-6.901c0.26311-2.4918,0.37505-4.0876,0.33581-4.7874-0.0393-0.69982-0.1972-1.2734-0.47377-1.7207-0.2766-0.44734-0.85273-0.97531-1.7284-1.5839l-0.78185-0.54342-6.6514,9.5698zm12.979-10.599,2.8147,1.9563c1.72,1.1955,2.8672,1.8807,3.4414,2.0556,0.57415,0.1749,1.1666,0.13444,1.7773-0.12138,0.61066-0.2558,1.1805-0.76421,1.7094-1.5252,0.50716-0.72972,0.76877-1.4176,0.78484-2.0635,0.016-0.64591-0.16819-1.2262-0.55262-1.7408-0.27476-0.36101-1.2617-1.132-2.9609-2.313l-2.971-2.065z"/>
<path d="m584.91,263.5,15.362-23.31,3.848,2.5359-15.362,23.31z"/>
<path d="m610.21,266.99,3.0243,3.726c-2.1566,2.3643-4.298,3.7684-6.4239,4.2125-2.126,0.444-4.2194,0.0767-6.2801-1.102-2.5898-1.4812-4.1187-3.6792-4.5868-6.5941-0.53408-3.3621,0.31766-6.9992,2.5552-10.911,2.3636-4.1325,5.1447-6.8344,8.3433-8.1054,2.7797-1.1012,5.536-0.87019,8.2691,0.69292,2.226,1.2732,3.6536,3.0988,4.2825,5.4768,0.45124,1.6914,0.3166,3.7423-0.40393,6.1528l-4.6291-1.1119c0.49656-1.4564,0.56753-2.7503,0.21291-3.8818-0.35467-1.1315-1.0444-1.9904-2.0693-2.5766-1.4657-0.83828-3.027-0.88298-4.6838-0.1341-1.6568,0.7489-3.3267,2.5945-5.0096,5.5369-1.7459,3.0526-2.5358,5.482-2.3696,7.2882s0.97113,3.1222,2.4148,3.9478c1.0579,0.60508,2.2074,0.71772,3.4484,0.33793,1.241-0.3798,2.5428-1.3646,3.9055-2.9545z"/>
<path d="m631.84,287.24-4.7086-1.7617,0.34935-6.6399-8.5611-3.203-3.9878,5.2786-4.6016-1.7216,18.13-23.024,4.5837,1.7149zm-4.1022-13.327,0.6872-10.804-6.5373,8.6148z"/>
</g>
<g fill="#000" transform="matrix(0.9999673,0.00808754,-0.00808754,0.9999673,3.6454474,-3.3398015)">
<path d="m303.93,24.366-3.8621,1.7833-3.7854-4.1622-7.022,3.2423,0.80105,5.5402-3.7743,1.7427-3.056-24.608,3.7597-1.736zm-10.457-5.4655-6.0884-6.8437,1.29,9.0593z"/>
<path d="m305.87,23.755-7.5803-22.373,5.5398-1.877,8.4977,14.134-1.8744-16.378,5.555-1.8822,7.5803,22.373-3.4338,1.1634-5.967-17.611,2.3196,18.847-3.5711,1.21-9.5839-16.386,5.967,17.611z"/>
<path d="m327.38,16.751-5.837-22.89,13.927-3.5516,0.98743,3.8722-10.149,2.588,1.294,5.0744,9.4306-2.4049,0.98345,3.8566-9.4306,2.4049,1.5886,6.2298,10.492-2.6756,0.98344,3.8566z"/>
<path d="m344.9,12.402-4.384-23.212,8.0908-1.5281c2.0689-0.39073,3.586-0.46136,4.5515-0.21191,0.9654,0.2495,1.8303,0.835,2.5947,1.7565,0.76437,0.92153,1.2821,2.1001,1.5533,3.5356,0.34289,1.8156,0.18359,3.3598-0.4779,4.6326-0.66151,1.2728-1.7676,2.2032-3.3182,2.7913,0.93497,0.43562,1.7379,0.95356,2.4088,1.5538,0.67089,0.60028,1.6422,1.7205,2.9141,3.3606l3.1669,4.0917-4.5758,0.86424-3.7406-4.5245c-1.3477-1.6367-2.2443-2.6508-2.6899-3.0422-0.44562-0.39137-0.88543-0.63627-1.3194-0.73469-0.43401-0.098397-1.0944-0.063869-1.981,0.10359l-0.79167,0.14952,1.8302,9.69zm1.3017-14.119,2.85-0.53828c1.7417-0.32894,2.8355-0.6148,3.2816-0.85758,0.44608-0.24275,0.77304-0.62427,0.98089-1.1446,0.20782-0.52025,0.23897-1.1657,0.0935-1.9362-0.13957-0.73887-0.39949-1.3047-0.77976-1.6975-0.3803-0.39277-0.83972-0.62576-1.3783-0.69898-0.38082-0.048306-1.4315,0.090012-3.1521,0.41495l-3.0083,0.56819z"/>
<path d="m364,9.0085-3.3917-23.377,3.859-0.55989,3.3917,23.377z"/>
<path d="m383.02-2.0515,3.918,1.0665c-0.31416,2.6895-1.092,4.7118-2.3334,6.0668s-2.8612,2.1365-4.8591,2.3444c-2.5109,0.26127-4.6469-0.49388-6.408-2.2655-2.0274-2.0463-3.2384-4.9659-3.6331-8.7589-0.41692-4.0067,0.15961-7.2365,1.7296-9.6895,1.366-2.1294,3.374-3.3319,6.0237-3.6077,2.1583-0.22456,4.0406,0.32478,5.6472,1.648,1.1453,0.93926,2.0657,2.4149,2.7611,4.427l-3.7297,1.5221c-0.37806-1.2459-0.96833-2.17-1.7708-2.7723-0.80249-0.60229-1.7006-0.85174-2.6942-0.74837-1.421,0.14789-2.5158,0.88822-3.2844,2.221-0.76853,1.3328-1.0044,3.4256-0.70752,6.2783,0.30797,2.9596,0.96505,5.0189,1.9713,6.1778s2.2091,1.6656,3.6088,1.5199c1.0257-0.10673,1.8711-0.597,2.5362-1.4708,0.66508-0.87381,1.0732-2.1934,1.2243-3.9588z"/>
<path d="m408.46,5.1278-4.249,0.20416-1.9475-5.2783-7.7255,0.3712-1.3359,5.4361-4.1524,0.19952,6.3986-23.957,4.1363-0.19874zm-7.6429-8.9893-3.0763-8.6279-2.2028,8.8816z"/>
<path d="m430.7-3.273,3.7478,1.5629c-0.65838,2.6266-1.6904,4.5317-3.0962,5.7152-1.4058,1.1836-3.1128,1.7497-5.1209,1.6982-2.5236-0.064701-4.5444-1.089-6.0624-3.0729-1.7466-2.2906-2.571-5.3421-2.4732-9.1543,0.10325-4.027,1.0915-7.1555,2.9647-9.3856,1.6292-1.9354,3.7754-2.869,6.4386-2.8007,2.1692,0.05564,3.965,0.84313,5.3875,2.3625,1.0146,1.0791,1.737,2.6611,2.1672,4.7461l-3.8948,1.0284c-0.21424-1.2842-0.68041-2.2767-1.3985-2.9775-0.71813-0.70074-1.5765-1.0639-2.5752-1.0896-1.4282-0.0366-2.6094,0.55637-3.5433,1.7789-0.93399,1.2226-1.4377,3.2675-1.5112,6.1347-0.0763,2.9746,0.30977,5.1014,1.1581,6.3804,0.84835,1.279,1.9759,1.9365,3.3827,1.9726,1.0309,0.026434,1.9325-0.35073,2.7047-1.1315,0.77221-0.78075,1.3471-2.0367,1.7246-3.7678z"/>
<path d="m437.61,5.7109,1.8513-23.549,14.329,1.1264-0.31318,3.9838-10.441-0.82084-0.41042,5.2207,9.7025,0.76275-0.31192,3.9677-9.7025-0.76275-0.50387,6.4094,10.795,0.84862-0.31192,3.9677z"/>
<path d="m455.63,7.2124,3.1534-23.411,3.7687,0.50764,5.7509,16.692,2.1058-15.634,3.609,0.48613-3.1534,23.411-3.8964-0.52485-5.6726-16.308-2.0564,15.266z"/>
<path d="m479.2,10.781,3.7076-19.273-5.6489-1.0867,0.75493-3.9241,15.111,2.9071-0.75492,3.9241-5.633-1.0837-3.7076,19.273z"/>
<path d="m491.19,13.152,5.851-22.886,7.9773,2.0395c2.0398,0.52153,3.4443,1.0996,4.2135,1.7342,0.76911,0.63462,1.305,1.5311,1.6076,2.6895,0.30256,1.1584,0.27292,2.4453-0.0889,3.8607-0.45767,1.7901-1.2555,3.1218-2.3935,3.995-1.138,0.87328-2.5339,1.2482-4.1876,1.1248,0.66276,0.79036,1.1711,1.5994,1.5249,2.4272,0.35383,0.8278,0.75985,2.2538,1.2181,4.278l1.1378,5.0475-4.5116-1.1534-1.4744-5.6824c-0.53-2.0535-0.92-3.3517-1.16-3.8949-0.23-0.5432-0.53-0.9512-0.88-1.224-0.35-0.2729-0.97-0.521-1.84-0.7445l-0.78056-0.19956-2.4426,9.554zm7.1544-12.241,2.81,0.7184c1.7172,0.43903,2.8293,0.64296,3.3362,0.61177,0.5069-0.031164,0.9646-0.23846,1.3731-0.6219,0.40846-0.38342,0.70982-0.955,0.90407-1.7148,0.18624-0.72851,0.1902-1.3512,0.0119-1.868-0.17834-0.5168-0.496-0.92233-0.95297-1.2166-0.3246-0.20493-1.3351-0.52426-3.0315-0.95797l-2.9661-0.75831z"/>
<path d="m526.64,23.643-4.0343-1.3493,0.0974-5.6253-7.335-2.4532-3.2148,4.5827-3.9426-1.3186,14.644-20.01,3.9273,1.3135zm-3.8664-11.148,0.25889-9.1563-5.2711,7.4799z"/>
<path d="m528.64,24.498,9.2313-21.533,3.584,1.5364-7.6631,17.875,8.9451,3.8347-1.5682,3.658z"/>
</g>
</g>
</g>
</g>
</svg>
