<?xml version="1.0" encoding="utf-8"?>
<!-- Generator: Adobe Illustrator 16.0.0, SVG Export Plug-In . SVG Version: 6.00 Build 0)  -->
<!DOCTYPE svg PUBLIC "-//W3C//DTD SVG 1.1//EN" "http://www.w3.org/Graphics/SVG/1.1/DTD/svg11.dtd">
<svg version="1.1" id="Layer_1" xmlns="http://www.w3.org/2000/svg" xmlns:xlink="http://www.w3.org/1999/xlink" x="0px" y="0px"
	 width="322.793px" height="379.84px" viewBox="0 0 322.793 379.84" enable-background="new 0 0 322.793 379.84"
	 xml:space="preserve">
<g>
	<path fill="#9C824A" stroke="#9C824A" stroke-width="0.793" stroke-miterlimit="282" d="M161.396,0.396
		c-38.436,0-109.309,9.944-145.402,30.932C-31.526,199.803,33.101,314.37,161.396,379.396
		c128.296-65.026,192.923-180.16,145.402-348.067C270.669,10.34,199.831,0.396,161.396,0.396L161.396,0.396z"/>
	<path fill="#023474" stroke="#023474" stroke-width="0.793" stroke-miterlimit="282" d="M161.396,11.228
		c-37.761,0-80.278,4.83-135.962,27.558c-41.452,147.061,6.637,264.931,135.962,329.174
		c129.325-64.243,177.378-182.114,135.926-329.174C241.638,16.058,199.157,11.228,161.396,11.228L161.396,11.228z"/>
	<path fill="#FFFFFF" stroke="#FFFFFF" stroke-width="0.793" stroke-miterlimit="282" d="M161.219,11.086
		c-37.584,0-77.936,5.575-114.349,19.355C9.109,181.018,36.969,290.967,161.432,367.854L161.219,11.086L161.219,11.086z
		 M161.432,367.854c124.462-76.887,152.287-186.836,114.525-337.413c-36.412-13.78-76.729-19.355-114.312-19.355L161.432,367.854
		L161.432,367.854z"/>
	<path fill="#EF0107" stroke="#EF0107" stroke-width="0.793" stroke-miterlimit="282" d="M161.432,11.051
		c-37.797,0-76.055,5.717-107.144,16.548c-39.11,157.822-7.702,264.397,107.179,337.235L161.432,11.051L161.432,11.051z"/>
	<path fill="#DB0007" stroke="#DB0007" stroke-width="0.793" stroke-miterlimit="282" d="M161.503,11.051
		c37.796,0,76.055,5.717,107.179,16.548c39.11,157.822,7.701,264.397-107.214,337.235L161.503,11.051L161.503,11.051z"/>
	<path fill="#FFFFFF" d="M112.598,249.203c-16.68,11.437-29.953,15.556-45.356,19.64l-9.298-14.454
		c14.161-7.173,28.818-17.153,43.582-31.606C102.768,236.809,109.297,246.752,112.598,249.203L112.598,249.203z"/>
	<path fill="#9C824A" d="M110.326,248.6c-15.828,10.866-37.868,18.431-63.101,22.124l-5.146-7.812
		c21.613-8.099,42.481-20.172,58.665-37.147C103.193,236.631,106.919,243.841,110.326,248.6L110.326,248.6z"/>
	<path fill="#FFFFFF" d="M68.165,182.225c0,6.073-4.897,10.974-10.966,10.974s-11.002-4.901-11.002-10.974l0,0
		c0-6.073,4.933-10.973,11.002-10.973S68.165,176.152,68.165,182.225L68.165,182.225z"/>
	<path fill="#FFFFFF" d="M66.993,160.597v41.409h32.615c2.129-13.886,10.008-28.624,27.859-41.409H66.993"/>
	<path fill="#FFFFFF" d="M68.307,202.006c-7.276,0.106-13.273-9.021-13.38-20.456c-0.071-11.436,5.75-20.811,13.061-20.953
		c0.071,0,0.142,0,0.249,0"/>
	<path fill="#9C824A" d="M63.551,182.225c0,4.688-3.407,8.453-7.595,8.453c-4.188,0-7.595-3.764-7.595-8.453l0,0
		c0-4.688,3.407-8.452,7.595-8.452C60.144,173.772,63.551,177.537,63.551,182.225L63.551,182.225z"/>
	<path fill="#9C824A" d="M67.881,162.764v37.217h32.367c2.555-12.358,8.837-25.498,24.523-37.217H67.881"/>
	<path fill="#9C824A" d="M69.087,199.981c-6.85,0.143-12.457-8.096-12.563-18.36c-0.071-10.263,5.43-18.716,12.279-18.857
		c0.071,0,0.142,0,0.213,0"/>
	<path fill="#FFFFFF" d="M223.325,211.701c0,34.556-27.965,62.539-62.497,62.539c-34.496,0-62.497-27.983-62.497-62.539l0,0
		c0-34.554,28.001-62.539,62.497-62.539C195.36,149.162,223.325,177.147,223.325,211.701L223.325,211.701L223.325,211.701z"/>
	<path fill="#9C824A" d="M220.062,211.701c0,32.744-26.512,59.271-59.233,59.271c-32.686,0-59.197-26.527-59.197-59.271l0,0
		c0-32.707,26.511-59.271,59.197-59.271C193.55,152.429,220.062,178.958,220.062,211.701L220.062,211.701L220.062,211.701z"/>
	<path fill="#FFFFFF" d="M210.23,211.701c0,27.31-22.111,49.436-49.402,49.436c-27.256,0-49.366-22.126-49.366-49.436l0,0
		c0-27.31,22.11-49.435,49.366-49.435C188.119,162.266,210.23,184.391,210.23,211.701L210.23,211.701L210.23,211.701z"/>
	<path fill="#9C824A" d="M206.966,211.701c0,25.498-20.656,46.132-46.138,46.132c-25.446,0-46.101-20.634-46.101-46.132l0,0
		c0-25.498,20.655-46.131,46.101-46.131C186.31,165.569,206.966,186.203,206.966,211.701L206.966,211.701L206.966,211.701z"/>
	<path fill="#FFFFFF" d="M180.063,211.701c0.036,10.619-8.588,19.249-19.2,19.284c-10.646,0-19.271-8.629-19.271-19.248v-0.036
		c0-10.619,8.589-19.248,19.235-19.248c10.611-0.035,19.235,8.595,19.235,19.213C180.063,211.701,180.063,211.701,180.063,211.701
		L180.063,211.701z"/>
	<path fill="#9C824A" d="M177.793,211.701c0,9.377-7.561,16.976-16.929,16.976c-9.369,0-16.964-7.563-17-16.939v-0.036
		c0-9.375,7.595-16.976,16.964-16.976s16.965,7.565,16.965,16.94V211.701L177.793,211.701z"/>
	<path fill="#FFFFFF" d="M169.559,211.701c0,4.794-3.904,8.7-8.73,8.735c-4.791,0-8.695-3.905-8.695-8.735l0,0
		c0-4.829,3.904-8.7,8.695-8.735C165.654,202.965,169.559,206.872,169.559,211.701L169.559,211.701L169.559,211.701z"/>
	<path fill="#9C824A" d="M167.146,211.701c0,3.48-2.804,6.321-6.317,6.321c-3.478,0-6.317-2.806-6.317-6.321l0,0
		c0-3.479,2.839-6.32,6.317-6.32C164.306,205.38,167.146,208.185,167.146,211.701L167.146,211.701L167.146,211.701z"/>
	<rect x="154.192" y="164.504" fill="#FFFFFF" width="13.131" height="30.647"/>
	<rect x="156.25" y="160.1" fill="#9C824A" width="9.049" height="38.958"/>
	<polygon fill="#FFFFFF" points="197.418,181.798 204.587,192.807 178.893,209.5 171.76,198.49 	"/>
	<polygon fill="#9C824A" points="202.21,181.124 207.143,188.724 174.492,209.961 169.559,202.326 	"/>
	<polygon fill="#FFFFFF" points="142.409,214.187 149.436,225.267 123.564,241.675 116.537,230.559 	"/>
	<polygon fill="#9C824A" points="146.81,213.548 151.672,221.219 118.809,242.065 113.946,234.394 	"/>
	<rect x="154.192" y="229.281" fill="#FFFFFF" width="13.131" height="30.646"/>
	<rect x="156.25" y="224.913" fill="#9C824A" width="9.049" height="38.922"/>
	<path fill="#EF0107" stroke="#EF0107" stroke-width="0.3115" stroke-miterlimit="282" d="M148.017,226.013
		c1.775,1.491,3.726,2.841,6.175,3.871l-0.071,27.345c-12.386-1.598-21.755-7.706-28.853-16.406l22.785-14.81"/>
	<path fill="#DB0007" stroke="#DB0007" stroke-width="0.3115" stroke-miterlimit="282" d="M173.604,226.12
		c-1.81,1.456-3.727,2.841-6.175,3.835l0.035,27.346c12.386-1.598,21.756-7.706,28.854-16.407l-22.749-14.773"/>
	<path fill="#DB0007" d="M179.815,214.649l27.114-3.268c0.213,6.782-1.42,12.749-3.727,18.467l-23.459-15.199"/>
	<path fill="#FFFFFF" stroke="#FFFFFF" stroke-width="0.3115" stroke-miterlimit="282" d="M179.851,214.542
		c0.106-0.426,0.071-0.816,0.249-2.059l26.76-3.48c0.106,1.243,0.035,1.704,0,2.272L179.851,214.542L179.851,214.542z"/>
	<path fill="#FFFFFF" d="M219.458,191.992h35.1c-1.101,4.154-2.166,8.38-7.206,10.263c-8.056,3.02-24.771,5.931-24.771,5.931
		C222.261,203.604,221.232,197.388,219.458,191.992L219.458,191.992z"/>
	<path fill="#FFFFFF" d="M195.006,159.994l91.705,0.106l-3.229,33.524l-62.64,3.268C217.47,181.905,206.077,167.594,195.006,159.994
		L195.006,159.994z"/>
	<path fill="#9C824A" d="M198.27,162.373l117.081,0.106l-4.472,27.311l-90.854,4.475C216.44,180.698,208.243,170.79,198.27,162.373
		L198.27,162.373z"/>
	<path fill="#9C824A" d="M219.458,191.992h32.33c-1.064,3.692-1.81,7.066-6.565,8.735c-7.559,2.699-22.784,4.83-22.784,4.83
		C221.8,201.119,220.877,196.608,219.458,191.992L219.458,191.992z"/>
	<path fill="#9C824A" d="M183.968,111.305c0,1.492-0.319,5.576-0.496,6.712h18.171c-1.102-4.831-1.599-11.542-1.74-16.727
		c0,0.355-0.319-10.406-0.319-10.406c0-0.746,0.319-1.882,0.78-2.237c0.64-0.746,1.279-0.746,2.06-0.746
		c0.78-0.355,2.2-0.355,2.377,2.593l0.462,11.151c0.177,5.22,0.177,12.288-0.462,16.372h17.497
		c-0.143-1.492-0.639-5.221-0.781-6.322c2.2,4.83,6.956,7.422,13.273,7.422c3.762,0,6.636-1.457,8.837-2.948
		c0,0.355,0.923,1.848,0.923,1.848h32.509c-1.42-4.831-2.343-11.542-2.839-16.727l-4.579-36.437l-16.716-2.983
		c1.421,4.83,2.379,11.897,2.981,16.727l2.555,23.439c0.462,4.084,0.782,8.559,0.782,13.388v0.355l-0.64-1.492
		c-1.277-2.983-1.881-6.676-2.378-12.252l-0.603-7.458c-0.958-11.897-7.417-17.083-21.649-17.083c-2.342,0-8.34,0.355-11.995,1.492
		l0.958,13.353l3.798-2.202c3.159-1.882,5.501-2.628,8.339-2.628c2.237,0,3.656,0.747,4.295,2.238
		c-2.696,0.39-5.679,1.136-9.014,2.592c-5.04,2.237-8.199,5.61-9.618,9.304v-0.355l-0.497-12.288
		c-0.283-7.813-5.358-12.998-13.096-12.998c-3.442,0-6.602,1.101-9.44,2.983c-0.177-0.391-0.319-0.747-0.497-1.137l-0.639-1.492
		l-14.516-0.746c0.639,2.628,1.598,10.051,1.74,12.644c-0.782-3.694-2.84-7.778-6.638-10.761c-2.98-1.882-6.778-2.983-10.717-2.983
		c-5.36,0-10.896,2.237-14.516,5.966c-3.797,3.693-5.679,8.914-5.856,14.845c-1.419-1.492-3.3-2.948-5.501-3.693l-6.637-3.374
		h-0.319c-1.561-0.747-1.739-1.102-1.739-1.457c0.178-0.746,1.739-1.492,3.798-1.492c2.839,0,6.779,1.492,9.937,3.339l0.319-11.897
		c-2.378-1.137-5.678-1.847-10.434-1.847c-2.52,0-7.24,0.355-11.357,2.592c-1.101,0.746-2.059,1.492-2.981,2.238l0.142-3.375
		c-3.797-0.71-7.879-0.71-12.919,4.12c-0.177-0.391-0.497-2.238-0.816-2.983l-15.615,0.746c1.1,4.44,1.277,10.761,0.958,16.337
		l-0.319,5.966v0.746c-0.178,2.983-0.319,6.321-0.639,9.304c-1.278-4.12-2.662-9.695-3.798-14.134l-7.736-34.945l-22.075,3.338
		c0.142,0.355,0.461,1.492,0.639,2.592c0.143,1.492,0.143,4.475-1.916,10.796c-3.62,10.016-8.66,25.286-13.557,36.046
		c-0.639,1.492-1.916,3.729-1.916,3.729h17.212c0.32-2.593,1.42-7.067,2.52-10.406c2.378,0,8.518,0,11.356-0.391
		c0.639,2.628,1.278,5.966,1.456,8.203l0.284,2.593h34.425c-0.781-5.576-0.462-12.999-0.177-17.118
		c0.319-4.83,1.277-8.168,3.336-10.015c1.561-1.882,3.3-2.237,4.578-2.237c-0.177,6.676,4.082,9.66,7.879,11.506l6.778,3.373
		c2.378,1.492,2.378,1.847,2.378,2.593c-0.142,1.101-2.059,1.492-3.797,1.492c-3.62,0-8.518-2.238-13.877-8.168l-0.319,15.59
		c4.259,2.237,9.618,3.338,14.374,3.338c7.879,0,16.254-3.694,18.455-10.761c3.939,7.422,11.676,10.761,19.271,10.761
		C174.492,118.372,179.531,116.169,183.968,111.305L183.968,111.305z M65.432,96.069c0.958-2.592,1.738-4.83,3.158-8.914
		c0.958,4.084,1.419,6.677,1.881,8.559C68.59,96.069,67.632,96.069,65.432,96.069L65.432,96.069z M162.035,91.985
		c0-5.185,1.881-7.422,3.763-7.422c0.639,0,2.058-0.391,2.696,2.237c0.319,1.101,0.461,1.847,0.461,2.202
		c0,1.492-0.78,1.882-1.738,1.882v0.355c0,0-2.662,0.746-5.182,1.882C162.035,92.731,162.035,92.376,162.035,91.985L162.035,91.985z
		 M180.028,102.781c-3.337,2.948-5.714,4.83-9.653,4.83c-3.158-0.391-5.04-2.238-6.14-4.83c3.301-1.136,16.077-5.966,19.732-7.458
		c0,2.983,0.143,6.321,0.143,6.321v6.322L180.028,102.781L180.028,102.781z M238.87,107.967c-2.98,0-3.62-2.238-3.762-3.694
		c0.142-1.492,0.603-3.729,5.358-5.22c0.143,1.847,0.319,3.338,0.319,3.338v1.491c0.143,1.136,0.143,2.237,0.284,3.338
		C240.467,107.611,239.687,107.611,238.87,107.967"/>
	<path fill="#FFFFFF" d="M143.225,78.597c-1.561-0.355-3.939-1.101-7.736-1.101c-2.981,0-6.921,0.746-9.938,2.238
		c-3.478,2.237-5.998,5.185-6.14,8.559c-0.319,5.185,2.378,7.422,6.317,9.269c2.662,1.492,5.217,2.983,6.779,3.729
		c2.058,1.101,3.939,2.237,3.797,4.83c-0.177,2.593-2.555,4.475-6.494,4.475c-3.301,0-8.021-2.237-11.357-5.221l-0.142,7.813
		c2.839,1.492,7.417,2.237,11.676,2.237c7.24,0,16.254-3.338,16.396-11.542c0.177-6.321-4.258-8.559-6.92-10.015
		c-2.697-1.136-5.395-2.627-6.636-2.983c-1.278-0.746-3.798-1.491-3.62-4.475c0.284-2.592,3.301-3.729,6.459-3.729
		c2.662,0,5.359,0.746,7.417,1.882"/>
	<path fill="#FFFFFF" d="M78.385,64.853L61.634,67.09c0.32,2.238-0.319,6.677-2.058,11.897
		c-3.442,10.015-9.121,26.741-13.558,36.436h10.435c0.603-3.373,1.384-6.321,2.981-10.405l15.474-0.391
		c0.603,2.983,1.739,7.813,1.881,10.796h14.054c-1.739-4.119-3.939-12.643-5.358-18.609L78.385,64.853L78.385,64.853z
		 M61.634,98.662l7.595-21.912l4.579,21.557"/>
	<path fill="#FFFFFF" d="M118.454,78.597l-0.319,7.458c-2.52-0.39-5.678,0.355-8.198,2.948c-2.201,2.237-3.62,5.576-3.939,11.542
		c-0.32,4.83-0.462,10.406-0.178,14.88H94.001c0.781-4.474,1.101-9.66,1.242-14.524l0.319-5.931c0.319-4.83,0.319-9.66-0.461-14.134
		l10.434-0.355c0.462,1.492,0.781,4.084,0.604,6.676C110.717,80.088,115.153,78.597,118.454,78.597"/>
	<path fill="#FFFFFF" d="M267.298,67.09l-10.754-1.882c1.101,4.866,1.42,8.204,2.059,13.033l2.521,23.404
		c0.496,4.83,0.958,9.305,0.815,13.779h11.677c-1.136-4.474-1.597-8.949-2.059-13.779"/>
	<path fill="#FFFFFF" d="M219.139,115.424c-0.604-4.474-0.924-8.949-1.102-13.779l-0.461-12.252
		c-0.319-6.712-4.116-10.405-10.434-10.405c-3.442,0-7.56,1.101-11.037,5.575c-0.142-1.136-0.639-4.084-1.277-5.575l-9.44-0.391
		c0.78,4.475,1.1,8.914,1.241,13.744l0.178,9.304c0.142,4.83,0,9.305-0.319,13.779h11.818c-0.604-4.474-0.923-8.949-1.101-13.779
		l-0.319-10.405c-0.142-3.729,2.697-6.322,5.537-6.322c3.3,0,4.897,2.237,5.04,5.576l0.496,11.151
		c0.143,4.83,0.143,9.305-0.177,13.779"/>
	<path fill="#FFFFFF" d="M256.083,115.424c-1.419-3.729-2.2-8.203-2.52-13.033l-0.64-7.423c-0.639-8.914-4.399-14.88-18.951-14.88
		c-2.52,0-6.14,0.391-9.12,1.101l0.461,6.712c2.98-1.847,5.998-3.338,9.795-3.338c3.939,0,7.24,1.847,7.56,7.422
		c-3.798,0.391-7.276,1.101-11.215,2.983c-4.4,1.847-8.979,5.576-8.518,11.506c0.461,6.712,5.536,9.695,11.854,9.695
		c4.897,0,8.198-2.237,10.079-4.474c0.319,1.491,0.816,2.592,1.277,3.729H256.083L256.083,115.424L256.083,115.424z M238.87,110.594
		c-3.479,0-6.316-1.882-6.459-5.966c0-4.084,2.52-7.422,10.576-8.559l0.462,6.322c0.177,2.237,0.177,3.729,0.496,5.576
		C242.811,109.458,240.929,110.204,238.87,110.594"/>
	<path fill="#FFFFFF" d="M175.592,79.733c-2.696-1.882-5.855-2.628-9.155-2.628c-7.737,0-17.994,5.576-17.675,19.71
		c0.142,14.49,11.215,18.964,18.952,18.964c6.778,0,10.896-2.593,14.195-5.931l-2.378-3.374c-1.738,1.492-4.578,3.729-9.156,3.729
		c-4.898-0.355-8.021-3.729-9.76-8.914l21.436-7.813C181.412,86.41,178.893,82.326,175.592,79.733L175.592,79.733z M168.175,93.477
		l-8.518,3.338c-0.177-1.491-0.319-2.983-0.319-4.83c0-8.559,4.72-10.05,6.316-10.05c2.521-0.355,4.721,1.136,5.536,4.119
		C172.114,89.393,171.795,92.376,168.175,93.477"/>
	<polygon fill="#FFFFFF" points="117.673,190.287 124.877,179.313 150.501,196.075 143.296,207.084 	"/>
	<polygon fill="#9C824A" points="115.295,186.522 120.264,178.922 152.808,200.265 147.839,207.866 	"/>
	<polygon fill="#FFFFFF" points="172.363,225.232 179.567,214.222 205.19,231.02 197.986,242.03 	"/>
	<polygon fill="#9C824A" points="169.984,221.467 174.953,213.868 207.498,235.211 202.529,242.776 	"/>
</g>
</svg>
