<?xml version="1.0" encoding="UTF-8" standalone="no"?>
<!-- Created with Inkscape (http://www.inkscape.org/) by Marsupilami -->

<svg
   xmlns:dc="http://purl.org/dc/elements/1.1/"
   xmlns:cc="http://creativecommons.org/ns#"
   xmlns:rdf="http://www.w3.org/1999/02/22-rdf-syntax-ns#"
   xmlns:svg="http://www.w3.org/2000/svg"
   xmlns="http://www.w3.org/2000/svg"
   xmlns:sodipodi="http://sodipodi.sourceforge.net/DTD/sodipodi-0.dtd"
   xmlns:inkscape="http://www.inkscape.org/namespaces/inkscape"
   version="1.0"
   width="143.34357"
   height="200.41701"
   viewBox="0 0 17.114249 23.914505"
   id="svg2817"
   inkscape:version="0.47 r22583"
   sodipodi:docname="Aston_Villa.svg">
  <metadata
     id="metadata17">
    <rdf:RDF>
      <cc:Work
         rdf:about="">
        <dc:format>image/svg+xml</dc:format>
        <dc:type
           rdf:resource="http://purl.org/dc/dcmitype/StillImage" />
      </cc:Work>
    </rdf:RDF>
  </metadata>
  <sodipodi:namedview
     pagecolor="#ffffff"
     bordercolor="#666666"
     borderopacity="1"
     objecttolerance="10"
     gridtolerance="10"
     guidetolerance="10"
     inkscape:pageopacity="0"
     inkscape:pageshadow="2"
     inkscape:window-width="1280"
     inkscape:window-height="714"
     id="namedview15"
     showgrid="false"
     inkscape:zoom="0.30729167"
     inkscape:cx="274.37695"
     inkscape:cy="383.64047"
     inkscape:window-x="-4"
     inkscape:window-y="-4"
     inkscape:window-maximized="1"
     inkscape:current-layer="svg2817" />
  <defs
     id="defs2819">
    <inkscape:perspective
       sodipodi:type="inkscape:persp3d"
       inkscape:vp_x="0 : 384 : 1"
       inkscape:vp_y="0 : 1000 : 0"
       inkscape:vp_z="549 : 384 : 1"
       inkscape:persp3d-origin="274.5 : 256 : 1"
       id="perspective19" />
    <clipPath
       id="clipPath2718">
      <path
         d="m 344.567,565.946 -269.649,0 0,-73.308 269.649,0 0,73.308 z"
         id="path2720" />
    </clipPath>
  </defs>
  <g
     transform="matrix(0.26115791,0,0,0.26115791,-89.377093,-127.09307)"
     id="layer1">
    <g
       transform="matrix(1.25,0,0,-1.25,248.58641,1193.9719)"
       id="g2714"
       style="display:inline">
      <g
         clip-path="url(#clipPath2718)"
         id="g2716">
        <path
           d="m 101.03125,492.625 -1.6875,1.8125 c 0,0 -0.877421,0.86882 -1.4375,1.25 -0.04008,0.0272 -1.380028,0.6501 -1.59375,0.75 -3.22337,1.06392 -8.252138,2.08826 -12.6875,4.09375 -2.217681,1.00275 -4.331246,2.27627 -5.96875,4.09375 -1.637504,1.81748 -2.749999,4.25816 -2.75,7.0625 l 0,51.84375 0,2.40625 2.40625,0 47.625,0 2.40625,0 0,-2.40625 0,-51.84375 c 0,-2.84985 -1.1061,-5.30719 -2.78125,-7.125 -1.67515,-1.81781 -3.81667,-3.07758 -6.0625,-4.0625 -4.49166,-1.96984 -9.59991,-2.97427 -12.65625,-4.09375 -1.16729,-0.42656 -1.28209,-0.51565 -1.90625,-1 l 0,0.0312 c -0.24119,-0.18796 -1.15625,-1.0625 -1.15625,-1.0625 l -1.75,-1.75 z"
           id="path2722"
           style="fill:#ffffff;fill-opacity:1;stroke:none" />
      </g>
    </g>
    <path
       d="m 376.65141,572.32062 c 0.94875,-0.73625 1.6325,-1.105 3.21625,-1.68375 8.46,-3.09875 24.90875,-4.94625 24.90875,-16.29 l 0,-64.8025 -59.53625,0 0,64.8025 c 0,11.13875 16.02625,13.345 24.695,16.20625 0,0 1.93,0.78125 2.7325,1.32625 1.13875,0.775 2.2775,1.99125 2.2775,1.99125 0,0 1.06625,-1.05125 1.70625,-1.55"
       id="path2724"
       style="fill:#94bee5;fill-opacity:1;fill-rule:nonzero;stroke:none;display:inline" />
    <path
       d="m 376.65141,572.32062 c 0.94875,-0.73625 1.6325,-1.105 3.21625,-1.68375 8.46,-3.09875 24.90875,-4.94625 24.90875,-16.29 l 0,-64.8025 -59.53625,0 0,64.8025 c 0,11.13875 16.02625,13.345 24.695,16.20625 0,0 1.93,0.78125 2.7325,1.32625 1.13875,0.775 2.2775,1.99125 2.2775,1.99125 0,0 1.06625,-1.05125 1.70625,-1.55 z"
       id="path2726"
       style="fill:none;stroke:#7a003c;stroke-width:2.24374986;stroke-linecap:butt;stroke-linejoin:miter;stroke-miterlimit:6;stroke-opacity:1;stroke-dasharray:none;display:inline" />
    <path
       d="m 358.75141,509.99437 0.9625,1.97875 2.15,0.3175 -1.5575,1.53875 0.36875,2.17875 -1.92375,-1.0275 -1.92375,1.0275 0.3675,-2.17875 -1.555,-1.53875 2.14875,-0.3175 0.9625,-1.97875"
       id="path2728"
       style="fill:#ffffff;fill-opacity:1;fill-rule:nonzero;stroke:none;display:inline" />
    <path
       d="m 356.83641,493.56562 c -0.0462,0 -0.145,0.065 -0.25,0.15625 l -0.84375,0.625 c -0.18,0.13375 -0.3225,0.37625 -0.4375,0.75 -0.11125,0.3675 -0.1975,0.7175 -0.28125,1.03125 l -2.1875,6.46875 c -0.29625,0.86 -0.57,1.48125 -0.8125,1.84375 -0.23875,0.3625 -0.59125,0.53125 -1.0625,0.53125 -0.16875,0 -0.28125,0.1 -0.28125,0.25 l 0,0.28125 c 0,0.10125 0.0675,0.15625 0.1875,0.15625 0.0738,0 0.3425,-0.035 0.78125,-0.0625 0.44,-0.0288 0.76125,-0.0312 0.96875,-0.0312 0.20625,0 0.4975,0.002 0.90625,0.0312 0.4125,0.0275 0.69,0.0625 0.8125,0.0625 0.2075,0 0.3125,-0.0613 0.3125,-0.15625 l 0,-0.3125 c 0,-0.13375 -0.0763,-0.21875 -0.21875,-0.21875 -0.77875,0 -1.15625,-0.2125 -1.15625,-0.65625 0,-0.1825 0.06,-0.44875 0.1875,-0.8125 l 0.78125,-2.34375 3.40625,0 0.8125,1.90625 c 0.185,0.455 0.2975,0.7675 0.34375,0.90625 0.0525,0.13375 0.0937,0.2475 0.0937,0.375 0,0.41625 -0.335,0.625 -1,0.625 -0.1775,0 -0.28125,0.095 -0.28125,0.25 l 0,0.28125 c 0,0.0862 0.065,0.15625 0.15625,0.15625 0.1275,0 0.49875,-0.035 1.15625,-0.0625 0.6575,-0.0288 1.11,-0.0312 1.34375,-0.0312 0.28125,0 0.65375,0.002 1.125,0.0312 0.4775,0.0275 0.815,0.0625 1,0.0625 0.1175,0 0.1875,-0.0738 0.1875,-0.21875 l 0,-0.28125 c 0,-0.09 -0.0763,-0.1625 -0.21875,-0.1875 -0.4175,-0.06 -0.71125,-0.14625 -0.875,-0.3125 -0.16375,-0.17 -0.36125,-0.53 -0.5625,-1.03125 l -3.9375,-9.8125 c -0.0738,-0.155 -0.1275,-0.25 -0.15625,-0.25 z m 37.71875,0.25 c -1.845,0 -3.425,0.5525 -4.6875,1.6875 -1.26125,1.13625 -1.875,2.52125 -1.875,4.125 0,2.0225 0.64125,3.5675 1.90625,4.65625 1.265,1.08625 2.81125,1.625 4.6875,1.625 1.45,0 2.7325,-0.27375 3.84375,-0.84375 l 0.5,-2.0625 c 0.0362,-0.13375 0.0625,-0.22 0.0625,-0.25 0,-0.065 -0.0813,-0.13 -0.25,-0.1875 -0.17125,-0.065 -0.30374,-0.0937 -0.375,-0.0937 -0.055,0 -0.11749,0.12 -0.21875,0.34375 -0.355,0.8025 -0.77,1.38125 -1.21875,1.75 -0.44625,0.36375 -1.12125,0.53125 -2.0625,0.53125 -1.29,0 -2.36501,-0.5125 -3.21875,-1.53125 -0.855,-1.025 -1.28126,-2.28125 -1.28125,-3.78125 0,-1.48875 0.39626,-2.715 1.1875,-3.6875 0.79125,-0.97625 1.8175,-1.46875 3.09375,-1.46875 0.8625,0 1.55376,0.2375 2.09375,0.71875 0.54,0.475 0.92501,1.025 1.125,1.65625 0.0263,0.0962 0.0475,0.18125 0.0625,0.21875 0.0213,0.0375 0.0387,0.0312 0.0937,0.0312 0.0825,0 0.22125,10e-4 0.375,-0.0312 0.16,-0.0312 0.25,-0.0825 0.25,-0.125 0,-0.07 -0.0437,-0.42625 -0.125,-1.0625 -0.0813,-0.6425 -0.15876,-0.97625 -0.1875,-1.0625 -0.0813,-0.19125 -0.505,-0.4325 -1.3125,-0.71875 -0.8075,-0.2875 -1.63125,-0.4375 -2.46875,-0.4375 z m -32.0625,0.28125 c -0.12625,0 -0.1875,0.0637 -0.1875,0.1875 l 0,0.28125 c 0,0.11875 0.075,0.1875 0.25,0.1875 0.445,0 0.7925,0.07 1.03125,0.25 0.23875,0.1825 0.47625,0.55625 0.6875,1.0625 l 3.875,9.59375 c 0.0425,0.1125 0.0763,0.1825 0.125,0.21875 0.0512,0.0325 0.14875,0.0312 0.28125,0.0312 l 0.28125,0 c 0.095,0 0.16625,-0.005 0.21875,-0.0312 0.0525,-0.0325 0.0875,-0.0913 0.125,-0.1875 l 3.84375,-9.53125 c 0.22125,-0.57125 0.39375,-0.97375 0.53125,-1.15625 0.135,-0.18 0.41,-0.25 0.78125,-0.25 0.1375,0 0.1875,-0.0788 0.1875,-0.21875 l 0,-0.25 c 0,-0.135 -0.0663,-0.1875 -0.1875,-0.1875 -0.11375,0 -0.31875,0.002 -0.65625,0.0312 -0.335,0.0275 -0.58625,0.0312 -0.75,0.0312 -0.21875,0 -0.605,-0.004 -1.125,-0.0312 -0.515,-0.0288 -0.805,-0.0312 -0.90625,-0.0312 -0.1275,0 -0.1875,0.0637 -0.1875,0.1875 l 0,0.25 c 0,0.14625 0.0675,0.21875 0.25,0.21875 0.45625,0 0.7725,0.02 0.9375,0.0937 0.16875,0.07 0.25,0.22875 0.25,0.46875 0,0.25625 -0.0387,0.55 -0.15625,0.84375 l -2.59375,6.78125 -2.84375,-6.96875 c -0.1425,-0.36875 -0.1875,-0.63125 -0.1875,-0.78125 0,-0.14875 0.0813,-0.27375 0.25,-0.34375 0.17,-0.0738 0.46625,-0.0937 0.875,-0.0937 0.15375,0 0.21875,-0.06 0.21875,-0.1875 l 0,-0.28125 c 0,-0.135 -0.0763,-0.1875 -0.25,-0.1875 -0.13125,0 -0.565,0.002 -1.28125,0.0312 -0.71375,0.0275 -1.225,0.0312 -1.5,0.0312 -0.3175,0 -0.73,-0.004 -1.25,-0.0312 -0.51375,-0.0288 -0.82125,-0.0312 -0.9375,-0.0312 z m 14.75,0 c -0.1925,0 -0.3125,0.0437 -0.3125,0.15625 l 0,0.3125 c 0,0.11875 0.1325,0.1875 0.34375,0.1875 0.48125,0 0.77874,0.10375 0.9375,0.34375 0.16375,0.24 0.25,0.68375 0.25,1.3125 l 0,7.15625 c 0,0.46875 -0.105,0.82875 -0.3125,1.0625 -0.20125,0.23375 -0.51376,0.34375 -0.9375,0.34375 -0.185,0 -0.28125,0.0762 -0.28125,0.1875 l 0,0.3125 c 0,0.11875 0.09,0.1875 0.28125,0.1875 0.10625,0 0.52626,-0.035 1.21875,-0.0625 0.69875,-0.0288 1.13749,-0.0312 1.34375,-0.0312 0.2325,0 0.61749,0.002 1.15625,0.0312 0.54625,0.0275 0.87874,0.0625 0.96875,0.0625 0.17625,0 0.25,-0.0613 0.25,-0.15625 l 0,-0.375 c 0,-0.0863 -0.0738,-0.15625 -0.25,-0.15625 -0.43625,0 -0.76875,-0.105 -0.96875,-0.3125 -0.2025,-0.2075 -0.3125,-0.5725 -0.3125,-1.09375 l 0,-3.78125 2.25,0 c 0.4775,0 0.83376,0.11125 1.0625,0.3125 0.23375,0.1975 0.42125,0.5475 0.53125,1.03125 0.025,0.13875 0.0925,0.1875 0.1875,0.1875 l 0.34375,0 c 0.08,0 0.0937,-0.055 0.0937,-0.21875 0,-0.1075 -0.005,-0.3625 -0.0312,-0.71875 -0.0238,-0.35625 -0.0312,-0.59625 -0.0312,-0.75 0,-0.21875 0.007,-0.54375 0.0312,-0.9375 0.0263,-0.39375 0.0312,-0.6175 0.0312,-0.71875 0,-0.1225 -0.05,-0.1875 -0.15625,-0.1875 l -0.3125,0 c -0.08,0 -0.135,0.04 -0.15625,0.15625 -0.09,0.4575 -0.23625,0.7675 -0.40625,0.90625 -0.17125,0.13875 -0.5025,0.21875 -1,0.21875 l -2.4375,0 0,-3.21875 c 0,-0.40375 0.12626,-0.67375 0.34375,-0.8125 0.22375,-0.13875 0.63625,-0.1875 1.25,-0.1875 l 0.5,0 c 0.86875,0 1.45375,0.0812 1.75,0.25 0.29625,0.17125 0.52376,0.46375 0.6875,0.90625 l 0.1875,0.46875 c 0.0537,0.165 0.11249,0.25 0.21875,0.25 l 0.25,0 c 0.11125,0 0.15624,-0.0488 0.15625,-0.1875 l 0,-2.28125 c 0,-0.1175 -0.0387,-0.15625 -0.15625,-0.15625 -0.1575,0 -1.02749,0.002 -2.5625,0.0312 -1.53,0.0275 -2.4825,0.0312 -2.875,0.0312 -0.47625,0 -1.0875,-0.004 -1.84375,-0.0312 -0.75625,-0.0288 -1.17625,-0.0312 -1.28125,-0.0312 z m -21.5,2.53125 1.53125,3.71875 -2.71875,0 1.1875,-3.71875 z m 7.8125,63.78125 c -0.57406,-0.0333 -1.125,0.0625 -1.125,0.0625 l 0,4.1875 0.59375,0 0,-2.1875 c 0,0 1.6875,-0.39 1.6875,-1.375 0,-0.49187 -0.58219,-0.65422 -1.15625,-0.6875 z m 3.0625,0 c -0.57406,-0.0333 -1.15625,0.0625 -1.15625,0.0625 l 0,4.1875 0.625,0 0,-2.1875 c 0,0 0.30916,-0.0962 0.65625,-0.25 0.0463,0.0738 0.24374,0.41063 0.53125,1.09375 0.3225,0.765 0.40625,1.34375 0.40625,1.34375 l 0.59375,0 c 0,0 -0.13875,-0.76 -0.40625,-1.4375 -0.2274,-0.57757 -0.55933,-1.06834 -0.65625,-1.21875 0.31258,-0.2148 0.5625,-0.52239 0.5625,-0.90625 0,-0.49187 -0.58219,-0.65422 -1.15625,-0.6875 z m 6.5625,0 c -0.57375,-0.0333 -1.15625,0.0625 -1.15625,0.0625 l 0,4.1875 0.625,0 0,-2.1875 c 0,0 1.6875,-0.39 1.6875,-1.375 0,-0.49187 -0.5825,-0.65422 -1.15625,-0.6875 z m 6.25,0 c -0.57438,-0.0333 -1.15625,0.0625 -1.15625,0.0625 l 0,4.1875 0.59375,0 0,-2.1875 c 0,0 0.31331,-0.0991 0.65625,-0.25 0.0444,0.0702 0.27307,0.40609 0.5625,1.09375 0.32375,0.765 0.375,1.34375 0.375,1.34375 l 0.59375,0 c 0,0 -0.13875,-0.76 -0.40625,-1.4375 -0.23372,-0.59644 -0.54187,-1.12257 -0.625,-1.25 0.29619,-0.2124 0.53125,-0.50562 0.53125,-0.875 0,-0.49187 -0.55062,-0.65422 -1.125,-0.6875 z m 5.625,0 c -0.24785,0.016 -0.4375,0.0625 -0.4375,0.0625 l 0,4.1875 0.625,0 c 10e-6,0 2.03125,0.035 2.03125,-2.5625 0,-1.60594 -1.47519,-1.73549 -2.21875,-1.6875 z m -15.875,0.0625 0,0.46875 0,0.84375 0,0.46875 0,1.90625 0,0.5 1.84375,0 0,-0.5 -1.25,0 0,-1.90625 0.84375,0 0,-0.46875 -0.84375,0 0,-0.84375 1.25,0 0,-0.46875 -1.84375,0 z m 6.34375,0 -1.3125,4.1875 0.65625,0 0.6875,-2.40625 0.8125,0 0.6875,2.40625 0.625,0 -1.28125,-4.1875 -0.34375,0 -0.53125,0 z m 6.25,0 0,0.46875 0,0.84375 0,0.46875 0,2.40625 1.84375,0 0,-0.5 -1.21875,0 0,-1.90625 0.8125,0 0,-0.46875 -0.8125,0 0,-0.84375 1.21875,0 0,-0.46875 -1.84375,0 z m -5.8125,0.34375 0.28125,0.96875 -0.5625,0 0.28125,-0.96875 z m -12.40625,0.0625 c 0.26375,0.006 0.53125,0.0694 0.53125,0.21875 0,0.5575 -1.0625,0.78125 -1.0625,0.78125 l 0,-0.96875 c 0,0 0.2675,-0.0373 0.53125,-0.0312 z m 3.0625,0 c 0.26375,0.006 0.5,0.0694 0.5,0.21875 0,0.5575 -1.03125,0.78125 -1.03125,0.78125 l 0,-0.96875 c 0,0 0.2675,-0.0373 0.53125,-0.0312 z m 6.5625,0 c 0.26406,0.006 0.53125,0.0694 0.53125,0.21875 0,0.5575 -1.0625,0.78125 -1.0625,0.78125 l 0,-0.96875 c 0,0 0.26719,-0.0373 0.53125,-0.0312 z m 6.21875,0 c 0.26406,0.006 0.53125,0.0694 0.53125,0.21875 -10e-6,0.5575 -1.0625,0.78125 -1.0625,0.78125 l 0,-0.96875 c 0,0 0.26719,-0.0373 0.53125,-0.0312 z m 6,0.0625 c 0.42047,-0.0251 1.25,0.0597 1.25,1.1875 -10e-6,1.87735 -1.05558,2.09891 -1.40625,2.125 l 0,-3.28125 c 0.0395,-0.007 0.0678,-0.026 0.15625,-0.0312 z"
       id="path2730"
       style="fill:#7a003c;fill-opacity:1;fill-rule:nonzero;stroke:none;display:inline" />
    <path
       d="m 376.73266,511.73187 c -0.345,0.5375 -1.24625,0.87 -1.24625,0.87 0,0 -0.20625,-0.007 -0.0487,-0.3825 0.14375,-0.33875 0.1975,-0.50375 0.1975,-0.50375 l -0.7225,0.2625 c 0,0 0.25125,-0.23 0.3525,-0.6 0.10125,-0.37 0.0775,-0.61125 0.0775,-0.61125 0,0 -0.095,0.31625 -0.45375,0.46375 -0.2825,0.1175 -0.85875,0.18375 -0.85875,0.18375 0,0 0.69625,-1.43625 1.7725,-1.33125 1.07375,0.105 1.27625,1.1125 0.93,1.64875 z m -4.86125,1.57875 c -0.13625,0.31625 -0.4475,0.63375 -0.80125,0.725 -0.30125,0.0762 -0.56375,0.0675 -0.775,-0.006 -0.5375,-0.18875 -0.645,-0.5675 -0.645,-0.5675 l 0.5775,-0.275 c 0.10125,0.29125 0.295,0.455 0.54125,0.46375 0.24,0.009 0.41625,-0.1075 0.4875,-0.31 0.0412,-0.12125 0.0175,-0.3 0.0175,-0.3 0,0 -0.0688,0.16125 -0.2175,0.16875 -0.1025,0.005 -0.275,-0.0763 -0.21375,-0.32625 l 1.28625,-0.61625 c 0,0 -0.04,0.53625 -0.2575,1.04375 z m 25.77875,4.33625 c 0,0 -1.19125,1.63625 -2.47,1.90375 -0.9,0.18625 -1.515,0.1 -1.515,0.1 0,0 0.33625,-0.0288 0.59,-0.22125 0.295,-0.22625 0.46375,-0.61625 0.46375,-0.61625 0,0 -0.5325,0.2775 -1.4275,0.0362 -0.40375,-0.10875 -1.2925,-0.1925 -1.99375,0.0662 -0.5325,0.195 -1.175,0.73875 -1.175,0.73875 0,0 0.2075,-0.21375 0.3125,-0.46375 0.13,-0.32 0.065,-0.67625 0.065,-0.67625 0,0 -0.0713,0.34625 -0.5125,0.53625 -0.26375,0.1125 -0.83125,0.36125 -1.085,0.74 -0.33625,0.5 -0.30125,1.115 -0.42625,1.25625 -0.10375,0.12 -3.36,1.59125 -3.57625,4.58 -0.21875,2.98875 2.00875,5.28875 2.73875,6.13875 0.73,0.85 3.82,4.455 4.325,5.26125 0.4025,0.64 0.74125,1.32875 0.3525,2.15625 -0.2275,0.49125 -1.00875,1.06375 -2.15375,0.53125 -1.165,-0.545 -1.96,-1.31125 -3.18875,-1.855 -0.9825,-0.43625 -2.12125,-0.7525 -2.38125,-0.92125 -0.1925,-0.12625 -1.8925,-1.22125 -2.05625,-3.20375 -0.12625,-1.5425 0.49,-3.95125 0.58125,-5.62125 0.13,-2.3075 -0.53375,-3.3 -0.545,-3.38625 -0.02,-0.15375 0.5875,0.0362 0.8375,0.48875 0.3525,0.6325 0.315,0.885 0.315,0.885 0,0 0.785,-1.47125 0.45625,-3.335 -0.37625,-2.11875 -1.68375,-2.3725 -1.69625,-2.5275 -0.009,-0.12 0.39,-0.20375 0.805,-0.0738 1.1475,0.36125 1.34875,1.465 1.34875,1.465 0,0 0.495,-1.5525 -0.18625,-3.12625 -0.62625,-1.44125 -1.5475,-1.57625 -1.57625,-1.74375 -0.0138,-0.0825 0.29,-0.22625 0.905,-0.0712 0.9575,0.24 1.1675,1.05375 1.1675,1.05375 0,0 0.22375,-1.3525 -0.18,-2.49625 -0.72875,-2.05875 -2.2125,-2.26375 -2.22,-2.42875 -0.004,-0.0912 0.4225,-0.21375 0.85,-0.095 0.72,0.1975 0.8075,0.41125 0.8075,0.41125 0,0 -0.0337,-0.49625 -0.4275,-1.25375 -0.43,-0.825 -1.48375,-1.9175 -1.91375,-2.1775 -2.4075,-1.45 -3.7275,-1.15375 -4.15625,-1.18625 -0.115,-0.009 -0.365,-0.22 -0.255,-0.57125 0.16625,-0.53375 0.5375,-0.72375 0.5375,-0.72375 0,0 -1.02,-0.0337 -1.9325,0.30875 -1.07625,0.40125 -1.6225,0.99875 -1.75,0.9975 -0.1125,-0.004 -0.2425,-0.19125 -0.23875,-0.45 0.006,-0.39 0.1375,-0.51375 0.1375,-0.51375 0,0 -1.2625,0.4225 -1.8725,0.8675 -0.425,0.31125 -1.07625,0.80875 -1.405,1.58875 -0.2575,0.61375 -0.39625,1.39875 -0.39625,1.39875 0,0 -0.28875,-0.21375 -0.69,0.075 -0.41875,0.3025 -0.87375,0.8825 -1.105,1.23125 -0.21625,0.32875 -0.54375,0.68125 -0.7625,0.76625 -0.24875,0.0962 -1.67125,0.59375 -1.9525,0.76625 -0.24625,0.15125 -0.36,0.67875 -0.3125,0.89 0.0213,0.0975 0.11875,0.33125 0.34125,0.58 0.12125,0.135 0.19875,0.02 0.27,-0.13625 0.04,-0.0875 0.0987,-0.13125 0.1475,-0.10625 0.2975,0.1525 0.0375,0.84125 0.1125,1.03125 0.095,0.23625 0.31625,0.4475 0.55875,0.6075 0.3275,0.21375 0.97375,0.42375 0.97375,0.42375 0,0 -0.0937,-0.295 0.0188,-0.47375 0.0925,-0.14875 0.36875,-0.3525 0.63875,-0.39 0.51375,-0.0688 1.29875,-0.025 1.71,0.3275 0.56875,0.48875 0.4925,1.13 0.4925,1.13 0,0 -1.01375,0.39125 -1.50125,0.46875 -0.49,0.0775 -0.865,0.0662 -1.22125,-0.0625 -0.35625,-0.12875 -0.6725,-0.5 -0.6725,-0.5 0,0 -0.11125,0.57125 -0.15625,0.64125 -0.035,0.0525 -0.29875,0.1775 -0.275,0.3425 0.0425,0.325 0.49625,0.35 0.54625,0.43875 0.0638,0.11125 -0.28125,0.4425 -0.0437,0.9375 0.1275,0.27 0.40875,0.4975 0.665,0.64 0.28625,0.15875 0.54375,0.22 0.54375,0.22 0,0 -0.0937,-0.3975 0.12625,-0.68625 0.1225,-0.1625 0.36625,-0.21375 0.4,-0.19625 0.0687,0.0338 0.0775,0.18125 0.35625,0.33625 0.30375,0.17 0.68,0.11 0.68,0.11 0,0 -0.28875,-0.36125 -0.0337,-0.67125 0.17375,-0.21125 0.55375,-0.29375 0.62125,-0.2775 0.0863,0.02 0.405,0.40375 1.19125,0.63875 0.36375,0.10875 0.93125,0.15125 1.20625,-10e-4 0.655,-0.36125 0.67125,-0.6475 1.34125,-0.775 0,0 -0.3575,0.17 -0.7025,1.03 -0.305,0.76375 -1.145,1.04625 -1.67625,1.2125 -0.64625,0.2025 -1.3575,0.345 -2.00125,0.64625 -0.43125,0.2025 -0.98,0.54875 -1.46625,0.99 -0.48625,0.44 -0.93875,1.145 -1.1875,1.29125 -0.25125,0.14625 -2.4275,0.41375 -4.465,-0.27125 -2.0375,-0.68375 -2.80875,-1.72125 -3.665,-2.83375 -0.895,-1.16125 -1.7225,-2 -2.295,-2.20875 -0.53,-0.19125 -0.87625,-0.29 -1.35,-0.1875 -0.36125,0.0775 -0.64125,0.2975 -0.7375,0.635 -0.1525,0.53625 -0.045,0.805 0.0825,0.97 0.15125,0.195 0.61,0.35125 0.61,0.35125 0,0 -0.54875,-0.0975 -0.86125,0.205 -0.30125,0.29 -0.385,1.23625 0.0487,1.595 0.3575,0.29625 0.705,0.3 0.705,0.3 0,0 -0.2325,0.0113 -0.31625,0.17 -0.14875,0.27125 -0.2675,0.7175 -0.0637,1.02 0.51125,0.7575 1.02875,0.4625 1.58625,0.57875 0.7775,0.16125 1.0725,0.21125 1.64,0.49 0.87625,0.4325 1.72375,1.23625 2.55875,2.06375 0.99375,0.985 1.84,1.49875 2.11125,1.715 2.265,1.815 4.57375,1.605 4.57375,1.605 0,0 -0.1825,-0.0812 -0.4775,-0.24625 -0.21875,-0.12125 -0.39,-0.26875 -0.31375,-0.28125 0.155,-0.0213 0.67625,0.1475 1.4075,0.11125 0.71125,-0.0375 1.035,-0.2125 1.11625,-0.19625 0.11625,0.02 -0.0775,1.20875 -0.8525,1.91125 -0.76,0.6875 -1.24375,0.83 -2.095,0.89125 -0.70625,0.0525 -3.215,0.35 -3.765,0.265 -0.5525,-0.085 -1.455,-0.4975 -1.8175,-0.56 -0.3675,-0.06 -0.6475,-0.135 -1.0425,0.21125 -0.3925,0.345 -0.75875,1.22375 -0.565,1.66125 0.195,0.43375 0.82625,0.47875 0.82625,0.47875 0,0 -0.86,-0.005 -1.17375,0.45125 -0.26125,0.38125 -0.41625,0.875 -0.0775,1.64 0.195,0.43875 0.69875,0.8075 1.05125,0.76 0.32875,-0.045 0.75625,-0.39125 0.75625,-0.39125 0,0 -0.47875,0.58875 -0.2675,0.9175 0.21,0.32875 0.86125,0.62875 1.395,0.60125 0.53125,-0.0275 1.0675,-0.81625 1.4075,-1.3175 0.375,-0.555 0.9075,-0.74375 1.4975,-0.9875 0.66375,-0.27875 4.78875,-0.78875 5.4225,-0.67875 0.6525,0.1125 0.64375,0.1425 1.01,0.22875 0,0 -0.0387,-0.20375 -0.18625,-0.45125 -0.1875,-0.31375 -0.37625,-0.4725 -0.3325,-0.53125 0.0588,-0.0788 0.9475,-0.085 1.65875,0.0762 0.83375,0.19125 1.50875,0.725 1.50875,0.725 0,0 -0.59625,-0.18375 -1.21125,-0.13125 -0.40875,0.0338 -0.75,0.1425 -0.75,0.1425 0.0613,0.0987 0.0713,0.15625 0.11875,0.2825 0.1025,0.28375 0.195,0.67125 0.1375,0.67125 -0.0838,-10e-4 -0.41375,-0.1075 -0.8225,-0.18625 -0.49625,-0.0987 -0.67625,-0.1775 -1.105,-0.14625 -0.26625,0.0225 -3.1375,0.745 -4.025,2.4075 -0.84,1.5725 -0.4,2.48125 -0.14,2.965 0.2625,0.48375 1.06375,1.1775 1.325,1.38375 0.4075,0.325 1.83375,0.97125 1.8275,1.1075 -0.006,0.1325 -0.94375,0.47 -1.99375,0.5825 -1.0575,0.11375 -2.59,-0.26625 -3.065,-0.8025 -0.30875,-0.34625 -0.9475,-1.44125 -1.3325,-1.87 -0.3825,-0.4275 -1.36625,-0.8825 -1.98875,-0.6275 -0.42125,0.1675 -0.6275,0.51625 -0.795,0.85875 -0.1675,0.3425 -0.0138,0.64375 0.10375,0.755 0.0813,0.0737 0.32875,0.2275 0.32875,0.2275 0,0 -0.2675,-0.0738 -0.56625,0.17625 -0.255,0.21625 -0.41375,0.46375 -0.4675,1.0575 -0.0475,0.52 0.1175,0.83875 0.355,1.04125 0.2425,0.205 0.55875,0.15125 0.55875,0.15125 0,0 -0.485,0.1575 -0.505,0.51 -0.0163,0.35875 0.20875,0.93625 0.6625,1.155 0.455,0.21875 2.0675,-0.0512 2.79,-0.1275 0.535,-0.0562 1.50125,0.07 2.0225,0.4075 0.34375,0.225 0.58875,0.60875 0.9,0.8475 0.22875,0.175 0.64875,0.22375 0.92375,0.0225 0.23875,-0.17125 0.24625,-0.3675 0.39625,-0.495 0.1425,-0.12 0.23625,-0.19375 1.3075,-0.2725 0.8925,-0.0688 1.255,0.2875 1.39,0.50125 0.0538,0.0888 0.085,-0.006 0.1175,0.27625 0.05,0.40875 -0.0813,0.55625 -0.0813,0.55625 0,0 0.49625,-0.0238 0.87375,-0.2575 0.215,-0.1325 0.49375,-0.3475 0.545,-0.39625 0.06,-0.06 0.21625,-0.13 0.26375,0.0675 0.0575,0.24625 -0.0337,0.3225 -0.0337,0.3225 0,0 0.48625,-0.065 0.8425,-0.2925 0.41125,-0.2625 0.5275,-0.41125 0.65875,-0.4275 0.0825,-0.01 0.1325,0.0825 0.0612,0.36875 0,0 1.58375,-0.30875 1.41875,-2.04875 -0.22125,-2.29625 -0.46625,-3.21 -0.24,-4.13375 0.2225,-0.92375 1.04875,-1.8175 1.04875,-1.8175 l 0.35125,0.5275 c 0,0 -0.6175,0.8525 -0.69125,1.96125 -0.0462,0.67 0.16375,2.01125 0.375,2.63125 0.25625,0.745 0.65875,1.3675 0.85375,1.6075 0.4075,0.50375 0.715,0.53875 0.715,0.53875 0,0 -10e-4,-0.1325 0.0675,-0.3475 0.0525,-0.165 0.18875,-0.17875 0.21375,-0.17125 0.0713,0.02 0.11875,0.26625 0.39625,0.50375 0.30625,0.265 1.12125,0.38 1.12125,0.38 0,0 -0.0625,-0.115 -0.045,-0.3125 0.0162,-0.18375 0.125,-0.31375 0.1775,-0.29875 0.08,0.025 0.005,0.1525 0.495,0.395 0.46125,0.2325 0.955,0.1175 0.955,0.1175 0,0 -0.0975,-0.12875 -0.0975,-0.26625 0,-0.1625 0.0925,-0.3 0.14875,-0.31 0.07,-0.015 -0.0275,0.065 0.565,0.185 0.555,0.115 0.905,-0.23875 0.905,-0.23875 0,0 -0.23875,-0.235 -0.37125,-0.48375 -0.08,-0.14875 -0.0412,-0.3125 0.0337,-0.39625 0.0825,-0.09 0.8175,-0.1075 1.165,0.38625 0.3075,0.4325 0.5475,2.40875 0.44625,3.515 -0.0725,0.80625 -0.83875,2.26375 -1.9375,2.93875 -0.95375,0.5825 -1.28625,0.33875 -1.61875,0.09 -0.3925,-0.29 -1.075,-0.86875 -1.51875,-0.935 -0.44375,-0.0663 -0.89,-0.0663 -1.23875,0.01 -0.29125,0.0662 -0.15,0.01 -0.68125,0.15625 -0.36,0.0987 -0.95125,0.28875 -1.1925,0.74625 -0.215,0.41 -0.1875,1.13375 0.16,1.39 0.3275,0.24625 0.6325,0.305 0.79125,0.15625 0,0 -0.17625,0.14875 -0.315,0.39 -0.2,0.35125 -0.19875,0.65625 0.13375,1.16875 0.285,0.43875 0.75375,0.6175 0.98,0.63125 0.3625,0.025 0.57125,-0.0775 0.57125,-0.0775 0,0 0.0825,-0.025 0.27,-0.25875 0,0 -0.41875,0.61875 -0.1725,1.05375 0.115,0.2025 0.505,0.425 0.93,0.42875 0.59125,0.004 1.145,-0.0987 1.40875,-0.24625 0.42375,-0.235 0.79125,-0.515 1.1025,-0.7825 0.56375,-0.485 1.06125,-1.075 1.8175,-1.55625 0.4075,-0.26125 2.03625,-1.1275 2.805,-1.2825 0.44,-0.0888 0.64375,-0.1275 0.91125,-0.37625 0.2575,-0.2375 0.505,-0.87 0.245,-1.435 -0.26,-0.565 -0.0462,-1.34875 0.16375,-2.42375 0.21,-1.0725 0.48125,-1.78 0.8225,-2.025 0.33875,-0.245 0.72875,-0.215 1.4075,-0.6575 0.72875,-0.47125 0.6425,-1.26375 0.6425,-1.26375 0,0 -0.2,0.0937 -0.755,-0.19 -0.46,-0.23625 -0.40625,-0.5225 -0.39125,-0.63375 0.02,-0.1325 0.1475,-0.11625 0.55375,-0.47375 0.4675,-0.415 0.3325,-1.43625 0.3325,-1.43625 0,0 -0.15875,0.2175 -0.64125,0.21 -0.34625,-0.006 -0.675,-0.0338 -0.7425,-0.33125 -0.0687,-0.3125 0.195,-0.3675 0.255,-0.78875 0.0775,-0.53 -0.20375,-0.8725 -0.20375,-0.8725 0,0 -0.20375,0.35875 -1.08,0.415 -0.54375,0.0362 -0.82875,-0.0425 -1.0575,-0.14375 -0.3325,-0.14875 -0.7175,-0.55125 -0.7975,-0.98125 -0.155,-0.83125 0.13875,-1.225 0.23125,-1.32625 0.32625,-0.35875 1.0825,-0.1975 2.03875,0.46125 1.07625,0.7475 3.17375,1.79875 4.875,1.1 1.57875,-0.65 3.01875,-3.485 1.3625,-5.89 -1.47375,-2.13625 -5.69125,-6.675 -6.16,-7.4225 -0.41375,-0.65875 -1.0925,-1.78375 -0.9475,-2.88 0.125,-0.935 0.555,-1.55125 0.98375,-1.91375 0.41875,-0.35375 0.94125,-0.60375 1.095,-0.6225 0.14375,-0.02 1.29875,0.67125 2.2925,0.7875 0.9375,0.11125 1.79625,-0.3125 2.45625,-0.6825 0.53375,-0.29875 1.0175,-0.235 1.0175,-0.235 -0.24,-0.1475 -0.1625,-0.1575 -0.42625,-0.26 -0.155,-0.0625 -0.51375,-0.0512 -0.51375,-0.0512 0,0 1.4725,-0.44125 2.24625,-1.31 1.32125,-1.47875 1.535,-3.85875 1.535,-3.85875"
       id="path2776"
       style="fill:#ffe600;fill-opacity:1;fill-rule:evenodd;stroke:none;display:inline" />
  </g>
</svg>
