<?xml version="1.0" encoding="UTF-8" standalone="no"?>
<!-- Created with Inkscape (http://www.inkscape.org/) -->

<svg
   xmlns:dc="http://purl.org/dc/elements/1.1/"
   xmlns:cc="http://creativecommons.org/ns#"
   xmlns:rdf="http://www.w3.org/1999/02/22-rdf-syntax-ns#"
   xmlns:svg="http://www.w3.org/2000/svg"
   xmlns="http://www.w3.org/2000/svg"
   xmlns:sodipodi="http://sodipodi.sourceforge.net/DTD/sodipodi-0.dtd"
   xmlns:inkscape="http://www.inkscape.org/namespaces/inkscape"
   id="svg3341"
   version="1.1"
   inkscape:version="0.48.5 r10040"
   width="324.85001"
   height="332.4375"
   xml:space="preserve"
   sodipodi:docname="premier-league-handbook-2014-15.pdf"><metadata
     id="metadata3347"><rdf:RDF><cc:Work
         rdf:about=""><dc:format>image/svg+xml</dc:format><dc:type
           rdf:resource="http://purl.org/dc/dcmitype/StillImage" /><dc:title></dc:title></cc:Work></rdf:RDF></metadata><defs
     id="defs3345"><clipPath
       clipPathUnits="userSpaceOnUse"
       id="clipPath3357"><path
         d="m 0,595.276 419.528,0 L 419.528,0 0,0 0,595.276 z"
         id="path3359"
         inkscape:connector-curvature="0" /></clipPath><clipPath
       clipPathUnits="userSpaceOnUse"
       id="clipPath3459"><path
         d="m 62.077,239.717 78.383,0 0,97.961 -78.383,0 0,-97.961 z"
         id="path3461"
         inkscape:connector-curvature="0" /></clipPath><clipPath
       clipPathUnits="userSpaceOnUse"
       id="clipPath4891"><path
         d="m 106.147,330.809 c -0.817,-2.857 -1.219,-5.122 -1.391,-6.879 l 0,0 c -0.078,-0.81 -0.073,-2.014 -0.05,-2.948 l 0,0 c 0.127,0.152 0.262,0.242 0.402,0.277 l 0,0 c 0.058,0.057 3.609,-0.41 7.745,-3.552 l 0,0 4.703,5.324 0,0.002 c -1.559,1.569 -5.699,5.549 -8.597,7.54 l 0,0 c -0.6,0.412 -1.477,0.867 -2.484,1.331 l 0,0 c -0.119,-0.373 -0.226,-0.741 -0.328,-1.095"
         id="path4893"
         inkscape:connector-curvature="0" /></clipPath><clipPath
       clipPathUnits="userSpaceOnUse"
       id="clipPath4919"><path
         d="m 71.712,330.573 c -2.898,-1.991 -7.036,-5.971 -8.596,-7.54 l 0,0 0,-0.002 4.704,-5.324 c 4.135,3.142 7.686,3.609 7.744,3.552 l 0,0 c 0.121,-0.032 0.239,-0.103 0.351,-0.22 l 0,0 0.018,0.016 c 0.019,0.702 0.086,1.824 -0.016,2.875 l 0,0 c -0.172,1.757 -0.573,4.022 -1.391,6.879 l 0,0 c -0.1,0.358 -0.209,0.727 -0.328,1.101 l 0,0 c -1.013,-0.47 -1.89,-0.929 -2.486,-1.337"
         id="path4921"
         inkscape:connector-curvature="0" /></clipPath><clipPath
       clipPathUnits="userSpaceOnUse"
       id="clipPath4947"><path
         d="m 62.077,239.717 78.383,0 0,97.961 -78.383,0 0,-97.961 z"
         id="path4949"
         inkscape:connector-curvature="0" /></clipPath><clipPath
       clipPathUnits="userSpaceOnUse"
       id="clipPath5531"><path
         d="m 78.634,275.271 c 0,-0.002 0,-0.002 -0.001,-0.005 l 0,0 c -0.021,-0.086 -0.176,-0.478 -0.014,-0.648 l 0,0 c 0.082,-0.089 0.403,-0.335 1.026,-0.61 l 0,0 c 0.37,-0.164 0.847,-0.339 1.448,-0.498 l 0,0 c 2.99,0.224 4.746,0.505 10.185,0.427 l 0,0 c 4.376,-0.062 3.714,-0.047 5.027,-0.103 l 0,0 c 0,0 3.717,-0.055 4.831,-0.35 l 0,0 0.001,0 c 0.612,0.157 1.102,0.333 1.485,0.498 l 0,0 c 0.663,0.287 1.002,0.542 1.09,0.636 l 0,0 c 0.15,0.157 0.025,0.508 -0.009,0.628 l 0,0 c -1.08,0.539 -6.327,0.969 -12.538,0.969 l 0,0 c -6.795,0 -12.044,-0.383 -12.531,-0.944"
         id="path5533"
         inkscape:connector-curvature="0" /></clipPath><clipPath
       clipPathUnits="userSpaceOnUse"
       id="clipPath5779"><path
         d="m 62.077,239.717 78.383,0 0,97.961 -78.383,0 0,-97.961 z"
         id="path5781"
         inkscape:connector-curvature="0" /></clipPath><clipPath
       clipPathUnits="userSpaceOnUse"
       id="clipPath6751"><path
         d="m 173.392,239.708 77.563,0 0,97.766 -77.563,0 0,-97.766 z"
         id="path6753"
         inkscape:connector-curvature="0" /></clipPath><clipPath
       clipPathUnits="userSpaceOnUse"
       id="clipPath6767"><path
         d="m 198.371,331.887 c 0.039,-0.044 3.797,-4.872 3.797,-4.872 l 0,0 3.707,4.82 -0.173,-0.077 c -1.249,-0.551 -2.139,-0.705 -3.618,-0.692 l 0,0 -0.185,0.017 c -1.26,0.009 -2.482,0.297 -3.528,0.806 l 0,0 0,-0.002 z"
         id="path6769"
         inkscape:connector-curvature="0" /></clipPath><clipPath
       clipPathUnits="userSpaceOnUse"
       id="clipPath6779"><path
         d="m 173.392,239.708 77.563,0 0,97.766 -77.563,0 0,-97.766 z"
         id="path6781"
         inkscape:connector-curvature="0" /></clipPath><clipPath
       clipPathUnits="userSpaceOnUse"
       id="clipPath7211"><path
         d="m 173.392,239.708 77.563,0 0,97.766 -77.563,0 0,-97.766 z"
         id="path7213"
         inkscape:connector-curvature="0" /></clipPath><clipPath
       clipPathUnits="userSpaceOnUse"
       id="clipPath8007"><path
         d="m 202.663,332.185 -0.625,-0.005 c -3.694,0.022 -5.327,1.67 -6.282,3.865 l 0,0 -0.924,-0.598 c 0.519,-2.078 3.628,-4.456 7.177,-4.361 l 0,0 0.291,0 c 3.531,-0.004 5.829,1.904 6.721,3.592 l 0,0 c 0.116,0.217 0.165,0.459 0.242,0.663 l 0,0 -1.194,0.843 c 0.201,-1.808 -2.53,-3.968 -5.406,-3.999"
         id="path8009"
         inkscape:connector-curvature="0" /></clipPath><clipPath
       clipPathUnits="userSpaceOnUse"
       id="clipPath8019"><path
         d="m 196.134,336.279 -0.358,-0.211 0.241,-0.546 c 1.082,0.069 2.53,0.278 5.634,0.255 l 0,0 0.282,0.005 c 3.1,-0.022 4.965,-0.136 6.074,-0.338 l 0,0 0.081,0.739 c -0.501,0.148 -0.519,0.127 -4.18,0.411 l 0,0 -2.266,0.003 c -0.257,0.002 -0.502,0.004 -0.736,0.004 l 0,0 c -3.136,0 -4.285,-0.174 -4.772,-0.322"
         id="path8021"
         inkscape:connector-curvature="0" /></clipPath><clipPath
       clipPathUnits="userSpaceOnUse"
       id="clipPath8031"><path
         d="m 173.392,239.708 77.563,0 0,97.766 -77.563,0 0,-97.766 z"
         id="path8033"
         inkscape:connector-curvature="0" /></clipPath><clipPath
       clipPathUnits="userSpaceOnUse"
       id="clipPath8255"><path
         d="m 183.433,330.322 c -2.91,-1.998 -7.065,-5.994 -8.631,-7.571 l 0,0 0,-10e-4 4.722,-5.345 c 4.152,3.154 7.717,3.623 7.776,3.566 l 0,0 c 0.121,-0.032 0.24,-0.103 0.353,-0.221 l 0,0 0.018,0.016 c 0.019,0.705 0.086,1.832 -0.017,2.887 l 0,0 c -0.172,1.764 -0.575,4.038 -1.396,6.906 l 0,0 c -0.101,0.359 -0.211,0.73 -0.33,1.106 l 0,0 c -1.016,-0.472 -1.898,-0.932 -2.495,-1.343"
         id="path8257"
         inkscape:connector-curvature="0" /></clipPath><clipPath
       clipPathUnits="userSpaceOnUse"
       id="clipPath8283"><path
         d="m 173.392,239.708 77.563,0 0,97.766 -77.563,0 0,-97.766 z"
         id="path8285"
         inkscape:connector-curvature="0" /></clipPath><clipPath
       clipPathUnits="userSpaceOnUse"
       id="clipPath8667"><path
         d="m 189.793,274.953 c 0,-0.002 0,-0.002 -0.001,-0.005 l 0,0 c -0.021,-0.085 -0.175,-0.473 -0.014,-0.642 l 0,0 c 0.081,-0.09 0.399,-0.332 1.017,-0.605 l 0,0 c 0.367,-0.162 0.841,-0.335 1.435,-0.493 l 0,0 c 2.963,0.222 4.704,0.501 10.094,0.423 l 0,0 c 4.338,-0.061 3.681,-0.046 4.982,-0.102 l 0,0 c 0,0 3.685,-0.055 4.789,-0.347 l 0,0 0.001,0 c 0.605,0.157 1.091,0.33 1.471,0.494 l 0,0 c 0.657,0.283 0.994,0.537 1.08,0.63 l 0,0 c 0.15,0.156 0.025,0.504 -0.008,0.622 l 0,0 c -1.071,0.535 -6.271,0.961 -12.426,0.961 l 0,0 c -6.735,0 -11.937,-0.38 -12.42,-0.936"
         id="path8669"
         inkscape:connector-curvature="0" /></clipPath><clipPath
       clipPathUnits="userSpaceOnUse"
       id="clipPath8915"><path
         d="m 173.392,239.708 77.563,0 0,97.766 -77.563,0 0,-97.766 z"
         id="path8917"
         inkscape:connector-curvature="0" /></clipPath><clipPath
       clipPathUnits="userSpaceOnUse"
       id="clipPath9799"><path
         d="m 284.273,239.909 75.911,0 0,97.47 -75.911,0 0,-97.47 z"
         id="path9801"
         inkscape:connector-curvature="0" /></clipPath><clipPath
       clipPathUnits="userSpaceOnUse"
       id="clipPath9823"><path
         d="m 305.899,335.344 c 0,0 0.048,-0.332 0.204,-0.652 l 0,0 c 0.057,-0.126 0.126,-0.27 0.216,-0.424 l 0,0 c 0.02,-0.032 0.038,-0.066 0.061,-0.097 l 0,0 c 0.062,-0.105 0.214,-0.256 0.43,-0.438 l 0,0 c 1.105,-0.947 3.91,-2.772 5.281,-3.648 l 0,0 0.78,0.548 c 0,0 -5.415,3.456 -5.913,4.277 l 0,0 c -0.012,0.018 -0.023,0.038 -0.036,0.056 l 0,0 c -0.008,0.014 -0.016,0.028 -0.024,0.041 l 0,0 c -0.088,0.152 -0.158,0.295 -0.215,0.419 l 0,0 c 0,0.002 -0.002,0.003 -0.002,0.005 l 0,0 c -0.14,0.29 -0.191,0.589 -0.199,0.644 l 0,0 -0.583,-0.731 z"
         id="path9825"
         inkscape:connector-curvature="0" /></clipPath><clipPath
       clipPathUnits="userSpaceOnUse"
       id="clipPath9839"><path
         d="m 284.273,239.909 75.911,0 0,97.47 -75.911,0 0,-97.47 z"
         id="path9841"
         inkscape:connector-curvature="0" /></clipPath><clipPath
       clipPathUnits="userSpaceOnUse"
       id="clipPath9851"><path
         d="m 319.262,336.083 c 0,0 -0.047,-0.332 -0.203,-0.652 l 0,0 c -0.013,-0.028 -0.026,-0.058 -0.041,-0.087 l 0,0 c -0.049,-0.103 -0.107,-0.217 -0.176,-0.337 l 0,0 c -0.02,-0.032 -0.038,-0.067 -0.06,-0.097 l 0,0 c -0.004,-0.007 -0.009,-0.014 -0.015,-0.02 l 0,0 c -0.563,-0.854 -5.896,-4.257 -5.896,-4.257 l 0,0 -0.78,-0.548 c 0.477,-0.306 0.78,-0.496 0.78,-0.496 l 0,0 c 0,0 4.568,2.867 6.057,4.142 l 0,0 c 0.217,0.184 0.368,0.335 0.432,0.44 l 0,0 c 0.023,0.031 0.041,0.065 0.061,0.097 l 0,0 c 0.089,0.154 0.159,0.298 0.217,0.424 l 0,0 c 0.155,0.32 0.202,0.652 0.202,0.652 l 0,0 0,0.002 c -0.031,0.015 -0.544,0.696 -0.577,0.739 l 0,0 -10e-4,-0.002 z"
         id="path9853"
         inkscape:connector-curvature="0" /></clipPath><clipPath
       clipPathUnits="userSpaceOnUse"
       id="clipPath9867"><path
         d="m 284.273,239.909 75.911,0 0,97.47 -75.911,0 0,-97.47 z"
         id="path9869"
         inkscape:connector-curvature="0" /></clipPath><clipPath
       clipPathUnits="userSpaceOnUse"
       id="clipPath10831"><path
         d="m 306.49,336.087 c 0,0 -0.002,0 -0.002,-0.002 l 0,0 -0.006,-0.01 c 0.008,-0.055 0.059,-0.354 0.199,-0.644 l 0,0 c 0,-0.002 0.002,-0.003 0.002,-0.005 l 0,0 0.009,0.005 c 0,0 2.145,0.275 6.126,0.275 l 0,0 c 3.982,0 6.2,-0.362 6.2,-0.362 l 0,0 c 0.015,0.029 0.028,0.059 0.041,0.087 l 0,0 c 0.156,0.32 0.203,0.652 0.203,0.652 l 0,0 10e-4,0.002 -10e-4,0.002 c -0.019,0.016 -1.819,0.455 -6.444,0.455 l 0,0 c -4.622,0 -6.176,-0.359 -6.328,-0.455"
         id="path10833"
         inkscape:connector-curvature="0" /></clipPath><clipPath
       clipPathUnits="userSpaceOnUse"
       id="clipPath10843"><path
         d="m 284.273,239.909 75.911,0 0,97.47 -75.911,0 0,-97.47 z"
         id="path10845"
         inkscape:connector-curvature="0" /></clipPath><clipPath
       clipPathUnits="userSpaceOnUse"
       id="clipPath11539"><path
         d="m 328.46,330.415 c -0.816,-2.85 -1.215,-5.109 -1.387,-6.862 l 0,0 c -0.079,-0.809 -0.073,-2.011 -0.051,-2.942 l 0,0 c 0.127,0.152 0.262,0.241 0.402,0.276 l 0,0 c 0.057,0.057 3.601,-0.409 7.727,-3.544 l 0,0 4.693,5.311 0,0.002 c -1.556,1.566 -5.686,5.538 -8.577,7.524 l 0,0 c -0.6,0.412 -1.475,0.865 -2.48,1.329 l 0,0 c -0.118,-0.372 -0.225,-0.739 -0.327,-1.094"
         id="path11541"
         inkscape:connector-curvature="0" /></clipPath><clipPath
       clipPathUnits="userSpaceOnUse"
       id="clipPath11567"><path
         d="m 294.102,330.18 c -2.891,-1.986 -7.021,-5.958 -8.577,-7.524 l 0,0 0,-0.002 4.693,-5.311 c 4.126,3.135 7.67,3.601 7.727,3.544 l 0,0 c 0.121,-0.032 0.239,-0.103 0.351,-0.22 l 0,0 0.018,0.017 c 0.018,0.7 0.086,1.819 -0.016,2.869 l 0,0 c -0.171,1.753 -0.572,4.012 -1.388,6.862 l 0,0 c -0.101,0.357 -0.21,0.726 -0.328,1.1 l 0,0 c -1.009,-0.47 -1.886,-0.927 -2.48,-1.335"
         id="path11569"
         inkscape:connector-curvature="0" /></clipPath><clipPath
       clipPathUnits="userSpaceOnUse"
       id="clipPath11595"><path
         d="m 284.273,239.909 75.911,0 0,97.47 -75.911,0 0,-97.47 z"
         id="path11597"
         inkscape:connector-curvature="0" /></clipPath><clipPath
       clipPathUnits="userSpaceOnUse"
       id="clipPath11979"><path
         d="m 299.992,275.518 c 0,-0.003 0,-0.003 -0.002,-0.005 l 0,0 c -0.021,-0.086 -0.177,-0.478 -0.015,-0.648 l 0,0 c 0.082,-0.09 0.404,-0.336 1.028,-0.612 l 0,0 c 0.371,-0.164 0.85,-0.339 1.45,-0.498 l 0,0 c 2.994,0.224 4.754,0.506 10.202,0.427 l 0,0 c 4.383,-0.062 3.719,-0.047 5.033,-0.103 l 0,0 c 0,0 3.725,-0.055 4.84,-0.35 l 0,0 10e-4,0 c 0.612,0.158 1.104,0.333 1.486,0.499 l 0,0 c 0.665,0.285 1.005,0.542 1.093,0.637 l 0,0 c 0.15,0.158 0.024,0.508 -0.009,0.629 l 0,0 c -1.082,0.54 -6.337,0.97 -12.557,0.97 l 0,0 c -6.806,0 -12.064,-0.384 -12.55,-0.946"
         id="path11981"
         inkscape:connector-curvature="0" /></clipPath><clipPath
       clipPathUnits="userSpaceOnUse"
       id="clipPath12227"><path
         d="m 284.273,239.909 75.911,0 0,97.47 -75.911,0 0,-97.47 z"
         id="path12229"
         inkscape:connector-curvature="0" /></clipPath><clipPath
       clipPathUnits="userSpaceOnUse"
       id="clipPath13107"><path
         d="m 53.118,72.423 93.842,0 0,97.962 -93.842,0 0,-97.962 z"
         id="path13109"
         inkscape:connector-curvature="0" /></clipPath><clipPath
       clipPathUnits="userSpaceOnUse"
       id="clipPath13867"><path
         d="m 133.157,133.847 c -0.134,-0.105 -0.257,-0.2 -0.357,-0.276 l 0,0 0.069,-0.009 1.669,-1.98 c 2.482,1.083 3.682,3.058 3.682,3.058 l 0,0 -1.701,1.978 -0.046,0.016 c -0.509,-0.488 -2.318,-1.997 -3.316,-2.787"
         id="path13869"
         inkscape:connector-curvature="0" /></clipPath><clipPath
       clipPathUnits="userSpaceOnUse"
       id="clipPath13879"><path
         d="m 53.722,134.64 c 0,0 1.201,-1.975 3.682,-3.058 l 0,0 1.67,1.98 c -0.113,0.08 -0.247,0.182 -0.401,0.299 l 0,0 c -1.014,0.776 -2.743,2.231 -3.249,2.754 l 0,0 -1.702,-1.975 z"
         id="path13881"
         inkscape:connector-curvature="0" /></clipPath><clipPath
       clipPathUnits="userSpaceOnUse"
       id="clipPath13899"><path
         d="m 101.822,168.053 c -0.052,-0.182 -0.123,-0.355 -0.206,-0.521 l 0,0 c -0.824,-1.578 -2.181,-2.21 -3.106,-2.617 l 0,0 c -0.481,-0.213 -1.482,-0.504 -2.328,-0.731 l 0,0 c -0.776,-0.211 -1.422,-0.371 -1.422,-0.371 l 0,0 c 0.262,-0.034 0.527,-0.051 0.794,-0.054 l 0,0 0.842,0 c 2.609,-0.019 4.671,1.278 5.784,2.595 l 0,0 c 0.128,0.151 0.242,0.302 0.344,0.453 l 0,0 c 0.279,0.407 0.458,0.796 0.535,1.144 l 0,0 c -0.037,0.017 -0.074,0.034 -0.103,0.045 l 0,0 c 0,0 -0.901,0.658 -1.055,0.788 l 0,0 c 0.011,-0.255 -0.02,-0.5 -0.079,-0.731"
         id="path13901"
         inkscape:connector-curvature="0" /></clipPath><clipPath
       clipPathUnits="userSpaceOnUse"
       id="clipPath13911"><path
         d="m 89.767,168.673 0,-0.003 c -0.393,-0.247 -0.93,-0.611 -0.93,-0.611 l 0,0 0,-0.006 c 0.077,-0.373 0.261,-0.771 0.535,-1.166 l 0,0 c 0.1,-0.145 0.213,-0.291 0.338,-0.433 l 0,0 c 1.084,-1.26 3.007,-2.389 5.05,-2.641 l 0,0 c 0,0 0.646,0.16 1.422,0.371 l 0,0 c -0.899,0.239 -2.122,0.58 -2.67,0.825 l 0,0 c -0.925,0.41 -2.282,1.038 -3.108,2.618 l 0,0 c 0,0.003 -0.003,0.003 -0.003,0.004 l 0,0 c -0.082,0.163 -0.154,0.337 -0.202,0.516 l 0,0 c 0,0.003 -0.003,0.005 -0.003,0.009 l 0,0 c -0.057,0.227 -0.087,0.469 -0.076,0.722 l 0,0 c -0.069,-0.034 -0.199,-0.107 -0.353,-0.205"
         id="path13913"
         inkscape:connector-curvature="0" /></clipPath><clipPath
       clipPathUnits="userSpaceOnUse"
       id="clipPath13923"><path
         d="m 90.12,168.878 c -0.011,-0.253 0.019,-0.495 0.076,-0.722 l 0,0 0.003,0 c 0.888,0.057 4.177,0.264 5.628,0.258 l 0,0 c 0,0 4.52,-0.084 5.989,-0.361 l 0,0 0.006,0 c 0.059,0.231 0.09,0.476 0.079,0.731 l 0,0 0,0.003 c -0.02,0.014 -0.902,0.236 -4.12,0.401 l 0,0 c -0.027,0 -2.332,-0.006 -2.884,0 l 0,0 c -0.22,0.003 -0.428,0.004 -0.629,0.004 l 0,0 c -3.041,0 -4.087,-0.284 -4.148,-0.314"
         id="path13925"
         inkscape:connector-curvature="0" /></clipPath><clipPath
       clipPathUnits="userSpaceOnUse"
       id="clipPath13963"><path
         d="m 53.118,72.423 93.842,0 0,97.962 -93.842,0 0,-97.962 z"
         id="path13965"
         inkscape:connector-curvature="0" /></clipPath><clipPath
       clipPathUnits="userSpaceOnUse"
       id="clipPath14055"><path
         d="m 53.118,72.423 93.842,0 0,97.962 -93.842,0 0,-97.962 z"
         id="path14057"
         inkscape:connector-curvature="0" /></clipPath><clipPath
       clipPathUnits="userSpaceOnUse"
       id="clipPath14231"><path
         d="m 53.118,72.423 93.842,0 0,97.962 -93.842,0 0,-97.962 z"
         id="path14233"
         inkscape:connector-curvature="0" /></clipPath><clipPath
       clipPathUnits="userSpaceOnUse"
       id="clipPath14455"><path
         d="m 53.118,72.423 93.842,0 0,97.962 -93.842,0 0,-97.962 z"
         id="path14457"
         inkscape:connector-curvature="0" /></clipPath><clipPath
       clipPathUnits="userSpaceOnUse"
       id="clipPath15251"><path
         d="m 53.118,72.423 93.842,0 0,97.962 -93.842,0 0,-97.962 z"
         id="path15253"
         inkscape:connector-curvature="0" /></clipPath><clipPath
       clipPathUnits="userSpaceOnUse"
       id="clipPath18783"><path
         d="m 102.524,166.806 c -0.102,-0.148 -0.216,-0.301 -0.343,-0.453 l 0,0 c 0,0 5.093,-2.417 7.276,-3.907 l 0,0 c 1.621,-1.111 1.079,-6.71 1.013,-9.463 l 0,0 0.003,0 c 0.057,0.057 2.566,0.927 7.155,-3.082 l 0,0 c 2.315,-2.018 15.027,-15.604 15.53,-16.053 l 0,0 c 0.998,0.789 2.806,2.297 3.315,2.789 l 0,0 c 0.004,0.004 0.011,0.006 0.015,0.014 l 0,0 c 0.078,0.074 0.12,0.12 0.124,0.138 l 0,0 c 0,0.18 -11.682,15.9 -14.082,18.636 l 0,0 c -2.466,2.81 -5.39,5.602 -8.246,7.56 l 0,0 c -2.516,1.727 -10.132,4.447 -11.225,4.964 l 0,0 c -0.078,-0.347 -0.255,-0.735 -0.535,-1.143"
         id="path18785"
         inkscape:connector-curvature="0" /></clipPath><clipPath
       clipPathUnits="userSpaceOnUse"
       id="clipPath18811"><path
         d="m 77.611,162.985 c -2.853,-1.958 -5.78,-4.75 -8.247,-7.56 l 0,0 C 66.965,152.686 55.166,137.09 55.283,136.789 l 0,0 c 0.01,-0.032 0.06,-0.092 0.142,-0.174 l 0,0 c 0.505,-0.523 2.236,-1.978 3.248,-2.753 l 0,0 c 0.683,0.64 13.143,14.117 15.511,16.039 l 0,0 c 4.573,3.712 7.1,3.139 7.156,3.082 l 0,0 c 0.004,-0.004 0.011,-0.011 0.015,-0.014 l 0,0 0.038,0.014 c -0.066,2.753 -0.775,8.352 0.846,9.463 l 0,0 c 2.184,1.49 7.453,3.992 7.453,3.992 l 0,0 0.018,0.014 c -0.124,0.146 -0.237,0.291 -0.339,0.436 l 0,0 c -0.274,0.392 -0.457,0.793 -0.536,1.164 l 0,0 0,0.007 c -1.093,-0.52 -8.709,-3.347 -11.224,-5.074"
         id="path18813"
         inkscape:connector-curvature="0" /></clipPath><clipPath
       clipPathUnits="userSpaceOnUse"
       id="clipPath18839"><path
         d="m 53.118,72.423 93.842,0 0,97.962 -93.842,0 0,-97.962 z"
         id="path18841"
         inkscape:connector-curvature="0" /></clipPath><clipPath
       clipPathUnits="userSpaceOnUse"
       id="clipPath19215"><path
         d="m 83.129,107.896 c 0,-0.002 0,-0.002 -0.001,-0.005 l 0,0 c -0.021,-0.085 -0.176,-0.476 -0.015,-0.646 l 0,0 c 0.082,-0.089 0.403,-0.334 1.024,-0.609 l 0,0 c 0.37,-0.163 0.846,-0.338 1.445,-0.496 l 0,0 c 2.982,0.223 4.736,0.504 10.161,0.425 l 0,0 c 4.366,-0.061 3.705,-0.046 5.015,-0.102 l 0,0 c 0,0 3.709,-0.056 4.82,-0.349 l 0,0 10e-4,0 c 0.609,0.157 1.1,0.331 1.481,0.497 l 0,0 c 0.662,0.286 1,0.54 1.088,0.634 l 0,0 c 0.15,0.157 0.024,0.507 -0.009,0.627 l 0,0 c -1.078,0.538 -6.312,0.966 -12.508,0.966 l 0,0 c -6.779,0 -12.016,-0.382 -12.502,-0.942"
         id="path19217"
         inkscape:connector-curvature="0" /></clipPath><clipPath
       clipPathUnits="userSpaceOnUse"
       id="clipPath19463"><path
         d="m 53.118,72.423 93.842,0 0,97.962 -93.842,0 0,-97.962 z"
         id="path19465"
         inkscape:connector-curvature="0" /></clipPath><clipPath
       clipPathUnits="userSpaceOnUse"
       id="clipPath20419"><path
         d="m 275.831,72.354 94.59,0 0,98.419 -94.59,0 0,-98.419 z"
         id="path20421"
         inkscape:connector-curvature="0" /></clipPath><clipPath
       clipPathUnits="userSpaceOnUse"
       id="clipPath21179"><path
         d="m 357.29,133.601 c -0.136,-0.107 -0.26,-0.202 -0.362,-0.28 l 0,0 0.07,-0.009 1.699,-2.016 c 2.525,1.104 3.748,3.114 3.748,3.114 l 0,0 -1.732,2.012 -0.046,0.018 c -0.519,-0.499 -2.36,-2.033 -3.377,-2.839"
         id="path21181"
         inkscape:connector-curvature="0" /></clipPath><clipPath
       clipPathUnits="userSpaceOnUse"
       id="clipPath21191"><path
         d="m 276.435,134.41 c 0,0 1.222,-2.01 3.748,-3.114 l 0,0 1.701,2.016 c -0.117,0.081 -0.252,0.185 -0.409,0.305 l 0,0 c -1.032,0.79 -2.792,2.269 -3.308,2.803 l 0,0 -1.732,-2.01 z"
         id="path21193"
         inkscape:connector-curvature="0" /></clipPath><clipPath
       clipPathUnits="userSpaceOnUse"
       id="clipPath21211"><path
         d="m 325.395,168.421 c -0.052,-0.187 -0.124,-0.363 -0.209,-0.531 l 0,0 c -0.84,-1.608 -2.221,-2.25 -3.161,-2.664 l 0,0 c -0.49,-0.217 -1.51,-0.512 -2.37,-0.745 l 0,0 c -0.79,-0.214 -1.447,-0.377 -1.447,-0.377 l 0,0 c 0.266,-0.034 0.535,-0.052 0.807,-0.055 l 0,0 0.858,0 c 2.656,-0.02 4.754,1.301 5.886,2.642 l 0,0 c 0.131,0.154 0.247,0.307 0.351,0.461 l 0,0 c 0.284,0.414 0.467,0.81 0.544,1.163 l 0,0 c -0.037,0.018 -0.075,0.035 -0.103,0.046 l 0,0 c 0,0 -0.918,0.67 -1.075,0.803 l 0,0 c 0.012,-0.261 -0.021,-0.509 -0.081,-0.743"
         id="path21213"
         inkscape:connector-curvature="0" /></clipPath><clipPath
       clipPathUnits="userSpaceOnUse"
       id="clipPath21223"><path
         d="m 313.125,169.051 0,-0.002 c -0.4,-0.253 -0.947,-0.624 -0.947,-0.624 l 0,0 0,-0.004 c 0.078,-0.381 0.266,-0.786 0.544,-1.188 l 0,0 c 0.102,-0.148 0.218,-0.296 0.346,-0.441 l 0,0 c 1.102,-1.283 3.06,-2.432 5.14,-2.688 l 0,0 c 0,0 0.657,0.163 1.447,0.377 l 0,0 c -0.915,0.243 -2.16,0.592 -2.719,0.84 l 0,0 c -0.941,0.418 -2.322,1.057 -3.163,2.664 l 0,0 c 0,0.004 -0.002,0.004 -0.002,0.005 l 0,0 c -0.085,0.167 -0.157,0.343 -0.206,0.525 l 0,0 c 0,0.003 -0.003,0.005 -0.003,0.009 l 0,0 c -0.059,0.231 -0.089,0.478 -0.078,0.735 l 0,0 c -0.07,-0.035 -0.203,-0.109 -0.359,-0.208"
         id="path21225"
         inkscape:connector-curvature="0" /></clipPath><clipPath
       clipPathUnits="userSpaceOnUse"
       id="clipPath21235"><path
         d="m 313.484,169.259 c -0.011,-0.257 0.019,-0.504 0.078,-0.735 l 0,0 0.003,0 c 0.903,0.058 4.251,0.269 5.728,0.264 l 0,0 c 0,0 4.602,-0.087 6.097,-0.367 l 0,0 0.005,0 c 0.06,0.234 0.093,0.482 0.081,0.743 l 0,0 0,0.003 c -0.021,0.014 -0.918,0.24 -4.193,0.408 l 0,0 c -0.029,0 -2.374,-0.005 -2.937,0 l 0,0 c -0.222,0.003 -0.435,0.004 -0.64,0.004 l 0,0 c -3.096,0 -4.16,-0.29 -4.222,-0.32"
         id="path21237"
         inkscape:connector-curvature="0" /></clipPath><clipPath
       clipPathUnits="userSpaceOnUse"
       id="clipPath21275"><path
         d="m 275.831,72.354 94.59,0 0,98.419 -94.59,0 0,-98.419 z"
         id="path21277"
         inkscape:connector-curvature="0" /></clipPath><clipPath
       clipPathUnits="userSpaceOnUse"
       id="clipPath21367"><path
         d="m 275.831,72.354 94.59,0 0,98.419 -94.59,0 0,-98.419 z"
         id="path21369"
         inkscape:connector-curvature="0" /></clipPath><clipPath
       clipPathUnits="userSpaceOnUse"
       id="clipPath21543"><path
         d="m 275.831,72.354 94.59,0 0,98.419 -94.59,0 0,-98.419 z"
         id="path21545"
         inkscape:connector-curvature="0" /></clipPath><clipPath
       clipPathUnits="userSpaceOnUse"
       id="clipPath21767"><path
         d="m 275.831,72.354 94.59,0 0,98.419 -94.59,0 0,-98.419 z"
         id="path21769"
         inkscape:connector-curvature="0" /></clipPath><clipPath
       clipPathUnits="userSpaceOnUse"
       id="clipPath22563"><path
         d="m 275.831,72.354 94.59,0 0,98.419 -94.59,0 0,-98.419 z"
         id="path22565"
         inkscape:connector-curvature="0" /></clipPath><clipPath
       clipPathUnits="userSpaceOnUse"
       id="clipPath26095"><path
         d="m 326.111,167.152 c -0.105,-0.152 -0.221,-0.307 -0.35,-0.462 l 0,0 c 0,0 5.183,-2.461 7.406,-3.977 l 0,0 c 1.65,-1.132 1.099,-6.83 1.031,-9.633 l 0,0 0.004,0 c 0.057,0.059 2.611,0.944 7.283,-3.137 l 0,0 c 2.355,-2.054 15.296,-15.883 15.806,-16.34 l 0,0 c 1.017,0.803 2.857,2.337 3.376,2.839 l 0,0 c 0.004,0.003 0.011,0.007 0.014,0.014 l 0,0 c 0.079,0.076 0.123,0.122 0.126,0.141 l 0,0 c 0,0.182 -11.89,16.184 -14.333,18.969 l 0,0 c -2.511,2.86 -5.487,5.702 -8.393,7.694 l 0,0 c -2.561,1.759 -10.314,4.528 -11.427,5.054 l 0,0 c -0.078,-0.352 -0.259,-0.749 -0.543,-1.162"
         id="path26097"
         inkscape:connector-curvature="0" /></clipPath><clipPath
       clipPathUnits="userSpaceOnUse"
       id="clipPath26123"><path
         d="m 300.75,163.26 c -2.903,-1.992 -5.882,-4.834 -8.392,-7.694 l 0,0 c -2.443,-2.788 -14.453,-18.663 -14.334,-18.969 l 0,0 c 0.01,-0.033 0.061,-0.094 0.143,-0.177 l 0,0 c 0.516,-0.534 2.277,-2.014 3.308,-2.802 l 0,0 c 0.695,0.651 13.378,14.369 15.789,16.325 l 0,0 c 4.654,3.778 7.226,3.196 7.283,3.137 l 0,0 c 0.004,-0.003 0.011,-0.01 0.015,-0.014 l 0,0 0.039,0.014 c -0.068,2.803 -0.789,8.501 0.862,9.633 l 0,0 c 2.222,1.516 7.586,4.063 7.586,4.063 l 0,0 0.018,0.015 c -0.127,0.147 -0.241,0.296 -0.346,0.442 l 0,0 c -0.278,0.401 -0.465,0.807 -0.544,1.186 l 0,0 0,0.006 c -1.114,-0.528 -8.865,-3.406 -11.427,-5.165"
         id="path26125"
         inkscape:connector-curvature="0" /></clipPath><clipPath
       clipPathUnits="userSpaceOnUse"
       id="clipPath26151"><path
         d="m 275.831,72.354 94.59,0 0,98.419 -94.59,0 0,-98.419 z"
         id="path26153"
         inkscape:connector-curvature="0" /></clipPath><clipPath
       clipPathUnits="userSpaceOnUse"
       id="clipPath26535"><path
         d="m 306.939,108.553 c 0,-0.003 0,-0.003 -0.001,-0.006 l 0,0 c -0.022,-0.087 -0.18,-0.487 -0.016,-0.66 l 0,0 c 0.084,-0.091 0.412,-0.341 1.046,-0.622 l 0,0 c 0.377,-0.166 0.864,-0.344 1.475,-0.506 l 0,0 c 3.045,0.229 4.835,0.514 10.375,0.435 l 0,0 c 4.457,-0.062 3.782,-0.048 5.119,-0.106 l 0,0 c 0,0 3.787,-0.055 4.921,-0.356 l 0,0 0.002,0 c 0.622,0.161 1.122,0.339 1.511,0.508 l 0,0 c 0.676,0.291 1.021,0.552 1.111,0.647 l 0,0 c 0.153,0.162 0.026,0.518 -0.009,0.64 l 0,0 c -1.1,0.549 -6.444,0.987 -12.771,0.987 l 0,0 c -6.921,0 -12.267,-0.39 -12.763,-0.961"
         id="path26537"
         inkscape:connector-curvature="0" /></clipPath><clipPath
       clipPathUnits="userSpaceOnUse"
       id="clipPath26783"><path
         d="m 275.831,72.354 94.59,0 0,98.419 -94.59,0 0,-98.419 z"
         id="path26785"
         inkscape:connector-curvature="0" /></clipPath><clipPath
       clipPathUnits="userSpaceOnUse"
       id="clipPath27755"><path
         d="m 163.917,71.774 94.48,0 0,98.946 -94.48,0 0,-98.946 z"
         id="path27757"
         inkscape:connector-curvature="0" /></clipPath><clipPath
       clipPathUnits="userSpaceOnUse"
       id="clipPath28515"><path
         d="m 245.735,133.389 c -0.138,-0.107 -0.263,-0.204 -0.365,-0.283 l 0,0 0.07,-0.009 1.707,-2.024 c 2.537,1.108 3.765,3.128 3.765,3.128 l 0,0 -1.74,2.021 -0.047,0.017 c -0.52,-0.499 -2.37,-2.042 -3.39,-2.85"
         id="path28517"
         inkscape:connector-curvature="0" /></clipPath><clipPath
       clipPathUnits="userSpaceOnUse"
       id="clipPath28527"><path
         d="m 164.521,134.201 c 0,0 1.227,-2.02 3.765,-3.128 l 0,0 1.706,2.024 c -0.115,0.082 -0.253,0.187 -0.41,0.306 l 0,0 c -1.035,0.794 -2.804,2.281 -3.321,2.816 l 0,0 -1.74,-2.018 z"
         id="path28529"
         inkscape:connector-curvature="0" /></clipPath><clipPath
       clipPathUnits="userSpaceOnUse"
       id="clipPath28547"><path
         d="m 213.698,168.361 c -0.052,-0.186 -0.125,-0.363 -0.21,-0.532 l 0,0 c -0.843,-1.614 -2.231,-2.26 -3.176,-2.676 l 0,0 c -0.492,-0.218 -1.515,-0.515 -2.38,-0.747 l 0,0 c -0.794,-0.216 -1.454,-0.379 -1.454,-0.379 l 0,0 c 0.267,-0.035 0.538,-0.052 0.811,-0.055 l 0,0 0.861,0 c 2.669,-0.021 4.776,1.306 5.913,2.652 l 0,0 c 0.132,0.155 0.248,0.309 0.353,0.463 l 0,0 c 0.285,0.416 0.468,0.814 0.546,1.169 l 0,0 c -0.037,0.018 -0.075,0.036 -0.104,0.048 l 0,0 c 0,0 -0.922,0.671 -1.079,0.805 l 0,0 c 0.011,-0.262 -0.021,-0.512 -0.081,-0.748"
         id="path28549"
         inkscape:connector-curvature="0" /></clipPath><clipPath
       clipPathUnits="userSpaceOnUse"
       id="clipPath28559"><path
         d="m 201.372,168.996 0,-0.004 c -0.4,-0.253 -0.95,-0.625 -0.95,-0.625 l 0,0 0,-0.006 c 0.079,-0.381 0.267,-0.788 0.546,-1.192 l 0,0 c 0.102,-0.149 0.219,-0.297 0.347,-0.442 l 0,0 c 1.108,-1.289 3.074,-2.444 5.163,-2.7 l 0,0 c 0,0 0.66,0.163 1.454,0.379 l 0,0 c -0.919,0.244 -2.17,0.593 -2.731,0.843 l 0,0 c -0.945,0.419 -2.332,1.061 -3.176,2.677 l 0,0 c 0,0.001 -0.004,0.001 -0.004,0.004 l 0,0 c -0.084,0.167 -0.156,0.344 -0.206,0.527 l 0,0 c 0,0.003 -0.004,0.005 -0.004,0.009 l 0,0 c -0.057,0.233 -0.089,0.48 -0.078,0.738 l 0,0 c -0.069,-0.035 -0.203,-0.11 -0.361,-0.208"
         id="path28561"
         inkscape:connector-curvature="0" /></clipPath><clipPath
       clipPathUnits="userSpaceOnUse"
       id="clipPath28571"><path
         d="m 201.733,169.204 c -0.011,-0.258 0.021,-0.505 0.078,-0.738 l 0,0 0.004,0 c 0.907,0.058 4.27,0.27 5.753,0.265 l 0,0 c 0,0 4.623,-0.087 6.123,-0.37 l 0,0 0.007,0 c 0.06,0.236 0.092,0.486 0.081,0.748 l 0,0 0,0.003 c -0.021,0.014 -0.923,0.241 -4.212,0.41 l 0,0 c -0.029,0 -2.385,-0.006 -2.95,0 l 0,0 c -0.224,0.003 -0.437,0.004 -0.642,0.004 l 0,0 c -3.11,0 -4.179,-0.291 -4.242,-0.322"
         id="path28573"
         inkscape:connector-curvature="0" /></clipPath><clipPath
       clipPathUnits="userSpaceOnUse"
       id="clipPath28611"><path
         d="m 163.917,71.774 94.48,0 0,98.946 -94.48,0 0,-98.946 z"
         id="path28613"
         inkscape:connector-curvature="0" /></clipPath><clipPath
       clipPathUnits="userSpaceOnUse"
       id="clipPath28703"><path
         d="m 163.917,71.774 94.48,0 0,98.946 -94.48,0 0,-98.946 z"
         id="path28705"
         inkscape:connector-curvature="0" /></clipPath><clipPath
       clipPathUnits="userSpaceOnUse"
       id="clipPath28879"><path
         d="m 163.917,71.774 94.48,0 0,98.946 -94.48,0 0,-98.946 z"
         id="path28881"
         inkscape:connector-curvature="0" /></clipPath><clipPath
       clipPathUnits="userSpaceOnUse"
       id="clipPath29103"><path
         d="m 163.917,71.774 94.48,0 0,98.946 -94.48,0 0,-98.946 z"
         id="path29105"
         inkscape:connector-curvature="0" /></clipPath><clipPath
       clipPathUnits="userSpaceOnUse"
       id="clipPath29899"><path
         d="m 163.917,71.774 94.48,0 0,98.946 -94.48,0 0,-98.946 z"
         id="path29901"
         inkscape:connector-curvature="0" /></clipPath><clipPath
       clipPathUnits="userSpaceOnUse"
       id="clipPath33431"><path
         d="m 214.417,167.087 c -0.105,-0.152 -0.222,-0.308 -0.352,-0.464 l 0,0 c 0,0 5.206,-2.47 7.439,-3.994 l 0,0 c 1.657,-1.137 1.104,-6.86 1.034,-9.676 l 0,0 0.005,0 c 0.059,0.059 2.623,0.949 7.316,-3.151 l 0,0 c 2.366,-2.062 15.363,-15.952 15.876,-16.412 l 0,0 c 1.021,0.807 2.869,2.349 3.39,2.852 l 0,0 c 0.004,0.003 0.012,0.006 0.016,0.013 l 0,0 c 0.079,0.077 0.122,0.123 0.126,0.142 l 0,0 c 0,0.184 -11.943,16.257 -14.398,19.054 l 0,0 c -2.521,2.873 -5.509,5.727 -8.43,7.728 l 0,0 c -2.571,1.766 -10.358,4.548 -11.477,5.076 l 0,0 c -0.079,-0.354 -0.26,-0.752 -0.545,-1.168"
         id="path33433"
         inkscape:connector-curvature="0" /></clipPath><clipPath
       clipPathUnits="userSpaceOnUse"
       id="clipPath33459"><path
         d="m 188.943,163.179 c -2.916,-2.001 -5.907,-4.855 -8.429,-7.728 l 0,0 c -2.453,-2.801 -14.517,-18.746 -14.397,-19.054 l 0,0 c 0.01,-0.033 0.061,-0.094 0.144,-0.178 l 0,0 c 0.517,-0.535 2.287,-2.022 3.321,-2.815 l 0,0 c 0.699,0.655 13.438,14.434 15.859,16.398 l 0,0 c 4.675,3.796 7.259,3.21 7.316,3.151 l 0,0 c 0.004,-0.002 0.011,-0.01 0.015,-0.014 l 0,0 0.039,0.014 c -0.068,2.816 -0.791,8.539 0.865,9.676 l 0,0 c 2.232,1.524 7.621,4.082 7.621,4.082 l 0,0 0.018,0.014 c -0.127,0.148 -0.242,0.297 -0.348,0.446 l 0,0 c -0.278,0.401 -0.466,0.809 -0.547,1.189 l 0,0 0,0.007 c -1.118,-0.531 -8.904,-3.422 -11.477,-5.188"
         id="path33461"
         inkscape:connector-curvature="0" /></clipPath><clipPath
       clipPathUnits="userSpaceOnUse"
       id="clipPath33487"><path
         d="m 163.917,71.774 94.48,0 0,98.946 -94.48,0 0,-98.946 z"
         id="path33489"
         inkscape:connector-curvature="0" /></clipPath><clipPath
       clipPathUnits="userSpaceOnUse"
       id="clipPath33943"><path
         d="m 194.692,107.866 c 0,-0.003 0,-0.003 -0.002,-0.005 l 0,0 c -0.022,-0.088 -0.179,-0.486 -0.015,-0.658 l 0,0 c 0.083,-0.091 0.41,-0.341 1.043,-0.62 l 0,0 c 0.376,-0.166 0.861,-0.344 1.469,-0.505 l 0,0 c 3.037,0.227 4.821,0.513 10.344,0.432 l 0,0 c 4.443,-0.062 3.772,-0.047 5.104,-0.104 l 0,0 c 0,0 3.775,-0.056 4.906,-0.355 l 0,0 0.002,0 c 0.62,0.161 1.118,0.337 1.506,0.506 l 0,0 c 0.674,0.291 1.019,0.55 1.108,0.646 l 0,0 c 0.152,0.16 0.024,0.515 -0.009,0.638 l 0,0 c -1.097,0.547 -6.425,0.983 -12.731,0.983 l 0,0 c -6.901,0 -12.231,-0.388 -12.725,-0.958"
         id="path33945"
         inkscape:connector-curvature="0" /></clipPath><clipPath
       clipPathUnits="userSpaceOnUse"
       id="clipPath34191"><path
         d="m 163.917,71.774 94.48,0 0,98.946 -94.48,0 0,-98.946 z"
         id="path34193"
         inkscape:connector-curvature="0" /></clipPath></defs><sodipodi:namedview
     pagecolor="#ffffff"
     bordercolor="#666666"
     borderopacity="1"
     objecttolerance="10"
     gridtolerance="10"
     guidetolerance="10"
     inkscape:pageopacity="0"
     inkscape:pageshadow="2"
     inkscape:window-width="1366"
     inkscape:window-height="705"
     id="namedview3343"
     showgrid="false"
     fit-margin-top="1"
     fit-margin-left="1"
     fit-margin-right="1"
     fit-margin-bottom="1"
     inkscape:zoom="3.1352374"
     inkscape:cx="162.425"
     inkscape:cy="21.104245"
     inkscape:window-x="-8"
     inkscape:window-y="-8"
     inkscape:window-maximized="1"
     inkscape:current-layer="g3349" /><g
     id="g3349"
     inkscape:groupmode="layer"
     inkscape:label="premier-league-handbook-2014-15"
     transform="matrix(1.25,0,0,-1.25,63.319562,473.82625)"><g
       id="g5807"
       transform="matrix(50,0,0,50,208.38685,211.696)"><path
         d="m 0,0 c -0.001,0.003 -0.003,0.005 -0.006,0.005 l -0.322,0.124 c 0.006,0.023 0.018,0.054 0.04,0.086 l 0.166,-0.073 c 0.006,-0.003 0.011,-0.004 0.017,-0.004 0.015,0 0.029,0.008 0.037,0.021 0.004,0.007 0.017,0.028 0.028,0.055 0.016,0.043 0.02,0.082 0.01,0.114 -0.01,0.034 -0.034,0.06 -0.07,0.076 l -0.443,0.203 c 0,0 -0.002,0.001 -0.003,0.002 l 0,0 c -0.017,0.007 -0.049,0.016 -0.088,0.003 0,0.014 0,0.028 0,0.042 0,0.034 -0.001,0.07 -0.003,0.106 -0.002,0.037 -0.005,0.075 -0.009,0.114 -0.026,0.224 -0.078,0.389 -0.099,0.449 l -0.008,0.02 c -0.087,0.242 -0.155,0.434 -0.153,0.663 0.001,0.173 0.217,0.415 0.3,0.494 l 0.078,0.074 -0.819,0.747 -0.065,-0.043 c -0.15,-0.099 -0.344,-0.153 -0.547,-0.153 -0.212,0 -0.414,0.059 -0.566,0.166 l -0.057,0.04 -0.057,-0.04 C -2.792,3.184 -2.993,3.125 -3.205,3.125 c -0.203,0 -0.397,0.054 -0.547,0.153 L -3.817,3.321 -4.557,2.646 -4.636,2.574 -4.559,2.5 C -4.476,2.421 -4.26,2.179 -4.258,2.006 -4.257,1.777 -4.325,1.585 -4.412,1.343 L -4.419,1.323 C -4.44,1.263 -4.493,1.098 -4.518,0.874 -4.522,0.835 -4.525,0.797 -4.527,0.76 -4.529,0.724 -4.531,0.688 -4.531,0.654 c 0,-0.014 0,-0.028 10e-4,-0.042 -0.039,0.013 -0.071,0.004 -0.087,-0.003 l -0.001,0 C -4.619,0.608 -4.62,0.607 -4.621,0.607 L -5.064,0.404 C -5.1,0.388 -5.124,0.362 -5.134,0.328 -5.144,0.296 -5.14,0.257 -5.124,0.214 -5.113,0.187 -5.1,0.166 -5.095,0.159 c 0.007,-0.013 0.021,-0.021 0.036,-0.021 0.006,0 0.011,0.001 0.017,0.004 l 0.166,0.073 c 0.022,-0.032 0.033,-0.063 0.04,-0.086 L -5.158,0.005 c -0.003,0 -0.005,-0.002 -0.006,-0.005 -0.001,-0.003 -0.001,-0.005 0,-0.008 l 0.019,-0.049 c 0.201,-0.502 0.543,-0.933 0.988,-1.243 0.414,-0.288 0.899,-0.457 1.402,-0.488 l 0.166,-0.164 c 0.002,-0.002 0.004,-0.003 0.007,-0.003 0.002,0 0.005,0.001 0.007,0.003 l 0.166,0.164 c 0.503,0.031 0.988,0.2 1.401,0.488 0.446,0.31 0.788,0.741 0.989,1.243 L 0,-0.008 C 0.001,-0.005 0.001,-0.003 0,0"
         style="fill:#ffffff;fill-opacity:1;fill-rule:nonzero;stroke:none"
         id="path5809"
         inkscape:connector-curvature="0" /></g><g
       id="g5811"
       transform="matrix(50,0,0,50,-24.35315,230.681)"><path
         d="m 0,0 c -0.016,0.042 -0.021,0.085 -0.015,0.123 10e-4,0.002 10e-4,0.005 0.002,0.008 l 0.004,0.02 -0.379,-0.174 c -0.022,-0.01 -0.036,-0.024 -0.041,-0.043 -0.012,-0.04 0.013,-0.092 0.024,-0.113 L -0.4,-0.187 0.004,-0.009 0,0 z"
         style="fill:#274488;fill-opacity:1;fill-rule:nonzero;stroke:none"
         id="path5813"
         inkscape:connector-curvature="0" /></g><g
       id="g5815"
       transform="matrix(50,0,0,50,182.93185,230.681)"><path
         d="M 0,0 C 0.016,0.042 0.021,0.085 0.015,0.123 0.014,0.125 0.014,0.128 0.013,0.131 l -0.005,0.02 0.38,-0.174 C 0.41,-0.033 0.424,-0.047 0.429,-0.066 0.441,-0.106 0.416,-0.158 0.405,-0.179 L 0.4,-0.187 -0.004,-0.009 0,0 z"
         style="fill:#274488;fill-opacity:1;fill-rule:nonzero;stroke:none"
         id="path5817"
         inkscape:connector-curvature="0" /></g><g
       id="g5819"
       transform="matrix(50,0,0,50,13.85185,158.971)"><path
         d="m 0,0 -0.059,-0.047 0.051,-0.033 0.02,0.072 c 0.002,0.009 0.004,0.016 0.006,0.022 l 0,0 C 0.012,0.01 0.006,0.005 0,0"
         style="fill:#274488;fill-opacity:1;fill-rule:nonzero;stroke:none"
         id="path5821"
         inkscape:connector-curvature="0" /></g><g
       id="g5823"
       transform="matrix(50,0,0,50,116.72685,147.756)"><path
         d="m 0,0 c -0.03,-0.01 -0.042,-0.044 -0.024,-0.095 0.018,-0.055 0.045,-0.072 0.078,-0.061 0.031,0.01 0.043,0.041 0.024,0.095 C 0.06,-0.005 0.033,0.011 0,0"
         style="fill:#274488;fill-opacity:1;fill-rule:nonzero;stroke:none"
         id="path5825"
         inkscape:connector-curvature="0" /></g><g
       id="g5827"
       transform="matrix(50,0,0,50,128.38685,152.286)"><path
         d="m 0,0 -0.016,-0.008 0.033,-0.071 c 0.005,0.001 0.016,0.006 0.019,0.008 0.024,0.011 0.032,0.029 0.021,0.053 C 0.045,0.008 0.025,0.012 0,0"
         style="fill:#274488;fill-opacity:1;fill-rule:nonzero;stroke:none"
         id="path5829"
         inkscape:connector-curvature="0" /></g><g
       id="g5831"
       transform="matrix(50,0,0,50,101.04185,256.281)"><path
         d="m 0,0 c 0,0.001 -0.047,0.014 -0.081,0.02 -0.042,0.007 -0.067,0.008 -0.075,0.009 -0.009,0.002 -0.032,0.002 -0.031,0.015 0,0.009 0.01,0.011 0.02,0.012 C -0.152,0.057 -0.113,0.053 -0.09,0.05 -0.035,0.042 0,0.031 0,0.033 l 0,0.069 c 0,0.002 -0.077,0.028 -0.16,0.037 -0.056,0.005 -0.082,0.004 -0.115,0.005 -0.006,0 -0.019,-0.002 -0.019,0.009 0,0.011 0.012,0.012 0.016,0.013 0.042,0.004 0.096,0.005 0.152,0.001 0.062,-0.004 0.125,-0.026 0.125,-0.024 l 0,0.074 c -0.024,0.011 -0.059,0.022 -0.088,0.027 -0.037,0.006 -0.086,0.009 -0.093,0.009 -0.007,0 -0.01,0.004 -0.011,0.007 -0.001,0.005 0.002,0.009 0.009,0.011 0.011,0.002 0.038,0.003 0.071,0.002 0.024,-0.001 0.082,-0.007 0.111,-0.011 l -0.001,0.057 c -0.055,0.029 -0.14,0.043 -0.195,0.051 -0.083,0.013 -0.159,0.015 -0.172,0.015 -0.007,0.001 -0.014,0.001 -0.015,0.008 0,0.006 0.004,0.011 0.015,0.011 0.01,0 0.075,0.002 0.177,-0.007 0.049,-0.004 0.146,-0.023 0.19,-0.032 l -0.001,0.056 c -0.049,0.024 -0.126,0.042 -0.237,0.058 -0.136,0.02 -0.396,0.011 -0.41,0.009 -0.019,-0.001 -0.022,0.003 -0.023,0.01 -0.001,0.007 0.006,0.011 0.02,0.014 0.014,0.002 0.192,0.019 0.336,0.012 0.109,-0.005 0.266,-0.036 0.314,-0.045 l -0.001,0.044 c -0.082,0.056 -0.217,0.062 -0.226,0.062 -0.009,0.001 -0.015,0.005 -0.016,0.01 -0.001,0.005 0.005,0.009 0.012,0.01 0.007,0.001 0.027,0.003 0.069,0 0.034,-0.002 0.125,-0.021 0.161,-0.029 L -0.006,0.62 c -0.061,0.036 -0.202,0.057 -0.311,0.067 0,0 -0.013,10e-4 -0.037,0.002 L -0.356,0.66 c 0,-0.009 -0.007,-0.015 -0.016,-0.015 -0.064,0.003 -0.087,0.003 -0.151,0 l -0.001,0 c -0.008,0 -0.015,0.006 -0.015,0.015 L -0.541,0.689 C -0.599,0.687 -0.667,0.682 -0.743,0.674 -0.754,0.673 -0.765,0.67 -0.766,0.678 c -0.002,0.005 0.001,0.009 0.015,0.013 0.011,0.002 0.162,0.023 0.2,0.027 0.002,0 0.005,0 0.008,0 l -0.01,0.186 c 0,0.004 0.002,0.008 0.004,0.012 0.003,0.003 0.007,0.005 0.011,0.005 0.078,0.003 0.105,0.003 0.181,0 0.004,0 0.008,-0.002 0.011,-0.005 0.002,-0.003 0.004,-0.007 0.004,-0.01 0.035,-0.001 0.07,-0.003 0.098,-0.005 0.059,-0.003 0.198,-0.023 0.235,-0.028 l 0,0.043 c -0.007,0.005 -0.017,0.008 -0.025,0.012 -0.039,0.015 -0.19,0.041 -0.405,0.041 -0.216,0 -0.345,-0.028 -0.365,-0.033 C -0.826,0.93 -0.85,0.922 -0.849,0.908 L -0.846,0.421 C -0.849,0.388 -0.845,0.257 -0.844,0.226 -0.843,0.175 -0.763,0.143 -0.588,0.082 -0.405,0.015 -0.174,-0.057 0,-0.105 L 0,0"
         style="fill:#274488;fill-opacity:1;fill-rule:nonzero;stroke:none"
         id="path5833"
         inkscape:connector-curvature="0" /></g><g
       id="g5835"
       transform="matrix(50,0,0,50,93.36685,251.231)"><path
         d="m 0,0 c -0.035,0.01 -0.053,0.016 -0.088,0.027 -0.004,0.001 -0.007,-0.001 -0.007,-0.005 0,-0.062 0,-0.093 0,-0.152 0,-0.004 0.003,-0.007 0.006,-0.009 0.035,-0.012 0.053,-0.018 0.089,-0.03 0.003,-0.002 0.006,0.001 0.006,0.004 0,0.059 0,0.092 0,0.156 C 0.006,-0.005 0.003,-0.001 0,0"
         style="fill:#274488;fill-opacity:1;fill-rule:nonzero;stroke:none"
         id="path5837"
         inkscape:connector-curvature="0" /></g><g
       id="g5839"
       transform="matrix(50,0,0,50,85.98185,253.486)"><path
         d="m 0,0 c -0.036,0.011 -0.053,0.016 -0.089,0.028 -0.003,0.001 -0.006,-0.001 -0.006,-0.004 0,-0.059 0,-0.089 0,-0.148 0,-0.003 0.003,-0.007 0.006,-0.008 0.035,-0.012 0.053,-0.019 0.089,-0.031 0.003,-0.001 0.006,0 0.006,0.004 0,0.059 0,0.09 0,0.151 C 0.006,-0.005 0.003,-0.001 0,0"
         style="fill:#274488;fill-opacity:1;fill-rule:nonzero;stroke:none"
         id="path5841"
         inkscape:connector-curvature="0" /></g><g
       id="g5843"
       transform="matrix(50,0,0,50,71.15685,258.376)"><path
         d="M 0,0 C -0.036,0.012 -0.053,0.018 -0.089,0.032 -0.092,0.033 -0.095,0.031 -0.095,0.028 l 0,-0.145 c 0,-0.003 0.003,-0.007 0.006,-0.008 0.035,-0.012 0.053,-0.019 0.089,-0.032 0.003,-0.001 0.006,0.001 0.006,0.004 0,0.059 0,0.088 0,0.145 C 0.006,-0.005 0.003,-0.002 0,0"
         style="fill:#274488;fill-opacity:1;fill-rule:nonzero;stroke:none"
         id="path5845"
         inkscape:connector-curvature="0" /></g><g
       id="g5847"
       transform="matrix(50,0,0,50,96.54685,311.951)"><path
         d="m 0,0 c -0.003,0.005 -0.005,0.011 -0.009,0.019 -0.035,0.013 -0.123,0.035 -0.186,0.041 -0.012,0.001 -0.03,0.002 -0.03,0.011 0,0.008 0.007,0.011 0.027,0.011 0.051,-0.001 0.133,-0.014 0.169,-0.021 -0.01,0.022 -0.022,0.048 -0.035,0.076 -0.068,0.026 -0.197,0.034 -0.22,0.036 -0.025,0.003 -0.033,0.006 -0.031,0.014 0.001,0.008 0.017,0.007 0.056,0.008 0.045,0.001 0.144,-0.007 0.172,-0.01 -0.009,0.02 -0.019,0.041 -0.029,0.064 -0.038,0.026 -0.11,0.031 -0.13,0.032 -0.019,10e-4 -0.026,0.008 -0.025,0.014 0.001,0.007 0.011,0.009 0.019,0.01 0.007,0 0.09,0.001 0.097,0.002 0.005,0 0.01,0.003 0.006,0.01 -0.008,0.018 -0.013,0.029 -0.022,0.047 -0.013,0.006 -0.03,0.011 -0.044,0.013 -0.012,0.002 -0.051,0.004 -0.071,0.006 -0.011,0.003 -0.013,0.005 -0.013,0.009 0,0.005 0.003,0.008 0.013,0.009 0.025,0.002 0.071,0 0.081,0.001 0.007,0 0.015,0.003 0.012,0.009 -0.005,0.012 -0.01,0.022 -0.015,0.033 -0.011,0.005 -0.028,0.008 -0.042,0.011 -0.018,0.004 -0.052,0.007 -0.08,0.008 -0.007,0 -0.013,0.004 -0.013,0.008 0,0.004 0.003,0.008 0.011,0.009 0.019,0.003 0.059,0.003 0.075,0.004 0.013,0.001 0.029,0.003 0.024,0.014 -0.009,0.018 -0.014,0.031 -0.023,0.048 -0.012,0 -0.033,0.001 -0.048,0.003 -0.006,0.001 -0.014,0.002 -0.014,0.007 -0.001,0.005 0.007,0.008 0.014,0.011 0.005,0.002 0.022,0.007 0.034,0.01 -0.006,0.011 -0.01,0.021 -0.015,0.032 -0.017,0.001 -0.048,0.003 -0.072,0.003 -0.01,0 -0.015,0.005 -0.015,0.009 0,0.004 0.002,0.007 0.013,0.009 0.018,0.005 0.046,0.007 0.06,0.008 C -0.315,0.672 -0.33,0.705 -0.344,0.735 -0.454,0.5 -0.656,0.067 -0.689,-0.002 -0.575,0.025 -0.421,0.035 -0.349,0.035 -0.277,0.035 -0.115,0.024 0,0"
         style="fill:#274488;fill-opacity:1;fill-rule:nonzero;stroke:none"
         id="path5849"
         inkscape:connector-curvature="0" /></g><g
       id="g5851"
       transform="matrix(50,0,0,50,63.73185,261.036)"><path
         d="m 0,0 c -0.035,0.013 -0.053,0.019 -0.089,0.033 -0.003,0.001 -0.006,0 -0.006,-0.004 l 0,-0.147 c 0,-0.004 0.003,-0.008 0.006,-0.008 0.036,-0.013 0.054,-0.019 0.089,-0.032 0.004,0 0.006,0.001 0.006,0.005 l 0,0.145 C 0.006,-0.005 0.004,-0.002 0,0"
         style="fill:#274488;fill-opacity:1;fill-rule:nonzero;stroke:none"
         id="path5853"
         inkscape:connector-curvature="0" /></g><g
       id="g5855"
       transform="matrix(50,0,0,50,78.57685,255.851)"><path
         d="M 0,0 C -0.036,0.011 -0.053,0.018 -0.089,0.03 -0.092,0.031 -0.095,0.029 -0.095,0.026 l 0,-0.145 c 0,-0.003 0.003,-0.007 0.006,-0.008 0.035,-0.013 0.053,-0.019 0.089,-0.031 0.003,-0.002 0.006,0 0.006,0.003 0,0.059 0,0.089 0,0.147 C 0.006,-0.005 0.003,-0.001 0,0"
         style="fill:#274488;fill-opacity:1;fill-rule:nonzero;stroke:none"
         id="path5857"
         inkscape:connector-curvature="0" /></g><g
       id="g5859"
       transform="matrix(50,0,0,50,64.21685,218.961)"><path
         d="m 0,0 c 0,0.038 -0.028,0.066 -0.065,0.066 -0.052,0 -0.074,-0.039 -0.078,-0.106 l 0.094,0.003 C -0.014,-0.037 0,-0.026 0,0"
         style="fill:#274488;fill-opacity:1;fill-rule:nonzero;stroke:none"
         id="path5861"
         inkscape:connector-curvature="0" /></g><g
       id="g5863"
       transform="matrix(50,0,0,50,112.13685,222.356)"><path
         d="m 0,0 c -0.068,0 -0.094,-0.062 -0.094,-0.159 0,-0.115 0.034,-0.176 0.097,-0.176 0.063,0 0.097,0.054 0.097,0.159 C 0.1,-0.062 0.064,0 0,0"
         style="fill:#274488;fill-opacity:1;fill-rule:nonzero;stroke:none"
         id="path5865"
         inkscape:connector-curvature="0" /></g><g
       id="g5867"
       transform="matrix(50,0,0,50,90.64185,296.701)"><path
         d="M 0,0 C 0.008,0.001 0.044,0.001 0.091,-0.005 0.126,-0.01 0.177,-0.021 0.2,-0.026 l 0,0.04 C 0.152,0.034 0.042,0.054 -0.017,0.061 -0.053,0.066 -0.095,0.07 -0.136,0.073 l -0.008,-0.157 c 0.021,-0.001 0.035,-0.001 0.035,-0.001 0.027,-0.002 0.054,-0.003 0.081,-0.006 0.104,-0.01 0.191,-0.03 0.229,-0.038 l 0,0.056 c -0.059,0.049 -0.195,0.053 -0.203,0.053 -0.008,0 -0.016,0.002 -0.016,0.01 0,0.008 0.01,0.009 0.018,0.01"
         style="fill:#274488;fill-opacity:1;fill-rule:nonzero;stroke:none"
         id="path5869"
         inkscape:connector-curvature="0" /></g><g
       id="g5871"
       transform="matrix(50,0,0,50,58.69685,304.846)"><path
         d="m 0,0 c 0.018,0.004 0.156,0.054 0.408,0.054 0.251,0 0.401,-0.055 0.419,-0.063 0.02,-0.009 0.038,-0.015 0.047,0 C 0.882,0.006 0.872,0.025 0.858,0.034 0.803,0.069 0.61,0.113 0.408,0.11 0.205,0.109 0.002,0.064 -0.026,0.052 -0.055,0.041 -0.067,0.024 -0.058,0.008 -0.043,-0.019 -0.018,-0.005 0,0"
         style="fill:#274488;fill-opacity:1;fill-rule:nonzero;stroke:none"
         id="path5873"
         inkscape:connector-curvature="0" /></g><g
       id="g5875"
       transform="matrix(50,0,0,50,100.74185,249.041)"><path
         d="m 0,0 c -0.035,0.011 -0.053,0.016 -0.088,0.026 -0.004,0.001 -0.006,-10e-4 -0.006,-0.005 -0.001,-0.066 -0.001,-0.099 -0.001,-0.158 0,-0.004 0.003,-0.007 0.006,-0.009 0.036,-0.012 0.054,-0.018 0.089,-0.031 0.003,-0.001 0.006,0.001 0.006,0.004 l 0,0.164 C 0.006,-0.005 0.003,-0.001 0,0"
         style="fill:#274488;fill-opacity:1;fill-rule:nonzero;stroke:none"
         id="path5877"
         inkscape:connector-curvature="0" /></g><g
       id="g5879"
       transform="matrix(50,0,0,50,76.51185,290.141)"><path
         d="M 0,0 C 0.046,0.001 0.104,0 0.104,0 L 0.115,0.203 C 0.067,0.206 -0.012,0.202 -0.012,0.202 L 0,0 z"
         style="fill:#274488;fill-opacity:1;fill-rule:nonzero;stroke:none"
         id="path5881"
         inkscape:connector-curvature="0" /></g><g
       id="g5883"
       transform="matrix(50,0,0,50,133.83185,152.761)"><path
         d="m 0,0 c 0.025,-0.053 -0.003,-0.098 -0.054,-0.121 -0.004,-0.002 -0.015,-0.007 -0.019,-0.008 l 0.032,-0.068 c 0.003,-0.006 0.002,-0.01 -0.006,-0.014 L -0.08,-0.226 c -0.006,-0.003 -0.011,-0.002 -0.014,0.005 l -0.099,0.21 C -0.197,-0.003 -0.195,0 -0.188,0.004 l 0.053,0.024 c 0.038,0.018 0.068,0.023 0.094,0.013 C -0.023,0.033 -0.008,0.018 0,0 m 0.917,0.963 c -0.003,0.006 -0.004,0.011 0,0.018 L 0.931,1.003 C 0.934,1.009 0.938,1.01 0.944,1.006 l 0.206,-0.113 0,0 C 1.157,0.889 1.158,0.884 1.154,0.879 L 1.134,0.848 C 1.13,0.84 1.124,0.84 1.116,0.845 l -0.11,0.063 -0.001,0 0.084,-0.117 C 1.094,0.785 1.092,0.78 1.089,0.776 L 1.082,0.765 C 1.079,0.759 1.075,0.756 1.067,0.757 L 0.921,0.773 0.92,0.772 1.029,0.702 C 1.038,0.697 1.037,0.692 1.032,0.686 L 1.016,0.66 C 1.012,0.653 1.007,0.651 1,0.656 l 0,0 -0.192,0.13 C 0.801,0.792 0.801,0.796 0.804,0.802 L 0.818,0.824 C 0.823,0.832 0.827,0.833 0.835,0.832 L 1.019,0.813 1.02,0.814 0.917,0.963 z M 0.824,0.605 0.725,0.685 C 0.72,0.69 0.721,0.695 0.725,0.7 L 0.748,0.728 C 0.753,0.733 0.757,0.735 0.763,0.73 L 0.864,0.647 C 0.927,0.594 0.929,0.538 0.883,0.485 0.835,0.427 0.781,0.427 0.721,0.476 L 0.62,0.559 C 0.614,0.564 0.616,0.57 0.62,0.575 L 0.643,0.602 C 0.648,0.608 0.651,0.609 0.657,0.604 L 0.755,0.524 C 0.8,0.487 0.825,0.492 0.847,0.518 0.868,0.543 0.868,0.569 0.824,0.605 M 0.536,0.475 C 0.534,0.481 0.535,0.487 0.541,0.493 L 0.559,0.51 c 0.006,0.005 0.01,0.004 0.014,0 L 0.742,0.347 C 0.742,0.346 0.743,0.346 0.743,0.346 0.747,0.341 0.747,0.336 0.742,0.332 L 0.715,0.307 C 0.708,0.3 0.703,0.302 0.696,0.31 l -0.089,0.089 0,0 0.049,-0.135 C 0.659,0.257 0.656,0.253 0.653,0.25 L 0.643,0.241 C 0.637,0.236 0.634,0.234 0.626,0.237 L 0.489,0.291 0.488,0.29 0.575,0.194 C 0.582,0.186 0.579,0.183 0.573,0.177 L 0.551,0.157 C 0.545,0.151 0.54,0.15 0.535,0.156 c 0,0 -0.001,0.001 -0.001,0.001 l -0.15,0.176 c -0.006,0.007 -0.005,0.011 0,0.016 l 0.02,0.018 C 0.41,0.373 0.415,0.373 0.422,0.37 L 0.594,0.303 0.595,0.304 0.536,0.475 z M 0.427,0.111 0.442,0.121 C 0.447,0.125 0.452,0.123 0.455,0.119 L 0.466,0.103 C 0.469,0.1 0.469,0.095 0.465,0.092 L 0.389,0.036 C 0.384,0.033 0.379,0.034 0.376,0.037 L 0.365,0.053 C 0.361,0.058 0.362,0.063 0.366,0.066 L 0.38,0.076 0.273,0.22 0.257,0.208 C 0.252,0.205 0.247,0.207 0.244,0.211 L 0.233,0.226 C 0.23,0.23 0.23,0.235 0.234,0.238 l 0.08,0.058 C 0.318,0.299 0.323,0.299 0.326,0.295 L 0.338,0.279 C 0.341,0.274 0.341,0.27 0.336,0.266 L 0.32,0.255 0.427,0.111 z M 0.239,-0.05 C 0.244,-0.058 0.243,-0.059 0.237,-0.063 L 0.201,-0.084 C 0.195,-0.088 0.194,-0.087 0.189,-0.081 L 0.087,0.089 0.029,0.055 C 0.023,0.051 0.018,0.052 0.015,0.059 L 0.001,0.082 c -0.004,0.006 -0.002,0.01 0.004,0.013 l 0.154,0.091 0.016,0.01 c 0.006,0.003 0.009,0.002 0.012,-0.002 0,0 0,-0.001 0,-0.001 L 0.2,0.166 C 0.203,0.16 0.2,0.156 0.193,0.152 L 0.137,0.119 0.239,-0.05 z m -0.596,-0.003 c 0.074,0.024 0.129,-0.017 0.152,-0.087 0.027,-0.078 -0.003,-0.142 -0.069,-0.164 -0.07,-0.023 -0.126,0.013 -0.151,0.088 -0.026,0.074 -0.001,0.14 0.068,0.163 m -0.274,-0.299 0.018,0.003 c 0.006,0 0.01,-0.003 0.011,-0.008 l 0.003,-0.019 c 0.001,-0.005 -0.002,-0.009 -0.007,-0.01 l -0.093,-0.016 c -0.005,-0.001 -0.01,0.002 -0.01,0.006 l -0.004,0.02 c -0.001,0.006 0.002,0.01 0.007,0.011 l 0.017,0.003 -0.03,0.176 -0.02,-0.003 c -0.006,-0.001 -0.009,0.003 -0.01,0.008 l -0.004,0.019 c 0,0.004 0.002,0.008 0.007,0.009 l 0.098,0.017 c 0.005,0.001 0.009,-0.003 0.01,-0.006 l 0.003,-0.02 c 0.001,-0.006 -0.002,-0.01 -0.007,-0.011 l -0.02,-0.003 0.031,-0.176 z m -0.298,0.112 c 0.002,-0.012 0.017,-0.017 0.026,-0.021 l 0.044,-0.016 c 0.03,-0.01 0.05,-0.028 0.053,-0.062 0.004,-0.052 -0.036,-0.086 -0.086,-0.09 -0.024,-0.002 -0.053,0.001 -0.078,0.007 -0.006,0.001 -0.008,0.004 -0.008,0.007 0,0.002 0,0.004 0.001,0.006 l 0.008,0.031 c 0,0.003 0.002,0.007 0.007,0.007 0.001,0 0.004,0 0.006,-0.001 0.019,-0.006 0.04,-0.008 0.058,-0.007 0.016,0.001 0.034,0.011 0.033,0.029 -0.001,0.014 -0.013,0.019 -0.025,0.024 l -0.05,0.019 c -0.029,0.01 -0.048,0.031 -0.051,0.062 -0.004,0.046 0.041,0.077 0.084,0.08 0.027,0.002 0.05,-0.001 0.074,-0.009 0.006,-0.002 0.008,-0.004 0.009,-0.008 0,-0.001 -0.001,-0.003 -0.001,-0.006 l -0.01,-0.029 c -0.001,-0.005 -0.003,-0.006 -0.006,-0.007 -0.002,0 -0.004,0.001 -0.007,0.001 -0.016,0.005 -0.036,0.01 -0.051,0.008 -0.015,-0.001 -0.031,-0.008 -0.03,-0.025 M -3.174,0.912 -3.296,0.837 C -3.303,0.833 -3.307,0.835 -3.311,0.841 L -3.329,0.87 c -0.005,0.007 -0.005,0.011 0.002,0.016 l 0.199,0.121 c 0.009,0.005 0.012,0.002 0.017,-0.004 L -3.095,0.977 C -3.092,0.97 -3.091,0.966 -3.094,0.96 l -0.068,-0.17 0,0 0.123,0.075 c 0.007,0.004 0.012,0.002 0.015,-0.004 L -3.005,0.83 C -3,0.822 -3.004,0.819 -3.009,0.816 L -3.208,0.695 C -3.216,0.69 -3.219,0.692 -3.223,0.698 L -3.239,0.725 C -3.243,0.73 -3.243,0.736 -3.241,0.742 l 0.067,0.169 0,0.001 z m 0.108,-0.36 C -3.063,0.547 -3.065,0.542 -3.069,0.539 L -3.084,0.527 C -3.087,0.525 -3.093,0.525 -3.096,0.528 l -0.057,0.075 c -0.004,0.005 -0.002,0.01 0,0.012 l 0.016,0.012 c 0.005,0.004 0.01,0.003 0.013,-0.001 l 0.011,-0.014 0.143,0.11 -0.012,0.015 c -0.004,0.005 -0.002,0.01 0.002,0.013 l 0.016,0.011 c 0.003,0.003 0.008,0.003 0.011,-0.001 l 0.06,-0.078 c 0.004,-0.004 0.003,-0.009 0,-0.012 L -2.909,0.659 C -2.914,0.654 -2.919,0.656 -2.922,0.66 L -2.935,0.675 -3.078,0.567 -3.066,0.552 z M -2.884,0.364 C -2.879,0.359 -2.88,0.354 -2.885,0.349 L -2.905,0.33 C -2.911,0.325 -2.916,0.326 -2.921,0.331 l -0.095,0.102 c -0.005,0.006 -0.006,0.01 10e-4,0.016 l 0.172,0.158 c 0.005,0.004 0.01,0.004 0.015,-0.001 l 0.025,-0.027 c 0.005,-0.006 0.006,-0.01 0,-0.015 L -2.947,0.432 -2.884,0.364 z m 0.253,-0.16 -0.024,0.049 c -0.014,0.027 -0.013,0.055 0.006,0.079 0.03,0.037 0.083,0.028 0.117,0.001 0.02,-0.017 0.035,-0.035 0.047,-0.057 C -2.482,0.27 -2.482,0.267 -2.484,0.265 -2.485,0.263 -2.487,0.262 -2.489,0.261 L -2.516,0.246 c -0.004,-0.002 -0.007,-0.002 -0.01,0 -0.001,0.001 -0.002,0.003 -0.004,0.005 -0.007,0.015 -0.019,0.031 -0.031,0.04 -0.011,0.01 -0.028,0.016 -0.039,0.003 -0.007,-0.01 0,-0.024 0.004,-0.034 L -2.575,0.219 C -2.561,0.191 -2.559,0.164 -2.58,0.138 -2.613,0.097 -2.665,0.1 -2.705,0.131 -2.723,0.146 -2.743,0.168 -2.756,0.189 -2.76,0.195 -2.76,0.198 -2.757,0.2 c 0.001,0.002 0.003,0.003 0.005,0.004 l 0.026,0.017 c 0.004,0.002 0.007,0.004 0.011,0.001 10e-4,-0.002 0.002,-0.003 0.003,-0.005 0.01,-0.017 0.024,-0.033 0.038,-0.045 0.012,-0.01 0.032,-0.016 0.044,-0.002 0.008,0.011 0.004,0.023 -10e-4,0.034 M -2.43,0.006 -2.484,0.041 -2.495,0.048 -2.531,0.019 C -2.535,0.016 -2.54,0.014 -2.546,0.018 l -0.035,0.023 c -0.003,0.002 -0.003,0.005 -0.002,0.008 0.001,0.001 0.002,0.002 0.003,0.003 l 0.203,0.149 c 0.005,0.003 0.01,0.004 0.015,0.001 L -2.33,0.181 C -2.323,0.177 -2.322,0.172 -2.323,0.167 L -2.376,-0.076 C -2.377,-0.079 -2.377,-0.08 -2.378,-0.081 -2.381,-0.085 -2.384,-0.087 -2.389,-0.084 l -0.034,0.023 c -0.008,0.005 -0.008,0.01 -0.007,0.016 l 0.011,0.043 -0.011,0.008 z m 0.167,0.077 C -2.269,0.087 -2.27,0.091 -2.267,0.097 l 0.013,0.025 c 0.003,0.005 0.007,0.007 0.013,0.003 l 0.159,-0.082 0.017,-0.009 c 0.006,-0.003 0.007,-0.007 0.004,-0.011 0,0 0,-0.001 0,-0.001 l -0.016,-0.025 c -0.005,-0.006 -0.01,-0.005 -0.016,-0.001 l -0.058,0.029 -0.092,-0.174 c -0.004,-0.007 -0.005,-0.008 -0.012,-0.005 l -0.037,0.02 c -0.007,0.003 -0.007,0.004 -0.003,0.011 l 0.092,0.175 -0.06,0.031 z m 0.274,-0.314 c 0.005,-0.002 0.006,-0.007 0.005,-0.012 l -0.008,-0.018 c -0.001,-0.004 -0.006,-0.007 -0.011,-0.004 l -0.087,0.034 c -0.005,0.003 -0.007,0.008 -0.006,0.011 l 0.008,0.019 c 0.002,0.006 0.006,0.007 0.012,0.005 l 0.015,-0.006 0.068,0.166 -0.018,0.007 c -0.006,0.003 -0.007,0.008 -0.005,0.012 l 0.008,0.018 c 10e-4,0.004 0.005,0.007 0.01,0.005 l 0.092,-0.037 c 0.005,-0.002 0.007,-0.006 0.006,-0.011 L -1.908,-0.06 C -1.911,-0.066 -1.915,-0.067 -1.92,-0.065 l -0.019,0.007 -0.067,-0.166 0.017,-0.007 z m 0.207,0.064 0.036,-0.03 c 0.024,-0.021 0.036,-0.046 0.026,-0.078 -0.015,-0.05 -0.065,-0.067 -0.113,-0.053 -0.023,0.007 -0.049,0.02 -0.07,0.035 -0.005,0.003 -0.006,0.006 -0.005,0.009 0,0.002 0.002,0.004 0.003,0.006 l 0.018,0.025 c 0.002,0.004 0.005,0.006 0.01,0.005 0.001,-0.001 0.003,-0.001 0.005,-0.004 0.016,-0.011 0.034,-0.021 0.052,-0.027 0.015,-0.004 0.036,-0.002 0.041,0.015 0.004,0.014 -0.004,0.023 -0.014,0.031 l -0.041,0.036 c -0.022,0.02 -0.033,0.047 -0.024,0.076 0.014,0.045 0.067,0.057 0.108,0.044 0.025,-0.007 0.046,-0.018 0.065,-0.034 0.005,-0.005 0.006,-0.008 0.005,-0.011 0,-0.001 -0.001,-0.003 -0.003,-0.004 L -1.702,-0.15 c -0.003,-0.005 -0.005,-0.006 -0.009,-0.005 -10e-4,0.001 -0.003,0.002 -0.006,0.004 -0.012,0.01 -0.03,0.021 -0.044,0.025 -0.014,0.005 -0.032,0.004 -0.037,-0.013 -0.003,-0.011 0.009,-0.022 0.016,-0.028 m 0.52,-0.019 -0.029,-0.229 c -0.001,-0.009 -0.006,-0.011 -0.012,-0.01 l -0.031,0.004 c -0.007,0.001 -0.012,0.004 -0.015,0.01 l -0.091,0.157 -0.001,0 -0.018,-0.141 C -1.46,-0.403 -1.464,-0.405 -1.471,-0.404 L -1.505,-0.4 c -0.008,0.001 -0.012,0.003 -0.01,0.012 l 0.028,0.23 c 0.001,0.009 0.006,0.011 0.014,0.009 l 0.03,-0.003 c 0.008,-0.001 0.011,-0.004 0.014,-0.01 l 0.091,-0.158 0.001,0 0.018,0.142 c 10e-4,0.008 0.005,0.01 0.012,0.009 l 0.036,-0.004 c 0.009,-0.001 0.009,-0.007 0.009,-0.013 M 1.452,1.13 C 1.253,0.631 0.914,0.204 0.472,-0.104 0.06,-0.391 -0.422,-0.559 -0.923,-0.589 c -0.003,0 -0.005,-0.001 -0.007,-0.003 l -0.161,-0.16 -0.161,0.16 c -0.002,0.002 -0.004,0.003 -0.007,0.003 -0.5,0.03 -0.983,0.198 -1.395,0.485 -0.441,0.308 -0.781,0.735 -0.98,1.234 l -0.016,0.039 0.61,0.234 c 0.016,0.007 0.033,10e-4 0.042,-0.013 l 0.001,-10e-4 c 0.004,-0.006 0.012,-0.018 0.024,-0.029 0.005,-0.016 0.01,-0.032 0.016,-0.047 -0.032,0.012 -0.055,0.042 -0.064,0.055 l -0.002,0.004 c -10e-4,10e-4 -0.003,0.002 -0.005,0.002 0,0 -10e-4,0 -0.002,0 L -3.073,1.357 -3.092,1.349 -3.089,1.341 C -3.087,1.337 -3.086,1.333 -3.085,1.331 -3.067,1.286 -3.047,1.243 -3.027,1.2 -3.023,1.194 -3.02,1.187 -3.017,1.181 l 0.019,0.007 0.08,0.029 c 0.005,-0.01 0.01,-0.019 0.014,-0.028 L -2.983,1.16 -3.003,1.153 C -3,1.147 -2.997,1.141 -2.993,1.135 -2.832,0.831 -2.602,0.57 -2.317,0.37 -1.993,0.145 -1.618,0.016 -1.224,-0.009 l 0.034,-0.033 c -0.413,0.018 -0.808,0.151 -1.145,0.387 -0.353,0.246 -0.624,0.586 -0.783,0.984 L -3.122,1.338 -3.608,1.151 -3.604,1.142 c 0.197,-0.494 0.532,-0.916 0.969,-1.221 0.411,-0.286 0.893,-0.452 1.394,-0.479 l 0.143,-0.142 0.007,-0.007 0.15,0.149 c 0.501,0.027 0.983,0.193 1.394,0.479 0.437,0.305 0.773,0.727 0.97,1.221 L 1.426,1.151 0.94,1.338 0.937,1.329 C 0.777,0.931 0.506,0.591 0.153,0.345 -0.185,0.109 -0.579,-0.024 -0.992,-0.042 l 0.034,0.033 c 0.394,0.025 0.769,0.154 1.093,0.379 0.285,0.2 0.516,0.461 0.676,0.765 0.004,0.006 0.007,0.012 0.01,0.018 L 0.801,1.16 0.722,1.189 C 0.726,1.198 0.731,1.207 0.735,1.217 L 0.816,1.188 0.835,1.181 c 0.003,0.006 0.007,0.013 0.01,0.019 0.02,0.043 0.04,0.086 0.058,0.131 0.001,0.002 0.003,0.006 0.004,0.01 L 0.911,1.349 0.891,1.357 0.848,1.374 c -0.001,0 -0.001,0 -0.003,0 -0.001,0 -0.003,-0.001 -0.004,-0.002 L 0.839,1.368 C 0.83,1.355 0.807,1.325 0.775,1.312 0.78,1.328 0.786,1.344 0.791,1.36 0.802,1.37 0.811,1.383 0.815,1.389 L 0.816,1.39 C 0.825,1.404 0.842,1.41 0.858,1.403 L 1.468,1.169 1.452,1.13 z M -3.373,1.412 -3.378,1.42 -3.559,1.339 c -0.011,-0.004 -0.022,0 -0.027,0.01 -0.004,0.005 -0.017,0.025 -0.027,0.051 -0.01,0.027 -0.02,0.066 -0.01,0.101 0.008,0.028 0.028,0.05 0.058,0.063 l 0.444,0.203 c 10e-4,0 0.002,0.001 0.003,0.001 0.008,0.004 0.023,0.009 0.04,0.009 0.012,0 0.025,-0.003 0.039,-0.008 0.001,-0.013 0.001,-0.024 0.002,-0.036 -0.014,0.008 -0.028,0.013 -0.042,0.013 -0.009,0 -0.018,-0.002 -0.026,-0.006 L -3.108,1.739 c -0.02,-0.01 -0.034,-0.033 -0.04,-0.064 -0.006,-0.035 0,-0.076 0.018,-0.116 L -3.127,1.551 C -3.123,1.541 -3.128,1.53 -3.138,1.525 l -0.211,-0.093 0.007,-0.01 c 0.025,-0.035 0.038,-0.069 0.046,-0.095 l -0.03,-0.012 c -0.007,0.026 -0.021,0.062 -0.047,0.097 m 2.127,-1.399 c -0.382,0.028 -0.745,0.156 -1.059,0.375 -0.281,0.196 -0.509,0.454 -0.669,0.754 l 0.08,0.028 C -2.892,1.165 -2.889,1.161 -2.887,1.156 -2.869,1.124 -2.85,1.092 -2.829,1.062 -2.827,1.059 -2.824,1.055 -2.82,1.05 L -2.819,1.047 C -2.462,0.513 -1.938,0.18 -1.341,0.109 l 0.095,-0.096 z m 0.167,-0.408 c 0.006,0 0.009,-0.004 0.009,-0.009 l 0,-0.02 c 0,-0.004 -0.003,-0.008 -0.008,-0.008 l -0.095,0.001 c -0.006,0 -0.009,0.004 -0.009,0.008 l 0,0.02 c 0,0.007 0.004,0.009 0.009,0.009 l 0.018,0 0.002,0.179 -0.019,0.001 c -0.006,0 -0.009,0.004 -0.009,0.009 l 0,0.019 c 0,0.005 0.003,0.009 0.008,0.009 l 0.099,-0.002 c 0.006,0 0.009,-0.004 0.009,-0.008 l 0,-0.02 c 0,-0.006 -0.004,-0.009 -0.009,-0.009 l -0.02,0 -0.003,-0.179 0.018,0 z M 0.712,1.17 0.792,1.142 C 0.633,0.842 0.405,0.584 0.123,0.388 -0.191,0.169 -0.554,0.041 -0.936,0.013 l 0.095,0.096 C -0.244,0.18 0.28,0.513 0.636,1.047 L 0.638,1.05 c 0.003,0.005 0.006,0.009 0.009,0.013 0.02,0.029 0.04,0.061 0.057,0.093 0.003,0.005 0.006,0.009 0.008,0.014 m -3.717,0.767 c 0.002,0.037 0.005,0.074 0.01,0.112 0.024,0.222 0.076,0.383 0.097,0.442 l 0.007,0.02 c 0.088,0.245 0.157,0.439 0.155,0.674 -10e-4,0.183 -0.224,0.435 -0.31,0.517 l -0.053,0.05 0.054,0.049 0.722,0.659 0.044,-0.029 c 0.156,-0.102 0.356,-0.159 0.565,-0.159 0.218,0 0.426,0.062 0.584,0.172 l 0.039,0.027 0.039,-0.027 c 0.158,-0.11 0.365,-0.172 0.584,-0.172 0.208,0 0.409,0.057 0.564,0.159 L 0.14,4.46 0.917,3.752 0.864,3.701 C 0.778,3.62 0.555,3.368 0.554,3.185 0.552,2.95 0.621,2.756 0.709,2.511 L 0.716,2.491 C 0.737,2.432 0.789,2.271 0.813,2.049 0.817,2.011 0.821,1.974 0.823,1.937 0.824,1.902 0.826,1.866 0.826,1.832 0.827,1.576 0.777,1.353 0.677,1.171 0.66,1.14 0.641,1.109 0.621,1.081 0.619,1.077 0.616,1.073 0.612,1.067 L 0.61,1.065 C 0.258,0.537 -0.26,0.208 -0.85,0.139 l -0.005,0 -0.236,-0.236 -0.236,0.236 -0.005,0 c -0.59,0.069 -1.109,0.398 -1.461,0.926 l -10e-4,0.002 c -0.004,0.006 -0.007,0.01 -0.009,0.013 -0.02,0.029 -0.039,0.06 -0.056,0.091 -0.1,0.182 -0.15,0.405 -0.149,0.661 0,0.034 10e-4,0.07 0.003,0.105 M 0.856,1.768 c 0.015,0.006 0.029,0.009 0.04,0.009 0.017,0 0.031,-0.005 0.04,-0.009 0.001,0 0.002,-0.001 0.003,-0.001 L 1.383,1.564 C 1.413,1.551 1.433,1.529 1.441,1.501 1.452,1.466 1.441,1.427 1.431,1.4 1.421,1.374 1.408,1.354 1.404,1.349 1.399,1.339 1.387,1.335 1.378,1.339 L 1.196,1.42 1.191,1.412 C 1.165,1.377 1.151,1.341 1.144,1.315 L 1.115,1.327 c 0.007,0.026 0.02,0.06 0.045,0.095 L 1.167,1.432 0.956,1.525 C 0.946,1.53 0.941,1.541 0.945,1.551 L 0.948,1.559 C 0.966,1.599 0.972,1.64 0.966,1.675 0.961,1.706 0.946,1.729 0.926,1.739 L 0.924,1.74 C 0.915,1.744 0.906,1.746 0.897,1.746 0.883,1.746 0.869,1.741 0.855,1.732 0.856,1.745 0.856,1.756 0.856,1.768 M 1.491,1.179 C 1.49,1.181 1.488,1.183 1.486,1.184 L 1.164,1.308 C 1.17,1.33 1.181,1.362 1.203,1.394 L 1.369,1.32 C 1.375,1.318 1.38,1.317 1.386,1.317 c 0.015,0 0.029,0.008 0.037,0.021 0.004,0.007 0.017,0.027 0.028,0.055 0.016,0.043 0.02,0.081 0.01,0.114 -0.01,0.034 -0.034,0.06 -0.07,0.076 L 0.948,1.785 c 0,0.001 -0.001,0.002 -0.003,0.002 l 0,0 C 0.928,1.795 0.896,1.804 0.857,1.791 l 0,0.041 C 0.857,1.867 0.856,1.903 0.854,1.939 0.852,1.976 0.849,2.014 0.845,2.052 0.819,2.277 0.767,2.441 0.745,2.501 L 0.738,2.521 C 0.652,2.764 0.583,2.956 0.585,3.184 0.586,3.357 0.802,3.6 0.885,3.679 L 0.963,3.753 0.144,4.499 0.079,4.457 C -0.071,4.358 -0.265,4.304 -0.468,4.304 -0.68,4.304 -0.882,4.363 -1.034,4.47 L -1.091,4.51 -1.148,4.47 C -1.301,4.363 -1.502,4.304 -1.714,4.304 c -0.203,0 -0.397,0.054 -0.547,0.153 L -2.326,4.499 -3.066,3.825 -3.145,3.753 -3.068,3.679 C -2.985,3.6 -2.769,3.357 -2.767,3.184 -2.766,2.956 -2.834,2.764 -2.921,2.521 L -2.928,2.501 C -2.949,2.441 -3.002,2.277 -3.027,2.052 -3.031,2.014 -3.034,1.976 -3.036,1.939 -3.038,1.903 -3.04,1.867 -3.04,1.832 c 0,-0.014 0,-0.027 10e-4,-0.041 -0.039,0.013 -0.071,0.004 -0.087,-0.004 l -10e-4,0 c -0.001,0 -0.002,-10e-4 -0.003,-0.002 L -3.573,1.583 c -0.036,-0.016 -0.06,-0.042 -0.07,-0.076 -0.01,-0.033 -0.006,-0.071 0.01,-0.114 0.011,-0.028 0.024,-0.048 0.029,-0.055 0.007,-0.013 0.021,-0.021 0.036,-0.021 0.006,0 0.011,0.001 0.017,0.003 l 0.166,0.074 C -3.363,1.362 -3.352,1.33 -3.345,1.308 L -3.667,1.184 C -3.67,1.183 -3.672,1.181 -3.673,1.179 c -10e-4,-0.003 -10e-4,-0.006 0,-0.008 l 0.019,-0.049 c 0.201,-0.503 0.543,-0.933 0.988,-1.243 0.414,-0.289 0.899,-0.458 1.402,-0.488 l 0.166,-0.165 c 0.002,-0.001 0.004,-0.003 0.007,-0.003 0.003,0 0.006,0.002 0.007,0.003 l 0.166,0.165 c 0.503,0.03 0.988,0.199 1.402,0.488 0.445,0.31 0.787,0.74 0.988,1.243 l 0.019,0.049 c 10e-4,0.002 10e-4,0.005 0,0.008"
         style="fill:#274488;fill-opacity:1;fill-rule:nonzero;stroke:none"
         id="path5885"
         inkscape:connector-curvature="0" /></g><g
       id="g5887"
       transform="matrix(50,0,0,50,72.39685,185.671)"><path
         d="m 0,0 c 0.022,0.013 0.045,0.029 0.045,0.06 0,0.027 -0.02,0.048 -0.048,0.048 -0.027,0 -0.048,-0.02 -0.048,-0.047 C -0.051,0.032 -0.028,0.016 0,0"
         style="fill:#274488;fill-opacity:1;fill-rule:nonzero;stroke:none"
         id="path5889"
         inkscape:connector-curvature="0" /></g><g
       id="g5891"
       transform="matrix(50,0,0,50,147.77685,326.186)"><path
         d="m 0,0 c -0.026,-0.016 -0.053,-0.022 -0.072,-0.018 0.006,0.021 0.024,0.044 0.05,0.061 C 0.003,0.059 0.031,0.065 0.05,0.061 0.044,0.039 0.026,0.016 0,0 m -0.051,-0.094 c -0.025,-0.017 -0.052,-0.023 -0.072,-0.018 0.006,0.021 0.024,0.044 0.05,0.06 0.026,0.017 0.053,0.023 0.073,0.018 -0.007,-0.021 -0.025,-0.044 -0.051,-0.06 M -0.1,-0.177 c -0.029,-0.006 -0.057,-0.001 -0.074,0.011 0.012,0.017 0.037,0.032 0.066,0.038 0.029,0.006 0.056,0.001 0.073,-0.011 -0.012,-0.017 -0.036,-0.032 -0.065,-0.038 m -0.023,-2.266 c -0.027,0 -0.054,-10e-4 -0.069,-10e-4 0.008,0.045 0.011,0.097 0.011,0.158 l 0,0.073 c 0,0.048 -0.004,0.105 -0.073,0.105 -0.024,0 -0.048,-0.01 -0.067,-0.028 -0.021,-0.021 -0.027,-0.039 -0.027,-0.091 l 0,-0.059 c 0,-0.077 0.005,-0.123 0.017,-0.158 -0.013,0 -0.04,10e-4 -0.066,10e-4 -0.028,0 -0.054,-10e-4 -0.068,-10e-4 0.007,0.045 0.01,0.097 0.01,0.158 l 0,0.102 c 0,0.041 -0.004,0.102 -0.018,0.146 0.037,0 0.088,0 0.124,0.003 l -0.003,-0.072 0.034,0.029 c 0.041,0.034 0.074,0.049 0.116,0.049 0.096,0 0.129,-0.055 0.129,-0.149 l 0,-0.108 c 0,-0.077 0.005,-0.123 0.017,-0.158 -0.014,0 -0.041,10e-4 -0.067,10e-4 m -0.596,-0.014 c -0.129,0 -0.205,0.075 -0.205,0.205 0,0.128 0.078,0.222 0.224,0.222 0.13,0 0.204,-0.074 0.204,-0.201 0,-0.139 -0.087,-0.226 -0.223,-0.226 m -0.214,0.412 c -0.003,-0.012 -0.012,-0.046 -0.017,-0.06 -0.032,0.003 -0.051,0.004 -0.073,0.004 l -0.037,0 c -10e-4,-0.028 -0.002,-0.061 -0.002,-0.085 l 0,-0.094 c 0,-0.063 0.007,-0.11 0.062,-0.11 0.017,0 0.031,0.004 0.053,0.015 0.004,0.002 0.012,0.002 0.009,-0.01 -0.005,-0.018 -0.01,-0.035 -0.015,-0.056 -0.05,-0.013 -0.071,-0.016 -0.097,-0.016 -0.072,0 -0.118,0.03 -0.118,0.132 l 0,0.127 c 0,0.04 0,0.07 -0.001,0.098 -0.022,0 -0.046,-0.003 -0.057,-0.005 -0.002,0 -0.008,0 -0.005,0.009 0,0.003 0.011,0.041 0.015,0.054 0.01,-0.001 0.03,-0.002 0.05,-0.002 0,0.033 -0.002,0.05 -0.003,0.075 0.029,0.009 0.082,0.033 0.105,0.047 0.009,0.006 0.013,-0.002 0.012,-0.011 -10e-4,-0.01 -0.007,-0.037 -0.008,-0.111 l 0.058,0 c 0.02,0 0.042,10e-4 0.063,0.006 0.004,10e-4 0.008,-0.001 0.006,-0.007 m -0.163,-0.964 c -0.055,0 -0.093,0.033 -0.093,0.081 0,0.041 0.025,0.064 0.067,0.088 -0.026,0.016 -0.052,0.037 -0.052,0.076 0,0.045 0.039,0.081 0.089,0.081 0.048,0 0.084,-0.031 0.084,-0.073 0,-0.039 -0.027,-0.059 -0.056,-0.075 0.035,-0.02 0.066,-0.044 0.066,-0.087 0,-0.053 -0.044,-0.091 -0.105,-0.091 M -1.323,-2.998 -1.324,-3 -1.326,-3 c 0,0 -0.036,0 -0.057,-0.002 l -10e-4,0 -0.004,0.008 0.154,0.263 -0.097,0 c -0.015,0 -0.034,-0.002 -0.05,-0.014 l -0.002,-10e-4 -0.007,0.004 10e-4,0.002 c 0.005,0.014 0.009,0.038 0.011,0.047 l 0,0.002 0.002,0 c 0.011,0 0.023,0 0.036,0 l 0.111,0 c 0.014,0 0.021,0 0.034,0 l 0.003,10e-4 0,-0.003 c 0,-0.004 0.003,-0.024 0.004,-0.028 l 10e-4,-10e-4 -10e-4,-10e-4 C -1.212,-2.75 -1.24,-2.8 -1.265,-2.844 -1.305,-2.917 -1.32,-2.957 -1.323,-2.998 m -0.069,0.554 c -0.013,0 -0.04,10e-4 -0.065,10e-4 -0.026,0 -0.052,-10e-4 -0.068,-10e-4 0.008,0.047 0.01,0.088 0.01,0.147 l 0,0.1 c 0,0.039 -0.003,0.111 -0.017,0.155 0.031,0 0.08,10e-4 0.113,0.003 l -10e-4,-0.095 0.03,0.039 c 0.037,0.05 0.063,0.065 0.102,0.065 0.014,0 0.021,-0.001 0.036,-0.008 -0.012,-0.042 -0.024,-0.086 -0.031,-0.112 -0.002,-0.005 -0.007,-0.013 -0.014,-0.004 -0.016,0.017 -0.019,0.024 -0.038,0.024 -0.024,0 -0.043,-0.013 -0.057,-0.036 -0.012,-0.019 -0.016,-0.035 -0.016,-0.074 l 0,-0.067 c 0,-0.072 0.004,-0.102 0.016,-0.137 m -0.129,-0.559 c -0.055,0 -0.093,0.034 -0.093,0.081 0,0.041 0.026,0.064 0.067,0.089 -0.026,0.015 -0.052,0.037 -0.052,0.075 0,0.046 0.039,0.081 0.09,0.081 0.048,0 0.083,-0.031 0.083,-0.073 0,-0.039 -0.027,-0.059 -0.056,-0.075 0.035,-0.019 0.066,-0.043 0.066,-0.086 0,-0.053 -0.044,-0.092 -0.105,-0.092 m -0.136,0.008 c -0.005,10e-4 -0.015,0.002 -0.025,0.002 -0.008,0 -0.016,-0.001 -0.026,-0.002 l -0.004,0 10e-4,0.003 c 0.004,0.025 0.005,0.05 0.005,0.078 l 0,0.142 c 0,0.04 -0.003,0.044 -0.016,0.044 -0.003,0 -0.009,-10e-4 -0.016,-0.002 L -1.76,-2.735 c -0.007,-0.002 -0.011,-0.003 -0.016,-0.006 l -10e-4,0 -0.006,0.005 10e-4,0.002 c 0.003,0.006 0.007,0.016 0.009,0.025 l 10e-4,0.002 0.001,0 c 0.012,10e-4 0.02,0.002 0.033,0.005 l 0.047,0.01 c 0.009,0.002 0.019,0.004 0.027,0.007 l 10e-4,0 0.006,-0.005 -10e-4,-10e-4 c -0.004,-0.027 -0.005,-0.057 -0.005,-0.074 l 0,-0.154 c 0,-0.031 0.003,-0.056 0.008,-0.072 l 0.001,-0.004 -0.003,0 z m -0.271,0.748 c 0,0.128 0.081,0.216 0.198,0.216 0.102,0 0.165,-0.06 0.165,-0.158 0,-0.008 0,-0.044 -0.015,-0.044 l -0.104,0 c -0.043,0 -0.103,-10e-4 -0.13,-0.002 0.002,-0.098 0.054,-0.154 0.142,-0.154 0.035,0 0.056,0.008 0.085,0.027 0.007,0.005 0.015,10e-4 0.011,-0.012 -0.008,-0.029 -0.01,-0.036 -0.017,-0.06 -0.037,-0.013 -0.085,-0.025 -0.128,-0.025 -0.127,0 -0.207,0.086 -0.207,0.212 M -2.051,-2.36 c -0.012,-0.029 -0.018,-0.051 -0.025,-0.084 -0.009,10e-4 -0.028,10e-4 -0.047,10e-4 -0.016,0 -0.037,-10e-4 -0.052,-10e-4 -0.006,0.036 -0.013,0.058 -0.025,0.095 l -0.054,0.165 c -0.017,0.05 -0.036,0.104 -0.072,0.146 0.054,-0.002 0.096,0 0.148,0.004 0.004,-0.04 0.012,-0.079 0.024,-0.117 l 0.03,-0.104 c 0.008,-0.025 0.024,-0.08 0.024,-0.08 0.005,0.018 0.012,0.036 0.018,0.051 l 0.047,0.123 c 0.008,0.022 0.019,0.055 0.022,0.088 0,0.011 10e-4,0.022 0,0.036 0.012,-10e-4 0.033,-10e-4 0.051,-10e-4 0.016,0 0.043,0.002 0.055,0.004 0.012,10e-4 0.01,-0.006 0.006,-0.01 -0.028,-0.036 -0.051,-0.085 -0.072,-0.135 L -2.051,-2.36 z m -0.246,10e-4 c -0.006,-0.02 -0.023,-0.083 -0.025,-0.089 -0.092,0.004 -0.153,0.004 -0.207,0.004 -0.068,0 -0.112,0 -0.149,0 0.006,0.043 0.011,0.093 0.011,0.155 l 0,0.257 c 0,0.042 -0.002,0.121 -0.016,0.158 0.027,-0.002 0.047,-0.002 0.067,-0.002 l 0.154,0 c 0.055,0 0.077,0.002 0.137,0.002 -0.011,-0.039 -0.022,-0.08 -0.027,-0.096 -0.004,-0.016 -0.013,-0.004 -0.014,-0.002 -0.025,0.037 -0.075,0.041 -0.121,0.041 -0.015,0 -0.032,-10e-4 -0.053,-10e-4 -10e-4,-0.014 -0.003,-0.053 -0.003,-0.089 l 0,-0.083 0.068,0 c 0.05,0 0.1,0.004 0.12,0.007 0.008,0 0.006,-0.006 0.006,-0.006 -0.006,-0.023 -0.014,-0.052 -0.019,-0.071 -0.053,0.005 -0.081,0.006 -0.118,0.006 l -0.058,0 0,-0.116 c 0,-0.075 0.008,-0.1 0.098,-0.1 0.05,0 0.078,0 0.133,0.041 0.009,0.008 0.021,0.004 0.016,-0.016 m -0.408,2.22 c 0.017,0.012 0.045,0.017 0.074,0.011 0.029,-0.006 0.053,-0.021 0.066,-0.038 -0.018,-0.012 -0.045,-0.017 -0.074,-0.011 -0.029,0.006 -0.053,0.021 -0.066,0.038 m -0.034,0.105 c 0.02,0.005 0.047,-0.001 0.072,-0.018 0.026,-0.016 0.044,-0.039 0.05,-0.06 -0.019,-0.005 -0.046,0.001 -0.072,0.018 -0.025,0.016 -0.044,0.039 -0.05,0.06 M -2.79,0.061 c 0.02,0.004 0.047,-0.002 0.073,-0.018 0.026,-0.017 0.044,-0.04 0.05,-0.061 C -2.687,-0.022 -2.714,-0.016 -2.74,0 -2.765,0.016 -2.783,0.039 -2.79,0.061 m 0.012,0.225 C -2.759,0.278 -2.739,0.257 -2.725,0.228 -2.711,0.199 -2.706,0.169 -2.711,0.147 -2.73,0.155 -2.75,0.176 -2.764,0.205 -2.778,0.234 -2.783,0.264 -2.778,0.286 m 0.057,0.077 c 0.015,-0.014 0.029,-0.041 0.034,-0.073 0.005,-0.033 0,-0.063 -0.01,-0.082 -0.016,0.014 -0.029,0.041 -0.034,0.073 -0.005,0.033 -0.001,0.063 0.01,0.082 m 0.03,0.018 c 10e-4,0.034 0.012,0.062 0.026,0.078 0.012,-0.018 0.02,-0.047 0.018,-0.081 -0.002,-0.032 -0.012,-0.06 -0.026,-0.076 -0.012,0.017 -0.02,0.047 -0.018,0.079 M -2.658,0.12 c 0.015,-0.014 0.028,-0.041 0.033,-0.073 0.005,-0.033 10e-4,-0.063 -0.01,-0.082 -0.016,0.014 -0.029,0.041 -0.034,0.074 -0.004,0.032 0,0.062 0.011,0.081 m -0.03,-0.078 c -0.02,0.004 -0.044,0.02 -0.063,0.045 -0.019,0.026 -0.029,0.054 -0.028,0.076 0.02,-0.003 0.044,-0.019 0.062,-0.044 0.019,-0.026 0.029,-0.054 0.029,-0.077 m -0.013,0.077 c -0.003,0.02 0.002,0.046 0.016,0.071 0.014,0.025 0.033,0.043 0.05,0.049 C -2.631,0.219 -2.637,0.192 -2.651,0.167 -2.664,0.142 -2.684,0.124 -2.701,0.119 m 0.063,0.189 c 0.02,0.018 0.043,0.028 0.061,0.027 C -2.58,0.315 -2.593,0.292 -2.614,0.273 -2.634,0.255 -2.657,0.245 -2.675,0.246 c 0.003,0.02 0.016,0.043 0.037,0.062 m 0.027,0.106 c 0.017,0.027 0.039,0.045 0.058,0.051 C -2.55,0.442 -2.558,0.412 -2.575,0.386 -2.591,0.358 -2.614,0.34 -2.633,0.335 c -0.002,0.022 0.005,0.052 0.022,0.079 m 0.058,-0.566 c -0.019,0.008 -0.038,0.029 -0.052,0.058 -0.014,0.029 -0.017,0.06 -0.012,0.081 0.018,-0.008 0.038,-0.029 0.052,-0.058 0.013,-0.03 0.017,-0.06 0.012,-0.081 m 0.064,-0.051 c -0.014,-0.017 -0.039,-0.03 -0.068,-0.034 -0.03,-0.004 -0.057,0.003 -0.073,0.016 0.013,0.016 0.039,0.029 0.068,0.033 0.029,0.004 0.056,-0.002 0.073,-0.015 m 0.026,0.054 c 0.024,-0.019 0.041,-0.043 0.046,-0.064 -0.02,-0.004 -0.046,0.004 -0.071,0.023 -0.025,0.017 -0.042,0.042 -0.047,0.064 0.02,0.003 0.046,-0.005 0.072,-0.023 m 0.057,-0.079 c 0.001,0 0.001,-0.001 0.001,-0.001 0.008,-0.004 0.016,-0.007 0.024,-0.011 0,0 0.009,0.006 0.026,0.012 0.017,0.007 0.04,0.009 0.064,0.002 0.029,-0.007 0.052,-0.023 0.064,-0.041 -0.017,-0.011 -0.044,-0.014 -0.074,-0.007 -0.027,0.007 -0.05,0.022 -0.062,0.039 -0.004,-0.003 -0.007,-0.006 -0.011,-0.009 0.031,-0.019 0.056,-0.043 0.081,-0.075 -0.01,-0.015 -0.014,-0.023 -0.024,-0.038 -0.019,0.042 -0.038,0.076 -0.064,0.105 -0.027,-0.029 -0.05,-0.064 -0.068,-0.105 -0.01,0.015 -0.015,0.022 -0.024,0.037 0.024,0.032 0.052,0.057 0.084,0.076 -0.003,0.003 -0.007,0.006 -0.01,0.01 -0.013,-0.018 -0.035,-0.033 -0.063,-0.04 -0.029,-0.007 -0.057,-0.004 -0.074,0.007 0.011,0.018 0.035,0.034 0.064,0.041 0.025,0.007 0.048,0.005 0.065,-0.002 l 10e-4,0 m 0.105,0.079 c 0.025,0.018 0.051,0.026 0.071,0.023 -0.005,-0.022 -0.022,-0.047 -0.046,-0.064 -0.025,-0.019 -0.052,-0.027 -0.071,-0.023 0.004,0.021 0.021,0.045 0.046,0.064 m 0.099,-0.039 c 0.029,-0.004 0.054,-0.017 0.068,-0.033 -0.017,-0.013 -0.044,-0.02 -0.074,-0.016 -0.029,0.004 -0.054,0.017 -0.067,0.034 0.016,0.013 0.043,0.019 0.073,0.015 m 0.003,0.117 c 0.014,0.029 0.033,0.05 0.052,0.058 0.005,-0.021 10e-4,-0.052 -0.013,-0.081 -0.013,-0.029 -0.033,-0.05 -0.052,-0.058 -0.004,0.021 -10e-4,0.051 0.013,0.081 M -2.212,0.465 C -2.192,0.459 -2.17,0.441 -2.153,0.414 -2.137,0.387 -2.129,0.357 -2.132,0.335 -2.151,0.34 -2.173,0.358 -2.19,0.386 -2.207,0.412 -2.214,0.442 -2.212,0.465 M -2.089,0.246 C -2.107,0.245 -2.13,0.255 -2.151,0.273 -2.172,0.292 -2.185,0.315 -2.188,0.335 -2.17,0.336 -2.147,0.326 -2.126,0.308 -2.105,0.289 -2.092,0.266 -2.089,0.246 M -2.1,0.459 C -2.085,0.443 -2.075,0.415 -2.074,0.381 -2.071,0.349 -2.079,0.319 -2.091,0.302 -2.105,0.318 -2.116,0.346 -2.118,0.378 -2.119,0.412 -2.112,0.441 -2.1,0.459 m 0.057,-0.096 c 0.011,-0.019 0.015,-0.049 0.01,-0.082 -0.005,-0.032 -0.019,-0.059 -0.034,-0.073 -0.011,0.019 -0.015,0.049 -0.01,0.082 0.005,0.032 0.018,0.059 0.034,0.073 M -1.987,0.286 C -1.982,0.264 -1.986,0.234 -2,0.205 -2.014,0.176 -2.035,0.155 -2.053,0.147 c -0.005,0.022 -10e-4,0.052 0.013,0.081 0.014,0.029 0.034,0.05 0.053,0.058 m -0.11,-0.304 c 0.006,0.021 0.024,0.044 0.05,0.061 0.026,0.016 0.052,0.022 0.072,0.018 C -1.981,0.039 -1.999,0.016 -2.025,0 -2.051,-0.016 -2.078,-0.022 -2.097,-0.018 M -2.106,0.12 c 0.01,-0.019 0.015,-0.049 0.01,-0.081 -0.005,-0.033 -0.018,-0.06 -0.034,-0.074 -0.01,0.019 -0.015,0.049 -0.01,0.082 0.005,0.032 0.018,0.059 0.034,0.073 m 0.058,-0.001 c 0.019,0.025 0.042,0.041 0.062,0.044 10e-4,-0.022 -0.009,-0.05 -0.028,-0.076 -0.019,-0.025 -0.042,-0.041 -0.062,-0.045 0,0.023 0.009,0.051 0.028,0.077 m -0.015,0 C -2.081,0.124 -2.1,0.142 -2.114,0.167 -2.128,0.192 -2.133,0.219 -2.13,0.239 -2.113,0.233 -2.094,0.215 -2.08,0.19 -2.066,0.165 -2.06,0.139 -2.063,0.119 m 0.003,-0.258 c -0.012,-0.017 -0.036,-0.032 -0.066,-0.038 -0.029,-0.006 -0.056,-0.001 -0.073,0.011 0.012,0.017 0.036,0.032 0.066,0.038 0.029,0.006 0.056,0.001 0.073,-0.011 m -0.016,0.045 c -0.025,-0.017 -0.053,-0.023 -0.072,-0.018 0.006,0.021 0.024,0.044 0.05,0.06 0.026,0.017 0.053,0.023 0.072,0.018 -0.006,-0.021 -0.024,-0.044 -0.05,-0.06 m 0.249,-0.232 0.41,0.871 c -0.015,0.033 0.01,0.074 0.042,0.074 0.032,0 0.062,-0.041 0.047,-0.073 l 0.413,-0.866 c 0.07,-0.034 0.101,-0.077 0.097,-0.106 -0.003,-0.031 -0.025,-0.05 -0.051,-0.06 0.002,-0.157 -0.005,-0.714 -0.003,-1.032 0.035,-0.008 0.035,-0.045 0.032,-0.165 -0.002,-0.115 0.008,-0.154 -0.068,-0.154 -0.01,0 -0.03,10e-4 -0.03,10e-4 l 0,0.039 c -0.001,0.02 -0.001,0.026 -0.012,0.03 -0.032,0.013 -0.066,0.024 -0.103,0.039 -0.026,0.009 -0.808,0.289 -0.808,0.289 0,0 -0.036,0.01 -0.036,0.045 0,0.003 -10e-4,0.033 -10e-4,0.043 l 0,0.112 c 0,0.029 0.019,0.039 0.036,0.037 0.001,0 0.001,0.003 0.001,0.005 -0.001,0.103 -0.002,0.642 -0.002,0.699 -0.036,0.011 -0.046,0.036 -0.046,0.036 -0.017,0.037 0.001,0.093 0.082,0.136 m 1.135,0.369 c 0.025,-0.017 0.044,-0.04 0.05,-0.061 -0.02,-0.004 -0.047,0.002 -0.072,0.018 -0.026,0.016 -0.045,0.039 -0.051,0.061 0.02,0.004 0.047,-0.002 0.073,-0.018 M -0.753,0.286 C -0.734,0.278 -0.714,0.257 -0.7,0.228 -0.686,0.199 -0.681,0.169 -0.686,0.147 -0.705,0.155 -0.725,0.176 -0.739,0.205 -0.753,0.234 -0.758,0.264 -0.753,0.286 m 0.057,0.077 c 0.016,-0.014 0.029,-0.041 0.034,-0.073 0.005,-0.033 0.001,-0.063 -0.01,-0.082 -0.016,0.014 -0.029,0.041 -0.034,0.073 -0.005,0.033 -0.001,0.063 0.01,0.082 m 0.03,0.018 c 0.002,0.034 0.012,0.062 0.026,0.078 0.013,-0.018 0.02,-0.047 0.018,-0.081 -0.002,-0.032 -0.012,-0.06 -0.026,-0.076 -0.013,0.017 -0.02,0.047 -0.018,0.079 M -0.614,0.308 C -0.593,0.326 -0.57,0.336 -0.551,0.335 -0.555,0.315 -0.568,0.292 -0.588,0.273 -0.609,0.255 -0.633,0.245 -0.651,0.246 c 0.003,0.02 0.017,0.043 0.037,0.062 m 0.028,0.106 c 0.017,0.027 0.039,0.045 0.058,0.051 C -0.525,0.442 -0.533,0.412 -0.549,0.386 -0.567,0.358 -0.588,0.34 -0.608,0.335 -0.61,0.357 -0.603,0.387 -0.586,0.414 m 0.058,-0.566 c -0.019,0.008 -0.039,0.029 -0.052,0.058 -0.014,0.029 -0.018,0.06 -0.013,0.081 0.019,-0.008 0.039,-0.029 0.052,-0.058 0.014,-0.03 0.018,-0.06 0.013,-0.081 m -0.078,0.024 c 0.029,-0.006 0.053,-0.021 0.065,-0.038 -0.017,-0.012 -0.044,-0.017 -0.073,-0.011 -0.029,0.006 -0.053,0.021 -0.066,0.038 0.018,0.012 0.045,0.017 0.074,0.011 m 0.015,0.016 c -0.02,-0.005 -0.047,0.001 -0.073,0.018 -0.026,0.016 -0.044,0.039 -0.05,0.06 0.02,0.005 0.047,-0.001 0.072,-0.018 0.026,-0.016 0.044,-0.039 0.051,-0.06 M -0.633,0.12 c 0.016,-0.014 0.029,-0.041 0.033,-0.073 0.005,-0.033 0.001,-0.063 -0.01,-0.082 -0.016,0.014 -0.029,0.041 -0.033,0.074 -0.005,0.032 -0.001,0.062 0.01,0.081 M -0.664,0.042 c -0.019,0.004 -0.043,0.02 -0.062,0.045 -0.019,0.026 -0.029,0.054 -0.028,0.076 0.02,-0.003 0.043,-0.019 0.062,-0.044 0.019,-0.026 0.029,-0.054 0.028,-0.077 m -0.012,0.077 c -0.003,0.02 0.002,0.046 0.016,0.071 0.014,0.025 0.033,0.043 0.051,0.049 C -0.606,0.219 -0.612,0.192 -0.626,0.167 -0.64,0.142 -0.659,0.124 -0.676,0.119 m 0.211,-0.322 c -0.013,-0.017 -0.038,-0.03 -0.067,-0.034 -0.03,-0.004 -0.056,0.003 -0.073,0.016 0.014,0.016 0.038,0.029 0.068,0.033 0.029,0.004 0.056,-0.002 0.072,-0.015 m 0.027,0.054 c 0.024,-0.019 0.041,-0.043 0.046,-0.064 -0.02,-0.004 -0.046,0.004 -0.071,0.023 -0.025,0.017 -0.042,0.042 -0.047,0.064 0.02,0.003 0.047,-0.005 0.072,-0.023 m 0.08,-0.091 c 0.007,0.004 0.015,0.007 0.023,0.011 0.001,0 0.001,0.001 0.002,0.001 l 0,0 c 0.018,0.007 0.041,0.009 0.065,0.002 0.029,-0.007 0.053,-0.023 0.065,-0.041 -0.018,-0.011 -0.046,-0.014 -0.074,-0.007 -0.028,0.007 -0.051,0.022 -0.063,0.04 -0.004,-0.004 -0.007,-0.007 -0.011,-0.01 0.033,-0.019 0.061,-0.044 0.085,-0.076 -0.01,-0.015 -0.014,-0.022 -0.024,-0.037 -0.018,0.041 -0.041,0.076 -0.068,0.105 -0.026,-0.029 -0.046,-0.063 -0.065,-0.105 -0.009,0.015 -0.014,0.023 -0.023,0.038 0.024,0.032 0.049,0.056 0.08,0.075 -0.003,0.003 -0.007,0.006 -0.01,0.009 -0.013,-0.017 -0.035,-0.032 -0.063,-0.039 -0.029,-0.007 -0.056,-0.004 -0.074,0.007 0.012,0.018 0.035,0.034 0.064,0.041 0.024,0.007 0.047,0.005 0.065,-0.002 0.016,-0.006 0.026,-0.012 0.026,-0.012 m 0.082,0.091 c 0.025,0.018 0.051,0.026 0.071,0.023 -0.005,-0.022 -0.022,-0.047 -0.046,-0.064 -0.025,-0.019 -0.052,-0.027 -0.072,-0.023 0.005,0.021 0.022,0.045 0.047,0.064 m 0.099,-0.039 c 0.029,-0.004 0.054,-0.017 0.067,-0.033 -0.016,-0.013 -0.043,-0.02 -0.072,-0.016 -0.03,0.004 -0.055,0.017 -0.068,0.034 0.016,0.013 0.043,0.019 0.073,0.015 m 0.003,0.117 c 0.014,0.029 0.033,0.05 0.052,0.058 0.005,-0.021 0.001,-0.052 -0.012,-0.081 -0.014,-0.029 -0.034,-0.05 -0.052,-0.058 -0.006,0.021 -0.002,0.051 0.012,0.081 m -0.013,0.536 c 0.02,-0.006 0.042,-0.024 0.059,-0.051 0.017,-0.027 0.024,-0.057 0.022,-0.079 -0.02,0.005 -0.042,0.023 -0.059,0.051 -0.017,0.026 -0.024,0.056 -0.022,0.079 M -0.064,0.246 C -0.082,0.245 -0.105,0.255 -0.126,0.273 -0.147,0.292 -0.16,0.315 -0.163,0.335 -0.145,0.336 -0.122,0.326 -0.101,0.308 -0.08,0.289 -0.067,0.266 -0.064,0.246 m -0.01,0.213 C -0.06,0.443 -0.05,0.415 -0.048,0.381 -0.047,0.349 -0.054,0.319 -0.066,0.302 c -0.015,0.016 -0.025,0.044 -0.026,0.076 -0.002,0.034 0.005,0.063 0.018,0.081 m 0.056,-0.096 c 0.01,-0.019 0.015,-0.049 0.01,-0.082 -0.005,-0.032 -0.019,-0.059 -0.034,-0.073 -0.011,0.019 -0.015,0.049 -0.01,0.082 0.005,0.032 0.018,0.059 0.034,0.073 M -0.023,0.119 C -0.004,0.144 0.019,0.16 0.039,0.163 0.04,0.141 0.03,0.113 0.011,0.087 -0.008,0.062 -0.031,0.046 -0.051,0.042 c -0.001,0.023 0.009,0.051 0.028,0.077 m -0.048,-0.08 c -0.005,-0.033 -0.018,-0.06 -0.034,-0.074 -0.01,0.019 -0.015,0.049 -0.01,0.082 0.005,0.032 0.018,0.059 0.034,0.073 0.01,-0.019 0.015,-0.049 0.01,-0.081 m -0.018,0.128 c -0.014,0.025 -0.019,0.052 -0.016,0.072 0.017,-0.006 0.036,-0.024 0.05,-0.049 0.014,-0.025 0.02,-0.051 0.016,-0.071 -0.017,0.005 -0.036,0.023 -0.05,0.048 M 0.038,0.286 C 0.043,0.264 0.039,0.234 0.024,0.205 0.01,0.176 -0.01,0.155 -0.028,0.147 c -0.005,0.022 -0.001,0.052 0.013,0.081 0.014,0.029 0.034,0.05 0.053,0.058 m 0.5,-0.003 -0.683,0.622 C -0.306,0.8 -0.516,0.736 -0.747,0.736 c -0.241,0 -0.46,0.07 -0.623,0.184 -0.163,-0.114 -0.382,-0.184 -0.623,-0.184 -0.231,0 -0.441,0.064 -0.601,0.169 L -3.278,0.283 c 0,0 0.33,-0.313 0.332,-0.566 0.001,-0.254 -0.074,-0.459 -0.167,-0.718 -0.034,-0.097 -0.074,-0.25 -0.093,-0.427 -0.004,-0.034 -0.008,-0.071 -0.01,-0.108 -0.002,-0.033 -0.002,-0.067 -0.003,-0.101 -0.001,-0.21 0.035,-0.434 0.141,-0.628 0.016,-0.029 0.033,-0.057 0.052,-0.084 0.055,-0.079 0.502,-0.819 1.451,-0.916 l 0.004,-0.003 0.201,-0.201 0.202,0.201 0.003,0.003 c 0.949,0.097 1.396,0.837 1.451,0.916 0.019,0.027 0.037,0.055 0.052,0.084 0.106,0.194 0.142,0.418 0.141,0.628 0,0.034 -0.001,0.068 -0.003,0.101 -0.002,0.037 -0.006,0.074 -0.009,0.108 -0.02,0.177 -0.059,0.33 -0.094,0.427 -0.092,0.259 -0.168,0.464 -0.166,0.718 0.001,0.253 0.331,0.566 0.331,0.566"
         style="fill:#274488;fill-opacity:1;fill-rule:nonzero;stroke:none"
         id="path5893"
         inkscape:connector-curvature="0" /></g><g
       id="g5895"
       transform="matrix(50,0,0,50,93.63185,185.356)"><path
         d="m 0,0 c 0.022,0.013 0.045,0.029 0.045,0.06 0,0.027 -0.02,0.048 -0.048,0.048 C -0.03,0.108 -0.05,0.088 -0.05,0.061 -0.05,0.032 -0.028,0.016 0,0"
         style="fill:#274488;fill-opacity:1;fill-rule:nonzero;stroke:none"
         id="path5897"
         inkscape:connector-curvature="0" /></g><g
       id="g5899"
       transform="matrix(50,0,0,50,92.97685,183.441)"><path
         d="m 0,0 c -0.037,-0.018 -0.055,-0.042 -0.055,-0.071 0,-0.032 0.024,-0.056 0.058,-0.056 0.034,0 0.06,0.024 0.06,0.056 C 0.063,-0.04 0.042,-0.023 0,0"
         style="fill:#274488;fill-opacity:1;fill-rule:nonzero;stroke:none"
         id="path5901"
         inkscape:connector-curvature="0" /></g><g
       id="g5903"
       transform="matrix(50,0,0,50,71.73685,183.751)"><path
         d="m 0,0 c -0.037,-0.018 -0.055,-0.042 -0.055,-0.071 0,-0.032 0.024,-0.056 0.058,-0.056 0.034,0 0.06,0.025 0.06,0.056 C 0.063,-0.04 0.042,-0.023 0,0"
         style="fill:#274488;fill-opacity:1;fill-rule:nonzero;stroke:none"
         id="path5905"
         inkscape:connector-curvature="0" /></g></g></svg>