<?xml version="1.0" encoding="UTF-8" standalone="no"?>
<!-- Created with Inkscape (http://www.inkscape.org/) -->
<svg
   xmlns:svg="http://www.w3.org/2000/svg"
   xmlns="http://www.w3.org/2000/svg"
   version="1.0"
   width="460.10999"
   height="531.63"
   viewBox="0 0 4818.899 2834.65"
   id="Layer_1"
   xml:space="preserve"><defs
   id="defs4384" />

<g
   transform="matrix(12.360932,0,0,12.360932,-27373.904,-16084.783)"
   id="g4311">
	<path
   d="M 2586.462,1497.03 L 2586.333,1496.901 L 2568.517,1481.309 L 2564.72,1477.844 C 2561.118,1474.243 2555.583,1469.842 2546.056,1470.151 C 2544.486,1470.125 2542.921,1470.285 2541.372,1470.571 C 2543.009,1463.009 2544.229,1455.02 2544.97,1446.595 C 2545.486,1440.759 2545.759,1434.974 2545.786,1429.401 C 2545.788,1429.287 2545.796,1427.181 2545.796,1427.181 L 2545.675,1422.619 L 2545.689,1422.999 L 2545.689,1201.649 L 2270.916,1201.649 L 2270.916,1423 L 2270.93,1422.613 L 2270.809,1427.18 L 2270.818,1429.401 C 2270.844,1434.981 2271.119,1440.764 2271.634,1446.595 C 2272.374,1455.002 2273.59,1462.978 2275.22,1470.533 C 2273.743,1470.27 2272.257,1470.127 2270.757,1470.151 C 2261.233,1469.842 2255.701,1474.244 2252.1,1477.844 L 2248.303,1481.309 L 2230.486,1496.901 L 2230.357,1497.03 C 2224.205,1503.167 2223.595,1509.146 2224.171,1513.083 C 2225.802,1524.277 2240.031,1532.556 2241.463,1533.329 L 2249.809,1526.782 C 2255.701,1524.489 2259.11,1527.714 2259.11,1527.714 C 2259.691,1528.055 2261.68,1529.676 2262.917,1536.212 L 2263.632,1539.991 C 2258.999,1544.001 2255.708,1546.846 2255.708,1546.846 L 2258.52,1550.948 C 2266.722,1562.911 2269.887,1566.602 2275.224,1572.61 C 2310.846,1612.719 2356.722,1633.919 2407.889,1633.919 L 2408.712,1633.919 C 2459.884,1633.919 2505.759,1612.72 2541.379,1572.608 C 2546.715,1566.612 2549.881,1562.922 2558.086,1550.948 L 2560.897,1546.846 C 2560.897,1546.846 2557.696,1544.074 2553.159,1540.151 L 2553.905,1536.212 C 2555.141,1529.676 2557.13,1528.055 2557.708,1527.714 C 2557.708,1527.714 2561.12,1524.489 2567.011,1526.782 L 2575.361,1533.329 C 2576.793,1532.556 2591.021,1524.277 2592.652,1513.083 C 2593.226,1509.146 2592.612,1503.167 2586.462,1497.03 L 2586.462,1497.03 z"
   id="path4313"
   style="fill:#ffffff;fill-rule:evenodd" />
	<path
   d="M 2565.038,1484.384 C 2565.038,1484.384 2574.065,1503.694 2546.71,1505.723 L 2574.896,1527.805 C 2574.896,1527.805 2597.498,1514.599 2583.277,1500.413 L 2565.038,1484.384 L 2565.038,1484.384 z"
   id="path4315"
   style="fill:#1b449c;fill-rule:evenodd" />
	<path
   d="M 2559.386,1496.927 C 2564.38,1491.674 2559.591,1482.823 2559.591,1482.823 C 2559.591,1482.823 2555.255,1474.692 2546.517,1475.091 C 2544.378,1475.044 2542.214,1475.429 2540.066,1476.133 C 2538.263,1483.246 2536.072,1489.951 2533.455,1496.163 L 2533.471,1496.168 C 2533.104,1497.085 2530.032,1504.575 2523.883,1514.81 C 2524.615,1515.446 2525.752,1516.429 2527.17,1517.659 L 2548.352,1535.949 C 2550.971,1518 2561.038,1522.386 2561.038,1522.386 L 2537.272,1503.458 C 2555.36,1502.768 2559.386,1496.927 2559.386,1496.927 L 2559.386,1496.927 z"
   id="path4317"
   style="fill:#e03a3e;fill-rule:evenodd" />
	<path
   d="M 2251.565,1484.602 C 2251.565,1484.602 2242.534,1503.912 2269.889,1505.941 L 2241.703,1528.023 C 2241.703,1528.023 2219.106,1514.817 2233.328,1500.631 L 2251.565,1484.602 L 2251.565,1484.602 z"
   id="path4319"
   style="fill:#1b449c;fill-rule:evenodd" />
	<path
   d="M 2257.214,1497.144 C 2252.216,1491.891 2257.013,1483.04 2257.013,1483.04 C 2257.013,1483.04 2261.348,1474.912 2270.082,1475.309 C 2272.223,1475.261 2274.387,1475.646 2276.536,1476.351 C 2278.339,1483.46 2280.53,1490.17 2283.148,1496.381 L 2283.132,1496.389 C 2283.495,1497.303 2286.569,1504.795 2292.72,1515.028 C 2291.988,1515.668 2290.85,1516.646 2289.429,1517.877 L 2268.249,1536.169 C 2265.63,1518.219 2255.563,1522.605 2255.563,1522.605 L 2279.329,1503.676 C 2261.243,1502.985 2257.214,1497.144 2257.214,1497.144 L 2257.214,1497.144 z"
   id="path4321"
   style="fill:#e03a3e;fill-rule:evenodd" />
	<path
   d="M 2516.651,1515.915 C 2524.389,1503.813 2528.069,1494.681 2528.299,1494.101 L 2528.186,1494.371 C 2534.034,1480.62 2537.815,1464.383 2539.424,1446.105 C 2539.922,1440.462 2540.188,1434.833 2540.217,1429.376 C 2540.223,1428.602 2540.227,1427.869 2540.227,1427.182 C 2540.227,1425.593 2540.198,1424.22 2540.12,1423 C 2540.12,1422.599 2540.12,1207.219 2540.12,1207.219 L 2276.484,1207.219 C 2276.484,1207.219 2276.484,1422.599 2276.484,1423 C 2276.4,1424.22 2276.377,1425.593 2276.377,1427.182 C 2276.377,1427.869 2276.381,1428.603 2276.386,1429.376 C 2276.409,1434.831 2276.682,1440.462 2277.178,1446.105 C 2278.78,1464.288 2282.533,1480.453 2288.326,1494.159 C 2288.786,1495.314 2292.446,1504.263 2299.887,1515.975 L 2263.112,1547.799 C 2271.287,1559.729 2274.34,1563.236 2279.386,1568.912 C 2313.923,1607.802 2358.362,1628.352 2407.887,1628.352 L 2408.71,1628.352 C 2458.246,1628.352 2502.679,1607.801 2537.212,1568.912 C 2542.263,1563.235 2545.317,1559.728 2553.491,1547.799 L 2516.651,1515.915 L 2516.651,1515.915 z"
   id="path4323"
   style="fill:#1b449c;fill-rule:evenodd" />
	<path
   d="M 2408.301,1219.312 L 2288.575,1219.312 L 2288.575,1423.198 C 2288.575,1423.198 2286.643,1459.301 2299.541,1489.639 C 2299.541,1489.639 2330.21,1567.899 2407.887,1567.899 L 2408.3,1567.899 C 2485.978,1567.899 2517.06,1489.639 2517.06,1489.639 C 2529.956,1459.3 2528.025,1423.198 2528.025,1423.198 L 2528.025,1219.312 L 2408.301,1219.312 L 2408.301,1219.312 z"
   id="path4325"
   style="fill:#ffffff;fill-rule:evenodd" />
	<polygon
   points="2386.095,1335.212 2430.278,1335.212 2430.278,1507.98 2386.095,1507.98 2386.095,1335.212 "
   id="polygon4327"
   style="fill:#e03a3e;fill-rule:evenodd" />
	<path
   d="M 2349.801,1269.908 L 2349.801,1240.794 C 2343.809,1241.11 2338.278,1242.515 2332.895,1244.943 L 2336.358,1234.15 L 2379.23,1234.15 L 2374.616,1243.73 C 2370.929,1241.877 2366.858,1240.918 2361.94,1240.794 L 2361.94,1269.908 C 2361.94,1274.507 2362.553,1278.589 2364.398,1282.49 L 2347.342,1282.49 C 2349.184,1278.589 2349.801,1274.507 2349.801,1269.908 L 2349.801,1269.908 z"
   id="path4329"
   style="fill:#e03a3e;fill-rule:evenodd" />
	<path
   d="M 2432.427,1269.908 L 2432.427,1246.732 C 2432.427,1242.133 2431.812,1238.047 2429.972,1234.15 L 2447.025,1234.15 C 2445.183,1238.046 2444.564,1242.132 2444.564,1246.732 L 2444.564,1256.051 L 2459.318,1239.325 C 2460.779,1237.664 2461.547,1236.194 2461.547,1234.724 C 2461.547,1234.535 2461.471,1234.339 2461.471,1234.15 L 2480.526,1234.15 C 2475.995,1236.96 2472.462,1239.513 2470.153,1242.006 L 2457.477,1255.733 L 2474.684,1276.036 C 2476.299,1277.951 2478.53,1280.06 2481.368,1282.489 L 2462.319,1282.489 C 2462.393,1281.91 2462.473,1281.337 2462.473,1280.828 C 2462.473,1278.909 2461.621,1277.373 2460.088,1275.528 L 2444.565,1256.882 L 2444.565,1269.907 C 2444.565,1274.506 2445.184,1278.588 2447.024,1282.489 L 2429.973,1282.489 C 2431.812,1278.589 2432.427,1274.507 2432.427,1269.908 L 2432.427,1269.908 z"
   id="path4331"
   style="fill:#e03a3e;fill-rule:evenodd" />
	<path
   d="M 2486.054,1269.908 L 2486.054,1246.732 C 2486.054,1242.133 2485.443,1238.047 2483.597,1234.15 L 2516.56,1234.15 L 2511.107,1243.601 C 2507.646,1242.259 2503.421,1241.558 2498.197,1241.431 L 2498.197,1254.776 L 2514.873,1254.776 L 2508.646,1263.522 C 2506.267,1262.054 2503.113,1261.418 2499.271,1261.418 C 2498.888,1261.417 2498.58,1261.418 2498.197,1261.418 L 2498.197,1275.273 C 2499.808,1275.338 2501.426,1275.402 2502.963,1275.402 C 2509.877,1275.402 2515.643,1274.633 2520.477,1272.845 L 2515.872,1282.49 L 2483.599,1282.49 C 2485.442,1278.589 2486.054,1274.507 2486.054,1269.908 L 2486.054,1269.908 z"
   id="path4333"
   style="fill:#e03a3e;fill-rule:evenodd" />
	<path
   d="M 2372.102,1298.155 C 2365.488,1298.155 2360.797,1302.529 2360.797,1309.406 C 2360.797,1316.364 2365.683,1320.823 2372.99,1320.823 C 2377.089,1320.823 2380.151,1319.466 2382.913,1316.492 L 2381.83,1323.84 C 2378.325,1325.153 2374.62,1325.832 2370.623,1325.832 C 2366.178,1325.832 2362.376,1324.813 2359.217,1322.729 C 2354.627,1319.718 2352.352,1315.645 2352.352,1310.553 C 2352.352,1305.203 2354.874,1300.531 2359.415,1297.308 C 2363.412,1294.506 2368.252,1293.018 2373.633,1293.018 C 2376.299,1293.018 2379.212,1293.444 2382.273,1294.291 L 2382.273,1302.316 C 2379.065,1299.56 2375.707,1298.155 2372.102,1298.155 L 2372.102,1298.155 L 2372.102,1298.155 z"
   id="path4335"
   style="fill:#e03a3e;fill-rule:evenodd;stroke:#e03a3e;stroke-width:0.65649998" />
	<path
   d="M 2389.052,1317.09 L 2389.052,1301.68 C 2389.052,1298.62 2388.658,1295.907 2387.475,1293.315 L 2398.433,1293.315 C 2397.251,1295.907 2396.853,1298.621 2396.853,1301.68 L 2396.853,1317.09 C 2396.853,1320.143 2397.251,1322.862 2398.433,1325.452 L 2387.476,1325.452 C 2388.658,1322.862 2389.052,1320.144 2389.052,1317.09 L 2389.052,1317.09 L 2389.052,1317.09 z"
   id="path4337"
   style="fill:#e03a3e;fill-rule:evenodd;stroke:#e03a3e;stroke-width:0.65649998" />
	<path
   d="M 2412.161,1317.09 L 2412.161,1297.73 C 2408.308,1297.945 2404.752,1298.874 2401.294,1300.491 L 2403.521,1293.315 L 2431.071,1293.315 L 2428.108,1299.683 C 2425.739,1298.451 2423.12,1297.817 2419.96,1297.73 L 2419.96,1317.09 C 2419.96,1320.143 2420.355,1322.862 2421.536,1325.452 L 2410.579,1325.452 C 2411.765,1322.862 2412.161,1320.144 2412.161,1317.09 L 2412.161,1317.09 L 2412.161,1317.09 z"
   id="path4339"
   style="fill:#e03a3e;fill-rule:evenodd;stroke:#e03a3e;stroke-width:0.65649998" />
	<path
   d="M 2455.171,1325.452 L 2444.212,1325.452 C 2445.394,1322.862 2445.79,1320.144 2445.79,1317.09 L 2445.79,1310.423 L 2437.542,1298.664 C 2436.208,1296.799 2434.728,1295.014 2433.101,1293.315 L 2444.013,1293.315 C 2443.96,1293.572 2443.96,1293.825 2443.96,1294.039 C 2443.96,1294.845 2444.159,1295.566 2444.503,1296.078 L 2450.085,1304.354 L 2454.73,1296.671 C 2455.171,1295.907 2455.418,1295.102 2455.418,1294.292 C 2455.418,1293.955 2455.367,1293.657 2455.322,1293.315 L 2465.293,1293.315 C 2463.414,1294.971 2461.836,1296.799 2460.504,1298.79 L 2453.588,1309.111 L 2453.588,1317.09 C 2453.587,1320.143 2453.985,1322.862 2455.171,1325.452 L 2455.171,1325.452 L 2455.171,1325.452 z"
   id="path4341"
   style="fill:#e03a3e;fill-rule:evenodd;stroke:#e03a3e;stroke-width:0.65649998" />
	<path
   d="M 2401.527,1239.605 C 2393.713,1239.605 2390.097,1248.657 2390.097,1258.153 C 2390.097,1267.647 2393.713,1276.699 2401.527,1276.699 C 2409.336,1276.699 2412.954,1267.647 2412.954,1258.153 C 2412.954,1248.657 2409.336,1239.605 2401.527,1239.605 L 2401.527,1239.605 z M 2426.749,1258.389 C 2426.749,1274.341 2415.476,1282.964 2401.567,1282.964 C 2387.66,1282.964 2376.383,1274.802 2376.383,1258.389 C 2376.383,1244.812 2387.66,1233.809 2401.567,1233.809 C 2415.476,1233.809 2426.749,1244.812 2426.749,1258.389 L 2426.749,1258.389 L 2426.749,1258.389 z"
   id="path4343"
   style="fill:#e03a3e;fill-rule:evenodd" />
	<path
   d="M 2389.272,1543.157 C 2389.272,1537.627 2390.509,1534.867 2393.179,1534.867 C 2395.805,1534.867 2397.092,1537.627 2397.092,1543.157 C 2397.092,1548.628 2395.709,1551.395 2393.179,1551.395 C 2390.373,1551.395 2389.272,1548.739 2389.272,1543.157 L 2389.272,1543.157 z M 2397.875,1533.006 C 2401.414,1531.877 2403.259,1529.004 2403.259,1525.05 C 2403.259,1519.36 2399.804,1516.201 2393.501,1516.201 C 2386.92,1516.201 2383.056,1519.756 2383.056,1525.05 C 2383.056,1529.057 2384.988,1531.932 2388.486,1532.951 L 2388.486,1533.345 C 2384.066,1534.528 2381.813,1538.026 2381.813,1543.493 C 2381.813,1550.26 2385.906,1553.194 2393.179,1554.603 C 2400.482,1556.021 2404.545,1552.523 2404.545,1545.646 C 2404.545,1540.682 2402.15,1534.417 2397.876,1533.344 L 2397.876,1533.006 L 2397.875,1533.006 z M 2389.498,1525.563 C 2389.498,1521.331 2390.741,1519.131 2393.18,1519.131 C 2395.806,1519.131 2396.815,1521.16 2396.815,1525.564 C 2396.815,1529.845 2395.619,1531.932 2393.18,1531.932 C 2390.694,1531.932 2389.498,1529.845 2389.498,1525.563 L 2389.498,1525.563 L 2389.498,1525.563 z"
   id="path4345"
   style="fill:#1b449c;fill-rule:evenodd" />
	<path
   d="M 2389.272,1543.157 C 2389.272,1537.627 2390.509,1534.867 2393.179,1534.867 C 2395.805,1534.867 2397.092,1537.627 2397.092,1543.157 C 2397.092,1548.628 2395.709,1551.395 2393.179,1551.395 C 2390.373,1551.395 2389.272,1548.739 2389.272,1543.157 L 2389.272,1543.157 L 2389.272,1543.157 z M 2397.875,1533.006 C 2401.414,1531.877 2403.259,1529.004 2403.259,1525.05 C 2403.259,1519.36 2399.804,1516.201 2393.501,1516.201 C 2386.92,1516.201 2383.056,1519.756 2383.056,1525.05 C 2383.056,1529.057 2384.988,1531.932 2388.486,1532.951 L 2388.486,1533.345 C 2384.066,1534.528 2381.813,1538.026 2381.813,1543.493 C 2381.813,1550.26 2385.906,1553.194 2393.179,1554.603 C 2400.482,1556.021 2404.545,1552.523 2404.545,1545.646 C 2404.545,1540.682 2402.15,1534.417 2397.876,1533.344 L 2397.876,1533.006 L 2397.875,1533.006 z M 2389.498,1525.563 C 2389.498,1521.331 2390.741,1519.131 2393.18,1519.131 C 2395.806,1519.131 2396.815,1521.16 2396.815,1525.564 C 2396.815,1529.845 2395.619,1531.932 2393.18,1531.932 C 2390.694,1531.932 2389.498,1529.845 2389.498,1525.563 L 2389.498,1525.563 L 2389.498,1525.563 z"
   id="path4347"
   style="fill:none;stroke:#1b449c;stroke-width:0.7493" />
	<path
   d="M 2415.692,1534.503 C 2415.692,1534.447 2415.692,1534.389 2415.692,1534.331 C 2415.692,1525.104 2417.608,1519.742 2421.79,1519.742 C 2423.77,1519.742 2425.288,1520.833 2426.669,1523.085 L 2426.946,1522.97 C 2427.04,1521.24 2427.27,1519.453 2427.587,1517.491 C 2425.704,1516.624 2421.814,1516.165 2419.882,1516.165 C 2410.771,1516.165 2407.683,1526.553 2407.683,1540.684 C 2407.683,1551.469 2411.765,1556.697 2419.372,1555.496 C 2426.282,1554.409 2430.511,1550.539 2430.511,1542.292 C 2430.511,1535.546 2427.198,1531.563 2421.997,1531.563 C 2419.188,1531.561 2416.888,1532.717 2415.692,1534.503 L 2415.692,1534.503 z M 2422.821,1543.79 C 2422.821,1549.616 2421.675,1552.498 2419.372,1552.498 C 2416.983,1552.498 2415.784,1549.557 2415.784,1543.559 C 2415.784,1538.253 2416.936,1535.658 2419.282,1535.658 C 2421.856,1535.657 2422.821,1538.252 2422.821,1543.79 L 2422.821,1543.79 L 2422.821,1543.79 z"
   id="path4349"
   style="fill:#1b449c;fill-rule:evenodd" />
	<path
   d="M 2415.692,1534.503 L 2415.692,1534.331 C 2415.692,1525.104 2417.608,1519.742 2421.79,1519.742 C 2423.77,1519.742 2425.288,1520.833 2426.669,1523.085 L 2426.946,1522.97 C 2427.04,1521.24 2427.27,1519.453 2427.587,1517.491 C 2425.704,1516.624 2421.814,1516.165 2419.882,1516.165 C 2410.771,1516.165 2407.683,1526.553 2407.683,1540.684 C 2407.683,1551.469 2411.765,1556.697 2419.372,1555.496 C 2426.282,1554.409 2430.511,1550.539 2430.511,1542.292 C 2430.511,1535.546 2427.198,1531.563 2421.997,1531.563 C 2419.188,1531.561 2416.888,1532.717 2415.692,1534.503 L 2415.692,1534.503 L 2415.692,1534.503 z M 2422.821,1543.79 C 2422.821,1549.616 2421.675,1552.498 2419.372,1552.498 C 2416.983,1552.498 2415.784,1549.557 2415.784,1543.559 C 2415.784,1538.253 2416.936,1535.658 2419.282,1535.658 C 2421.856,1535.657 2422.821,1538.252 2422.821,1543.79 L 2422.821,1543.79 L 2422.821,1543.79 z"
   id="path4351"
   style="fill:none;stroke:#1b449c;stroke-width:0.75669998" />
	<path
   d="M 2435.157,1545.258 C 2436.395,1547.595 2439.61,1547.798 2439.61,1547.798 C 2446.311,1547.522 2445.532,1536.965 2445.532,1536.965 C 2444.805,1531.529 2440.716,1532.19 2437.427,1532.487 C 2436.878,1532.535 2436.081,1532.604 2435.579,1532.693 L 2435.7,1528.736 C 2436.042,1528.746 2436.425,1528.76 2436.805,1528.724 C 2440.346,1528.397 2442.756,1527.341 2443.428,1523.831 C 2443.836,1521.704 2443.412,1518.372 2439.793,1518.469 C 2435.725,1518.578 2435.082,1521.587 2433.924,1523.16 L 2433.444,1522.899 L 2433.006,1518.215 C 2435.113,1515.691 2440.447,1515.339 2440.447,1515.339 C 2445.924,1514.838 2450.158,1517.882 2450.554,1522.209 C 2450.847,1525.375 2449.691,1526.667 2445.818,1528.486 L 2445.845,1528.792 C 2450.396,1528.531 2452.177,1530.038 2453.23,1533.224 C 2454.933,1538.363 2454.396,1551.572 2431.941,1552.591 C 2431.941,1552.591 2433.748,1550.569 2434.39,1545.526 L 2435.157,1545.258 L 2435.157,1545.258 z"
   id="path4353"
   style="fill:#1b449c;fill-rule:evenodd;stroke:#1b449c;stroke-width:0.62739998" />
	<path
   d="M 2378.085,1550.617 C 2374.341,1549.208 2368.678,1546.171 2368.678,1546.171 C 2368.996,1543.148 2369.671,1536.682 2369.671,1525.923 C 2369.671,1524.734 2369.576,1523.902 2369.485,1522.207 C 2367.69,1522.942 2368.425,1522.317 2366.631,1523.372 L 2364.654,1520.35 C 2369.439,1518.747 2371.434,1518.554 2376.13,1516.033 L 2377.05,1516.537 C 2376.912,1526.2 2376.992,1531.599 2376.992,1534.713 C 2376.992,1538.697 2377.504,1545.1 2377.866,1549.032 C 2377.942,1549.857 2378.085,1550.617 2378.085,1550.617 L 2378.085,1550.617 z"
   id="path4355"
   style="fill:#1b449c;fill-rule:evenodd;stroke:#1b449c;stroke-width:0.67549998" />
	<path
   d="M 2344.161,1531.273 C 2340.713,1528.228 2337.373,1524.913 2334.136,1521.303 C 2318.184,1503.563 2310.864,1485.382 2310.795,1485.2 L 2310.73,1485.041 L 2310.67,1484.906 C 2301.575,1463.506 2300.575,1438.302 2300.575,1428.268 C 2300.575,1425.512 2300.647,1423.901 2300.654,1423.829 L 2300.666,1423.505 C 2300.666,1423.505 2300.666,1386.089 2300.666,1292.679 L 2344.047,1292.679 L 2344.161,1531.273 L 2344.161,1531.273 z"
   id="path4357"
   style="fill:#e03a3e;fill-rule:evenodd" />
	<path
   d="M 2472.446,1531.273 C 2475.885,1528.228 2479.233,1524.913 2482.467,1521.303 C 2498.412,1503.563 2505.74,1485.382 2505.813,1485.2 L 2505.876,1485.041 L 2505.933,1484.906 C 2515.035,1463.506 2516.033,1438.302 2516.033,1428.268 C 2516.033,1425.512 2515.959,1423.901 2515.957,1423.829 L 2515.937,1423.505 C 2515.937,1423.505 2515.937,1386.089 2515.937,1292.679 L 2472.562,1292.679 L 2472.446,1531.273 L 2472.446,1531.273 z"
   id="path4359"
   style="fill:#e03a3e;fill-rule:evenodd" />
	<path
   d="M 2371.569,1597.729 C 2372.013,1597.884 2372.433,1597.997 2372.854,1598.102 C 2379.32,1599.781 2383.31,1597.789 2384.795,1592.071 C 2386.114,1586.982 2384.012,1584.165 2378.554,1582.744 C 2376.285,1582.156 2374.091,1581.844 2372.063,1581.313 C 2371.327,1581.123 2370.439,1580.812 2369.386,1580.409 C 2368.445,1585.466 2367.338,1590.019 2366.305,1594.005 C 2365.372,1597.589 2364.216,1602.044 2362.392,1607.338 C 2363.786,1607.575 2364.924,1607.789 2365.766,1608.007 C 2366.676,1608.243 2367.736,1608.604 2369.032,1609.068 C 2369.601,1605.72 2370.009,1603.721 2370.176,1603.09 L 2371.569,1597.729 L 2371.569,1597.729 z M 2372.262,1594.918 L 2373.83,1588.882 C 2374.093,1587.86 2374.289,1587.112 2374.413,1586.638 C 2374.461,1586.443 2374.619,1585.85 2374.917,1584.832 C 2375.568,1584.916 2375.994,1584.985 2376.204,1585.043 C 2378.792,1585.714 2379.702,1587.677 2378.883,1590.83 C 2377.857,1594.776 2375.968,1595.883 2372.262,1594.918 L 2372.262,1594.918 L 2372.262,1594.918 z"
   id="path4361"
   style="fill:#ffffff;fill-rule:evenodd" />
	<path
   d="M 2389.566,1600.391 C 2389.574,1609.462 2394.433,1614.439 2403.162,1614.434 C 2412.186,1614.422 2417.36,1608.902 2417.35,1599.346 C 2417.34,1590.478 2412.342,1585.498 2403.787,1585.514 C 2394.949,1585.518 2389.557,1590.91 2389.566,1600.391 L 2389.566,1600.391 z M 2396.124,1600.016 C 2396.113,1592.461 2399.007,1588.168 2403.463,1588.163 C 2407.884,1588.161 2410.787,1592.363 2410.795,1600.002 C 2410.803,1607.562 2407.833,1611.773 2403.487,1611.778 C 2399.029,1611.779 2396.13,1607.617 2396.124,1600.016 L 2396.124,1600.016 L 2396.124,1600.016 z"
   id="path4363"
   style="fill:#ffffff;fill-rule:evenodd" />
	<path
   d="M 2433.138,1587.393 C 2433.382,1589.659 2433.71,1591.59 2433.97,1593.073 C 2434.075,1593.675 2434.173,1594.243 2434.251,1594.719 C 2435.265,1600.581 2436.216,1606.12 2437.565,1611.393 C 2435.975,1611.539 2434.821,1611.656 2434.145,1611.775 C 2433.258,1611.925 2432.168,1612.193 2430.797,1612.553 C 2430.334,1607.51 2429.656,1602.954 2428.94,1598.778 C 2428.561,1596.57 2427.85,1593.095 2426.938,1588.457 C 2424.766,1588.829 2422.627,1589.368 2420.581,1590.049 C 2420.522,1589.276 2420.468,1588.538 2420.364,1587.939 C 2420.303,1587.579 2420.132,1587.032 2419.917,1586.198 C 2423.825,1585.69 2427.046,1585.256 2429.507,1584.835 C 2431.855,1584.429 2435.003,1583.763 2438.96,1582.918 C 2439.036,1583.772 2439.095,1584.341 2439.159,1584.702 C 2439.263,1585.301 2439.423,1586.019 2439.624,1586.769 C 2437.47,1586.81 2435.304,1587.018 2433.138,1587.393 L 2433.138,1587.393 z"
   id="path4365"
   style="fill:#ffffff;fill-rule:evenodd" />
	<path
   d="M 2456.272,1580.609 C 2456.885,1582.813 2457.526,1584.656 2458.026,1586.08 C 2458.231,1586.657 2458.413,1587.197 2458.581,1587.656 C 2460.54,1593.274 2462.395,1598.58 2464.589,1603.549 C 2463.054,1603.96 2461.935,1604.263 2461.284,1604.489 C 2460.434,1604.788 2459.399,1605.232 2458.11,1605.815 C 2456.823,1600.915 2455.407,1596.533 2454.006,1592.534 C 2453.268,1590.421 2451.998,1587.108 2450.334,1582.684 C 2448.252,1583.41 2446.229,1584.29 2444.322,1585.303 C 2444.138,1584.548 2443.967,1583.832 2443.763,1583.257 C 2443.644,1582.905 2443.38,1582.395 2443.034,1581.607 C 2446.805,1580.461 2449.913,1579.506 2452.264,1578.687 C 2454.514,1577.901 2457.51,1576.726 2461.274,1575.234 C 2461.489,1576.065 2461.645,1576.617 2461.764,1576.961 C 2461.965,1577.539 2462.241,1578.219 2462.565,1578.926 C 2460.45,1579.322 2458.349,1579.883 2456.272,1580.609 L 2456.272,1580.609 z"
   id="path4367"
   style="fill:#ffffff;fill-rule:evenodd" />
	<path
   d="M 2474.206,1586.516 C 2473.757,1585.696 2473.306,1584.873 2472.852,1584.052 C 2472.579,1583.551 2472.307,1583.051 2472.032,1582.55 C 2470.077,1578.978 2468.104,1575.458 2465.747,1572.056 C 2468.813,1570.516 2470.913,1569.463 2472.02,1568.852 C 2473.727,1567.915 2475.944,1566.612 2478.606,1565.007 C 2478.915,1565.726 2479.147,1566.294 2479.36,1566.689 C 2479.579,1567.083 2479.917,1567.548 2480.352,1568.193 C 2478.512,1568.966 2476.825,1569.802 2475.211,1570.68 C 2474.51,1571.067 2473.816,1571.447 2473.17,1571.846 C 2474.084,1573.667 2475.012,1575.437 2475.947,1577.151 L 2476.988,1579.046 C 2478.691,1578.019 2480.945,1576.649 2483.752,1574.922 C 2484.066,1575.727 2484.348,1576.314 2484.543,1576.672 C 2484.719,1576.992 2485.074,1577.491 2485.568,1578.248 C 2483.097,1579.368 2480.728,1580.528 2478.457,1581.722 L 2480.586,1585.621 C 2481.57,1587.407 2482.465,1588.959 2483.35,1590.285 C 2485.539,1589.086 2487.729,1587.749 2490.012,1586.12 C 2490.319,1586.837 2490.588,1587.389 2490.838,1587.851 C 2491.016,1588.173 2491.389,1588.71 2491.883,1589.462 C 2488.182,1591.352 2485.485,1592.738 2483.832,1593.641 C 2482.598,1594.322 2481.002,1595.234 2479.119,1596.463 C 2477.638,1592.856 2475.911,1589.624 2474.206,1586.516 L 2474.206,1586.516 z"
   id="path4369"
   style="fill:#ffffff;fill-rule:evenodd" />
	<path
   d="M 2500.282,1582.992 C 2501.262,1582.076 2502.063,1581.345 2502.725,1580.837 C 2503.346,1580.347 2504.252,1579.745 2505.379,1579.02 C 2503.633,1577.128 2501.994,1575.149 2500.389,1573.096 L 2497.112,1568.886 C 2503.53,1571.422 2507.979,1573.482 2510.508,1575.02 C 2511.516,1574.075 2512.404,1573.282 2513.201,1572.659 C 2513.883,1572.129 2514.988,1571.367 2516.431,1570.402 C 2512.322,1568.953 2507.38,1567.021 2501.591,1564.357 C 2504.124,1561.966 2504.234,1558.576 2501.825,1555.494 C 2498.692,1551.484 2495.309,1551.43 2491.007,1554.784 C 2488.933,1556.408 2487.2,1558.117 2485.435,1559.498 C 2484.781,1560.009 2484.015,1560.5 2483.169,1561.06 C 2486.714,1564.902 2489.624,1568.575 2492.108,1571.754 C 2492.381,1572.108 2492.684,1572.494 2492.985,1572.881 C 2495.116,1575.607 2497.616,1578.874 2500.282,1582.992 L 2500.282,1582.992 z M 2495.829,1567.245 L 2492.374,1562.813 C 2491.671,1561.915 2490.72,1560.695 2489.626,1559.117 C 2490.03,1558.809 2490.28,1558.661 2490.364,1558.594 C 2492.983,1556.553 2495.032,1556.71 2497.137,1559.404 C 2499.467,1562.398 2499.049,1564.738 2495.944,1567.158 C 2495.913,1567.18 2495.858,1567.225 2495.829,1567.245 L 2495.829,1567.245 L 2495.829,1567.245 z"
   id="path4371"
   style="fill:#ffffff;fill-rule:evenodd" />
	<path
   d="M 2516.47,1558.491 L 2516.876,1558.03 C 2519.913,1559.884 2522.345,1559.712 2524.37,1557.407 C 2526.208,1555.313 2526.14,1553.047 2524.272,1551.404 C 2522.471,1549.814 2520.696,1550.475 2517.499,1551.703 C 2512.901,1553.479 2509.966,1554.165 2506.601,1551.209 C 2502.685,1547.763 2502.357,1542.957 2506.294,1538.48 C 2507.894,1536.664 2509.698,1535.41 2511.849,1534.752 C 2512.79,1536.398 2513.796,1537.907 2514.906,1539.363 L 2514.615,1539.687 C 2511.717,1538.484 2509.648,1538.735 2508.008,1540.604 C 2506.311,1542.534 2506.524,1544.698 2508.026,1546.013 C 2509.831,1547.595 2511.641,1546.59 2515.305,1545.199 C 2519.573,1543.613 2522.36,1542.792 2525.907,1545.91 C 2530.194,1549.681 2530.343,1554.869 2526.007,1559.805 C 2524.382,1561.646 2522.564,1562.981 2520.753,1563.745 C 2519.229,1561.832 2517.784,1560.084 2516.47,1558.491 L 2516.47,1558.491 z"
   id="path4373"
   style="fill:#ffffff;fill-rule:evenodd" />
	<path
   d="M 2327.646,1257.78 C 2325.962,1256.588 2321.909,1254.645 2317.165,1251.934 C 2313.396,1249.76 2310.54,1247.937 2310.638,1245.323 C 2310.736,1242.515 2313.284,1240.056 2317.661,1240.205 C 2322.116,1240.355 2326.701,1243.309 2330.087,1247.449 L 2329.913,1235.366 C 2326.865,1234.433 2323.808,1233.949 2320.588,1233.839 C 2307.453,1233.395 2299.337,1238.873 2299.024,1247.487 C 2298.827,1253.037 2302.388,1256.609 2309.241,1260.417 C 2315.407,1263.887 2320.641,1265.427 2320.807,1269.749 L 2320.804,1269.749 C 2320.686,1272.91 2317.754,1275.625 2313.184,1275.471 C 2308.532,1275.317 2303.785,1272.105 2300.259,1267.456 L 2300.408,1281.049 C 2303.581,1282.092 2307.625,1282.66 2310.991,1282.777 C 2324.706,1283.237 2333.025,1277.103 2333.379,1267.403 C 2333.358,1263.574 2331.538,1260.536 2327.646,1257.78 L 2327.646,1257.78 z"
   id="path4375"
   style="fill:#e03a3e;fill-rule:evenodd" />
	<path
   d="M 2308.061,1542.749 C 2306.329,1544.234 2304.93,1545.598 2303.85,1546.65 C 2303.412,1547.075 2303.004,1547.469 2302.654,1547.815 C 2298.391,1551.963 2294.361,1555.886 2290.784,1559.976 C 2289.759,1558.754 2289.015,1557.868 2288.535,1557.373 C 2287.907,1556.724 2287.066,1555.978 2285.997,1555.059 C 2289.894,1551.823 2293.266,1548.687 2296.298,1545.731 C 2297.907,1544.167 2300.372,1541.614 2303.683,1538.246 C 2302.144,1536.667 2300.491,1535.203 2298.773,1533.897 C 2299.378,1533.412 2299.952,1532.954 2300.388,1532.527 C 2300.654,1532.271 2301.009,1531.822 2301.576,1531.173 C 2304.205,1534.11 2306.384,1536.527 2308.124,1538.308 C 2309.785,1540.018 2312.116,1542.236 2315.055,1545.02 C 2314.39,1545.564 2313.956,1545.937 2313.697,1546.193 C 2313.256,1546.623 2312.759,1547.153 2312.251,1547.752 C 2310.997,1545.994 2309.603,1544.325 2308.061,1542.749 L 2308.061,1542.749 z"
   id="path4377"
   style="fill:#ffffff;fill-rule:evenodd" />
	<path
   d="M 2309.294,1561.657 C 2309.652,1561.211 2309.995,1560.803 2310.302,1560.428 C 2312.866,1557.314 2315.786,1553.703 2318.845,1549.415 C 2319.888,1550.484 2320.674,1551.291 2321.23,1551.745 C 2321.959,1552.34 2322.898,1552.958 2324.062,1553.705 C 2322.53,1555.286 2321.096,1556.909 2319.728,1558.581 L 2316.906,1562.008 C 2318.669,1563.56 2319.841,1564.635 2320.483,1565.162 C 2321.629,1566.107 2323.016,1567.139 2324.575,1568.316 L 2327.398,1564.889 C 2328.768,1563.215 2330.055,1561.484 2331.317,1559.667 C 2332.411,1560.781 2333.229,1561.61 2333.789,1562.069 C 2334.372,1562.553 2335.283,1563.145 2336.534,1563.96 C 2332.967,1567.729 2329.986,1571.288 2327.374,1574.474 C 2327.064,1574.846 2326.728,1575.254 2326.367,1575.699 C 2324.273,1578.247 2321.711,1581.413 2318.859,1585.451 C 2317.877,1584.484 2317.091,1583.731 2316.422,1583.18 C 2315.722,1582.605 2314.808,1581.96 2313.642,1581.16 C 2315.077,1579.698 2316.426,1578.225 2317.718,1576.656 L 2322.324,1571.054 C 2320.816,1569.702 2319.502,1568.572 2318.413,1567.678 C 2317.662,1567.057 2316.409,1566.078 2314.652,1564.745 L 2310.046,1570.343 C 2308.754,1571.919 2307.542,1573.507 2306.388,1575.195 C 2305.375,1574.205 2304.566,1573.427 2303.867,1572.852 C 2303.2,1572.305 2302.279,1571.656 2301.174,1570.902 C 2304.581,1567.324 2307.195,1564.201 2309.294,1561.657 L 2309.294,1561.657 z"
   id="path4379"
   style="fill:#ffffff;fill-rule:evenodd" />
	<path
   d="M 2334.554,1582.474 C 2334.998,1581.652 2335.448,1580.831 2335.893,1580.005 C 2336.164,1579.501 2336.436,1579.001 2336.706,1578.498 C 2338.643,1574.914 2340.531,1571.349 2342.107,1567.523 C 2345.065,1569.261 2347.09,1570.451 2348.206,1571.054 C 2349.921,1571.979 2352.219,1573.132 2355.005,1574.499 C 2354.574,1575.142 2354.219,1575.645 2354.005,1576.045 C 2353.792,1576.434 2353.585,1576.971 2353.284,1577.688 C 2351.628,1576.568 2350.014,1575.598 2348.397,1574.722 C 2347.696,1574.342 2346.996,1573.965 2346.312,1573.643 C 2345.282,1575.398 2344.296,1577.139 2343.367,1578.858 L 2342.344,1580.758 C 2344.128,1581.632 2346.506,1582.777 2349.473,1584.196 C 2348.972,1584.898 2348.627,1585.455 2348.437,1585.815 C 2348.259,1586.134 2348.035,1586.706 2347.675,1587.527 C 2345.385,1586.061 2343.124,1584.7 2340.886,1583.441 L 2338.778,1587.35 C 2337.805,1589.141 2336.987,1590.736 2336.36,1592.204 C 2338.552,1593.384 2340.866,1594.498 2343.463,1595.535 C 2343.035,1596.184 2342.714,1596.697 2342.461,1597.168 C 2342.286,1597.488 2342.043,1598.095 2341.677,1598.916 C 2338.079,1596.836 2335.45,1595.322 2333.798,1594.43 C 2332.561,1593.761 2330.919,1592.92 2328.875,1591.996 C 2331.097,1588.801 2332.871,1585.592 2334.554,1582.474 L 2334.554,1582.474 z"
   id="path4381"
   style="fill:#ffffff;fill-rule:evenodd" />
</g></svg>