<?xml version="1.0" encoding="utf-8"?>
<!-- Generator: Adobe Illustrator 14.0.0, SVG Export Plug-In . SVG Version: 6.00 Build 43363)  -->
<svg version="1.2" baseProfile="tiny" id="Layer_1" xmlns:svg="http://www.w3.org/2000/svg"
	 xmlns="http://www.w3.org/2000/svg" xmlns:xlink="http://www.w3.org/1999/xlink" x="0px" y="0px" width="320.546px"
	 height="632.83px" viewBox="0 0 320.546 632.83" xml:space="preserve">
<path id="path8066" fill="#001C58" d="M92.196,423.371c-1.71-0.429-3.187-1.489-4.327-3.08c-5.782,8.919-8.22,16.894-6.094,24.051
	c8.895,30.032,35.392,52.212,67.126,55.166C118.572,490.296,96.126,458.693,92.196,423.371 M85.986,405.622
	c-1.911-1.361-3.547-2.637-4.711-3.748c-2.028,7.471-2.964,15.375-2.632,23.52c0.065,1.646,0.183,3.275,0.346,4.89
	c1.174-4.813,3.485-9.841,6.798-14.969C85.146,412.314,85.247,408.901,85.986,405.622z M87.481,401.038
	c0.801-1.82,1.805-3.5,3-4.916c0.961-1.133,1.985-2.033,3.072-2.701c2.886-13.451,8.914-25.432,17.725-34.488
	c-13.156,9.354-23.239,22.689-28.54,38.165C83.442,398.061,85.313,399.517,87.481,401.038z M201.291,470.088
	c-6.568-0.729-15.354-2.465-19.189-3.793c-4.282-1.48-8.092-5.058-10.185-9.577c-0.867-1.868-1.651-4.353-1.776-7.365
	c-0.071-1.801,0.101-3.786,0.628-5.936c-24.078-7.344-49.582-17.542-67.337-27.023c-0.625,1.144-1.339,2.207-2.141,3.155
	c-1.335,1.58-2.835,2.726-4.379,3.38c1.667,14.773,6.797,29.249,14.966,41.862c10.836,16.73,25.594,28.196,41.536,31.806
	c5.652,1.273,13.04,2.863,19.649,1.399c24.505-5.427,44.48-22.377,54.244-44.674c-1.145,0.204-2.43,0.32-3.811,0.368
	C217.906,470.049,206.147,470.625,201.291,470.088z M233.716,419.082c-0.349-8.615-2.086-16.842-4.993-24.476
	c-3.574-9.361-15.52-16-31.255-19.564c-29.09-6.576-67.301,4.287-91.616,24.744c0.934,3.73,0.657,8.181-0.597,12.24
	c17.52,9.42,43,19.616,67.039,26.934c5.658-12.992,16.49-15.47,24.938-13.358c6.052,1.51,9.942,2.302,12.782,2.873l3.125,0.66
	c4.016,0.939,7.539,3.607,9.651,7.325c1.497,2.626,2.872,6.779,1.935,12.5c2.953-0.173,4.383-0.668,4.714-1.059
	C232.594,438.907,234.13,429.178,233.716,419.082z M219.931,448.959c0.967-4.793-0.08-8.129-1.244-10.168
	c-1.46-2.575-3.879-4.42-6.616-5.061l-2.993-0.63c-2.724-0.55-6.832-1.386-12.988-2.922c-8.246-2.06-15.32,1.717-19.228,10.137
	c4.017,1.168,7.973,2.247,11.828,3.224c0.621-2.999,0.754-5.079,0.754-5.116c0.08-1.299,1.196-2.292,2.497-2.216
	c1.3,0.076,2.293,1.188,2.215,2.493c-0.008,0.169-0.16,2.555-0.876,5.959c0.763,0.179,1.528,0.359,2.278,0.527
	c0.773,0.177,1.535,0.346,2.281,0.503c0.672-3.317,1.105-6.138,1.117-6.194c0.195-1.288,1.399-2.172,2.684-1.977
	c1.293,0.192,2.177,1.396,1.985,2.686c-0.034,0.227-0.472,3.051-1.164,6.436c1.582,0.309,3.082,0.578,4.505,0.821
	c0.523-2.862,0.651-5.138,0.651-5.181c0.062-1.3,1.173-2.304,2.474-2.239c1.304,0.062,2.309,1.168,2.242,2.466
	c-0.01,0.194-0.137,2.584-0.697,5.66C214.906,448.611,217.652,448.854,219.931,448.959z M176.199,454.729
	c1.844,3.98,5.055,6.282,7.447,7.105c3.107,1.078,11.33,2.805,18.16,3.554c7.492,0.829,13.349-3.339,16.688-11.762
	c-2.507-0.144-5.191-0.438-7.969-0.824c-0.521,1.695-1.184,3.386-2.039,4.887c-0.644,1.133-2.082,1.523-3.215,0.883
	c-1.133-0.644-1.528-2.086-0.883-3.223c0.566-0.995,1.035-2.125,1.423-3.289c-1.465-0.25-2.939-0.527-4.398-0.809
	c-0.501,1.957-1.074,3.816-1.676,5.207c-0.521,1.194-1.915,1.737-3.11,1.219c-1.196-0.52-1.738-1.911-1.219-3.105
	c0.487-1.118,0.953-2.634,1.383-4.277c-0.766-0.168-1.523-0.336-2.273-0.505c-0.793-0.178-1.605-0.37-2.415-0.565
	c-0.425,1.368-0.925,2.79-1.534,4.23c-0.504,1.2-1.896,1.762-3.095,1.256c-1.198-0.505-1.765-1.892-1.257-3.09
	c0.508-1.188,0.93-2.372,1.289-3.512c-3.977-1.009-8.063-2.13-12.206-3.339C174.3,449.116,175.167,452.514,176.199,454.729z
	 M98.451,395.921c-1.046-0.191-3.122-0.176-5.196,2.079c-3.285,3.561-4.827,8.386-4.59,14.33l0,0
	c0.066,1.516,0.278,2.365,0.707,3.587c0.766,2.16,2.606,3.588,3.95,3.832c1.598,0.293,3.402-0.642,5.086-2.635
	c3.679-4.365,5.266-12.369,3.461-17.477C101.119,397.509,99.908,396.188,98.451,395.921z"/>
<path id="path8068" fill="#FFFFFF" d="M122.556,8.08c-30.403,0-37.609,15.588-37.609,15.588s35.079-2.535,35.079,32.11
	c0,15.592-8.485,26.16-17.466,37.344c-10.434,12.989-22.254,27.712-22.254,52.41c0,40.884,26.266,60.064,49.438,76.984
	C149.933,237.262,169,251.185,169,277.403c0,26.363-11.563,46.801-16.841,52.076c-8.852,8.852-16.828,10.462-23.231,11.757
	c-6.578,1.327-12.793,2.604-14.098,12.052c-24.341,14.619-39.088,40.657-39.088,68.906c0,1.102,0.023,2.208,0.067,3.315
	c0.875,21.47,10.058,41.313,25.856,55.873c15.797,14.563,36.321,22.098,57.787,21.222c21.468-0.874,41.309-10.059,55.872-25.852
	c14.563-15.798,22.1-36.323,21.22-57.786c-1.329-32.773-22.126-61.178-52.979-72.361l0.119,0.044c-0.02-0.009-0.422-0.17-0.422-0.17
	c-0.004-0.004-0.727-0.255-0.727-0.255c-3.902-1.347-8.329-2.877-8.329-12.913c0-9.725,4.415-10.531,13.2-12.145
	c5.223-0.959,11.613-2.131,17.88-5.959c11.153-6.808,13.247-15.021,11.216-17.048c-2.764-2.768-5.811,3.045-17.037,6.427
	c-4.047,1.222-8.12,1.932-10.871,1.932c-2.289,0-3.997-0.192-5.25-0.42c5.896-11.046,12.501-20.089,12.574-20.184l1.439-1.958
	l-1.721-1.72c-2.281-2.28-3.594-7.024-3.594-13.385c0-7.849,1.996-18.155,6.629-29.345c5.48-13.223,27.232-56.377,77.123-56.377
	h2.833v-2.832c0-17.836-1.63-34.241-4.841-48.757l-0.625-2.82c0,0-4.844,1.375-8.879,2.275c-0.48,0.106-4.254,1.033-4.426,0.237
	c-0.151-0.704,2.763-2.167,3.77-2.673c3.789-1.884,8.512-3.868,8.512-3.868l-0.652-2.27c-3.559-12.42-7.14-18.355-7.293-18.604
	l-1.156-1.892l-2.107,0.667c-41.547,13.088-50.431,40.658-55.739,57.127c-2.583,8.003-4.181,12.531-7.07,12.531
	c-8.575,0-15.669-7.092-18.001-9.423c-25.902-25.905-23.919-44.581-20.911-72.854c1.065-9.977,2.269-21.283,2.269-34.195
	C161.475,23.236,149.109,8.08,122.556,8.08"/>
<path id="path8070" fill="#001C58" d="M171.832,277.402c0,26.256-11.199,47.608-17.669,54.077
	c-20.051,20.053-36.589,5.45-36.769,25.568c-9.099,8.24-15.645,20.768-18.857,35.077c0.2,0.02,0.398,0.048,0.594,0.085
	c1.883,0.343,3.5,1.419,4.734,3.117c25.467-20.755,64.677-31.668,94.647-24.891c9.528,2.154,17.61,5.672,23.731,11.054
	c-9.203-14.886-23.273-26.374-39.904-32.336c-3.947-1.415-10.965-3.036-10.965-15.845c0-23.904,26.154-5.318,43.385-31.355
	c0.844-1.286-0.37-2.408-1.383-1.397c-5.211,5.208-18.012,8.792-24.782,8.792c-6.778,0-9.327-1.544-9.327-1.544
	c6.398-12.732,14.367-23.569,14.367-23.569c-15.996-15.996,10.926-103.942,82.162-103.942c0-20.4-2.155-36.313-4.774-48.146
	c-1.694,0.413-15.112,3.577-15.727,0.755c-0.543-2.5,9.884-7.92,13.474-9.703c-3.501-12.194-6.988-17.909-6.988-17.909
	c-61.057,19.237-48.786,69.788-63.66,69.788c-9.682,0-17.286-7.536-20.002-10.252c-36.469-36.463-19.472-60.596-19.472-109.052
	c0-32.642-12.677-44.867-36.088-44.867c-23.41,0-31.774,10.137-31.774,10.137s32.076,1.039,32.076,34.73
	c0,35.272-39.721,45.008-39.721,89.753C83.138,220.016,171.832,218.617,171.832,277.402 M129.549,55.778
	c0-4.324-0.465-8.229-1.309-11.753c0,0,6.981-0.365,6.981-8.861c0-7.004-4.672-11.779-5.925-11.779c-1.011,0-1.262,1.073-3.45,1.073
	c-5.332,0-5.722-6.813-5.722-6.813c0.789-0.027,1.6-0.039,2.432-0.039c15.266,0,29.396,4.623,29.396,38.174
	c0,12.407-1.176,23.448-2.211,33.188c-1.027,9.62-1.976,18.568-1.703,27.306c0,0-26.584-3.133-26.584-23.133
	C121.454,80.153,129.549,76.993,129.549,55.778z M92.196,423.371c-1.71-0.429-3.187-1.489-4.327-3.08
	c-5.782,8.919-8.22,16.894-6.094,24.051c8.895,30.032,35.392,52.212,67.126,55.166C118.572,490.296,96.126,458.693,92.196,423.371z
	 M85.986,405.622c-1.911-1.361-3.547-2.637-4.711-3.748c-2.028,7.471-2.964,15.375-2.632,23.52c0.065,1.646,0.183,3.275,0.346,4.89
	c1.174-4.813,3.485-9.841,6.798-14.969C85.146,412.314,85.247,408.901,85.986,405.622z M87.481,401.038
	c0.801-1.82,1.805-3.5,3-4.916c0.961-1.133,1.985-2.033,3.072-2.701c2.886-13.451,8.914-25.432,17.725-34.488
	c-13.156,9.354-23.239,22.689-28.54,38.165C83.442,398.061,85.313,399.517,87.481,401.038z M201.291,470.088
	c-6.568-0.729-15.354-2.465-19.189-3.793c-4.282-1.48-8.092-5.058-10.185-9.577c-0.867-1.868-1.651-4.353-1.776-7.365
	c-0.071-1.801,0.101-3.786,0.628-5.936c-24.078-7.344-49.582-17.542-67.337-27.023c-0.625,1.144-1.339,2.207-2.141,3.155
	c-1.335,1.58-2.835,2.726-4.379,3.38c1.667,14.773,6.797,29.249,14.966,41.862c10.836,16.73,25.594,28.196,41.536,31.806
	c5.652,1.273,13.04,2.863,19.649,1.399c24.505-5.427,44.48-22.377,54.244-44.674c-1.145,0.204-2.43,0.32-3.811,0.368
	C217.906,470.049,206.147,470.625,201.291,470.088z M228.723,394.606c-3.574-9.361-15.52-16-31.255-19.564
	c-29.09-6.576-67.301,4.287-91.616,24.744c0.934,3.73,0.657,8.181-0.597,12.24c17.52,9.42,43,19.616,67.039,26.934
	c5.658-12.992,16.49-15.47,24.938-13.358c6.052,1.51,9.942,2.302,12.782,2.873l3.125,0.66c4.016,0.939,7.539,3.607,9.651,7.325
	c1.497,2.626,2.872,6.779,1.935,12.5c2.953-0.173,4.383-0.668,4.714-1.059c3.152-8.994,4.688-18.723,4.274-28.818
	C233.368,410.467,231.63,402.24,228.723,394.606z M176.199,454.729c1.844,3.98,5.055,6.282,7.447,7.105
	c3.107,1.078,11.33,2.805,18.16,3.554c7.492,0.829,13.349-3.339,16.688-11.762c-2.507-0.144-5.191-0.438-7.969-0.824
	c-0.521,1.695-1.184,3.386-2.039,4.887c-0.644,1.133-2.082,1.523-3.215,0.883c-1.133-0.644-1.528-2.086-0.883-3.223
	c0.566-0.995,1.035-2.125,1.423-3.289c-1.465-0.25-2.939-0.527-4.398-0.809c-0.501,1.957-1.074,3.816-1.676,5.207
	c-0.521,1.194-1.915,1.737-3.11,1.219c-1.196-0.52-1.738-1.911-1.219-3.105c0.487-1.118,0.953-2.634,1.383-4.277
	c-0.766-0.168-1.523-0.336-2.273-0.505c-0.793-0.178-1.605-0.37-2.415-0.565c-0.425,1.368-0.925,2.79-1.534,4.23
	c-0.504,1.2-1.896,1.762-3.095,1.256c-1.198-0.505-1.765-1.892-1.257-3.09c0.508-1.188,0.93-2.372,1.289-3.512
	c-3.977-1.009-8.063-2.13-12.206-3.339C174.3,449.116,175.167,452.514,176.199,454.729z M219.931,448.959
	c0.967-4.793-0.08-8.129-1.244-10.168c-1.46-2.575-3.879-4.42-6.616-5.061l-2.993-0.63c-2.724-0.55-6.832-1.386-12.988-2.922
	c-8.246-2.06-15.32,1.717-19.228,10.137c4.017,1.168,7.973,2.247,11.828,3.224c0.621-2.999,0.754-5.079,0.754-5.116
	c0.08-1.299,1.196-2.292,2.497-2.216c1.3,0.076,2.293,1.188,2.215,2.493c-0.008,0.169-0.16,2.555-0.876,5.959
	c0.763,0.179,1.528,0.359,2.278,0.527c0.773,0.177,1.535,0.346,2.281,0.503c0.672-3.317,1.105-6.138,1.117-6.194
	c0.195-1.288,1.399-2.172,2.684-1.977c1.293,0.192,2.177,1.396,1.985,2.686c-0.034,0.227-0.472,3.051-1.164,6.436
	c1.582,0.309,3.082,0.578,4.505,0.821c0.523-2.862,0.651-5.138,0.651-5.181c0.062-1.3,1.173-2.304,2.474-2.239
	c1.304,0.062,2.309,1.168,2.242,2.466c-0.01,0.194-0.137,2.584-0.697,5.66C214.906,448.611,217.652,448.854,219.931,448.959z
	 M98.451,395.921c-1.046-0.191-3.122-0.176-5.196,2.079c-3.285,3.561-4.827,8.386-4.59,14.33l0,0
	c0.066,1.516,0.278,2.365,0.707,3.587c0.766,2.16,2.606,3.588,3.95,3.832c1.598,0.293,3.402-0.642,5.086-2.635
	c3.679-4.365,5.266-12.369,3.461-17.477C101.119,397.509,99.908,396.188,98.451,395.921z"/>
<path id="path8072" fill="#001C58" d="M37.411,490.135c5.953,3.927,12.257,7.458,12.257,7.458l-2.207,5.719
	c-0.824-3.465-4.261-5.345-8.696-8.09l-14.52,20.996c-1.773,2.531-5.23,8.074-5.509,10.234c0,0-2.383-1.513-4.558-3.133
	c-2.273-1.696-4.434-3.267-4.434-3.267c2.164-0.526,5.901-6.039,8.155-9.095l14.126-20.155c-5.291-4.091-7.356-4.892-11.095-5.087
	l5.028-3.77C25.961,481.948,30.793,485.772,37.411,490.135"/>
<path id="path8074" fill="#001C58" d="M267.498,561.258l0.438,0.481c-0.41-0.022-0.751,0.19-1.191,0.438l1.274,2.449
	c0.249,0.453,0.601,1.142,0.831,1.192c0,0-0.272,0.155-0.598,0.32c-0.285,0.14-0.555,0.25-0.555,0.25
	c0.004-0.305-0.095-0.547-0.434-1.243l-1.334-2.57c-0.447,0.226-0.938,0.448-1.068,0.812l-0.113-0.711c0,0,0.658-0.319,1.37-0.687
	C266.944,561.563,267.498,561.258,267.498,561.258"/>
<path id="path8076" fill="#001C58" d="M46.809,542.216c-10.086-4.813-11.426-15.927-6.46-26.329
	c4.988-10.445,14.496-16.325,24.536-11.527c10.036,4.792,11.45,15.879,6.458,26.328C66.376,541.09,56.894,547.031,46.809,542.216
	 M63.441,507.375c-6.449-3.078-11.52,4.206-15.344,12.215c-3.824,8.008-6.325,16.586,0.125,19.665
	c6.45,3.075,11.547-4.259,15.372-12.267C67.418,518.979,69.891,510.452,63.441,507.375z"/>
<path id="path8078" fill="#001C58" d="M91.942,515.102c6.821,1.926,12.372,3.215,12.372,3.215l-0.591,6.105
	c-1.828-2.641-2.667-3.286-8.489-4.77l-7.059,23.733c-0.566,2.173-3.383,10.392-2.48,11.938c0,0-1.96-0.418-5.125-1.296
	c-3.558-0.986-5.23-1.653-5.23-1.653c1.825-1.2,4.121-8.226,4.872-11.082l7.094-23.892c-6.032-2.012-7.434-2.152-10.316-0.813
	l3.496-5.206C80.485,511.383,84.423,512.972,91.942,515.102"/>
<path id="path8080" fill="#001C58" d="M120.079,521.406c6.723,1.016,13.056,1.59,13.056,1.59l0.254,6.126
	c-2.512-2.234-3.458-2.958-10.095-3.794l-3.844,24.373c-0.27,2.233-1.699,10.711-0.594,12.117c0,0-2.328-0.259-5.543-0.708
	c-3.215-0.457-5.19-0.909-5.19-0.909c1.57-1.227,2.875-9.254,3.148-11.489l3.938-24.676c-5.751-1.148-6.933-0.707-9.695,0.895
	l2.504-5.796C108.018,519.134,113.389,520.396,120.079,521.406"/>
<path id="path8082" fill="#001C58" d="M145.006,544.579l-0.506,16.379c8.588,0.113,14.468-0.43,17.085-4.156l-1.313,7.442
	c0,0-4.757,0.096-11.723,0c-7.655-0.11-13.664-0.609-13.664-0.609c1.274-1.262,1.59-9.244,1.605-11.487l0.7-16.076
	c0.031-4.28,0.421-11.198-1.016-12.652c6.222,0.43,5.43,0.422,11.144,0.645c7.482,0.297,11.719,0.074,11.719,0.074l0.941,6.145
	c-2.921-2.438-7.3-2.724-14.449-2.766l-0.394,13.747l10.98,0.063c0.989,0.011,1.051,0.562,1.048,1.663
	c-0.012,1.086-0.027,1.664-1.07,1.653L145.006,544.579"/>
<path id="path8084" fill="#001C58" d="M192.964,549.509c0.633,5.96,1.262,10.241,2.621,11.023c-0.34,0.616-1.417,1.425-2.847,1.577
	c-1.722,0.184-3.024-0.664-4.22-2.046l-19.469-22.334l0.732,14.209c0.236,2.233,0.493,10.698,1.883,11.828l-6.487,0.295
	c1.129-1.395,0.829-9.46,0.589-11.699l-0.916-16.034c-0.238-2.235-0.656-11.103-2.051-12.224l5.949-0.215l19.953,23.699
	l-1.66-13.636c-0.238-2.242-1.452-10.367-2.795-11.497c0,0,0.717-0.069,3.139-0.398c2.417-0.328,3.297-0.504,3.297-0.504
	c-1.121,1.398,0.18,9.734,0.421,11.97L192.964,549.509"/>
<path id="path8086" fill="#001C58" d="M229.544,541.06c0.691,2.773,2.063,9.894,4.098,11.288c0,0-3.079,0.892-4.962,1.47
	c-1.675,0.515-5.366,1.473-5.366,1.473c0.87-1.539-1.07-10.086-1.606-12.22l-1.851-7.437l-12.371,3.034l1.406,7.563
	c0.406,2.445,1.695,10.673,3.363,11.677c0,0-1.73,0.358-5.336,1.098c-3.02,0.621-5.123,0.953-5.123,0.953
	c0.927-1.539-0.315-9.169-0.699-11.603l-2.998-15.989c-0.547-2.979-1.923-10.52-3.578-11.402c0,0,1.605-0.304,5.138-0.991
	c3.534-0.688,5.266-1.156,5.266-1.156c-0.87,1.789,0.664,9.024,1.081,11.559l0.952,5.074l12.174-2.968l-1.313-5.184
	c-0.715-2.747-2.227-9.337-3.918-10.56c0,0,1.671-0.483,5.058-1.446c3.388-0.956,4.849-1.503,4.849-1.503
	c-0.672,1.828,1.212,8.246,1.992,11.555L229.544,541.06"/>
<path id="path8088" fill="#001C58" d="M252.146,531.582l-12.072,4.728l0.419,6.629c0.27,2.263,0.278,4.341,0.773,5.513
	c0.243,0.582,0.661,0.968,1.06,1.176c0,0-1.26,0.457-3.333,1.13c-2.075,0.671-3.215,1-3.215,1c0.724-1.248,0.898-2.966,0.835-5.11
	l-1.063-31.427c-0.101-1.142-0.237-2.212-0.616-3.109c-0.336-0.801-0.902-1.251-1.297-1.587c1.375-0.891,3.095-1.867,4.844-2.601
	c2.773-1.169,3.943-1.122,5.966,1.237l17.71,21.965c3.221,4.192,6.067,7.013,7.92,7.575c0,0-1.811,0.835-5.215,2.352
	c-3.404,1.511-5.656,2.37-5.656,2.37c0.201-0.711,0.225-1.465-0.219-2.597c-0.474-1.223-2.216-3.293-3.34-4.863L252.146,531.582
	 M249.955,528.98l-10.727-14.864l0.756,18.669L249.955,528.98z"/>
<path id="path8090" fill="#001C58" d="M302.724,520.188c-2.428,1.637-4.246,2.89-4.246,2.89c-0.178-2.39-4.791-8.297-6.146-10.09
	l-10.404-13.57l8.369,26.754c-0.326,0.531-0.918,1.274-1.471,1.691c-1.65,1.255-3.257,1.008-4.725-0.147l-19.811-16.423
	l6.934,12.771c1.696,3.234,4.965,9.965,7.166,10.629c0,0-1.368,0.73-3.1,1.569c-1.719,0.832-2.77,1.321-2.77,1.321
	c0.384-1.879-2.835-7.465-4.709-11.04l-7.716-14.513c-2.341-4.366-4.923-8.812-7.14-9.698c1.715-0.832,2.233-1.086,4.688-2.298
	c2.045-1.008,3.849-1.996,3.849-1.996l22.304,18.974l-8.773-26.863c0,0,1.176-0.798,3.406-2.286c2.224-1.489,4.23-2.969,4.23-2.969
	c0.17,2.402,4.814,8.528,6.506,10.72l9.605,12.359c2.037,2.543,5.847,8.204,8.559,8.853
	C307.328,516.824,305.156,518.543,302.724,520.188"/>
<path id="path8092" fill="#001C58" d="M272.458,560.056l1.095,1.403c0.32,0.391,0.645,0.874,0.988,1.019
	c0,0-0.285,0.204-0.563,0.392c-0.277,0.183-0.482,0.328-0.482,0.328c-0.076-0.378-0.541-0.965-0.693-1.169l-1.164-1.538l0.953,3.036
	c-0.039,0.062-0.105,0.145-0.17,0.19c-0.249,0.191-0.433,0.082-0.6-0.051l-2.295-1.832l0.896,1.452
	c0.213,0.376,0.598,1.067,0.902,1.208c0,0-0.169,0.101-0.375,0.222c-0.18,0.106-0.356,0.196-0.356,0.196
	c0.042-0.367-0.421-1.09-0.56-1.34l-0.983-1.648c-0.226-0.374-0.581-0.922-0.899-1.015c0,0,0.309-0.161,0.611-0.329
	c0.189-0.104,0.38-0.228,0.495-0.29l2.538,2.112l-0.977-3.011c0.094-0.043,0.241-0.134,0.469-0.274
	c0.293-0.179,0.535-0.343,0.535-0.343C271.822,559.142,272.248,559.773,272.458,560.056"/>
<path id="path8094" fill="#001C58" d="M74.461,569.035c2.067,0.759,4.734,1.684,4.734,1.684c-2.246,1.629-4.309,8.104-5.648,11.621
	l-5.18,14.372c-1.386,3.901-3.75,9.556-2.958,11.573c0,0-2.85-0.984-5.156-1.803c-1.973-0.704-3.093-1.079-5.183-1.973
	c2.539-0.673,4.933-9.118,5.711-11.242l2.371-6.708l-12.415-5.176l-3.59,7.672c-1.169,2.665-3.965,8.699-3.3,10.59
	c0,0-2.193-0.895-5.403-2.371c-3.781-1.741-4.604-2.202-4.604-2.202c2.664-1.31,4.242-5.61,6.27-9.955l6.492-14.378
	c2.194-4.922,4.175-9.188,4.026-11.993c0,0,1.159,0.691,4.352,2.126c2.544,1.144,3.843,1.716,5.271,2.288
	c-2.021,0.804-4.833,8.059-6.317,11.313l-1.902,4.063l12.128,4.996l1.86-4.605c0.871-2.353,3.879-9.383,3.23-11.79
	C69.25,567.138,71.739,568.041,74.461,569.035"/>
<path id="path8096" fill="#001C58" d="M88.485,615.678c-10.812-2.844-14.25-13.313-11.383-24.22
	c2.882-10.965,11.07-18.313,21.829-15.479c10.754,2.827,14.265,13.253,11.387,24.218C107.447,611.107,99.299,618.521,88.485,615.678
	 M98.1,579.138c-6.911-1.817-10.481,6.104-12.691,14.505c-2.216,8.394-3.013,17.109,3.894,18.93
	c6.911,1.813,10.5-6.165,12.708-14.561C104.225,589.614,105.009,580.958,98.1,579.138z"/>
<path id="path8098" fill="#001C58" d="M117.771,619.538c0,0,0.688-0.744,1.157-2.259c0.661-2.129,1.086-6.222,1.595-9.414
	l3.027-23.407c-6.449-0.809-8.087-0.345-10.919,1.332l2.657-5.993c2.008,0.445,6.458,0.926,11.871,1.609
	c3.622,0.453,14.411,1.427,14.411,1.427l0.367,5.995c-2.379-2.753-4.848-3.003-10.223-3.425l-3.015,23.485
	c-0.27,2.187-1.47,9.773-0.28,12.019c-1.297-0.147-3.445-0.391-5.247-0.57C121.303,620.146,118.845,619.721,117.771,619.538"/>
<path id="path8100" fill="#001C58" d="M169.164,611.408c0.074,7.047-5.657,12.148-14.473,12.019
	c-6.856-0.1-10.441-2.921-11.813-4.069l1.427-6.688c2.128,4.262,5.656,7.359,9.628,7.422c4.149,0.058,7.414-2.384,7.481-6.496
	c0.043-2.989-1.602-4.794-8.523-8.396c-6.633-3.425-9.102-6.843-9.102-11.938c0-6.938,6.035-10.462,13.125-10.464
	c5.214-0.005,8.851,1.593,11.136,2.814l-1.473,6.128c-3.163-4.225-6.027-5.789-9.481-5.837c-3.402-0.056-5.812,1.8-5.789,5.296
	c0.023,3.811,4.215,5.871,9.868,9.028C167.675,603.864,169.125,607.51,169.164,611.408"/>
<path id="path8102" fill="#001C58" d="M201.265,589.822c0.252,0.827,0.403,1.831,0.481,2.62c0.067,0.728,0.103,1.691,0.016,2.603
	c-0.187,2.284-1.271,4.938-3.063,6.804c-2.737,2.859-6.306,4.281-11.036,4.502c-1.824,0.112-2.261-0.445-2.383-1.762l-0.011-0.286
	c0,0-0.039-0.509,0.359-0.536l0.458-0.045c1.397-0.174,3.472-0.611,5.135-2.634c1.596-2.082,2.141-4.848,1.863-7.825
	c-0.296-3.093-1.225-5.32-3.304-6.921c-1.805-1.387-3.926-1.838-6.109-1.665c0,0-0.876,0.074-1.848,0.228
	c0,0-0.569,0.051-0.521,0.608l2.344,24.277c0.203,2.137,0.785,9.66,2.539,11.212c0,0-1.996,0.211-5.755,0.52
	c-2.866,0.234-5.101,0.292-5.101,0.292c0.754-1.863,0.629-4.618,0.441-7.825l-1.816-19.144c-0.207-2.191-0.577-9.701-2.363-11.556
	c0,0,4.805-0.711,13.695-1.551c4.649-0.44,8.457,0.152,11.742,2.375C199.179,585.56,200.656,587.669,201.265,589.822"/>
<path id="path8104" fill="#001C58" d="M237.641,597.65c1.903,8.414-2.046,15.578-10.802,17.767
	c-6.152,1.538-15.012-0.719-17.484-11.512l-3.012-12.743c-0.793-3.567-2.09-9.883-4.159-11.528c0,0,2.313-0.327,5.935-1.003
	c3.621-0.676,5.303-1.079,5.303-1.079c-0.951,1.499,0.048,7.403,0.994,11.74l3.844,16.198c0.686,2.969,1.655,5.001,3.32,6.199
	c1.233,0.892,2.881,1.135,4.598,0.822c1.562-0.291,3.188-1.173,4.039-2.755c0.902-1.66,0.898-4.062,0.203-7.027l-4.315-16.198
	c-1.181-4.459-2.54-10.04-4.001-10.974c0,0,1.758-0.477,5.09-1.43c2.523-0.719,4.023-1.156,5.113-1.54
	c-0.996,2.438,1.375,9.916,1.877,12.056L237.641,597.65"/>
<path id="path8106" fill="#001C58" d="M276.955,594.33c0.848,0.325,1.762,0.548,2.529,0.222c-0.088,0.528-0.584,1.583-1.414,2.435
	c-3.541,3.628-6.863,3.004-7.989,2.559c-6.104-2.328-16.313-11.375-16.733-12.363c0,0-0.105-0.258,0.16-0.367l0.369-0.164
	c1.595-0.663,3.404-2.466,4.117-4.171c1.142-2.501,0.949-4.747-0.21-7.496c-1.2-2.859-3.3-4.661-4.945-5.146
	c-2.434-0.719-4.249-0.148-5.356,0.293c0,0-1.46,0.574-1.895,1.012c0,0-0.293,0.242,0.048,1.238l7.712,22.027
	c1.172,3.24,3.207,9.561,5.051,10.626c0,0-2.084,0.819-5.243,1.961c-3.16,1.141-5.082,1.672-5.082,1.672
	c0.644-2.46-1.79-9.148-2.403-11.024l-4.987-14.874c-1.247-3.586-3.522-10.012-5.376-11.04c0,0,3.641-1.02,11.825-4.457
	c4.353-1.828,8.569-2.61,12.374-1.496c2.309,0.679,3.869,1.838,5.146,3.688c0.488,0.716,0.847,1.419,1.157,2.147
	c0.283,0.677,0.479,1.454,0.608,2.176c0.403,2.248,0.065,4.638-1.235,6.892c0,0-1.172,2.27-3.675,4.051
	C261.505,584.728,269.544,591.538,276.955,594.33"/>
</svg>
