<?xml version="1.0" encoding="UTF-8" standalone="no"?>
<!-- Created with Inkscape (http://www.inkscape.org/) -->
<svg
   xmlns:svg="http://www.w3.org/2000/svg"
   xmlns="http://www.w3.org/2000/svg"
   version="1.0"
   width="800"
   height="770.80902"
   viewBox="0 0 800 770.809"
   id="Layer_1"
   xml:space="preserve"><defs
   id="defs76" />
<path
   d="M 438.131,617.212 C 522.346,605.346 571.087,576.938 611.979,550.219 L 593.748,527.394 C 589.278,530.298 582.789,534.212 577.989,536.87 L 438.131,617.212 M 188.021,550.219 C 229.819,578.339 290.838,609.59 363.579,617.768 L 219.684,535.531 C 215.049,532.935 210.558,530.216 206.211,527.394 L 188.021,550.219 z M 800,422.063 L 795.653,444.044 C 795.076,447.072 785.003,512.169 737.765,563.939 L 774.722,610.703 L 770.087,616.182 C 768.769,617.727 732.779,659.834 670.813,696.791 C 613.812,730.762 527.763,770.809 400.02,770.809 C 276.87,770.809 184.291,730.268 128.34,696.256 C 67.507,659.319 30.549,618.345 29.272,616.8 L 24.699,611.382 L 28.86,605.654 L 61.162,565.484 C 14.029,513.056 3.976,442.787 3.378,439.573 L 0,422.063 L 83.412,461.822 L 112.85,375.712 L 112.87,0 L 687.192,0 L 687.088,357.13 C 687.088,362.259 686.924,368.048 686.635,373.013 L 716.588,461.822 L 800,422.063 z "
   style="fill:#5299c6;fill-rule:evenodd"
   id="path3" />
<path
   d="M 571.438,519.833 L 400.062,617.871 L 228.542,519.833 C 166.514,485.08 130.978,425.544 130.978,356.45 L 130.896,18.046 L 669.167,18.046 L 669.085,357.13 C 669.084,428.696 632.642,486.027 571.438,519.833"
   style="fill:#60223b;fill-rule:evenodd"
   id="path5" />
<path
   d="M 401.236,637.854 C 544.307,637.854 650.935,546.408 679.466,520.122 L 751.569,610.867 C 727.116,633.425 609.981,752.784 400.021,752.784 C 197.786,752.784 73.029,636.35 48.37,610.703 L 120.699,520.143 C 132.462,531.247 158.398,553.763 193.892,575.682 C 239.604,603.904 312.201,637.504 398.703,637.854 L 401.236,637.854"
   style="fill:#60223b;fill-rule:evenodd"
   id="path7" />
<path
   d="M 679.549,491.384 L 631.673,496.74 C 654.149,474.059 672.38,443.096 679.961,410.754 L 706.103,486.811 L 774.27,454.324 C 765.248,486.379 750.93,519.525 726.065,549.21 L 679.549,491.384"
   style="fill:#60223b;fill-rule:evenodd"
   id="path9" />
<path
   d="M 662.204,511.14 C 653.284,518.185 644.014,527.868 626.77,539.857 L 608.477,516.928 L 662.204,511.14"
   style="fill:#60223b;fill-rule:evenodd"
   id="path11" />
<path
   d="M 191.502,516.928 L 173.23,539.857 C 157.615,528.465 145.605,518.247 137.776,511.14 L 191.502,516.928"
   style="fill:#60223b;fill-rule:evenodd"
   id="path13" />
<path
   d="M 72.596,550.754 C 44.106,517.649 32.631,477.746 25.73,454.323 L 84.751,482.443 L 93.898,486.81 L 97.173,477.251 L 119.998,410.752 C 128.341,441.632 145.089,472.45 168.306,496.738 L 120.451,491.382 L 72.596,550.754"
   style="fill:#60223b;fill-rule:evenodd"
   id="path15" />
<path
   d="M 136.911,563.135 L 117.217,601.287 C 127.929,591.213 148.447,572.302 148.447,572.302 L 158.562,580.068 L 139.96,619.497 L 140.104,619.601 C 139.96,619.497 171.046,588.679 171.046,588.679 L 183.015,596.405 L 127.084,648.545 L 116.393,640.902 C 124.468,625.699 138.909,595.787 138.909,595.787 C 127.187,606.974 115.013,617.171 101.19,629.613 L 90.951,621.414 L 126.59,553.989 L 136.911,563.135"
   style="fill:#ffffff"
   id="path17" />
<polyline
   fill="#FFFFFF"
   points="187.362,599.228 211.794,613.071 204.811,624.813 192.368,618.077 184.354,631.591   194.881,637.813 187.547,650.028 177.021,643.786 168.718,658.207 181.511,665.623 174.548,677.386 149.581,663.13 187.362,599.228   "
   id="polyline19"
   style="fill:#ffffff" />
<path
   d="M 193.377,665.973 C 194.387,669.311 196.714,672.36 199.681,673.76 C 203.966,675.758 208.622,674.234 210.229,670.815 C 214.864,660.967 199.517,649.37 206.995,633.404 C 212.145,622.445 222.466,617.439 232.478,622.156 C 235.568,623.578 239.008,626.318 241.48,629.655 L 235.114,643.21 C 233.487,640.367 230.85,637.359 228.522,636.289 C 225.514,634.867 222.445,634.949 220.364,639.338 C 216.573,647.434 232.415,658.825 223.784,677.181 C 217.748,690.035 206.85,693.125 195.685,687.893 C 191.832,686.06 188.99,683.732 186.827,679.901 L 193.377,665.973"
   style="fill:#ffffff"
   id="path21" />
<polyline
   fill="#FFFFFF"
   points="265.026,650.337 244.446,707.38 231.364,702.683 251.924,645.661 243.375,642.571 247.989,629.695   278.21,640.531 273.595,653.386 265.026,650.337 "
   id="polyline23"
   style="fill:#ffffff" />
<polyline
   fill="#FFFFFF"
   points="326.806,727.486 313.107,725.076 318.381,695.267 306.268,692.96 299.944,722.645 286.265,719.596   301.468,646.712 314.941,649.761 308.719,680.126 320.812,682.412 326.663,652.13 340.341,654.437 326.806,727.486 "
   id="polyline25"
   style="fill:#ffffff" />
<path
   d="M 372.746,657.918 L 380.595,732.533 L 367.349,731.894 L 365.619,717.577 L 351.734,716.547 L 347.964,730.226 L 334.8,728.764 L 358.882,656.826 L 372.746,657.918 M 364.897,706.144 L 362.94,681.176 L 355.544,705.464 L 364.897,706.144 z "
   style="fill:#ffffff"
   id="path27" />
<polyline
   fill="#FFFFFF"
   points="407.87,658.763 417.016,701.715 417.202,701.715 422.846,658.228 437.823,657.177 448.72,730.576   435.268,731.771 429.191,686.944 429.026,686.944 423.134,732.492 413.514,732.821 404.038,687.975 403.874,687.975   401.668,732.966 387.928,732.698 392.893,658.701 407.87,658.763 "
   id="polyline29"
   style="fill:#ffffff" />
<path
   d="M 481.867,650.605 L 492.662,703.094 C 493.712,708.142 496.391,709.604 499.027,709.069 C 501.643,708.512 503.518,706.102 502.447,701.076 L 491.652,648.4 L 505.29,645.372 L 516.332,699.387 C 518.681,710.656 515.096,720.503 501.974,723.242 C 488.871,725.962 481.641,718.34 479.292,707.092 L 468.229,653.077 L 481.867,650.605"
   style="fill:#ffffff"
   id="path31" />
<polyline
   fill="#FFFFFF"
   points="524.695,639.295 553.289,674.872 553.454,674.811 539.857,634.31 552.156,629.593 576.073,699.964   564.557,704.208 535.737,669.476 535.572,669.517 547.85,710.017 535.387,713.91 513.159,643.106 524.695,639.295 "
   id="polyline33"
   style="fill:#ffffff" />
<polyline
   fill="#FFFFFF"
   points="589.875,694.319 559.448,626.564 572.261,621.002 602.647,688.819 589.875,694.319 "
   id="polyline35"
   style="fill:#ffffff" />
<polyline
   fill="#FFFFFF"
   points="604.996,619.086 634.042,672.792 621.682,679.363 592.635,625.843 584.56,630.046 578.277,617.871   606.809,602.771 613.607,614.616 604.996,619.086 "
   id="polyline37"
   style="fill:#ffffff" />
<polyline
   fill="#FFFFFF"
   points="612.742,599.186 635.938,584.23 643.601,595.272 631.818,603.327 640.058,616.408 649.987,609.774   657.918,621.353 647.35,627.985 657.362,642.097 669.516,634.083 677.242,645.723 652.192,662.018 612.742,599.186 "
   id="polyline39"
   style="fill:#ffffff" />
<path
   d="M 641.954,579.492 L 653.346,571.21 C 668.199,560.395 683.197,568.244 695.783,585.548 C 708.391,602.873 711.749,620.63 696.917,631.425 L 685.524,639.727 L 641.954,579.492 M 688.696,620.487 L 689.706,619.745 C 695.7,615.398 691.89,605.057 683.958,594.16 C 676.026,583.263 668.24,577.267 662.266,581.656 L 661.256,582.377 L 688.696,620.487 z "
   style="fill:#ffffff"
   id="path41" />
<path
   d="M 265.603,69.197 L 286.574,93.155 L 268.136,114.312 L 245.022,135.139 C 245.022,135.139 212.267,156.275 209.795,157.841 C 207.343,159.365 205.366,159.242 203.594,157.82 C 201.802,156.378 202.255,153.103 204.048,151.166 L 221.826,125.683 C 225.142,120.471 223.639,114.827 223.226,111.469 C 222.793,108.132 223.721,106.875 225.637,105.062 C 227.265,103.497 257.259,76.593 265.603,69.197"
   style="fill:#f7c240"
   id="path43" />
<polyline
   fill="#F7C240"
   points="383.108,278.89 256.271,136.293 268.487,124.921 394.644,266.673 383.108,278.89 "
   id="polyline45"
   style="fill:#f7c240" />
<path
   d="M 416.625,291.6 L 573.045,467.137 C 573.045,467.137 572.942,471.072 568.739,475.048 C 565.258,478.365 560.788,478.509 560.788,478.509 L 405.521,304.187 L 416.625,291.6"
   style="fill:#f7c240"
   id="path47" />
<path
   d="M 512.953,93.444 L 532.215,114.189 L 555.328,135.016 C 555.328,135.016 588.062,156.152 590.556,157.677 C 593.007,159.242 594.985,159.098 596.777,157.677 C 598.548,156.256 598.095,152.98 596.303,151.023 L 578.525,125.561 C 575.229,120.328 576.712,114.705 577.125,111.347 C 577.558,108.01 576.631,106.732 574.715,104.919 C 573.067,103.354 542.434,76.47 534.502,69.239 L 512.953,93.444"
   style="fill:#f7c240"
   id="path49" />
<path
   d="M 239.316,478.508 L 543.977,136.293 L 531.72,124.921 L 227.08,467.137 C 227.08,467.137 227.163,471.072 231.365,475.048 C 234.846,478.364 239.316,478.508 239.316,478.508"
   style="fill:#f7c240"
   id="path51" />
<path
   d="M 300.973,511.737 C 301.365,511.201 339.188,456.919 399.917,456.919 C 461.39,456.919 497.584,511.922 497.935,512.479 L 506.031,507.267 C 504.486,504.816 466.746,447.258 399.918,447.258 C 334.018,447.258 294.649,503.889 293.002,506.32 L 300.973,511.737"
   style="fill:#f7c240"
   id="path53" />
<polyline
   fill="#F7C240"
   points="207.344,238.513 207.344,208.971 222.794,208.971 222.794,222.135 236.618,222.135   236.618,208.971 252.088,208.971 252.088,222.135 265.685,222.135 265.685,208.992 281.423,208.992 281.423,238.513   207.344,238.513 "
   id="polyline55"
   style="fill:#f7c240" />
<polyline
   fill="#F7C240"
   points="518.721,238.513 518.721,208.992 534.459,208.992 534.459,222.135 548.056,222.135   548.056,208.971 563.527,208.971 563.527,222.135 577.35,222.135 577.35,208.971 592.8,208.971 592.8,238.513 518.721,238.513 "
   id="polyline57"
   style="fill:#f7c240" />
<path
   d="M 422.125,285.152 L 447.505,256.291 L 459.556,256.291 L 459.556,244.075 L 475.006,244.075 L 475.006,256.291 L 488.85,256.291 L 488.85,243.786 L 504.28,243.786 L 504.28,256.291 L 517.341,256.291 L 503.786,371.571 L 608.601,371.571 L 619.972,426.656 C 619.972,426.656 598.733,414.049 567.667,414.049 C 558.645,414.049 549.374,415.429 540.145,418.252 L 422.125,285.152"
   style="fill:#f7c240"
   id="path59" />
<path
   d="M 259.793,418.108 C 250.812,415.45 241.232,414.049 232.477,414.049 C 201.411,414.049 180.172,426.656 180.172,426.656 L 191.564,371.571 L 296.379,371.571 L 282.783,256.291 L 295.844,256.291 L 295.844,243.786 L 311.315,243.786 L 311.315,256.291 L 325.138,256.291 L 325.138,244.075 L 340.588,244.075 L 340.588,256.291 L 351.671,256.291 L 377.298,285.853 L 259.793,418.108"
   style="fill:#f7c240"
   id="path61" />
<polyline
   fill="#F7C240"
   points="358.985,122.47 358.985,89.653 375.98,89.653 375.98,104.424 391.204,104.424 391.204,89.653   408.199,89.653 408.199,104.424 423.155,104.424 423.155,89.962 440.315,89.962 440.315,122.47 358.985,122.47 "
   id="polyline63"
   style="fill:#f7c240" />
<path
   d="M 369.491,442.54 C 369.491,442.54 369.491,387.599 369.491,387.578 C 369.512,377.031 375.939,357.089 400.062,357.089 C 424.185,357.089 430.633,377.03 430.674,387.599 L 430.674,442.622 L 430.633,442.437 C 461.904,449.812 478.879,466.23 478.879,466.23 C 487.613,452.531 498.161,441.633 509.615,433.434 L 400.042,310.12 L 290.467,433.414 C 301.921,441.592 312.468,452.511 321.285,466.23 C 321.285,466.23 338.157,449.894 369.325,442.478 L 369.491,442.54"
   style="fill:#f7c240"
   id="path65" />
<path
   d="M 377.525,440.871 L 377.525,386.939 C 377.546,384.755 379.09,365.247 400.062,365.247 C 421.054,365.247 422.599,384.755 422.62,386.98 C 422.62,386.938 422.62,440.871 422.62,440.871 L 422.558,440.809 C 415.636,439.635 408.076,438.934 399.959,438.934 L 400.186,438.934 C 392.007,438.934 384.406,439.635 377.422,440.85 L 377.525,440.871"
   style="fill:#f7c240"
   id="path67" />
<path
   d="M 286.492,363.496 L 202.359,363.496 L 216.511,246.506 L 272.956,246.506 L 286.492,363.496 M 258.619,286.594 L 248.752,286.594 L 248.752,272.853 L 240.491,272.853 L 240.491,286.594 L 230.355,286.594 L 230.355,294.731 L 240.491,294.731 L 240.491,316.382 L 248.752,316.382 L 248.752,294.731 L 258.619,294.731 L 258.619,286.594 z "
   style="fill:#f7c240"
   id="path69" />
<path
   d="M 527.167,246.505 L 583.633,246.505 L 597.785,363.495 L 513.673,363.495 L 527.167,246.505 M 568.657,286.594 L 558.748,286.594 L 558.748,272.853 L 550.528,272.853 L 550.528,286.594 L 540.393,286.594 L 540.393,294.731 L 550.528,294.731 L 550.528,316.382 L 558.748,316.382 L 558.748,294.731 L 568.657,294.731 L 568.657,286.594 z "
   style="fill:#f7c240"
   id="path71" />
<path
   d="M 356.306,210.949 L 372.457,130.195 L 427.645,130.195 L 444.001,211.237 L 400.226,260.163 L 356.306,210.949 M 414.4,165.525 L 404.533,165.525 L 404.533,151.784 L 396.313,151.784 L 396.313,165.525 L 386.157,165.525 L 386.157,173.683 L 396.313,173.683 L 396.313,195.314 L 404.533,195.314 L 404.533,173.683 L 414.4,173.683 L 414.4,165.525 z "
   style="fill:#f7c240"
   id="path73" />
</svg>