<?xml version="1.0" encoding="iso-8859-1"?>
<!-- Generator: Adobe Illustrator 16.0.0, SVG Export Plug-In . SVG Version: 6.00 Build 0)  -->
<!DOCTYPE svg PUBLIC "-//W3C//DTD SVG 1.1//EN" "http://www.w3.org/Graphics/SVG/1.1/DTD/svg11.dtd">
<svg version="1.1" id="Layer_1" xmlns="http://www.w3.org/2000/svg" xmlns:xlink="http://www.w3.org/1999/xlink" x="0px" y="0px"
	 width="32.011px" height="25.831px" viewBox="0 0 32.011 25.831" style="enable-background:new 0 0 32.011 25.831;"
	 xml:space="preserve">
<g>
	<path d="M3.316,9.236L2.898,9.235v4.376L2.48,13.61V9.235L2.029,9.236v4.402H1.613V9.236h-0.48v4.402H0.715V9.236H0.334
		L0.012,12.96c0,0-0.012,0.141-0.012,0.193c0,0.574,0.266,1.088,0.682,1.422c1.373,1.549,0.436,3.129,0.436,3.504
		c0.002,0.416,0.002,6.812,0.002,6.812c0,0.005-0.002,0.009-0.002,0.015c0,0.392,0.318,0.709,0.711,0.709
		c0.391,0,0.709-0.318,0.709-0.709c0-0.006-0.002-0.01-0.002-0.014h0.002c0,0,0-6.316,0-6.799c0-0.436-0.793-2.253,0.531-3.604
		c0-0.002,0.004-0.006,0.006-0.008c0.322-0.306,0.535-0.728,0.568-1.201c0.002-0.033,0-0.117,0-0.117L3.316,9.236z"/>
	<circle cx="25.664" cy="3.583" r="3.583"/>
	<path d="M14.012,6.362c-5.376,0-9.734,4.358-9.734,9.734s4.358,9.734,9.734,9.734s9.735-4.358,9.735-9.734
		S19.388,6.362,14.012,6.362z M13.904,22.334c-3.375,0-6.111-2.735-6.111-6.111c0-3.375,2.736-6.111,6.111-6.111
		c3.376,0,6.111,2.736,6.111,6.111C20.016,19.599,17.28,22.334,13.904,22.334z"/>
	<path d="M26.571,8.447l-0.336-0.003c0,0-1.783,1.065-1.781,8.965c1.449,0.398,0.838,1.982,0.729,2.184
		c0,0.402,0.031,4.533,0.031,4.533l0.004-0.002c-0.002,0.005-0.004,0.009-0.002,0.014c-0.002,0.38,0.307,0.687,0.684,0.685
		c0.377,0.001,0.686-0.308,0.684-0.686c0.002-0.003,0.002-0.008,0-0.011l0.002-0.003c0,0,0-4.652-0.002-5.115
		C26.585,18.586,26.571,8.447,26.571,8.447z"/>
	<path d="M32.011,11.488c0-1.573-0.852-3.018-2.36-3.043V8.444c-0.007,0-0.032,0-0.038,0c0,0,0,0.001,0,0.002
		c-1.51,0.024-2.361,1.469-2.361,3.042c0,1.583,0.953,2.713,1.783,2.963c0.453,0.639,0.154,2.145-0.166,3.014
		c0,0.416,0,6.784,0,6.784h0.001c-0.001,0.004-0.001,0.009-0.001,0.013c0,0.391,0.315,0.708,0.705,0.708
		c0.021,0,0.096-0.002,0.115,0c0.39-0.002,0.707-0.317,0.707-0.708c0-0.004-0.002-0.009-0.002-0.013h0.002c0,0,0-6.368,0-6.784
		c-0.322-0.869-0.621-2.375-0.168-3.013C31.059,14.201,32.011,13.071,32.011,11.488z M28.862,13.838
		c-0.094-0.072-0.213-0.188-0.34-0.342s-0.26-0.342-0.385-0.56c-0.061-0.109-0.119-0.226-0.172-0.35
		c-0.051-0.129-0.093-0.253-0.121-0.4c-0.052-0.282-0.043-0.553-0.014-0.801c0.027-0.249,0.081-0.476,0.14-0.664
		c0.058-0.189,0.124-0.343,0.178-0.447c0.054-0.106,0.097-0.156,0.097-0.156s-0.01,0.068-0.014,0.18
		c-0.004,0.112-0.009,0.272-0.016,0.465c-0.004,0.377-0.035,0.893,0.035,1.349c0.014,0.107,0.051,0.229,0.088,0.337
		c0.035,0.114,0.076,0.227,0.121,0.334c0.085,0.218,0.176,0.418,0.256,0.592c0.08,0.171,0.15,0.315,0.205,0.412
		c0.053,0.1,0.102,0.142,0.105,0.138C29.026,13.93,28.954,13.912,28.862,13.838z"/>
	<path d="M8.729,4.209c0.004,0,0.007-0.001,0.011-0.002L8.739,4.209c0,0,4.245,0,4.584,0c0.711-0.264,1.942-0.508,2.463-0.137
		c0.206,0.678,1.129,1.457,2.424,1.457c1.284,0,2.145-0.695,2.165-1.93h0.001c0-0.005,0-0.025,0-0.031h-0.001
		c-0.021-1.233-0.881-1.93-2.165-1.93c-1.294,0-2.218,0.779-2.424,1.459c-0.521,0.37-1.752,0.125-2.463-0.138
		c-0.339,0-4.584,0-4.584,0L8.74,2.961c-0.004,0-0.008-0.001-0.012,0C8.41,2.96,8.152,3.219,8.152,3.537
		c0,0.017,0,0.078-0.001,0.094C8.152,3.949,8.41,4.209,8.729,4.209z M16.523,3.249c0.022-0.108,0.062-0.198,0.088-0.253
		c0.033-0.066,0.056-0.109,0.056-0.109c0.012-0.02,0.036-0.028,0.06-0.018c0.023,0.012,0.036,0.032,0.032,0.053
		c-0.001,0.002-0.015,0.057-0.025,0.113c-0.014,0.055-0.016,0.131-0.021,0.232c-0.004,0.089,0.001,0.199,0.013,0.326
		c0.004,0.056,0.012,0.115,0.024,0.175c0.01,0.052,0.025,0.115,0.046,0.162c0.099,0.215,0.257,0.418,0.373,0.565
		c0.022,0.027,0.046,0.057,0.066,0.084c0.029,0.035,0.056,0.067,0.079,0.09c0.034,0.037,0.059,0.055,0.059,0.056
		c0.019,0.011,0.026,0.034,0.02,0.052s-0.027,0.027-0.05,0.025c-0.004-0.001-0.032-0.006-0.075-0.025
		c-0.01-0.004-0.021-0.01-0.032-0.017L17.217,4.75c-0.053-0.03-0.124-0.072-0.196-0.134c-0.225-0.188-0.382-0.38-0.476-0.588
		C16.518,3.955,16.5,3.89,16.488,3.814c-0.007-0.067-0.011-0.135-0.011-0.205C16.48,3.469,16.503,3.343,16.523,3.249z"/>
</g>
<g>
</g>
<g>
</g>
<g>
</g>
<g>
</g>
<g>
</g>
<g>
</g>
<g>
</g>
<g>
</g>
<g>
</g>
<g>
</g>
<g>
</g>
<g>
</g>
<g>
</g>
<g>
</g>
<g>
</g>
</svg>
